%
M48
M72
T01C0.0200
T02C0.0394
T03C0.0400
T04C0.0520
T05C0.0591
T06C0.1102
%
T01
X8416Y8160
X5226Y9120
X8826Y12920
X8746Y15012
X10986Y15052
X8819Y18092
X11419Y19252
X10979Y20492
X11979Y20492
X17586Y20932
X18026Y22172
X23786Y22812
X24746Y20392
X26146Y20382
X26386Y17172
X27426Y17372
X29226Y16292
X30266Y17212
X27386Y15972
X25146Y16932
X22106Y14532
X20026Y13772
X16706Y12772
X18986Y9412
X21306Y6572
X24586Y9732
X25946Y11252
X33306Y9480
X33506Y15012
X33266Y20852
X33986Y20852
X20266Y17652
T02
X32040Y13855
X33040Y13855
X34040Y13855
X27094Y7581
X27094Y6581
X27094Y5581
T03
X29653Y5570
X29653Y6570
X29693Y7646
X29693Y8646
X31859Y8343
X31859Y7343
X31859Y9343
X11943Y9480
X11943Y8480
X5401Y20748
X5401Y21748
T04
X11951Y12914
X11943Y10949
X19260Y8140
X22687Y16027
T05
X20244Y16414
X18276Y16414
X16307Y16414
X13748Y9131
X13748Y7162
X13748Y5194
X27331Y10705
X29299Y10705
X31268Y10705
T06
X5874Y5981
X5874Y18579
X29496Y18973
X33433Y5981
M30
