G75*
G70*
%OFA0B0*%
%FSLAX24Y24*%
%IPPOS*%
%LPD*%
%AMOC8*
5,1,8,0,0,1.08239X$1,22.5*
%
%ADD10C,0.0039*%
%ADD11R,0.0513X0.0474*%
%ADD12R,0.0474X0.0513*%
%ADD13R,0.0631X0.0474*%
%ADD14R,0.0474X0.0631*%
%ADD15R,0.0592X0.0710*%
%ADD16R,0.0671X0.1222*%
%ADD17C,0.1080*%
%ADD18R,0.0710X0.0592*%
%ADD19C,0.0780*%
%ADD20R,0.0493X0.0505*%
%ADD21R,0.1222X0.0671*%
%ADD22R,0.0880X0.0340*%
%ADD23C,0.0680*%
%ADD24C,0.0474*%
%ADD25OC8,0.0930*%
%ADD26C,0.2180*%
%ADD27R,0.0790X0.0710*%
%ADD28C,0.0440*%
D10*
X004156Y004012D02*
X035152Y004012D01*
X035182Y004014D01*
X035212Y004019D01*
X035241Y004028D01*
X035268Y004041D01*
X035294Y004056D01*
X035318Y004075D01*
X035339Y004096D01*
X035358Y004120D01*
X035373Y004146D01*
X035386Y004173D01*
X035395Y004202D01*
X035400Y004232D01*
X035402Y004262D01*
X035402Y023448D01*
X035400Y023478D01*
X035395Y023508D01*
X035386Y023537D01*
X035373Y023564D01*
X035358Y023590D01*
X035339Y023614D01*
X035318Y023635D01*
X035294Y023654D01*
X035268Y023669D01*
X035241Y023682D01*
X035212Y023691D01*
X035182Y023696D01*
X035152Y023698D01*
X004156Y023698D01*
X004126Y023696D01*
X004096Y023691D01*
X004067Y023682D01*
X004040Y023669D01*
X004014Y023654D01*
X003990Y023635D01*
X003969Y023614D01*
X003950Y023590D01*
X003935Y023564D01*
X003922Y023537D01*
X003913Y023508D01*
X003908Y023478D01*
X003906Y023448D01*
X003906Y004262D01*
X003908Y004232D01*
X003913Y004202D01*
X003922Y004173D01*
X003935Y004146D01*
X003950Y004120D01*
X003969Y004096D01*
X003990Y004075D01*
X004014Y004056D01*
X004040Y004041D01*
X004067Y004028D01*
X004096Y004019D01*
X004126Y004014D01*
X004156Y004012D01*
D11*
X018473Y009417D03*
X018473Y010086D03*
X020051Y012616D03*
X020051Y013285D03*
X020835Y013285D03*
X020835Y012616D03*
X022213Y012616D03*
X022213Y013285D03*
X022213Y011631D03*
X022213Y010961D03*
X024575Y008807D03*
X024575Y008138D03*
X025756Y011826D03*
X025756Y012495D03*
X026780Y012495D03*
X026780Y011826D03*
X026777Y015292D03*
X026777Y015961D03*
X025916Y015961D03*
X025916Y015292D03*
X025166Y017494D03*
X025166Y018164D03*
X024181Y018164D03*
X024181Y017494D03*
X023197Y017494D03*
X023197Y018164D03*
X020835Y018324D03*
X020835Y017654D03*
X018876Y019018D03*
X018876Y019687D03*
X017596Y019703D03*
X017596Y020372D03*
X020441Y021511D03*
X020441Y022181D03*
X022803Y022341D03*
X022803Y021671D03*
X023788Y021671D03*
X024772Y021671D03*
X024772Y022341D03*
X023788Y022341D03*
X027445Y018551D03*
X027445Y017882D03*
X031465Y018835D03*
X031465Y019505D03*
X032926Y019505D03*
X032926Y018835D03*
X033310Y008992D03*
X033310Y008322D03*
X012442Y014370D03*
X011499Y014385D03*
X011499Y015054D03*
X012442Y015039D03*
X010011Y017110D03*
X010011Y017779D03*
X010008Y021001D03*
X010008Y021670D03*
X010992Y021670D03*
X010992Y021001D03*
X011977Y021001D03*
X011977Y021670D03*
X009024Y021670D03*
X009024Y021001D03*
D12*
X011445Y018776D03*
X012114Y018776D03*
X012114Y017792D03*
X011445Y017792D03*
X013770Y020745D03*
X014440Y020745D03*
X022666Y014526D03*
X023335Y014526D03*
X016368Y010745D03*
X015699Y010745D03*
X015505Y011886D03*
X016175Y011886D03*
X016175Y012754D03*
X015505Y012754D03*
X021525Y009681D03*
X022194Y009681D03*
X021523Y008156D03*
X020854Y008156D03*
X030816Y017195D03*
X031486Y017195D03*
X033345Y017201D03*
X034014Y017201D03*
X029397Y021182D03*
X028728Y021182D03*
X031524Y022320D03*
X032193Y022320D03*
D13*
X026780Y014426D03*
X025914Y014052D03*
X026780Y013678D03*
X017291Y010095D03*
X016425Y009721D03*
X017291Y009347D03*
X010211Y010968D03*
X009345Y011342D03*
X010211Y011716D03*
X013758Y017812D03*
X014625Y018186D03*
X013758Y018560D03*
X012922Y021669D03*
X013788Y022043D03*
X012922Y022417D03*
D14*
X020067Y019691D03*
X020815Y019691D03*
X020441Y020557D03*
X023807Y019524D03*
X024555Y019524D03*
X024181Y020390D03*
X026406Y021255D03*
X027154Y021255D03*
X026780Y020389D03*
X033256Y021453D03*
X034004Y021453D03*
X033630Y022319D03*
X020815Y011335D03*
X020067Y011335D03*
X020441Y010469D03*
X014375Y012753D03*
X013627Y012753D03*
X014001Y011887D03*
D15*
X010171Y012917D03*
X009384Y012917D03*
X007612Y011342D03*
X006825Y011342D03*
X007392Y015012D03*
X008179Y015012D03*
X011364Y016411D03*
X012151Y016411D03*
X013742Y016411D03*
X014529Y016411D03*
X014579Y019564D03*
X013791Y019564D03*
X016672Y022172D03*
X017459Y022172D03*
X028709Y022320D03*
X029496Y022320D03*
X029299Y012477D03*
X028512Y012477D03*
X022659Y006572D03*
X021872Y006572D03*
D16*
X017292Y007162D03*
X016110Y007162D03*
X032329Y015904D03*
X033510Y015904D03*
X010011Y019013D03*
X008830Y019013D03*
D17*
X016307Y016414D03*
X018276Y016414D03*
X020244Y016414D03*
X027331Y010705D03*
X029299Y010705D03*
X031268Y010705D03*
X013748Y009131D03*
X013748Y007162D03*
X013748Y005194D03*
D18*
X020835Y014249D03*
X020835Y015036D03*
X022056Y017515D03*
X022056Y018303D03*
X024338Y015313D03*
X024338Y014526D03*
X026384Y017743D03*
X026384Y018530D03*
X029226Y015766D03*
X029226Y014979D03*
X033981Y018736D03*
X033981Y019524D03*
X031465Y020351D03*
X031465Y021138D03*
X021622Y021532D03*
X021622Y022320D03*
X017608Y018619D03*
X017608Y017832D03*
X008040Y020942D03*
X008040Y021729D03*
D19*
X026744Y007581D02*
X027444Y007581D01*
X027444Y006581D02*
X026744Y006581D01*
X026744Y005581D02*
X027444Y005581D01*
X032040Y013505D02*
X032040Y014205D01*
X033040Y014205D02*
X033040Y013505D01*
X034040Y013505D02*
X034040Y014205D01*
D20*
X024329Y013264D03*
X023640Y013264D03*
D21*
X023591Y010902D03*
X023591Y009721D03*
X024575Y006778D03*
X024575Y005597D03*
X018473Y012083D03*
X018473Y013264D03*
X015520Y013855D03*
X015520Y015036D03*
D22*
X008429Y010124D03*
X008429Y009624D03*
X008429Y009124D03*
X008429Y008624D03*
X006009Y008624D03*
X006009Y009124D03*
X006009Y009624D03*
X006009Y010124D03*
D23*
X011643Y009480D02*
X012243Y009480D01*
X012243Y008480D02*
X011643Y008480D01*
X005701Y020748D02*
X005101Y020748D01*
X005101Y021748D02*
X005701Y021748D01*
X029393Y008646D02*
X029993Y008646D01*
X029993Y007646D02*
X029393Y007646D01*
X029353Y006570D02*
X029953Y006570D01*
X029953Y005570D02*
X029353Y005570D01*
X031559Y007343D02*
X032159Y007343D01*
X032159Y008343D02*
X031559Y008343D01*
X031559Y009343D02*
X032159Y009343D01*
D24*
X033028Y012440D03*
X027725Y012477D03*
X027094Y008423D03*
X023394Y008156D03*
X023197Y005597D03*
X017292Y008343D03*
X018473Y011296D03*
X018473Y014249D03*
X015270Y016395D03*
X014142Y015036D03*
X013617Y013606D03*
X008400Y011342D03*
X006037Y011342D03*
X006281Y021270D03*
X023197Y018813D03*
X023788Y020942D03*
X028725Y021680D03*
X030481Y022320D03*
X031465Y018186D03*
X032926Y018029D03*
X033981Y018029D03*
D25*
X022687Y016027D03*
X011951Y012914D03*
X011943Y010949D03*
X019260Y008140D03*
D26*
X005874Y005981D03*
X005874Y018579D03*
X029496Y018973D03*
X033433Y005981D03*
D27*
X006922Y020615D03*
X006922Y021735D03*
D28*
X010979Y020492D03*
X011979Y020492D03*
X011419Y019252D03*
X008819Y018092D03*
X008746Y015012D03*
X010986Y015052D03*
X008826Y012920D03*
X005226Y009120D03*
X008416Y008160D03*
X016706Y012772D03*
X020026Y013772D03*
X022106Y014532D03*
X025146Y016932D03*
X026386Y017172D03*
X027426Y017372D03*
X029226Y016292D03*
X030266Y017212D03*
X027386Y015972D03*
X033506Y015012D03*
X025946Y011252D03*
X024586Y009732D03*
X021306Y006572D03*
X018986Y009412D03*
X020266Y017652D03*
X024746Y020392D03*
X026146Y020382D03*
X023786Y022812D03*
X018026Y022172D03*
X017586Y020932D03*
X033266Y020852D03*
X033986Y020852D03*
X033306Y009480D03*
M02*
