G75*
G70*
%OFA0B0*%
%FSLAX24Y24*%
%IPPOS*%
%LPD*%
%AMOC8*
5,1,8,0,0,1.08239X$1,22.5*
%
%ADD10C,0.0039*%
%ADD11C,0.0030*%
%ADD12C,0.1000*%
%ADD13OC8,0.1000*%
%ADD14C,0.1181*%
%ADD15C,0.0700*%
%ADD16C,0.0200*%
D10*
X003917Y004364D02*
X003917Y024049D01*
X031476Y024049D01*
X031476Y004364D01*
X003917Y004364D01*
D11*
X005175Y018159D02*
X005113Y018221D01*
X005113Y018468D01*
X005175Y018529D01*
X005298Y018529D01*
X005360Y018468D01*
X005360Y018344D01*
X005298Y018282D01*
X005298Y018406D01*
X005175Y018406D01*
X005175Y018282D01*
X005298Y018282D01*
X005360Y018221D02*
X005298Y018159D01*
X005175Y018159D01*
X005482Y018159D02*
X005728Y018406D01*
X005728Y018468D01*
X005667Y018529D01*
X005543Y018529D01*
X005482Y018468D01*
X005850Y018468D02*
X005850Y018221D01*
X006097Y018468D01*
X006097Y018221D01*
X006035Y018159D01*
X005912Y018159D01*
X005850Y018221D01*
X005728Y018159D02*
X005482Y018159D01*
X005850Y018468D02*
X005912Y018529D01*
X006035Y018529D01*
X006097Y018468D01*
X006218Y018406D02*
X006342Y018529D01*
X006342Y018159D01*
X006465Y018159D02*
X006218Y018159D01*
X006587Y018159D02*
X006833Y018159D01*
X006710Y018159D02*
X006710Y018529D01*
X006587Y018406D01*
X006648Y018946D02*
X006587Y019008D01*
X006587Y019131D01*
X006648Y019193D01*
X006772Y019193D01*
X006833Y019131D01*
X006833Y019008D01*
X006772Y018946D01*
X006648Y018946D01*
X006465Y018946D02*
X006218Y018946D01*
X006465Y019193D01*
X006218Y019193D01*
X006097Y019193D02*
X005850Y018946D01*
X006097Y018946D01*
X006097Y019193D02*
X005850Y019193D01*
X005728Y019131D02*
X005728Y019070D01*
X005482Y019070D01*
X005482Y019131D02*
X005543Y019193D01*
X005667Y019193D01*
X005728Y019131D01*
X005667Y018946D02*
X005543Y018946D01*
X005482Y019008D01*
X005482Y019131D01*
X005360Y019131D02*
X005298Y019070D01*
X005113Y019070D01*
X005113Y018946D02*
X005113Y019317D01*
X005298Y019317D01*
X005360Y019255D01*
X005360Y019131D01*
X005237Y019070D02*
X005360Y018946D01*
X005298Y019734D02*
X005175Y019734D01*
X005113Y019795D01*
X005175Y019919D02*
X005298Y019919D01*
X005360Y019857D01*
X005360Y019795D01*
X005298Y019734D01*
X005482Y019795D02*
X005543Y019734D01*
X005728Y019734D01*
X005728Y019981D01*
X005850Y019981D02*
X006035Y019981D01*
X006097Y019919D01*
X006097Y019795D01*
X006035Y019734D01*
X005850Y019734D01*
X005850Y019610D02*
X005850Y019981D01*
X005482Y019981D02*
X005482Y019795D01*
X005360Y020042D02*
X005298Y020104D01*
X005175Y020104D01*
X005113Y020042D01*
X005113Y019981D01*
X005175Y019919D01*
X006218Y019919D02*
X006218Y019795D01*
X006280Y019734D01*
X006403Y019734D01*
X006465Y019857D02*
X006218Y019857D01*
X006218Y019919D02*
X006280Y019981D01*
X006403Y019981D01*
X006465Y019919D01*
X006465Y019857D01*
X006587Y019857D02*
X006710Y019981D01*
X006772Y019981D01*
X006893Y019919D02*
X007017Y019919D01*
X006893Y020104D02*
X007140Y020104D01*
X007262Y019981D02*
X007262Y019795D01*
X007324Y019734D01*
X007509Y019734D01*
X007509Y019981D01*
X007630Y019981D02*
X007877Y019981D01*
X007630Y019734D01*
X007877Y019734D01*
X007998Y019734D02*
X008245Y019734D01*
X008245Y019981D02*
X007998Y019734D01*
X007998Y019981D02*
X008245Y019981D01*
X007385Y019378D02*
X007385Y019317D01*
X007385Y019193D02*
X007385Y018946D01*
X007323Y018946D02*
X007447Y018946D01*
X007569Y019008D02*
X007630Y018946D01*
X007816Y018946D01*
X007937Y018946D02*
X008122Y018946D01*
X008184Y019008D01*
X008122Y019070D01*
X007999Y019070D01*
X007937Y019131D01*
X007999Y019193D01*
X008184Y019193D01*
X007816Y019193D02*
X007630Y019193D01*
X007569Y019131D01*
X007569Y019008D01*
X007385Y019193D02*
X007323Y019193D01*
X007202Y019131D02*
X007202Y018946D01*
X007202Y019131D02*
X007140Y019193D01*
X006955Y019193D01*
X006955Y018946D01*
X006893Y019734D02*
X006893Y020104D01*
X006587Y019981D02*
X006587Y019734D01*
D12*
X007264Y021128D03*
X005295Y021128D03*
X007429Y023065D03*
X011429Y023065D03*
X012775Y023097D03*
X014122Y023065D03*
X014980Y021864D03*
X016480Y021864D03*
X017740Y021159D03*
X019772Y019951D03*
X019862Y021081D03*
X022027Y020325D03*
X023571Y020309D03*
X025571Y018963D03*
X027146Y018963D03*
X028720Y019097D03*
X030268Y018857D03*
X027571Y020309D03*
X028720Y023097D03*
X030295Y023081D03*
X021256Y016175D03*
X019634Y014601D03*
X020090Y013026D03*
X019500Y011648D03*
X020059Y010286D03*
X018484Y010089D03*
X017016Y010270D03*
X015516Y010270D03*
X014185Y010270D03*
X014185Y011648D03*
X015500Y011648D03*
X016090Y013026D03*
X014972Y013813D03*
X013531Y014994D03*
X012020Y014994D03*
X012153Y016175D03*
X010520Y016569D03*
X011563Y017553D03*
X012775Y019097D03*
X011216Y021294D03*
X015563Y017553D03*
X016153Y016175D03*
X017531Y014994D03*
X017740Y017159D03*
X023634Y014601D03*
X025571Y014963D03*
X027146Y014963D03*
X028720Y015372D03*
X030268Y014857D03*
X030523Y013420D03*
X030130Y011254D03*
X030130Y009679D03*
X030130Y008301D03*
X026130Y008301D03*
X024799Y008498D03*
X026130Y009679D03*
X026130Y011254D03*
X026523Y013420D03*
X020059Y008286D03*
X020878Y007120D03*
X022193Y006923D03*
X022193Y005349D03*
X020878Y005349D03*
X016878Y005349D03*
X016878Y007120D03*
X012201Y008695D03*
X010185Y010270D03*
X008838Y010892D03*
X010185Y011648D03*
X010972Y013813D03*
X008020Y014994D03*
X006673Y014632D03*
X009020Y016569D03*
X007264Y017128D03*
X005295Y017128D03*
X005295Y011286D03*
X006673Y010632D03*
X006838Y009290D03*
X005295Y007286D03*
X008838Y006892D03*
X026193Y006923D03*
X026193Y005349D03*
X018122Y023065D03*
D13*
X019862Y023081D03*
X016085Y020259D03*
X016085Y018759D03*
X014585Y018759D03*
X010573Y019681D03*
X009073Y019681D03*
X009073Y018181D03*
X009216Y021294D03*
X009392Y013579D03*
X007892Y013579D03*
X007892Y012079D03*
X010201Y008695D03*
X006838Y007290D03*
X018484Y008089D03*
X022799Y008498D03*
X024549Y010504D03*
X024549Y012004D03*
X023049Y012004D03*
X024352Y015819D03*
X024352Y017319D03*
X022852Y017319D03*
X022027Y018325D03*
X019772Y017951D03*
X019256Y016175D03*
X028720Y017372D03*
X030295Y021081D03*
X029273Y006886D03*
X029273Y005386D03*
X027773Y005386D03*
D14*
X014992Y005534D03*
X013023Y005534D03*
X011055Y005534D03*
X022421Y022868D03*
X024390Y022868D03*
X026358Y022868D03*
D15*
X021984Y012845D02*
X021284Y012845D01*
X021284Y011845D02*
X021984Y011845D01*
X021984Y010845D02*
X021284Y010845D01*
X016335Y009045D02*
X016335Y008345D01*
X015335Y008345D02*
X015335Y009045D01*
X014335Y009045D02*
X014335Y008345D01*
X009429Y005896D02*
X009429Y005196D01*
X008445Y005196D02*
X008445Y005896D01*
X007460Y005896D02*
X007460Y005196D01*
X006232Y005136D02*
X006232Y005836D01*
X005232Y005836D02*
X005232Y005136D01*
X004945Y012632D02*
X005645Y012632D01*
X005645Y013616D02*
X004945Y013616D01*
X004945Y014797D02*
X005645Y014797D01*
X005645Y015782D02*
X004945Y015782D01*
X004992Y022518D02*
X004992Y023218D01*
X005992Y023218D02*
X005992Y022518D01*
D16*
X012775Y021966D02*
X012912Y021829D01*
X013577Y021164D01*
X013583Y021159D01*
X017740Y021159D01*
X017707Y022074D02*
X018197Y022074D01*
X018757Y021514D01*
X018757Y019484D01*
X017987Y020254D01*
X016089Y020254D01*
X014417Y020254D01*
X013577Y019414D01*
X013577Y017454D01*
X014557Y016474D01*
X014557Y014654D01*
X012877Y012974D01*
X012877Y011364D01*
X013972Y010270D01*
X014185Y010270D01*
X012413Y010270D01*
X011617Y009474D01*
X009727Y009474D01*
X007907Y007654D01*
X007907Y010734D01*
X006717Y011924D01*
X006717Y012624D01*
X005691Y013650D01*
X006673Y014632D01*
X005523Y015782D01*
X005295Y015782D01*
X005691Y013650D02*
X005657Y013616D01*
X005295Y013616D01*
X007907Y007654D02*
X007907Y006954D01*
X007460Y006508D01*
X007460Y005546D01*
X014185Y011648D02*
X014351Y011648D01*
X015047Y012344D01*
X015957Y012344D01*
X016167Y012134D01*
X017777Y012134D01*
X017987Y012344D01*
X019457Y013814D01*
X020647Y013814D01*
X020927Y013534D01*
X024567Y013534D01*
X025571Y014538D01*
X025571Y014963D01*
X027146Y016538D01*
X027146Y018963D01*
X027927Y019953D02*
X027571Y020309D01*
X027927Y019953D02*
X027927Y015074D01*
X028067Y014934D01*
X028067Y013317D01*
X030130Y011254D01*
X030130Y009679D02*
X027508Y009679D01*
X026130Y008301D01*
X021634Y011845D02*
X020447Y011845D01*
X019947Y012344D01*
X017987Y012344D01*
X019247Y018994D02*
X018757Y019484D01*
X019247Y018994D02*
X020367Y018994D01*
X020647Y019274D01*
X024147Y019274D01*
X026387Y021514D01*
X027647Y021514D01*
X028720Y022588D01*
X028720Y023097D01*
X017707Y022074D02*
X017077Y022704D01*
X014483Y022704D01*
X014122Y023065D01*
X012775Y023097D02*
X012775Y021966D01*
X016085Y020259D02*
X016089Y020254D01*
M02*
