G75*
G70*
%OFA0B0*%
%FSLAX24Y24*%
%IPPOS*%
%LPD*%
%AMOC8*
5,1,8,0,0,1.08239X$1,22.5*
%
%ADD10C,0.1080*%
%ADD11OC8,0.1080*%
%ADD12C,0.1261*%
%ADD13C,0.0780*%
D10*
X005295Y007286D03*
X006838Y009290D03*
X006673Y010632D03*
X005295Y011286D03*
X008838Y010892D03*
X010185Y010270D03*
X010185Y011648D03*
X010972Y013813D03*
X012020Y014994D03*
X012153Y016175D03*
X010520Y016569D03*
X011563Y017553D03*
X012775Y019097D03*
X011216Y021294D03*
X011429Y023065D03*
X012775Y023097D03*
X014122Y023065D03*
X014980Y021864D03*
X016480Y021864D03*
X017740Y021159D03*
X019772Y019951D03*
X019862Y021081D03*
X022027Y020325D03*
X023571Y020309D03*
X025571Y018963D03*
X027146Y018963D03*
X028720Y019097D03*
X030268Y018857D03*
X027571Y020309D03*
X028720Y023097D03*
X030295Y023081D03*
X021256Y016175D03*
X019634Y014601D03*
X020090Y013026D03*
X019500Y011648D03*
X020059Y010286D03*
X018484Y010089D03*
X017016Y010270D03*
X015516Y010270D03*
X014185Y010270D03*
X014185Y011648D03*
X015500Y011648D03*
X016090Y013026D03*
X014972Y013813D03*
X013531Y014994D03*
X016153Y016175D03*
X017531Y014994D03*
X017740Y017159D03*
X015563Y017553D03*
X009020Y016569D03*
X007264Y017128D03*
X005295Y017128D03*
X008020Y014994D03*
X006673Y014632D03*
X012201Y008695D03*
X008838Y006892D03*
X016878Y007120D03*
X016878Y005349D03*
X020878Y005349D03*
X022193Y005349D03*
X022193Y006923D03*
X020878Y007120D03*
X020059Y008286D03*
X024799Y008498D03*
X026130Y008301D03*
X026130Y009679D03*
X026130Y011254D03*
X026523Y013420D03*
X027146Y014963D03*
X028720Y015372D03*
X030268Y014857D03*
X030523Y013420D03*
X030130Y011254D03*
X030130Y009679D03*
X030130Y008301D03*
X026193Y006923D03*
X026193Y005349D03*
X023634Y014601D03*
X025571Y014963D03*
X018122Y023065D03*
X007429Y023065D03*
X007264Y021128D03*
X005295Y021128D03*
D11*
X009216Y021294D03*
X009073Y019681D03*
X010573Y019681D03*
X009073Y018181D03*
X014585Y018759D03*
X016085Y018759D03*
X016085Y020259D03*
X019772Y017951D03*
X019256Y016175D03*
X022027Y018325D03*
X022852Y017319D03*
X024352Y017319D03*
X024352Y015819D03*
X024549Y012004D03*
X023049Y012004D03*
X024549Y010504D03*
X022799Y008498D03*
X018484Y008089D03*
X010201Y008695D03*
X006838Y007290D03*
X007892Y012079D03*
X007892Y013579D03*
X009392Y013579D03*
X019862Y023081D03*
X028720Y017372D03*
X030295Y021081D03*
X029273Y006886D03*
X029273Y005386D03*
X027773Y005386D03*
D12*
X014992Y005534D03*
X013023Y005534D03*
X011055Y005534D03*
X022421Y022868D03*
X024390Y022868D03*
X026358Y022868D03*
D13*
X005232Y005836D02*
X005232Y005136D01*
X006232Y005136D02*
X006232Y005836D01*
X007460Y005896D02*
X007460Y005196D01*
X008445Y005196D02*
X008445Y005896D01*
X009429Y005896D02*
X009429Y005196D01*
X014335Y008345D02*
X014335Y009045D01*
X015335Y009045D02*
X015335Y008345D01*
X016335Y008345D02*
X016335Y009045D01*
X021284Y010845D02*
X021984Y010845D01*
X021984Y011845D02*
X021284Y011845D01*
X021284Y012845D02*
X021984Y012845D01*
X005992Y022518D02*
X005992Y023218D01*
X004992Y023218D02*
X004992Y022518D01*
X004945Y015782D02*
X005645Y015782D01*
X005645Y014797D02*
X004945Y014797D01*
X004945Y013616D02*
X005645Y013616D01*
X005645Y012632D02*
X004945Y012632D01*
M02*
