  0
SECTION
  2
HEADER
  9
$ACADVER
  1
AC1009
  9
$FILLMODE
 70
1
  9
$EXTMIN
 10
-9.9328
 20
-10.9568
 30
0.0000
  9
$EXTMAX
 10
78.8736
 20
60.9024
 30
0.0000
  0
ENDSEC
  0
SECTION
  2
TABLES
  0
TABLE
  2
LTYPE
 70
1
  0
LTYPE
  2
CONTINUOUS
 70
64
  3
Solid line
 72
65
 73
0
 40
0
  0
ENDTAB
  0
TABLE
  2
LAYER
 70
255
  0
LAYER
  2
1
 70
64
 62
22
  6
CONTINUOUS
  0
LAYER
  2
17
 70
64
 62
82
  6
CONTINUOUS
  0
ENDTAB
  0
ENDSEC
  0
SECTION
  2
BLOCKS
  0
BLOCK
  8
0
  2
RECT
 70
64
 10
0.0000
 20
0.0000
 30
0.0000
  3
RECT
  0
SOLID
  8
0
 10
-0.5000
 20
-0.5000
 30
0.0000
 11
0.5000
 21
-0.5000
 31
0.0000
 12
-0.5000
 22
0.5000
 32
0.0000
 13
0.5000
 23
0.5000
 33
0.0000
  0
ENDBLK
  8
0
  0
BLOCK
  8
0
  2
PIE
 70
64
 10
0.0000
 20
0.0000
 30
0.0000
  3
PIE
  0
POLYLINE
  8
0
 66
1
 10
0.0000
 20
0.0000
 30
0.0000
 40
0.5000
 41
0.5000
 70
0
  0
VERTEX
  8
0
 10
0.0000
 20
-0.2500
 30
0.0000
 42
1.0000
  0
VERTEX
  8
0
 10
0.0000
 20
0.2500
 30
0.0000
 42
1.0000
  0
VERTEX
  8
0
 10
0.0000
 20
-0.2500
 30
0.0000
  0
SEQEND
  8
0
  0
ENDBLK
  8
0
  0
BLOCK
  8
0
  2
OCTAGONP
 70
64
 10
0.0000
 20
0.0000
 30
0.0000
  3
OCTAGONP
  0
POLYLINE
  8
0
 66
1
 10
0.0000
 20
0.0000
 30
0.0000
 40
0.5000
 41
0.5000
 70
0
  0
VERTEX
  8
0
 10
-0.2500
 20
-0.1036
 30
0.0000
  0
VERTEX
  8
0
 10
-0.2500
 20
0.1036
 30
0.0000
  0
VERTEX
  8
0
 10
-0.1036
 20
0.2500
 30
0.0000
  0
VERTEX
  8
0
 10
0.1036
 20
0.2500
 30
0.0000
  0
VERTEX
  8
0
 10
0.2500
 20
0.1036
 30
0.0000
  0
VERTEX
  8
0
 10
0.2500
 20
-0.1036
 30
0.0000
  0
VERTEX
  8
0
 10
0.1036
 20
-0.2500
 30
0.0000
  0
VERTEX
  8
0
 10
-0.1036
 20
-0.2500
 30
0.0000
  0
VERTEX
  8
0
 10
-0.2500
 20
-0.1036
 30
0.0000
  0
VERTEX
  8
0
 10
-0.2500
 20
0.1036
 30
0.0000
  0
SEQEND
  8
0
  0
ENDBLK
  8
0
  0
BLOCK
  8
0
  2
SQUAREP
 70
64
 10
0.0000
 20
0.0000
 30
0.0000
  3
SQUAREP
  0
SOLID
  8
0
 10
-0.5000
 20
-0.5000
 30
0.0000
 11
0.5000
 21
-0.5000
 31
0.0000
 12
-0.5000
 22
0.5000
 32
0.0000
 13
0.5000
 23
0.5000
 33
0.0000
  0
ENDBLK
  8
0
  0
BLOCK
  8
0
  2
ROUNDP
 70
64
 10
0.0000
 20
0.0000
 30
0.0000
  3
ROUNDP
  0
POLYLINE
  8
0
 66
1
 10
0.0000
 20
0.0000
 30
0.0000
 40
0.5000
 41
0.5000
 70
0
  0
VERTEX
  8
0
 10
0.0000
 20
-0.2500
 30
0.0000
 42
1.0000
  0
VERTEX
  8
0
 10
0.0000
 20
0.2500
 30
0.0000
 42
1.0000
  0
VERTEX
  8
0
 10
0.0000
 20
-0.2500
 30
0.0000
  0
SEQEND
  8
0
  0
ENDBLK
  8
0
  0
BLOCK
  8
0
  2
ANNULUSP
 70
64
 10
0.0000
 20
0.0000
 30
0.0000
  3
ANNULUSP
  0
POLYLINE
  8
0
 66
1
 10
0.0000
 20
0.0000
 30
0.0000
 40
0.5000
 41
0.5000
 70
0
  0
VERTEX
  8
0
 10
0.0000
 20
-0.2500
 30
0.0000
 42
1.0000
  0
VERTEX
  8
0
 10
0.0000
 20
0.2500
 30
0.0000
 42
1.0000
  0
VERTEX
  8
0
 10
0.0000
 20
-0.2500
 30
0.0000
  0
SEQEND
  8
0
  0
ENDBLK
  8
0
  0
BLOCK
  8
0
  2
THERMALP
 70
64
 10
0.0000
 20
0.0000
 30
0.0000
  3
THERMALP
  0
POLYLINE
  8
0
 66
1
 10
0.0000
 20
0.0000
 30
0.0000
 40
0.1000
 41
0.1000
 70
0
  0
VERTEX
  8
0
 10
-0.2379
 20
0.4500
 30
0.0000
  0
VERTEX
  8
0
 10
0.2379
 20
0.4500
 30
0.0000
  0
SEQEND
  8
0
  0
POLYLINE
  8
0
 66
1
 10
0.0000
 20
0.0000
 30
0.0000
 40
0.0500
 41
0.0500
 70
0
  0
VERTEX
  8
0
 10
0.2379
 20
0.4250
 30
0.0000
 42
1.0000
  0
VERTEX
  8
0
 10
0.2379
 20
0.4750
 30
0.0000
  0
SEQEND
  8
0
  0
POLYLINE
  8
0
 66
1
 10
0.0000
 20
0.0000
 30
0.0000
 40
0.0500
 41
0.0500
 70
0
  0
VERTEX
  8
0
 10
-0.2379
 20
0.4750
 30
0.0000
 42
1.0000
  0
VERTEX
  8
0
 10
-0.2379
 20
0.4250
 30
0.0000
  0
SEQEND
  8
0
  0
POLYLINE
  8
0
 66
1
 10
0.0000
 20
0.0000
 30
0.0000
 40
0.1000
 41
0.1000
 70
0
  0
VERTEX
  8
0
 10
0.4500
 20
0.2379
 30
0.0000
  0
VERTEX
  8
0
 10
0.4500
 20
-0.2379
 30
0.0000
  0
SEQEND
  8
0
  0
POLYLINE
  8
0
 66
1
 10
0.0000
 20
0.0000
 30
0.0000
 40
0.0500
 41
0.0500
 70
0
  0
VERTEX
  8
0
 10
0.4250
 20
-0.2379
 30
0.0000
 42
1.0000
  0
VERTEX
  8
0
 10
0.4750
 20
-0.2379
 30
0.0000
  0
SEQEND
  8
0
  0
POLYLINE
  8
0
 66
1
 10
0.0000
 20
0.0000
 30
0.0000
 40
0.0500
 41
0.0500
 70
0
  0
VERTEX
  8
0
 10
0.4750
 20
0.2379
 30
0.0000
 42
1.0000
  0
VERTEX
  8
0
 10
0.4250
 20
0.2379
 30
0.0000
  0
SEQEND
  8
0
  0
POLYLINE
  8
0
 66
1
 10
0.0000
 20
0.0000
 30
0.0000
 40
0.1000
 41
0.1000
 70
0
  0
VERTEX
  8
0
 10
0.2379
 20
-0.4500
 30
0.0000
  0
VERTEX
  8
0
 10
-0.2379
 20
-0.4500
 30
0.0000
  0
SEQEND
  8
0
  0
POLYLINE
  8
0
 66
1
 10
0.0000
 20
0.0000
 30
0.0000
 40
0.0500
 41
0.0500
 70
0
  0
VERTEX
  8
0
 10
-0.2379
 20
-0.4250
 30
0.0000
 42
1.0000
  0
VERTEX
  8
0
 10
-0.2379
 20
-0.4750
 30
0.0000
  0
SEQEND
  8
0
  0
POLYLINE
  8
0
 66
1
 10
0.0000
 20
0.0000
 30
0.0000
 40
0.0500
 41
0.0500
 70
0
  0
VERTEX
  8
0
 10
0.2379
 20
-0.4750
 30
0.0000
 42
1.0000
  0
VERTEX
  8
0
 10
0.2379
 20
-0.4250
 30
0.0000
  0
SEQEND
  8
0
  0
POLYLINE
  8
0
 66
1
 10
0.0000
 20
0.0000
 30
0.0000
 40
0.1000
 41
0.1000
 70
0
  0
VERTEX
  8
0
 10
-0.4500
 20
-0.2379
 30
0.0000
  0
VERTEX
  8
0
 10
-0.4500
 20
0.2379
 30
0.0000
  0
SEQEND
  8
0
  0
POLYLINE
  8
0
 66
1
 10
0.0000
 20
0.0000
 30
0.0000
 40
0.0500
 41
0.0500
 70
0
  0
VERTEX
  8
0
 10
-0.4250
 20
0.2379
 30
0.0000
 42
1.0000
  0
VERTEX
  8
0
 10
-0.4750
 20
0.2379
 30
0.0000
  0
SEQEND
  8
0
  0
POLYLINE
  8
0
 66
1
 10
0.0000
 20
0.0000
 30
0.0000
 40
0.0500
 41
0.0500
 70
0
  0
VERTEX
  8
0
 10
-0.4750
 20
-0.2379
 30
0.0000
 42
1.0000
  0
VERTEX
  8
0
 10
-0.4250
 20
-0.2379
 30
0.0000
  0
SEQEND
  8
0
  0
ENDBLK
  8
0
  0
BLOCK
  8
0
  2
OCTAGONV
 70
64
 10
0.0000
 20
0.0000
 30
0.0000
  3
OCTAGONV
  0
POLYLINE
  8
0
 66
1
 10
0.0000
 20
0.0000
 30
0.0000
 40
0.5000
 41
0.5000
 70
0
  0
VERTEX
  8
0
 10
-0.2500
 20
-0.1036
 30
0.0000
  0
VERTEX
  8
0
 10
-0.2500
 20
0.1036
 30
0.0000
  0
VERTEX
  8
0
 10
-0.1036
 20
0.2500
 30
0.0000
  0
VERTEX
  8
0
 10
0.1036
 20
0.2500
 30
0.0000
  0
VERTEX
  8
0
 10
0.2500
 20
0.1036
 30
0.0000
  0
VERTEX
  8
0
 10
0.2500
 20
-0.1036
 30
0.0000
  0
VERTEX
  8
0
 10
0.1036
 20
-0.2500
 30
0.0000
  0
VERTEX
  8
0
 10
-0.1036
 20
-0.2500
 30
0.0000
  0
VERTEX
  8
0
 10
-0.2500
 20
-0.1036
 30
0.0000
  0
VERTEX
  8
0
 10
-0.2500
 20
0.1036
 30
0.0000
  0
SEQEND
  8
0
  0
ENDBLK
  8
0
  0
BLOCK
  8
0
  2
SQUAREV
 70
64
 10
0.0000
 20
0.0000
 30
0.0000
  3
SQUAREV
  0
SOLID
  8
0
 10
-0.5000
 20
-0.5000
 30
0.0000
 11
0.5000
 21
-0.5000
 31
0.0000
 12
-0.5000
 22
0.5000
 32
0.0000
 13
0.5000
 23
0.5000
 33
0.0000
  0
ENDBLK
  8
0
  0
BLOCK
  8
0
  2
ROUNDV
 70
64
 10
0.0000
 20
0.0000
 30
0.0000
  3
ROUNDV
  0
POLYLINE
  8
0
 66
1
 10
0.0000
 20
0.0000
 30
0.0000
 40
0.5000
 41
0.5000
 70
0
  0
VERTEX
  8
0
 10
0.0000
 20
-0.2500
 30
0.0000
 42
1.0000
  0
VERTEX
  8
0
 10
0.0000
 20
0.2500
 30
0.0000
 42
1.0000
  0
VERTEX
  8
0
 10
0.0000
 20
-0.2500
 30
0.0000
  0
SEQEND
  8
0
  0
ENDBLK
  8
0
  0
BLOCK
  8
0
  2
ANNULUSV
 70
64
 10
0.0000
 20
0.0000
 30
0.0000
  3
ANNULUSV
  0
POLYLINE
  8
0
 66
1
 10
0.0000
 20
0.0000
 30
0.0000
 40
0.5000
 41
0.5000
 70
0
  0
VERTEX
  8
0
 10
0.0000
 20
-0.2500
 30
0.0000
 42
1.0000
  0
VERTEX
  8
0
 10
0.0000
 20
0.2500
 30
0.0000
 42
1.0000
  0
VERTEX
  8
0
 10
0.0000
 20
-0.2500
 30
0.0000
  0
SEQEND
  8
0
  0
ENDBLK
  8
0
  0
BLOCK
  8
0
  2
THERMALV
 70
64
 10
0.0000
 20
0.0000
 30
0.0000
  3
THERMALV
  0
POLYLINE
  8
0
 66
1
 10
0.0000
 20
0.0000
 30
0.0000
 40
0.1000
 41
0.1000
 70
0
  0
VERTEX
  8
0
 10
-0.2379
 20
0.4500
 30
0.0000
  0
VERTEX
  8
0
 10
0.2379
 20
0.4500
 30
0.0000
  0
SEQEND
  8
0
  0
POLYLINE
  8
0
 66
1
 10
0.0000
 20
0.0000
 30
0.0000
 40
0.0500
 41
0.0500
 70
0
  0
VERTEX
  8
0
 10
0.2379
 20
0.4250
 30
0.0000
 42
1.0000
  0
VERTEX
  8
0
 10
0.2379
 20
0.4750
 30
0.0000
  0
SEQEND
  8
0
  0
POLYLINE
  8
0
 66
1
 10
0.0000
 20
0.0000
 30
0.0000
 40
0.0500
 41
0.0500
 70
0
  0
VERTEX
  8
0
 10
-0.2379
 20
0.4750
 30
0.0000
 42
1.0000
  0
VERTEX
  8
0
 10
-0.2379
 20
0.4250
 30
0.0000
  0
SEQEND
  8
0
  0
POLYLINE
  8
0
 66
1
 10
0.0000
 20
0.0000
 30
0.0000
 40
0.1000
 41
0.1000
 70
0
  0
VERTEX
  8
0
 10
0.4500
 20
0.2379
 30
0.0000
  0
VERTEX
  8
0
 10
0.4500
 20
-0.2379
 30
0.0000
  0
SEQEND
  8
0
  0
POLYLINE
  8
0
 66
1
 10
0.0000
 20
0.0000
 30
0.0000
 40
0.0500
 41
0.0500
 70
0
  0
VERTEX
  8
0
 10
0.4250
 20
-0.2379
 30
0.0000
 42
1.0000
  0
VERTEX
  8
0
 10
0.4750
 20
-0.2379
 30
0.0000
  0
SEQEND
  8
0
  0
POLYLINE
  8
0
 66
1
 10
0.0000
 20
0.0000
 30
0.0000
 40
0.0500
 41
0.0500
 70
0
  0
VERTEX
  8
0
 10
0.4750
 20
0.2379
 30
0.0000
 42
1.0000
  0
VERTEX
  8
0
 10
0.4250
 20
0.2379
 30
0.0000
  0
SEQEND
  8
0
  0
POLYLINE
  8
0
 66
1
 10
0.0000
 20
0.0000
 30
0.0000
 40
0.1000
 41
0.1000
 70
0
  0
VERTEX
  8
0
 10
0.2379
 20
-0.4500
 30
0.0000
  0
VERTEX
  8
0
 10
-0.2379
 20
-0.4500
 30
0.0000
  0
SEQEND
  8
0
  0
POLYLINE
  8
0
 66
1
 10
0.0000
 20
0.0000
 30
0.0000
 40
0.0500
 41
0.0500
 70
0
  0
VERTEX
  8
0
 10
-0.2379
 20
-0.4250
 30
0.0000
 42
1.0000
  0
VERTEX
  8
0
 10
-0.2379
 20
-0.4750
 30
0.0000
  0
SEQEND
  8
0
  0
POLYLINE
  8
0
 66
1
 10
0.0000
 20
0.0000
 30
0.0000
 40
0.0500
 41
0.0500
 70
0
  0
VERTEX
  8
0
 10
0.2379
 20
-0.4750
 30
0.0000
 42
1.0000
  0
VERTEX
  8
0
 10
0.2379
 20
-0.4250
 30
0.0000
  0
SEQEND
  8
0
  0
POLYLINE
  8
0
 66
1
 10
0.0000
 20
0.0000
 30
0.0000
 40
0.1000
 41
0.1000
 70
0
  0
VERTEX
  8
0
 10
-0.4500
 20
-0.2379
 30
0.0000
  0
VERTEX
  8
0
 10
-0.4500
 20
0.2379
 30
0.0000
  0
SEQEND
  8
0
  0
POLYLINE
  8
0
 66
1
 10
0.0000
 20
0.0000
 30
0.0000
 40
0.0500
 41
0.0500
 70
0
  0
VERTEX
  8
0
 10
-0.4250
 20
0.2379
 30
0.0000
 42
1.0000
  0
VERTEX
  8
0
 10
-0.4750
 20
0.2379
 30
0.0000
  0
SEQEND
  8
0
  0
POLYLINE
  8
0
 66
1
 10
0.0000
 20
0.0000
 30
0.0000
 40
0.0500
 41
0.0500
 70
0
  0
VERTEX
  8
0
 10
-0.4750
 20
-0.2379
 30
0.0000
 42
1.0000
  0
VERTEX
  8
0
 10
-0.4250
 20
-0.2379
 30
0.0000
  0
SEQEND
  8
0
  0
ENDBLK
  8
0
  0
BLOCK
  8
0
  2
LONGP100
 70
64
 10
0.0000
 20
0.0000
 30
0.0000
  3
LONGP100
  0
POLYLINE
  8
0
 66
1
 10
0.0000
 20
0.0000
 30
0.0000
 40
1.0000
 41
1.0000
 70
0
  0
VERTEX
  8
0
 10
-0.5000
 20
0.0000
 30
0.0000
  0
VERTEX
  8
0
 10
0.5000
 20
0.0000
 30
0.0000
  0
SEQEND
  8
0
  0
POLYLINE
  8
0
 66
1
 10
0.0000
 20
0.0000
 30
0.0000
 40
0.5000
 41
0.5000
 70
0
  0
VERTEX
  8
0
 10
0.5000
 20
-0.2500
 30
0.0000
 42
1.0000
  0
VERTEX
  8
0
 10
0.5000
 20
0.2500
 30
0.0000
  0
SEQEND
  8
0
  0
POLYLINE
  8
0
 66
1
 10
0.0000
 20
0.0000
 30
0.0000
 40
0.5000
 41
0.5000
 70
0
  0
VERTEX
  8
0
 10
-0.5000
 20
0.2500
 30
0.0000
 42
1.0000
  0
VERTEX
  8
0
 10
-0.5000
 20
-0.2500
 30
0.0000
  0
SEQEND
  8
0
  0
ENDBLK
  8
0
  0
ENDSEC
  0
SECTION
  2
ENTITIES
  0
INSERT
  8
17
  2
ROUNDP
 10
18.5400
 20
43.0000
 30
0.0000
 41
2.5400
 42
2.5400
 43
1.0000
 50
180.0000
  0
INSERT
  8
17
  2
OCTAGONP
 10
13.4600
 20
43.0000
 30
0.0000
 41
2.5400
 42
2.5400
 43
1.0000
 50
180.0000
  0
INSERT
  8
17
  2
ROUNDP
 10
28.1000
 20
44.4500
 30
0.0000
 41
2.5400
 42
2.5400
 43
1.0000
 50
0.0000
  0
INSERT
  8
17
  2
ROUNDP
 10
31.9100
 20
44.4500
 30
0.0000
 41
2.5400
 42
2.5400
 43
1.0000
 50
0.0000
  0
INSERT
  8
17
  2
ROUNDP
 10
16.7700
 20
31.0000
 30
0.0000
 41
2.5400
 42
2.5400
 43
1.0000
 50
180.0000
  0
INSERT
  8
17
  2
ROUNDP
 10
12.9600
 20
31.0000
 30
0.0000
 41
2.5400
 42
2.5400
 43
1.0000
 50
180.0000
  0
INSERT
  8
17
  2
ROUNDP
 10
40.2700
 20
39.5900
 30
0.0000
 41
2.5400
 42
2.5400
 43
1.0000
 50
270.0000
  0
INSERT
  8
17
  2
OCTAGONP
 10
40.2700
 20
34.5100
 30
0.0000
 41
2.5400
 42
2.5400
 43
1.0000
 50
270.0000
  0
INSERT
  8
17
  2
ROUNDP
 10
40.5000
 20
42.4600
 30
0.0000
 41
2.5400
 42
2.5400
 43
1.0000
 50
90.0000
  0
INSERT
  8
17
  2
OCTAGONP
 10
40.5000
 20
47.5400
 30
0.0000
 41
2.5400
 42
2.5400
 43
1.0000
 50
90.0000
  0
INSERT
  8
17
  2
ROUNDP
 10
46.0000
 20
40.5400
 30
0.0000
 41
2.5400
 42
2.5400
 43
1.0000
 50
270.0000
  0
INSERT
  8
17
  2
OCTAGONP
 10
46.0000
 20
35.4600
 30
0.0000
 41
2.5400
 42
2.5400
 43
1.0000
 50
270.0000
  0
INSERT
  8
17
  2
ROUNDP
 10
67.0000
 20
47.5400
 30
0.0000
 41
2.5400
 42
2.5400
 43
1.0000
 50
270.0000
  0
INSERT
  8
17
  2
OCTAGONP
 10
67.0000
 20
42.4600
 30
0.0000
 41
2.5400
 42
2.5400
 43
1.0000
 50
270.0000
  0
INSERT
  8
17
  2
ROUNDP
 10
63.0000
 20
27.9600
 30
0.0000
 41
2.5400
 42
2.5400
 43
1.0000
 50
90.0000
  0
INSERT
  8
17
  2
OCTAGONP
 10
63.0000
 20
33.0400
 30
0.0000
 41
2.5400
 42
2.5400
 43
1.0000
 50
90.0000
  0
INSERT
  8
17
  2
ROUNDP
 10
53.0400
 20
10.5000
 30
0.0000
 41
2.5400
 42
2.5400
 43
1.0000
 50
180.0000
  0
INSERT
  8
17
  2
OCTAGONP
 10
47.9600
 20
10.5000
 30
0.0000
 41
2.5400
 42
2.5400
 43
1.0000
 50
180.0000
  0
INSERT
  8
17
  2
ROUNDP
 10
44.0400
 20
30.0000
 30
0.0000
 41
2.5400
 42
2.5400
 43
1.0000
 50
180.0000
  0
INSERT
  8
17
  2
OCTAGONP
 10
38.9600
 20
30.0000
 30
0.0000
 41
2.5400
 42
2.5400
 43
1.0000
 50
180.0000
  0
INSERT
  8
17
  2
ROUNDP
 10
37.0000
 20
14.5400
 30
0.0000
 41
2.5400
 42
2.5400
 43
1.0000
 50
270.0000
  0
INSERT
  8
17
  2
OCTAGONP
 10
37.0000
 20
9.4600
 30
0.0000
 41
2.5400
 42
2.5400
 43
1.0000
 50
270.0000
  0
INSERT
  8
17
  2
ROUNDP
 10
33.2700
 20
15.0000
 30
0.0000
 41
2.5400
 42
2.5400
 43
1.0000
 50
180.0000
  0
INSERT
  8
17
  2
ROUNDP
 10
29.4600
 20
15.0000
 30
0.0000
 41
2.5400
 42
2.5400
 43
1.0000
 50
180.0000
  0
INSERT
  8
17
  2
ROUNDP
 10
41.0000
 20
15.0400
 30
0.0000
 41
2.5400
 42
2.5400
 43
1.0000
 50
270.0000
  0
INSERT
  8
17
  2
ROUNDP
 10
41.0000
 20
9.9600
 30
0.0000
 41
2.5400
 42
2.5400
 43
1.0000
 50
270.0000
  0
INSERT
  8
17
  2
ROUNDP
 10
21.0400
 20
11.0000
 30
0.0000
 41
2.5400
 42
2.5400
 43
1.0000
 50
180.0000
  0
INSERT
  8
17
  2
OCTAGONP
 10
15.9600
 20
11.0000
 30
0.0000
 41
2.5400
 42
2.5400
 43
1.0000
 50
180.0000
  0
INSERT
  8
17
  2
ROUNDP
 10
7.4200
 20
12.5100
 30
0.0000
 41
2.5400
 42
2.5400
 43
1.0000
 50
270.0000
  0
INSERT
  8
17
  2
OCTAGONP
 10
7.4200
 20
7.4300
 30
0.0000
 41
2.5400
 42
2.5400
 43
1.0000
 50
270.0000
  0
INSERT
  8
17
  2
ROUNDP
 10
24.4200
 20
27.0000
 30
0.0000
 41
2.5400
 42
2.5400
 43
1.0000
 50
180.0000
  0
INSERT
  8
17
  2
ROUNDP
 10
34.5800
 20
27.0000
 30
0.0000
 41
2.5400
 42
2.5400
 43
1.0000
 50
180.0000
  0
INSERT
  8
17
  2
ROUNDP
 10
28.0800
 20
24.0000
 30
0.0000
 41
2.5400
 42
2.5400
 43
1.0000
 50
0.0000
  0
INSERT
  8
17
  2
ROUNDP
 10
17.9200
 20
24.0000
 30
0.0000
 41
2.5400
 42
2.5400
 43
1.0000
 50
0.0000
  0
INSERT
  8
17
  2
LONGP100
 10
9.0000
 20
3.0000
 30
0.0000
 41
1.7780
 42
1.7780
 43
1.0000
 50
90.0000
  0
INSERT
  8
17
  2
LONGP100
 10
11.5000
 20
3.0000
 30
0.0000
 41
1.7780
 42
1.7780
 43
1.0000
 50
90.0000
  0
INSERT
  8
17
  2
LONGP100
 10
14.0000
 20
3.0000
 30
0.0000
 41
1.7780
 42
1.7780
 43
1.0000
 50
90.0000
  0
INSERT
  8
17
  2
LONGP100
 10
3.5000
 20
29.0000
 30
0.0000
 41
1.7780
 42
1.7780
 43
1.0000
 50
0.0000
  0
INSERT
  8
17
  2
LONGP100
 10
3.5000
 20
26.5000
 30
0.0000
 41
1.7780
 42
1.7780
 43
1.0000
 50
0.0000
  0
INSERT
  8
17
  2
LONGP100
 10
3.5000
 20
23.5000
 30
0.0000
 41
1.7780
 42
1.7780
 43
1.0000
 50
0.0000
  0
INSERT
  8
17
  2
LONGP100
 10
3.5000
 20
21.0000
 30
0.0000
 41
1.7780
 42
1.7780
 43
1.0000
 50
0.0000
  0
INSERT
  8
17
  2
ROUNDP
 10
19.0800
 20
47.5000
 30
0.0000
 41
2.5400
 42
2.5400
 43
1.0000
 50
180.0000
  0
INSERT
  8
17
  2
ROUNDP
 10
8.9200
 20
47.5000
 30
0.0000
 41
2.5400
 42
2.5400
 43
1.0000
 50
180.0000
  0
INSERT
  8
17
  2
ROUNDP
 10
8.5000
 20
42.5800
 30
0.0000
 41
2.5400
 42
2.5400
 43
1.0000
 50
270.0000
  0
INSERT
  8
17
  2
ROUNDP
 10
8.5000
 20
32.4200
 30
0.0000
 41
2.5400
 42
2.5400
 43
1.0000
 50
270.0000
  0
INSERT
  8
17
  2
ROUNDP
 10
3.5000
 20
42.5800
 30
0.0000
 41
2.5400
 42
2.5400
 43
1.0000
 50
270.0000
  0
INSERT
  8
17
  2
ROUNDP
 10
3.5000
 20
32.4200
 30
0.0000
 41
2.5400
 42
2.5400
 43
1.0000
 50
270.0000
  0
INSERT
  8
17
  2
ROUNDP
 10
22.5000
 20
37.4200
 30
0.0000
 41
2.5400
 42
2.5400
 43
1.0000
 50
90.0000
  0
INSERT
  8
17
  2
ROUNDP
 10
22.5000
 20
47.5800
 30
0.0000
 41
2.5400
 42
2.5400
 43
1.0000
 50
90.0000
  0
INSERT
  8
17
  2
ROUNDP
 10
25.9200
 20
47.5000
 30
0.0000
 41
2.5400
 42
2.5400
 43
1.0000
 50
0.0000
  0
INSERT
  8
17
  2
ROUNDP
 10
36.0800
 20
47.5000
 30
0.0000
 41
2.5400
 42
2.5400
 43
1.0000
 50
0.0000
  0
INSERT
  8
17
  2
ROUNDP
 10
29.5800
 20
33.5000
 30
0.0000
 41
2.5400
 42
2.5400
 43
1.0000
 50
180.0000
  0
INSERT
  8
17
  2
ROUNDP
 10
19.4200
 20
33.5000
 30
0.0000
 41
2.5400
 42
2.5400
 43
1.0000
 50
180.0000
  0
INSERT
  8
17
  2
ROUNDP
 10
20.9200
 20
30.0000
 30
0.0000
 41
2.5400
 42
2.5400
 43
1.0000
 50
0.0000
  0
INSERT
  8
17
  2
ROUNDP
 10
31.0800
 20
30.0000
 30
0.0000
 41
2.5400
 42
2.5400
 43
1.0000
 50
0.0000
  0
INSERT
  8
17
  2
ROUNDP
 10
35.1110
 20
32.4976
 30
0.0000
 41
2.5400
 42
2.5400
 43
1.0000
 50
90.0000
  0
INSERT
  8
17
  2
ROUNDP
 10
35.1110
 20
42.6576
 30
0.0000
 41
2.5400
 42
2.5400
 43
1.0000
 50
90.0000
  0
INSERT
  8
17
  2
ROUNDP
 10
57.0000
 20
47.0000
 30
0.0000
 41
3.0000
 42
3.0000
 43
1.0000
 50
180.0000
  0
INSERT
  8
17
  2
ROUNDP
 10
52.0000
 20
47.0000
 30
0.0000
 41
3.0000
 42
3.0000
 43
1.0000
 50
180.0000
  0
INSERT
  8
17
  2
ROUNDP
 10
47.0000
 20
47.0000
 30
0.0000
 41
3.0000
 42
3.0000
 43
1.0000
 50
180.0000
  0
INSERT
  8
17
  2
ROUNDP
 10
59.0000
 20
26.9200
 30
0.0000
 41
2.5400
 42
2.5400
 43
1.0000
 50
90.0000
  0
INSERT
  8
17
  2
ROUNDP
 10
59.0000
 20
37.0800
 30
0.0000
 41
2.5400
 42
2.5400
 43
1.0000
 50
90.0000
  0
INSERT
  8
17
  2
ROUNDP
 10
55.0000
 20
37.0800
 30
0.0000
 41
2.5400
 42
2.5400
 43
1.0000
 50
270.0000
  0
INSERT
  8
17
  2
ROUNDP
 10
55.0000
 20
26.9200
 30
0.0000
 41
2.5400
 42
2.5400
 43
1.0000
 50
270.0000
  0
INSERT
  8
17
  2
ROUNDP
 10
60.0800
 20
40.5000
 30
0.0000
 41
2.5400
 42
2.5400
 43
1.0000
 50
180.0000
  0
INSERT
  8
17
  2
ROUNDP
 10
49.9200
 20
40.5000
 30
0.0000
 41
2.5400
 42
2.5400
 43
1.0000
 50
180.0000
  0
INSERT
  8
17
  2
ROUNDP
 10
63.0000
 20
47.5800
 30
0.0000
 41
2.5400
 42
2.5400
 43
1.0000
 50
270.0000
  0
INSERT
  8
17
  2
ROUNDP
 10
63.0000
 20
37.4200
 30
0.0000
 41
2.5400
 42
2.5400
 43
1.0000
 50
270.0000
  0
INSERT
  8
17
  2
ROUNDP
 10
67.5800
 20
23.0000
 30
0.0000
 41
2.5400
 42
2.5400
 43
1.0000
 50
180.0000
  0
INSERT
  8
17
  2
ROUNDP
 10
57.4200
 20
23.0000
 30
0.0000
 41
2.5400
 42
2.5400
 43
1.0000
 50
180.0000
  0
INSERT
  8
17
  2
ROUNDP
 10
66.9300
 20
36.8100
 30
0.0000
 41
2.5400
 42
2.5400
 43
1.0000
 50
270.0000
  0
INSERT
  8
17
  2
ROUNDP
 10
66.9300
 20
26.6500
 30
0.0000
 41
2.5400
 42
2.5400
 43
1.0000
 50
270.0000
  0
INSERT
  8
17
  2
ROUNDP
 10
56.5800
 20
2.5000
 30
0.0000
 41
2.5400
 42
2.5400
 43
1.0000
 50
180.0000
  0
INSERT
  8
17
  2
ROUNDP
 10
46.4200
 20
2.5000
 30
0.0000
 41
2.5400
 42
2.5400
 43
1.0000
 50
180.0000
  0
INSERT
  8
17
  2
ROUNDP
 10
66.5800
 20
13.5000
 30
0.0000
 41
2.5400
 42
2.5400
 43
1.0000
 50
180.0000
  0
INSERT
  8
17
  2
ROUNDP
 10
56.4200
 20
13.5000
 30
0.0000
 41
2.5400
 42
2.5400
 43
1.0000
 50
180.0000
  0
INSERT
  8
17
  2
ROUNDP
 10
66.5800
 20
17.5000
 30
0.0000
 41
2.5400
 42
2.5400
 43
1.0000
 50
180.0000
  0
INSERT
  8
17
  2
ROUNDP
 10
56.4200
 20
17.5000
 30
0.0000
 41
2.5400
 42
2.5400
 43
1.0000
 50
180.0000
  0
INSERT
  8
17
  2
ROUNDP
 10
50.0800
 20
26.0000
 30
0.0000
 41
2.5400
 42
2.5400
 43
1.0000
 50
180.0000
  0
INSERT
  8
17
  2
ROUNDP
 10
39.9200
 20
26.0000
 30
0.0000
 41
2.5400
 42
2.5400
 43
1.0000
 50
180.0000
  0
INSERT
  8
17
  2
ROUNDP
 10
56.4200
 20
10.0000
 30
0.0000
 41
2.5400
 42
2.5400
 43
1.0000
 50
0.0000
  0
INSERT
  8
17
  2
ROUNDP
 10
66.5800
 20
10.0000
 30
0.0000
 41
2.5400
 42
2.5400
 43
1.0000
 50
0.0000
  0
INSERT
  8
17
  2
ROUNDP
 10
56.5800
 20
6.5000
 30
0.0000
 41
2.5400
 42
2.5400
 43
1.0000
 50
180.0000
  0
INSERT
  8
17
  2
ROUNDP
 10
46.4200
 20
6.5000
 30
0.0000
 41
2.5400
 42
2.5400
 43
1.0000
 50
180.0000
  0
INSERT
  8
17
  2
LONGP100
 10
45.0000
 20
21.5400
 30
0.0000
 41
1.7780
 42
1.7780
 43
1.0000
 50
180.0000
  0
INSERT
  8
17
  2
LONGP100
 10
45.0000
 20
16.4600
 30
0.0000
 41
1.7780
 42
1.7780
 43
1.0000
 50
180.0000
  0
INSERT
  8
17
  2
LONGP100
 10
45.0000
 20
19.0000
 30
0.0000
 41
1.7780
 42
1.7780
 43
1.0000
 50
180.0000
  0
INSERT
  8
17
  2
ROUNDP
 10
43.0800
 20
7.0000
 30
0.0000
 41
2.5400
 42
2.5400
 43
1.0000
 50
180.0000
  0
INSERT
  8
17
  2
ROUNDP
 10
32.9200
 20
7.0000
 30
0.0000
 41
2.5400
 42
2.5400
 43
1.0000
 50
180.0000
  0
INSERT
  8
17
  2
ROUNDP
 10
32.9200
 20
2.5000
 30
0.0000
 41
2.5400
 42
2.5400
 43
1.0000
 50
0.0000
  0
INSERT
  8
17
  2
ROUNDP
 10
43.0800
 20
2.5000
 30
0.0000
 41
2.5400
 42
2.5400
 43
1.0000
 50
0.0000
  0
INSERT
  8
17
  2
ROUNDP
 10
30.9200
 20
22.0000
 30
0.0000
 41
2.5400
 42
2.5400
 43
1.0000
 50
0.0000
  0
INSERT
  8
17
  2
ROUNDP
 10
41.0800
 20
22.0000
 30
0.0000
 41
2.5400
 42
2.5400
 43
1.0000
 50
0.0000
  0
INSERT
  8
17
  2
ROUNDP
 10
39.5800
 20
18.5000
 30
0.0000
 41
2.5400
 42
2.5400
 43
1.0000
 50
180.0000
  0
INSERT
  8
17
  2
ROUNDP
 10
29.4200
 20
18.5000
 30
0.0000
 41
2.5400
 42
2.5400
 43
1.0000
 50
180.0000
  0
INSERT
  8
17
  2
ROUNDP
 10
18.1300
 20
2.9700
 30
0.0000
 41
3.0000
 42
3.0000
 43
1.0000
 50
0.0000
  0
INSERT
  8
17
  2
ROUNDP
 10
23.1300
 20
2.9700
 30
0.0000
 41
3.0000
 42
3.0000
 43
1.0000
 50
0.0000
  0
INSERT
  8
17
  2
ROUNDP
 10
28.1300
 20
2.9700
 30
0.0000
 41
3.0000
 42
3.0000
 43
1.0000
 50
0.0000
  0
INSERT
  8
17
  2
ROUNDP
 10
26.0800
 20
15.0000
 30
0.0000
 41
2.5400
 42
2.5400
 43
1.0000
 50
180.0000
  0
INSERT
  8
17
  2
ROUNDP
 10
15.9200
 20
15.0000
 30
0.0000
 41
2.5400
 42
2.5400
 43
1.0000
 50
180.0000
  0
INSERT
  8
17
  2
ROUNDP
 10
15.9200
 20
18.5000
 30
0.0000
 41
2.5400
 42
2.5400
 43
1.0000
 50
0.0000
  0
INSERT
  8
17
  2
ROUNDP
 10
26.0800
 20
18.5000
 30
0.0000
 41
2.5400
 42
2.5400
 43
1.0000
 50
0.0000
  0
INSERT
  8
17
  2
ROUNDP
 10
7.0000
 20
26.0800
 30
0.0000
 41
2.5400
 42
2.5400
 43
1.0000
 50
270.0000
  0
INSERT
  8
17
  2
ROUNDP
 10
7.0000
 20
15.9200
 30
0.0000
 41
2.5400
 42
2.5400
 43
1.0000
 50
270.0000
  0
INSERT
  8
17
  2
ROUNDP
 10
10.4200
 20
27.0000
 30
0.0000
 41
2.5400
 42
2.5400
 43
1.0000
 50
0.0000
  0
INSERT
  8
17
  2
ROUNDP
 10
20.5800
 20
27.0000
 30
0.0000
 41
2.5400
 42
2.5400
 43
1.0000
 50
0.0000
  0
INSERT
  8
17
  2
ROUNDP
 10
3.5000
 20
7.4200
 30
0.0000
 41
2.5400
 42
2.5400
 43
1.0000
 50
90.0000
  0
INSERT
  8
17
  2
ROUNDP
 10
3.5000
 20
17.5800
 30
0.0000
 41
2.5400
 42
2.5400
 43
1.0000
 50
90.0000
  0
INSERT
  8
17
  2
ROUNDP
 10
12.5000
 20
6.4200
 30
0.0000
 41
2.5400
 42
2.5400
 43
1.0000
 50
90.0000
  0
INSERT
  8
17
  2
ROUNDP
 10
12.5000
 20
16.5800
 30
0.0000
 41
2.5400
 42
2.5400
 43
1.0000
 50
90.0000
  0
INSERT
  8
17
  2
LONGP100
 10
26.4600
 20
11.0000
 30
0.0000
 41
1.7780
 42
1.7780
 43
1.0000
 50
90.0000
  0
INSERT
  8
17
  2
LONGP100
 10
29.0000
 20
11.0000
 30
0.0000
 41
1.7780
 42
1.7780
 43
1.0000
 50
90.0000
  0
INSERT
  8
17
  2
LONGP100
 10
31.5400
 20
11.0000
 30
0.0000
 41
1.7780
 42
1.7780
 43
1.0000
 50
90.0000
  0
INSERT
  8
17
  2
OCTAGONP
 10
16.9050
 20
38.9050
 30
0.0000
 41
2.5400
 42
2.5400
 43
1.0000
 50
180.0000
  0
INSERT
  8
17
  2
OCTAGONP
 10
13.0950
 20
38.9050
 30
0.0000
 41
2.5400
 42
2.5400
 43
1.0000
 50
180.0000
  0
INSERT
  8
17
  2
OCTAGONP
 10
13.0950
 20
35.0950
 30
0.0000
 41
2.5400
 42
2.5400
 43
1.0000
 50
180.0000
  0
INSERT
  8
17
  2
OCTAGONP
 10
27.0950
 20
36.5616
 30
0.0000
 41
2.5400
 42
2.5400
 43
1.0000
 50
0.0000
  0
INSERT
  8
17
  2
OCTAGONP
 10
30.9050
 20
36.5616
 30
0.0000
 41
2.5400
 42
2.5400
 43
1.0000
 50
0.0000
  0
INSERT
  8
17
  2
OCTAGONP
 10
30.9050
 20
40.3716
 30
0.0000
 41
2.5400
 42
2.5400
 43
1.0000
 50
0.0000
  0
INSERT
  8
17
  2
OCTAGONP
 10
51.9050
 20
29.0950
 30
0.0000
 41
2.5400
 42
2.5400
 43
1.0000
 50
90.0000
  0
INSERT
  8
17
  2
OCTAGONP
 10
51.9050
 20
32.9050
 30
0.0000
 41
2.5400
 42
2.5400
 43
1.0000
 50
90.0000
  0
INSERT
  8
17
  2
OCTAGONP
 10
48.0950
 20
32.9050
 30
0.0000
 41
2.5400
 42
2.5400
 43
1.0000
 50
90.0000
  0
INSERT
  8
17
  2
OCTAGONP
 10
52.4050
 20
15.5950
 30
0.0000
 41
2.5400
 42
2.5400
 43
1.0000
 50
90.0000
  0
INSERT
  8
17
  2
OCTAGONP
 10
52.4050
 20
19.4050
 30
0.0000
 41
2.5400
 42
2.5400
 43
1.0000
 50
90.0000
  0
INSERT
  8
17
  2
OCTAGONP
 10
48.5950
 20
19.4050
 30
0.0000
 41
2.5400
 42
2.5400
 43
1.0000
 50
90.0000
  0
INSERT
  8
17
  2
OCTAGONP
 10
60.5950
 20
2.5950
 30
0.0000
 41
2.5400
 42
2.5400
 43
1.0000
 50
0.0000
  0
INSERT
  8
17
  2
OCTAGONP
 10
64.4050
 20
2.5950
 30
0.0000
 41
2.5400
 42
2.5400
 43
1.0000
 50
0.0000
  0
INSERT
  8
17
  2
OCTAGONP
 10
64.4050
 20
6.4050
 30
0.0000
 41
2.5400
 42
2.5400
 43
1.0000
 50
0.0000
  0
INSERT
  8
17
  2
OCTAGONP
 10
13.9050
 20
23.4050
 30
0.0000
 41
2.5400
 42
2.5400
 43
1.0000
 50
180.0000
  0
INSERT
  8
17
  2
OCTAGONP
 10
10.0950
 20
23.4050
 30
0.0000
 41
2.5400
 42
2.5400
 43
1.0000
 50
180.0000
  0
INSERT
  8
17
  2
OCTAGONP
 10
10.0950
 20
19.5950
 30
0.0000
 41
2.5400
 42
2.5400
 43
1.0000
 50
180.0000
  0
INSERT
  8
17
  2
LONGP100
 10
5.2700
 20
47.0000
 30
0.0000
 41
1.7780
 42
1.7780
 43
1.0000
 50
270.0000
  0
INSERT
  8
17
  2
LONGP100
 10
2.7300
 20
47.0000
 30
0.0000
 41
1.7780
 42
1.7780
 43
1.0000
 50
270.0000
  0
INSERT
  8
17
  2
LONGP100
 10
3.3400
 20
2.8500
 30
0.0000
 41
1.7780
 42
1.7780
 43
1.0000
 50
90.0000
  0
INSERT
  8
17
  2
LONGP100
 10
5.8800
 20
2.8500
 30
0.0000
 41
1.7780
 42
1.7780
 43
1.0000
 50
90.0000
  0
POLYLINE
  8
1
 66
1
 10
0.0000
 20
0.0000
 30
0.0000
 40
0.5080
 41
0.5080
 70
0
  0
VERTEX
  8
1
 10
4.5062
 20
23.5862
 30
0.0000
  0
VERTEX
  8
1
 10
4.4200
 20
23.5000
 30
0.0000
  0
SEQEND
  8
0
  0
POLYLINE
  8
1
 66
1
 10
0.0000
 20
0.0000
 30
0.0000
 40
0.2540
 41
0.2540
 70
0
  0
VERTEX
  8
1
 10
4.3302
 20
23.5898
 30
0.0000
 42
1.0000
  0
VERTEX
  8
1
 10
4.5098
 20
23.4102
 30
0.0000
  0
SEQEND
  8
0
  0
POLYLINE
  8
1
 66
1
 10
0.0000
 20
0.0000
 30
0.0000
 40
0.2540
 41
0.2540
 70
0
  0
VERTEX
  8
1
 10
4.5960
 20
23.4964
 30
0.0000
 42
1.0000
  0
VERTEX
  8
1
 10
4.4164
 20
23.6760
 30
0.0000
  0
SEQEND
  8
0
  0
POLYLINE
  8
1
 66
1
 10
0.0000
 20
0.0000
 30
0.0000
 40
0.5080
 41
0.5080
 70
0
  0
VERTEX
  8
1
 10
4.5062
 20
23.5862
 30
0.0000
  0
VERTEX
  8
1
 10
7.0000
 20
26.0800
 30
0.0000
  0
SEQEND
  8
0
  0
POLYLINE
  8
1
 66
1
 10
0.0000
 20
0.0000
 30
0.0000
 40
0.2540
 41
0.2540
 70
0
  0
VERTEX
  8
1
 10
7.0898
 20
25.9902
 30
0.0000
 42
1.0000
  0
VERTEX
  8
1
 10
6.9102
 20
26.1698
 30
0.0000
  0
SEQEND
  8
0
  0
POLYLINE
  8
1
 66
1
 10
0.0000
 20
0.0000
 30
0.0000
 40
0.2540
 41
0.2540
 70
0
  0
VERTEX
  8
1
 10
4.4164
 20
23.6760
 30
0.0000
 42
1.0000
  0
VERTEX
  8
1
 10
4.5960
 20
23.4964
 30
0.0000
  0
SEQEND
  8
0
  0
POLYLINE
  8
1
 66
1
 10
0.0000
 20
0.0000
 30
0.0000
 40
0.5080
 41
0.5080
 70
0
  0
VERTEX
  8
1
 10
4.4200
 20
23.5000
 30
0.0000
  0
VERTEX
  8
1
 10
3.5000
 20
23.5000
 30
0.0000
  0
SEQEND
  8
0
  0
POLYLINE
  8
1
 66
1
 10
0.0000
 20
0.0000
 30
0.0000
 40
0.2540
 41
0.2540
 70
0
  0
VERTEX
  8
1
 10
3.5000
 20
23.6270
 30
0.0000
 42
1.0000
  0
VERTEX
  8
1
 10
3.5000
 20
23.3730
 30
0.0000
  0
SEQEND
  8
0
  0
POLYLINE
  8
1
 66
1
 10
0.0000
 20
0.0000
 30
0.0000
 40
0.2540
 41
0.2540
 70
0
  0
VERTEX
  8
1
 10
4.4200
 20
23.3730
 30
0.0000
 42
1.0000
  0
VERTEX
  8
1
 10
4.4200
 20
23.6270
 30
0.0000
  0
SEQEND
  8
0
  0
POLYLINE
  8
1
 66
1
 10
0.0000
 20
0.0000
 30
0.0000
 40
0.5080
 41
0.5080
 70
0
  0
VERTEX
  8
1
 10
4.0800
 20
29.0000
 30
0.0000
  0
VERTEX
  8
1
 10
3.5000
 20
29.0000
 30
0.0000
  0
SEQEND
  8
0
  0
POLYLINE
  8
1
 66
1
 10
0.0000
 20
0.0000
 30
0.0000
 40
0.2540
 41
0.2540
 70
0
  0
VERTEX
  8
1
 10
3.5000
 20
29.1270
 30
0.0000
 42
1.0000
  0
VERTEX
  8
1
 10
3.5000
 20
28.8730
 30
0.0000
  0
SEQEND
  8
0
  0
POLYLINE
  8
1
 66
1
 10
0.0000
 20
0.0000
 30
0.0000
 40
0.2540
 41
0.2540
 70
0
  0
VERTEX
  8
1
 10
4.0800
 20
28.8730
 30
0.0000
 42
1.0000
  0
VERTEX
  8
1
 10
4.0800
 20
29.1270
 30
0.0000
  0
SEQEND
  8
0
  0
POLYLINE
  8
1
 66
1
 10
0.0000
 20
0.0000
 30
0.0000
 40
0.5080
 41
0.5080
 70
0
  0
VERTEX
  8
1
 10
7.0000
 20
26.0800
 30
0.0000
  0
VERTEX
  8
1
 10
4.0800
 20
29.0000
 30
0.0000
  0
SEQEND
  8
0
  0
POLYLINE
  8
1
 66
1
 10
0.0000
 20
0.0000
 30
0.0000
 40
0.2540
 41
0.2540
 70
0
  0
VERTEX
  8
1
 10
4.1698
 20
29.0898
 30
0.0000
 42
1.0000
  0
VERTEX
  8
1
 10
3.9902
 20
28.9102
 30
0.0000
  0
SEQEND
  8
0
  0
POLYLINE
  8
1
 66
1
 10
0.0000
 20
0.0000
 30
0.0000
 40
0.2540
 41
0.2540
 70
0
  0
VERTEX
  8
1
 10
6.9102
 20
25.9902
 30
0.0000
 42
1.0000
  0
VERTEX
  8
1
 10
7.0898
 20
26.1698
 30
0.0000
  0
SEQEND
  8
0
  0
POLYLINE
  8
1
 66
1
 10
0.0000
 20
0.0000
 30
0.0000
 40
0.5080
 41
0.5080
 70
0
  0
VERTEX
  8
1
 10
9.0000
 20
3.0000
 30
0.0000
  0
VERTEX
  8
1
 10
9.0000
 20
5.4440
 30
0.0000
  0
SEQEND
  8
0
  0
POLYLINE
  8
1
 66
1
 10
0.0000
 20
0.0000
 30
0.0000
 40
0.2540
 41
0.2540
 70
0
  0
VERTEX
  8
1
 10
9.1270
 20
5.4440
 30
0.0000
 42
1.0000
  0
VERTEX
  8
1
 10
8.8730
 20
5.4440
 30
0.0000
  0
SEQEND
  8
0
  0
POLYLINE
  8
1
 66
1
 10
0.0000
 20
0.0000
 30
0.0000
 40
0.2540
 41
0.2540
 70
0
  0
VERTEX
  8
1
 10
8.8730
 20
3.0000
 30
0.0000
 42
1.0000
  0
VERTEX
  8
1
 10
9.1270
 20
3.0000
 30
0.0000
  0
SEQEND
  8
0
  0
POLYLINE
  8
1
 66
1
 10
0.0000
 20
0.0000
 30
0.0000
 40
0.5080
 41
0.5080
 70
0
  0
VERTEX
  8
1
 10
9.0000
 20
5.4440
 30
0.0000
  0
VERTEX
  8
1
 10
10.1346
 20
6.5786
 30
0.0000
  0
SEQEND
  8
0
  0
POLYLINE
  8
1
 66
1
 10
0.0000
 20
0.0000
 30
0.0000
 40
0.2540
 41
0.2540
 70
0
  0
VERTEX
  8
1
 10
10.2244
 20
6.4888
 30
0.0000
 42
1.0000
  0
VERTEX
  8
1
 10
10.0448
 20
6.6684
 30
0.0000
  0
SEQEND
  8
0
  0
POLYLINE
  8
1
 66
1
 10
0.0000
 20
0.0000
 30
0.0000
 40
0.2540
 41
0.2540
 70
0
  0
VERTEX
  8
1
 10
8.9102
 20
5.5338
 30
0.0000
 42
1.0000
  0
VERTEX
  8
1
 10
9.0898
 20
5.3542
 30
0.0000
  0
SEQEND
  8
0
  0
POLYLINE
  8
1
 66
1
 10
0.0000
 20
0.0000
 30
0.0000
 40
0.5080
 41
0.5080
 70
0
  0
VERTEX
  8
1
 10
10.1346
 20
6.5786
 30
0.0000
  0
VERTEX
  8
1
 10
10.1346
 20
8.3566
 30
0.0000
  0
SEQEND
  8
0
  0
POLYLINE
  8
1
 66
1
 10
0.0000
 20
0.0000
 30
0.0000
 40
0.2540
 41
0.2540
 70
0
  0
VERTEX
  8
1
 10
10.2616
 20
8.3566
 30
0.0000
 42
1.0000
  0
VERTEX
  8
1
 10
10.0076
 20
8.3566
 30
0.0000
  0
SEQEND
  8
0
  0
POLYLINE
  8
1
 66
1
 10
0.0000
 20
0.0000
 30
0.0000
 40
0.2540
 41
0.2540
 70
0
  0
VERTEX
  8
1
 10
10.0076
 20
6.5786
 30
0.0000
 42
1.0000
  0
VERTEX
  8
1
 10
10.2616
 20
6.5786
 30
0.0000
  0
SEQEND
  8
0
  0
POLYLINE
  8
1
 66
1
 10
0.0000
 20
0.0000
 30
0.0000
 40
0.5080
 41
0.5080
 70
0
  0
VERTEX
  8
1
 10
10.1346
 20
8.3566
 30
0.0000
  0
VERTEX
  8
1
 10
10.1346
 20
16.1798
 30
0.0000
  0
SEQEND
  8
0
  0
POLYLINE
  8
1
 66
1
 10
0.0000
 20
0.0000
 30
0.0000
 40
0.2540
 41
0.2540
 70
0
  0
VERTEX
  8
1
 10
10.2616
 20
16.1798
 30
0.0000
 42
1.0000
  0
VERTEX
  8
1
 10
10.0076
 20
16.1798
 30
0.0000
  0
SEQEND
  8
0
  0
POLYLINE
  8
1
 66
1
 10
0.0000
 20
0.0000
 30
0.0000
 40
0.2540
 41
0.2540
 70
0
  0
VERTEX
  8
1
 10
10.0076
 20
8.3566
 30
0.0000
 42
1.0000
  0
VERTEX
  8
1
 10
10.2616
 20
8.3566
 30
0.0000
  0
SEQEND
  8
0
  0
POLYLINE
  8
1
 66
1
 10
0.0000
 20
0.0000
 30
0.0000
 40
0.5080
 41
0.5080
 70
0
  0
VERTEX
  8
1
 10
10.1346
 20
16.1798
 30
0.0000
  0
VERTEX
  8
1
 10
7.1120
 20
19.2024
 30
0.0000
  0
SEQEND
  8
0
  0
POLYLINE
  8
1
 66
1
 10
0.0000
 20
0.0000
 30
0.0000
 40
0.2540
 41
0.2540
 70
0
  0
VERTEX
  8
1
 10
7.2018
 20
19.2922
 30
0.0000
 42
1.0000
  0
VERTEX
  8
1
 10
7.0222
 20
19.1126
 30
0.0000
  0
SEQEND
  8
0
  0
POLYLINE
  8
1
 66
1
 10
0.0000
 20
0.0000
 30
0.0000
 40
0.2540
 41
0.2540
 70
0
  0
VERTEX
  8
1
 10
10.0448
 20
16.0900
 30
0.0000
 42
1.0000
  0
VERTEX
  8
1
 10
10.2244
 20
16.2696
 30
0.0000
  0
SEQEND
  8
0
  0
POLYLINE
  8
1
 66
1
 10
0.0000
 20
0.0000
 30
0.0000
 40
0.5080
 41
0.5080
 70
0
  0
VERTEX
  8
1
 10
7.1120
 20
19.2024
 30
0.0000
  0
VERTEX
  8
1
 10
7.1120
 20
20.9804
 30
0.0000
  0
SEQEND
  8
0
  0
POLYLINE
  8
1
 66
1
 10
0.0000
 20
0.0000
 30
0.0000
 40
0.2540
 41
0.2540
 70
0
  0
VERTEX
  8
1
 10
7.2390
 20
20.9804
 30
0.0000
 42
1.0000
  0
VERTEX
  8
1
 10
6.9850
 20
20.9804
 30
0.0000
  0
SEQEND
  8
0
  0
POLYLINE
  8
1
 66
1
 10
0.0000
 20
0.0000
 30
0.0000
 40
0.2540
 41
0.2540
 70
0
  0
VERTEX
  8
1
 10
6.9850
 20
19.2024
 30
0.0000
 42
1.0000
  0
VERTEX
  8
1
 10
7.2390
 20
19.2024
 30
0.0000
  0
SEQEND
  8
0
  0
POLYLINE
  8
1
 66
1
 10
0.0000
 20
0.0000
 30
0.0000
 40
0.5080
 41
0.5080
 70
0
  0
VERTEX
  8
1
 10
7.1120
 20
20.9804
 30
0.0000
  0
VERTEX
  8
1
 10
4.5062
 20
23.5862
 30
0.0000
  0
SEQEND
  8
0
  0
POLYLINE
  8
1
 66
1
 10
0.0000
 20
0.0000
 30
0.0000
 40
0.2540
 41
0.2540
 70
0
  0
VERTEX
  8
1
 10
4.5960
 20
23.6760
 30
0.0000
 42
1.0000
  0
VERTEX
  8
1
 10
4.4164
 20
23.4964
 30
0.0000
  0
SEQEND
  8
0
  0
POLYLINE
  8
1
 66
1
 10
0.0000
 20
0.0000
 30
0.0000
 40
0.2540
 41
0.2540
 70
0
  0
VERTEX
  8
1
 10
7.0222
 20
20.8906
 30
0.0000
 42
1.0000
  0
VERTEX
  8
1
 10
7.2018
 20
21.0702
 30
0.0000
  0
SEQEND
  8
0
  0
POLYLINE
  8
1
 66
1
 10
0.0000
 20
0.0000
 30
0.0000
 40
0.5080
 41
0.5080
 70
0
  0
VERTEX
  8
1
 10
21.5786
 20
15.0000
 30
0.0000
  0
VERTEX
  8
1
 10
26.0800
 20
15.0000
 30
0.0000
  0
SEQEND
  8
0
  0
POLYLINE
  8
1
 66
1
 10
0.0000
 20
0.0000
 30
0.0000
 40
0.2540
 41
0.2540
 70
0
  0
VERTEX
  8
1
 10
26.0800
 20
14.8730
 30
0.0000
 42
1.0000
  0
VERTEX
  8
1
 10
26.0800
 20
15.1270
 30
0.0000
  0
SEQEND
  8
0
  0
POLYLINE
  8
1
 66
1
 10
0.0000
 20
0.0000
 30
0.0000
 40
0.2540
 41
0.2540
 70
0
  0
VERTEX
  8
1
 10
21.5786
 20
15.1270
 30
0.0000
 42
1.0000
  0
VERTEX
  8
1
 10
21.5786
 20
14.8730
 30
0.0000
  0
SEQEND
  8
0
  0
POLYLINE
  8
1
 66
1
 10
0.0000
 20
0.0000
 30
0.0000
 40
0.5080
 41
0.5080
 70
0
  0
VERTEX
  8
1
 10
19.5580
 20
12.9794
 30
0.0000
  0
VERTEX
  8
1
 10
21.5786
 20
15.0000
 30
0.0000
  0
SEQEND
  8
0
  0
POLYLINE
  8
1
 66
1
 10
0.0000
 20
0.0000
 30
0.0000
 40
0.2540
 41
0.2540
 70
0
  0
VERTEX
  8
1
 10
21.6684
 20
14.9102
 30
0.0000
 42
1.0000
  0
VERTEX
  8
1
 10
21.4888
 20
15.0898
 30
0.0000
  0
SEQEND
  8
0
  0
POLYLINE
  8
1
 66
1
 10
0.0000
 20
0.0000
 30
0.0000
 40
0.2540
 41
0.2540
 70
0
  0
VERTEX
  8
1
 10
19.4682
 20
13.0692
 30
0.0000
 42
1.0000
  0
VERTEX
  8
1
 10
19.6478
 20
12.8896
 30
0.0000
  0
SEQEND
  8
0
  0
POLYLINE
  8
1
 66
1
 10
0.0000
 20
0.0000
 30
0.0000
 40
0.5080
 41
0.5080
 70
0
  0
VERTEX
  8
1
 10
14.7574
 20
12.9794
 30
0.0000
  0
VERTEX
  8
1
 10
19.5580
 20
12.9794
 30
0.0000
  0
SEQEND
  8
0
  0
POLYLINE
  8
1
 66
1
 10
0.0000
 20
0.0000
 30
0.0000
 40
0.2540
 41
0.2540
 70
0
  0
VERTEX
  8
1
 10
19.5580
 20
12.8524
 30
0.0000
 42
1.0000
  0
VERTEX
  8
1
 10
19.5580
 20
13.1064
 30
0.0000
  0
SEQEND
  8
0
  0
POLYLINE
  8
1
 66
1
 10
0.0000
 20
0.0000
 30
0.0000
 40
0.2540
 41
0.2540
 70
0
  0
VERTEX
  8
1
 10
14.7574
 20
13.1064
 30
0.0000
 42
1.0000
  0
VERTEX
  8
1
 10
14.7574
 20
12.8524
 30
0.0000
  0
SEQEND
  8
0
  0
POLYLINE
  8
1
 66
1
 10
0.0000
 20
0.0000
 30
0.0000
 40
0.5080
 41
0.5080
 70
0
  0
VERTEX
  8
1
 10
10.1346
 20
8.3566
 30
0.0000
  0
VERTEX
  8
1
 10
14.7574
 20
12.9794
 30
0.0000
  0
SEQEND
  8
0
  0
POLYLINE
  8
1
 66
1
 10
0.0000
 20
0.0000
 30
0.0000
 40
0.2540
 41
0.2540
 70
0
  0
VERTEX
  8
1
 10
14.8472
 20
12.8896
 30
0.0000
 42
1.0000
  0
VERTEX
  8
1
 10
14.6676
 20
13.0692
 30
0.0000
  0
SEQEND
  8
0
  0
POLYLINE
  8
1
 66
1
 10
0.0000
 20
0.0000
 30
0.0000
 40
0.2540
 41
0.2540
 70
0
  0
VERTEX
  8
1
 10
10.0448
 20
8.4464
 30
0.0000
 42
1.0000
  0
VERTEX
  8
1
 10
10.2244
 20
8.2668
 30
0.0000
  0
SEQEND
  8
0
  0
POLYLINE
  8
1
 66
1
 10
0.0000
 20
0.0000
 30
0.0000
 40
0.5080
 41
0.5080
 70
0
  0
VERTEX
  8
1
 10
63.0000
 20
47.5800
 30
0.0000
  0
VERTEX
  8
1
 10
63.0000
 20
43.4200
 30
0.0000
  0
SEQEND
  8
0
  0
POLYLINE
  8
1
 66
1
 10
0.0000
 20
0.0000
 30
0.0000
 40
0.2540
 41
0.2540
 70
0
  0
VERTEX
  8
1
 10
62.8730
 20
43.4200
 30
0.0000
 42
1.0000
  0
VERTEX
  8
1
 10
63.1270
 20
43.4200
 30
0.0000
  0
SEQEND
  8
0
  0
POLYLINE
  8
1
 66
1
 10
0.0000
 20
0.0000
 30
0.0000
 40
0.2540
 41
0.2540
 70
0
  0
VERTEX
  8
1
 10
63.1270
 20
47.5800
 30
0.0000
 42
1.0000
  0
VERTEX
  8
1
 10
62.8730
 20
47.5800
 30
0.0000
  0
SEQEND
  8
0
  0
POLYLINE
  8
1
 66
1
 10
0.0000
 20
0.0000
 30
0.0000
 40
0.5080
 41
0.5080
 70
0
  0
VERTEX
  8
1
 10
63.0000
 20
43.4200
 30
0.0000
  0
VERTEX
  8
1
 10
60.0800
 20
40.5000
 30
0.0000
  0
SEQEND
  8
0
  0
POLYLINE
  8
1
 66
1
 10
0.0000
 20
0.0000
 30
0.0000
 40
0.2540
 41
0.2540
 70
0
  0
VERTEX
  8
1
 10
59.9902
 20
40.5898
 30
0.0000
 42
1.0000
  0
VERTEX
  8
1
 10
60.1698
 20
40.4102
 30
0.0000
  0
SEQEND
  8
0
  0
POLYLINE
  8
1
 66
1
 10
0.0000
 20
0.0000
 30
0.0000
 40
0.2540
 41
0.2540
 70
0
  0
VERTEX
  8
1
 10
63.0898
 20
43.3302
 30
0.0000
 42
1.0000
  0
VERTEX
  8
1
 10
62.9102
 20
43.5098
 30
0.0000
  0
SEQEND
  8
0
  0
POLYLINE
  8
1
 66
1
 10
0.0000
 20
0.0000
 30
0.0000
 40
0.5080
 41
0.5080
 70
0
  0
VERTEX
  8
1
 10
42.4942
 20
37.8714
 30
0.0000
  0
VERTEX
  8
1
 10
51.3842
 20
37.8714
 30
0.0000
  0
SEQEND
  8
0
  0
POLYLINE
  8
1
 66
1
 10
0.0000
 20
0.0000
 30
0.0000
 40
0.2540
 41
0.2540
 70
0
  0
VERTEX
  8
1
 10
51.3842
 20
37.7444
 30
0.0000
 42
1.0000
  0
VERTEX
  8
1
 10
51.3842
 20
37.9984
 30
0.0000
  0
SEQEND
  8
0
  0
POLYLINE
  8
1
 66
1
 10
0.0000
 20
0.0000
 30
0.0000
 40
0.2540
 41
0.2540
 70
0
  0
VERTEX
  8
1
 10
42.4942
 20
37.9984
 30
0.0000
 42
1.0000
  0
VERTEX
  8
1
 10
42.4942
 20
37.7444
 30
0.0000
  0
SEQEND
  8
0
  0
POLYLINE
  8
1
 66
1
 10
0.0000
 20
0.0000
 30
0.0000
 40
0.5080
 41
0.5080
 70
0
  0
VERTEX
  8
1
 10
41.7830
 20
37.1602
 30
0.0000
  0
VERTEX
  8
1
 10
42.4942
 20
37.8714
 30
0.0000
  0
SEQEND
  8
0
  0
POLYLINE
  8
1
 66
1
 10
0.0000
 20
0.0000
 30
0.0000
 40
0.2540
 41
0.2540
 70
0
  0
VERTEX
  8
1
 10
42.5840
 20
37.7816
 30
0.0000
 42
1.0000
  0
VERTEX
  8
1
 10
42.4044
 20
37.9612
 30
0.0000
  0
SEQEND
  8
0
  0
POLYLINE
  8
1
 66
1
 10
0.0000
 20
0.0000
 30
0.0000
 40
0.2540
 41
0.2540
 70
0
  0
VERTEX
  8
1
 10
41.6932
 20
37.2500
 30
0.0000
 42
1.0000
  0
VERTEX
  8
1
 10
41.8728
 20
37.0704
 30
0.0000
  0
SEQEND
  8
0
  0
POLYLINE
  8
1
 66
1
 10
0.0000
 20
0.0000
 30
0.0000
 40
0.5080
 41
0.5080
 70
0
  0
VERTEX
  8
1
 10
37.8714
 20
37.1602
 30
0.0000
  0
VERTEX
  8
1
 10
41.7830
 20
37.1602
 30
0.0000
  0
SEQEND
  8
0
  0
POLYLINE
  8
1
 66
1
 10
0.0000
 20
0.0000
 30
0.0000
 40
0.2540
 41
0.2540
 70
0
  0
VERTEX
  8
1
 10
41.7830
 20
37.0332
 30
0.0000
 42
1.0000
  0
VERTEX
  8
1
 10
41.7830
 20
37.2872
 30
0.0000
  0
SEQEND
  8
0
  0
POLYLINE
  8
1
 66
1
 10
0.0000
 20
0.0000
 30
0.0000
 40
0.2540
 41
0.2540
 70
0
  0
VERTEX
  8
1
 10
37.8714
 20
37.2872
 30
0.0000
 42
1.0000
  0
VERTEX
  8
1
 10
37.8714
 20
37.0332
 30
0.0000
  0
SEQEND
  8
0
  0
POLYLINE
  8
1
 66
1
 10
0.0000
 20
0.0000
 30
0.0000
 40
0.5080
 41
0.5080
 70
0
  0
VERTEX
  8
1
 10
34.3154
 20
40.7162
 30
0.0000
  0
VERTEX
  8
1
 10
37.6936
 20
37.3380
 30
0.0000
  0
SEQEND
  8
0
  0
POLYLINE
  8
1
 66
1
 10
0.0000
 20
0.0000
 30
0.0000
 40
0.2540
 41
0.2540
 70
0
  0
VERTEX
  8
1
 10
37.6038
 20
37.2482
 30
0.0000
 42
1.0000
  0
VERTEX
  8
1
 10
37.7834
 20
37.4278
 30
0.0000
  0
SEQEND
  8
0
  0
POLYLINE
  8
1
 66
1
 10
0.0000
 20
0.0000
 30
0.0000
 40
0.2540
 41
0.2540
 70
0
  0
VERTEX
  8
1
 10
34.4052
 20
40.8060
 30
0.0000
 42
1.0000
  0
VERTEX
  8
1
 10
34.2256
 20
40.6264
 30
0.0000
  0
SEQEND
  8
0
  0
POLYLINE
  8
1
 66
1
 10
0.0000
 20
0.0000
 30
0.0000
 40
0.5080
 41
0.5080
 70
0
  0
VERTEX
  8
1
 10
37.6936
 20
37.3380
 30
0.0000
  0
VERTEX
  8
1
 10
37.8714
 20
37.1602
 30
0.0000
  0
SEQEND
  8
0
  0
POLYLINE
  8
1
 66
1
 10
0.0000
 20
0.0000
 30
0.0000
 40
0.2540
 41
0.2540
 70
0
  0
VERTEX
  8
1
 10
37.7816
 20
37.0704
 30
0.0000
 42
1.0000
  0
VERTEX
  8
1
 10
37.9612
 20
37.2500
 30
0.0000
  0
SEQEND
  8
0
  0
POLYLINE
  8
1
 66
1
 10
0.0000
 20
0.0000
 30
0.0000
 40
0.2540
 41
0.2540
 70
0
  0
VERTEX
  8
1
 10
37.7834
 20
37.4278
 30
0.0000
 42
1.0000
  0
VERTEX
  8
1
 10
37.6038
 20
37.2482
 30
0.0000
  0
SEQEND
  8
0
  0
POLYLINE
  8
1
 66
1
 10
0.0000
 20
0.0000
 30
0.0000
 40
0.5080
 41
0.5080
 70
0
  0
VERTEX
  8
1
 10
31.0938
 20
40.7162
 30
0.0000
  0
VERTEX
  8
1
 10
34.3154
 20
40.7162
 30
0.0000
  0
SEQEND
  8
0
  0
POLYLINE
  8
1
 66
1
 10
0.0000
 20
0.0000
 30
0.0000
 40
0.2540
 41
0.2540
 70
0
  0
VERTEX
  8
1
 10
34.3154
 20
40.5892
 30
0.0000
 42
1.0000
  0
VERTEX
  8
1
 10
34.3154
 20
40.8432
 30
0.0000
  0
SEQEND
  8
0
  0
POLYLINE
  8
1
 66
1
 10
0.0000
 20
0.0000
 30
0.0000
 40
0.2540
 41
0.2540
 70
0
  0
VERTEX
  8
1
 10
31.0938
 20
40.8432
 30
0.0000
 42
1.0000
  0
VERTEX
  8
1
 10
31.0938
 20
40.5892
 30
0.0000
  0
SEQEND
  8
0
  0
POLYLINE
  8
1
 66
1
 10
0.0000
 20
0.0000
 30
0.0000
 40
0.5080
 41
0.5080
 70
0
  0
VERTEX
  8
1
 10
30.9050
 20
40.3716
 30
0.0000
  0
VERTEX
  8
1
 10
31.0938
 20
40.7162
 30
0.0000
  0
SEQEND
  8
0
  0
POLYLINE
  8
1
 66
1
 10
0.0000
 20
0.0000
 30
0.0000
 40
0.2540
 41
0.2540
 70
0
  0
VERTEX
  8
1
 10
31.2052
 20
40.6552
 30
0.0000
 42
1.0000
  0
VERTEX
  8
1
 10
30.9824
 20
40.7772
 30
0.0000
  0
SEQEND
  8
0
  0
POLYLINE
  8
1
 66
1
 10
0.0000
 20
0.0000
 30
0.0000
 40
0.2540
 41
0.2540
 70
0
  0
VERTEX
  8
1
 10
30.7936
 20
40.4326
 30
0.0000
 42
1.0000
  0
VERTEX
  8
1
 10
31.0164
 20
40.3106
 30
0.0000
  0
SEQEND
  8
0
  0
POLYLINE
  8
1
 66
1
 10
0.0000
 20
0.0000
 30
0.0000
 40
0.5080
 41
0.5080
 70
0
  0
VERTEX
  8
1
 10
61.3410
 20
22.7390
 30
0.0000
  0
VERTEX
  8
1
 10
66.5800
 20
17.5000
 30
0.0000
  0
SEQEND
  8
0
  0
POLYLINE
  8
1
 66
1
 10
0.0000
 20
0.0000
 30
0.0000
 40
0.2540
 41
0.2540
 70
0
  0
VERTEX
  8
1
 10
66.4902
 20
17.4102
 30
0.0000
 42
1.0000
  0
VERTEX
  8
1
 10
66.6698
 20
17.5898
 30
0.0000
  0
SEQEND
  8
0
  0
POLYLINE
  8
1
 66
1
 10
0.0000
 20
0.0000
 30
0.0000
 40
0.2540
 41
0.2540
 70
0
  0
VERTEX
  8
1
 10
61.4308
 20
22.8288
 30
0.0000
 42
1.0000
  0
VERTEX
  8
1
 10
61.2512
 20
22.6492
 30
0.0000
  0
SEQEND
  8
0
  0
POLYLINE
  8
1
 66
1
 10
0.0000
 20
0.0000
 30
0.0000
 40
0.5080
 41
0.5080
 70
0
  0
VERTEX
  8
1
 10
61.3410
 20
26.8478
 30
0.0000
  0
VERTEX
  8
1
 10
61.3410
 20
22.7390
 30
0.0000
  0
SEQEND
  8
0
  0
POLYLINE
  8
1
 66
1
 10
0.0000
 20
0.0000
 30
0.0000
 40
0.2540
 41
0.2540
 70
0
  0
VERTEX
  8
1
 10
61.2140
 20
22.7390
 30
0.0000
 42
1.0000
  0
VERTEX
  8
1
 10
61.4680
 20
22.7390
 30
0.0000
  0
SEQEND
  8
0
  0
POLYLINE
  8
1
 66
1
 10
0.0000
 20
0.0000
 30
0.0000
 40
0.2540
 41
0.2540
 70
0
  0
VERTEX
  8
1
 10
61.4680
 20
26.8478
 30
0.0000
 42
1.0000
  0
VERTEX
  8
1
 10
61.2140
 20
26.8478
 30
0.0000
  0
SEQEND
  8
0
  0
POLYLINE
  8
1
 66
1
 10
0.0000
 20
0.0000
 30
0.0000
 40
0.5080
 41
0.5080
 70
0
  0
VERTEX
  8
1
 10
60.9854
 20
27.2034
 30
0.0000
  0
VERTEX
  8
1
 10
61.3410
 20
26.8478
 30
0.0000
  0
SEQEND
  8
0
  0
POLYLINE
  8
1
 66
1
 10
0.0000
 20
0.0000
 30
0.0000
 40
0.2540
 41
0.2540
 70
0
  0
VERTEX
  8
1
 10
61.2512
 20
26.7580
 30
0.0000
 42
1.0000
  0
VERTEX
  8
1
 10
61.4308
 20
26.9376
 30
0.0000
  0
SEQEND
  8
0
  0
POLYLINE
  8
1
 66
1
 10
0.0000
 20
0.0000
 30
0.0000
 40
0.2540
 41
0.2540
 70
0
  0
VERTEX
  8
1
 10
61.0752
 20
27.2932
 30
0.0000
 42
1.0000
  0
VERTEX
  8
1
 10
60.8956
 20
27.1136
 30
0.0000
  0
SEQEND
  8
0
  0
POLYLINE
  8
1
 66
1
 10
0.0000
 20
0.0000
 30
0.0000
 40
0.5080
 41
0.5080
 70
0
  0
VERTEX
  8
1
 10
60.9854
 20
39.5946
 30
0.0000
  0
VERTEX
  8
1
 10
60.9854
 20
27.2034
 30
0.0000
  0
SEQEND
  8
0
  0
POLYLINE
  8
1
 66
1
 10
0.0000
 20
0.0000
 30
0.0000
 40
0.2540
 41
0.2540
 70
0
  0
VERTEX
  8
1
 10
60.8584
 20
27.2034
 30
0.0000
 42
1.0000
  0
VERTEX
  8
1
 10
61.1124
 20
27.2034
 30
0.0000
  0
SEQEND
  8
0
  0
POLYLINE
  8
1
 66
1
 10
0.0000
 20
0.0000
 30
0.0000
 40
0.2540
 41
0.2540
 70
0
  0
VERTEX
  8
1
 10
61.1124
 20
39.5946
 30
0.0000
 42
1.0000
  0
VERTEX
  8
1
 10
60.8584
 20
39.5946
 30
0.0000
  0
SEQEND
  8
0
  0
POLYLINE
  8
1
 66
1
 10
0.0000
 20
0.0000
 30
0.0000
 40
0.5080
 41
0.5080
 70
0
  0
VERTEX
  8
1
 10
60.0800
 20
40.5000
 30
0.0000
  0
VERTEX
  8
1
 10
60.9854
 20
39.5946
 30
0.0000
  0
SEQEND
  8
0
  0
POLYLINE
  8
1
 66
1
 10
0.0000
 20
0.0000
 30
0.0000
 40
0.2540
 41
0.2540
 70
0
  0
VERTEX
  8
1
 10
60.8956
 20
39.5048
 30
0.0000
 42
1.0000
  0
VERTEX
  8
1
 10
61.0752
 20
39.6844
 30
0.0000
  0
SEQEND
  8
0
  0
POLYLINE
  8
1
 66
1
 10
0.0000
 20
0.0000
 30
0.0000
 40
0.2540
 41
0.2540
 70
0
  0
VERTEX
  8
1
 10
60.1698
 20
40.5898
 30
0.0000
 42
1.0000
  0
VERTEX
  8
1
 10
59.9902
 20
40.4102
 30
0.0000
  0
SEQEND
  8
0
  0
POLYLINE
  8
1
 66
1
 10
0.0000
 20
0.0000
 30
0.0000
 40
0.5080
 41
0.5080
 70
0
  0
VERTEX
  8
1
 10
66.5800
 20
17.5000
 30
0.0000
  0
VERTEX
  8
1
 10
66.5800
 20
13.5000
 30
0.0000
  0
SEQEND
  8
0
  0
POLYLINE
  8
1
 66
1
 10
0.0000
 20
0.0000
 30
0.0000
 40
0.2540
 41
0.2540
 70
0
  0
VERTEX
  8
1
 10
66.4530
 20
13.5000
 30
0.0000
 42
1.0000
  0
VERTEX
  8
1
 10
66.7070
 20
13.5000
 30
0.0000
  0
SEQEND
  8
0
  0
POLYLINE
  8
1
 66
1
 10
0.0000
 20
0.0000
 30
0.0000
 40
0.2540
 41
0.2540
 70
0
  0
VERTEX
  8
1
 10
66.7070
 20
17.5000
 30
0.0000
 42
1.0000
  0
VERTEX
  8
1
 10
66.4530
 20
17.5000
 30
0.0000
  0
SEQEND
  8
0
  0
POLYLINE
  8
1
 66
1
 10
0.0000
 20
0.0000
 30
0.0000
 40
0.5080
 41
0.5080
 70
0
  0
VERTEX
  8
1
 10
66.5800
 20
13.5000
 30
0.0000
  0
VERTEX
  8
1
 10
59.9200
 20
13.5000
 30
0.0000
  0
SEQEND
  8
0
  0
POLYLINE
  8
1
 66
1
 10
0.0000
 20
0.0000
 30
0.0000
 40
0.2540
 41
0.2540
 70
0
  0
VERTEX
  8
1
 10
59.9200
 20
13.6270
 30
0.0000
 42
1.0000
  0
VERTEX
  8
1
 10
59.9200
 20
13.3730
 30
0.0000
  0
SEQEND
  8
0
  0
POLYLINE
  8
1
 66
1
 10
0.0000
 20
0.0000
 30
0.0000
 40
0.2540
 41
0.2540
 70
0
  0
VERTEX
  8
1
 10
66.5800
 20
13.3730
 30
0.0000
 42
1.0000
  0
VERTEX
  8
1
 10
66.5800
 20
13.6270
 30
0.0000
  0
SEQEND
  8
0
  0
POLYLINE
  8
1
 66
1
 10
0.0000
 20
0.0000
 30
0.0000
 40
0.5080
 41
0.5080
 70
0
  0
VERTEX
  8
1
 10
59.9200
 20
13.5000
 30
0.0000
  0
VERTEX
  8
1
 10
56.4200
 20
10.0000
 30
0.0000
  0
SEQEND
  8
0
  0
POLYLINE
  8
1
 66
1
 10
0.0000
 20
0.0000
 30
0.0000
 40
0.2540
 41
0.2540
 70
0
  0
VERTEX
  8
1
 10
56.3302
 20
10.0898
 30
0.0000
 42
1.0000
  0
VERTEX
  8
1
 10
56.5098
 20
9.9102
 30
0.0000
  0
SEQEND
  8
0
  0
POLYLINE
  8
1
 66
1
 10
0.0000
 20
0.0000
 30
0.0000
 40
0.2540
 41
0.2540
 70
0
  0
VERTEX
  8
1
 10
60.0098
 20
13.4102
 30
0.0000
 42
1.0000
  0
VERTEX
  8
1
 10
59.8302
 20
13.5898
 30
0.0000
  0
SEQEND
  8
0
  0
POLYLINE
  8
1
 66
1
 10
0.0000
 20
0.0000
 30
0.0000
 40
0.5080
 41
0.5080
 70
0
  0
VERTEX
  8
1
 10
26.0800
 20
15.0000
 30
0.0000
  0
VERTEX
  8
1
 10
25.5384
 20
15.0000
 30
0.0000
  0
SEQEND
  8
0
  0
POLYLINE
  8
1
 66
1
 10
0.0000
 20
0.0000
 30
0.0000
 40
0.2540
 41
0.2540
 70
0
  0
VERTEX
  8
1
 10
25.5384
 20
15.1270
 30
0.0000
 42
1.0000
  0
VERTEX
  8
1
 10
25.5384
 20
14.8730
 30
0.0000
  0
SEQEND
  8
0
  0
POLYLINE
  8
1
 66
1
 10
0.0000
 20
0.0000
 30
0.0000
 40
0.2540
 41
0.2540
 70
0
  0
VERTEX
  8
1
 10
26.0800
 20
14.8730
 30
0.0000
 42
1.0000
  0
VERTEX
  8
1
 10
26.0800
 20
15.1270
 30
0.0000
  0
SEQEND
  8
0
  0
POLYLINE
  8
1
 66
1
 10
0.0000
 20
0.0000
 30
0.0000
 40
0.5080
 41
0.5080
 70
0
  0
VERTEX
  8
1
 10
25.5384
 20
15.0000
 30
0.0000
  0
VERTEX
  8
1
 10
22.7584
 20
17.7800
 30
0.0000
  0
SEQEND
  8
0
  0
POLYLINE
  8
1
 66
1
 10
0.0000
 20
0.0000
 30
0.0000
 40
0.2540
 41
0.2540
 70
0
  0
VERTEX
  8
1
 10
22.8482
 20
17.8698
 30
0.0000
 42
1.0000
  0
VERTEX
  8
1
 10
22.6686
 20
17.6902
 30
0.0000
  0
SEQEND
  8
0
  0
POLYLINE
  8
1
 66
1
 10
0.0000
 20
0.0000
 30
0.0000
 40
0.2540
 41
0.2540
 70
0
  0
VERTEX
  8
1
 10
25.4486
 20
14.9102
 30
0.0000
 42
1.0000
  0
VERTEX
  8
1
 10
25.6282
 20
15.0898
 30
0.0000
  0
SEQEND
  8
0
  0
POLYLINE
  8
1
 66
1
 10
0.0000
 20
0.0000
 30
0.0000
 40
0.5080
 41
0.5080
 70
0
  0
VERTEX
  8
1
 10
22.7584
 20
17.7800
 30
0.0000
  0
VERTEX
  8
1
 10
22.7584
 20
21.8694
 30
0.0000
  0
SEQEND
  8
0
  0
POLYLINE
  8
1
 66
1
 10
0.0000
 20
0.0000
 30
0.0000
 40
0.2540
 41
0.2540
 70
0
  0
VERTEX
  8
1
 10
22.8854
 20
21.8694
 30
0.0000
 42
1.0000
  0
VERTEX
  8
1
 10
22.6314
 20
21.8694
 30
0.0000
  0
SEQEND
  8
0
  0
POLYLINE
  8
1
 66
1
 10
0.0000
 20
0.0000
 30
0.0000
 40
0.2540
 41
0.2540
 70
0
  0
VERTEX
  8
1
 10
22.6314
 20
17.7800
 30
0.0000
 42
1.0000
  0
VERTEX
  8
1
 10
22.8854
 20
17.7800
 30
0.0000
  0
SEQEND
  8
0
  0
POLYLINE
  8
1
 66
1
 10
0.0000
 20
0.0000
 30
0.0000
 40
0.5080
 41
0.5080
 70
0
  0
VERTEX
  8
1
 10
22.7584
 20
21.8694
 30
0.0000
  0
VERTEX
  8
1
 10
27.0256
 20
26.1366
 30
0.0000
  0
SEQEND
  8
0
  0
POLYLINE
  8
1
 66
1
 10
0.0000
 20
0.0000
 30
0.0000
 40
0.2540
 41
0.2540
 70
0
  0
VERTEX
  8
1
 10
27.1154
 20
26.0468
 30
0.0000
 42
1.0000
  0
VERTEX
  8
1
 10
26.9358
 20
26.2264
 30
0.0000
  0
SEQEND
  8
0
  0
POLYLINE
  8
1
 66
1
 10
0.0000
 20
0.0000
 30
0.0000
 40
0.2540
 41
0.2540
 70
0
  0
VERTEX
  8
1
 10
22.6686
 20
21.9592
 30
0.0000
 42
1.0000
  0
VERTEX
  8
1
 10
22.8482
 20
21.7796
 30
0.0000
  0
SEQEND
  8
0
  0
POLYLINE
  8
1
 66
1
 10
0.0000
 20
0.0000
 30
0.0000
 40
0.5080
 41
0.5080
 70
0
  0
VERTEX
  8
1
 10
27.0256
 20
26.1366
 30
0.0000
  0
VERTEX
  8
1
 10
27.0256
 20
30.7594
 30
0.0000
  0
SEQEND
  8
0
  0
POLYLINE
  8
1
 66
1
 10
0.0000
 20
0.0000
 30
0.0000
 40
0.2540
 41
0.2540
 70
0
  0
VERTEX
  8
1
 10
27.1526
 20
30.7594
 30
0.0000
 42
1.0000
  0
VERTEX
  8
1
 10
26.8986
 20
30.7594
 30
0.0000
  0
SEQEND
  8
0
  0
POLYLINE
  8
1
 66
1
 10
0.0000
 20
0.0000
 30
0.0000
 40
0.2540
 41
0.2540
 70
0
  0
VERTEX
  8
1
 10
26.8986
 20
26.1366
 30
0.0000
 42
1.0000
  0
VERTEX
  8
1
 10
27.1526
 20
26.1366
 30
0.0000
  0
SEQEND
  8
0
  0
POLYLINE
  8
1
 66
1
 10
0.0000
 20
0.0000
 30
0.0000
 40
0.5080
 41
0.5080
 70
0
  0
VERTEX
  8
1
 10
27.0256
 20
30.7594
 30
0.0000
  0
VERTEX
  8
1
 10
24.5364
 20
33.2486
 30
0.0000
  0
SEQEND
  8
0
  0
POLYLINE
  8
1
 66
1
 10
0.0000
 20
0.0000
 30
0.0000
 40
0.2540
 41
0.2540
 70
0
  0
VERTEX
  8
1
 10
24.6262
 20
33.3384
 30
0.0000
 42
1.0000
  0
VERTEX
  8
1
 10
24.4466
 20
33.1588
 30
0.0000
  0
SEQEND
  8
0
  0
POLYLINE
  8
1
 66
1
 10
0.0000
 20
0.0000
 30
0.0000
 40
0.2540
 41
0.2540
 70
0
  0
VERTEX
  8
1
 10
26.9358
 20
30.6696
 30
0.0000
 42
1.0000
  0
VERTEX
  8
1
 10
27.1154
 20
30.8492
 30
0.0000
  0
SEQEND
  8
0
  0
POLYLINE
  8
1
 66
1
 10
0.0000
 20
0.0000
 30
0.0000
 40
0.5080
 41
0.5080
 70
0
  0
VERTEX
  8
1
 10
24.5364
 20
33.2486
 30
0.0000
  0
VERTEX
  8
1
 10
24.5364
 20
38.2270
 30
0.0000
  0
SEQEND
  8
0
  0
POLYLINE
  8
1
 66
1
 10
0.0000
 20
0.0000
 30
0.0000
 40
0.2540
 41
0.2540
 70
0
  0
VERTEX
  8
1
 10
24.6634
 20
38.2270
 30
0.0000
 42
1.0000
  0
VERTEX
  8
1
 10
24.4094
 20
38.2270
 30
0.0000
  0
SEQEND
  8
0
  0
POLYLINE
  8
1
 66
1
 10
0.0000
 20
0.0000
 30
0.0000
 40
0.2540
 41
0.2540
 70
0
  0
VERTEX
  8
1
 10
24.4094
 20
33.2486
 30
0.0000
 42
1.0000
  0
VERTEX
  8
1
 10
24.6634
 20
33.2486
 30
0.0000
  0
SEQEND
  8
0
  0
POLYLINE
  8
1
 66
1
 10
0.0000
 20
0.0000
 30
0.0000
 40
0.5080
 41
0.5080
 70
0
  0
VERTEX
  8
1
 10
24.5364
 20
38.2270
 30
0.0000
  0
VERTEX
  8
1
 10
27.0256
 20
40.7162
 30
0.0000
  0
SEQEND
  8
0
  0
POLYLINE
  8
1
 66
1
 10
0.0000
 20
0.0000
 30
0.0000
 40
0.2540
 41
0.2540
 70
0
  0
VERTEX
  8
1
 10
27.1154
 20
40.6264
 30
0.0000
 42
1.0000
  0
VERTEX
  8
1
 10
26.9358
 20
40.8060
 30
0.0000
  0
SEQEND
  8
0
  0
POLYLINE
  8
1
 66
1
 10
0.0000
 20
0.0000
 30
0.0000
 40
0.2540
 41
0.2540
 70
0
  0
VERTEX
  8
1
 10
24.4466
 20
38.3168
 30
0.0000
 42
1.0000
  0
VERTEX
  8
1
 10
24.6262
 20
38.1372
 30
0.0000
  0
SEQEND
  8
0
  0
POLYLINE
  8
1
 66
1
 10
0.0000
 20
0.0000
 30
0.0000
 40
0.5080
 41
0.5080
 70
0
  0
VERTEX
  8
1
 10
27.0256
 20
40.7162
 30
0.0000
  0
VERTEX
  8
1
 10
30.7162
 20
40.7162
 30
0.0000
  0
SEQEND
  8
0
  0
POLYLINE
  8
1
 66
1
 10
0.0000
 20
0.0000
 30
0.0000
 40
0.2540
 41
0.2540
 70
0
  0
VERTEX
  8
1
 10
30.7162
 20
40.5892
 30
0.0000
 42
1.0000
  0
VERTEX
  8
1
 10
30.7162
 20
40.8432
 30
0.0000
  0
SEQEND
  8
0
  0
POLYLINE
  8
1
 66
1
 10
0.0000
 20
0.0000
 30
0.0000
 40
0.2540
 41
0.2540
 70
0
  0
VERTEX
  8
1
 10
27.0256
 20
40.8432
 30
0.0000
 42
1.0000
  0
VERTEX
  8
1
 10
27.0256
 20
40.5892
 30
0.0000
  0
SEQEND
  8
0
  0
POLYLINE
  8
1
 66
1
 10
0.0000
 20
0.0000
 30
0.0000
 40
0.5080
 41
0.5080
 70
0
  0
VERTEX
  8
1
 10
30.7162
 20
40.7162
 30
0.0000
  0
VERTEX
  8
1
 10
30.9050
 20
40.3716
 30
0.0000
  0
SEQEND
  8
0
  0
POLYLINE
  8
1
 66
1
 10
0.0000
 20
0.0000
 30
0.0000
 40
0.2540
 41
0.2540
 70
0
  0
VERTEX
  8
1
 10
30.7936
 20
40.3106
 30
0.0000
 42
1.0000
  0
VERTEX
  8
1
 10
31.0164
 20
40.4326
 30
0.0000
  0
SEQEND
  8
0
  0
POLYLINE
  8
1
 66
1
 10
0.0000
 20
0.0000
 30
0.0000
 40
0.2540
 41
0.2540
 70
0
  0
VERTEX
  8
1
 10
30.8276
 20
40.7772
 30
0.0000
 42
1.0000
  0
VERTEX
  8
1
 10
30.6048
 20
40.6552
 30
0.0000
  0
SEQEND
  8
0
  0
POLYLINE
  8
1
 66
1
 10
0.0000
 20
0.0000
 30
0.0000
 40
0.5080
 41
0.5080
 70
0
  0
VERTEX
  8
1
 10
29.3370
 20
46.5836
 30
0.0000
  0
VERTEX
  8
1
 10
28.1000
 20
45.3466
 30
0.0000
  0
SEQEND
  8
0
  0
POLYLINE
  8
1
 66
1
 10
0.0000
 20
0.0000
 30
0.0000
 40
0.2540
 41
0.2540
 70
0
  0
VERTEX
  8
1
 10
28.0102
 20
45.4364
 30
0.0000
 42
1.0000
  0
VERTEX
  8
1
 10
28.1898
 20
45.2568
 30
0.0000
  0
SEQEND
  8
0
  0
POLYLINE
  8
1
 66
1
 10
0.0000
 20
0.0000
 30
0.0000
 40
0.2540
 41
0.2540
 70
0
  0
VERTEX
  8
1
 10
29.4268
 20
46.4938
 30
0.0000
 42
1.0000
  0
VERTEX
  8
1
 10
29.2472
 20
46.6734
 30
0.0000
  0
SEQEND
  8
0
  0
POLYLINE
  8
1
 66
1
 10
0.0000
 20
0.0000
 30
0.0000
 40
0.5080
 41
0.5080
 70
0
  0
VERTEX
  8
1
 10
28.1000
 20
45.3466
 30
0.0000
  0
VERTEX
  8
1
 10
28.1000
 20
44.4500
 30
0.0000
  0
SEQEND
  8
0
  0
POLYLINE
  8
1
 66
1
 10
0.0000
 20
0.0000
 30
0.0000
 40
0.2540
 41
0.2540
 70
0
  0
VERTEX
  8
1
 10
27.9730
 20
44.4500
 30
0.0000
 42
1.0000
  0
VERTEX
  8
1
 10
28.2270
 20
44.4500
 30
0.0000
  0
SEQEND
  8
0
  0
POLYLINE
  8
1
 66
1
 10
0.0000
 20
0.0000
 30
0.0000
 40
0.2540
 41
0.2540
 70
0
  0
VERTEX
  8
1
 10
28.2270
 20
45.3466
 30
0.0000
 42
1.0000
  0
VERTEX
  8
1
 10
27.9730
 20
45.3466
 30
0.0000
  0
SEQEND
  8
0
  0
POLYLINE
  8
1
 66
1
 10
0.0000
 20
0.0000
 30
0.0000
 40
0.5080
 41
0.5080
 70
0
  0
VERTEX
  8
1
 10
33.4264
 20
46.5836
 30
0.0000
  0
VERTEX
  8
1
 10
29.6926
 20
46.5836
 30
0.0000
  0
SEQEND
  8
0
  0
POLYLINE
  8
1
 66
1
 10
0.0000
 20
0.0000
 30
0.0000
 40
0.2540
 41
0.2540
 70
0
  0
VERTEX
  8
1
 10
29.6926
 20
46.7106
 30
0.0000
 42
1.0000
  0
VERTEX
  8
1
 10
29.6926
 20
46.4566
 30
0.0000
  0
SEQEND
  8
0
  0
POLYLINE
  8
1
 66
1
 10
0.0000
 20
0.0000
 30
0.0000
 40
0.2540
 41
0.2540
 70
0
  0
VERTEX
  8
1
 10
33.4264
 20
46.4566
 30
0.0000
 42
1.0000
  0
VERTEX
  8
1
 10
33.4264
 20
46.7106
 30
0.0000
  0
SEQEND
  8
0
  0
POLYLINE
  8
1
 66
1
 10
0.0000
 20
0.0000
 30
0.0000
 40
0.5080
 41
0.5080
 70
0
  0
VERTEX
  8
1
 10
29.6926
 20
46.5836
 30
0.0000
  0
VERTEX
  8
1
 10
29.3370
 20
46.5836
 30
0.0000
  0
SEQEND
  8
0
  0
POLYLINE
  8
1
 66
1
 10
0.0000
 20
0.0000
 30
0.0000
 40
0.2540
 41
0.2540
 70
0
  0
VERTEX
  8
1
 10
29.3370
 20
46.7106
 30
0.0000
 42
1.0000
  0
VERTEX
  8
1
 10
29.3370
 20
46.4566
 30
0.0000
  0
SEQEND
  8
0
  0
POLYLINE
  8
1
 66
1
 10
0.0000
 20
0.0000
 30
0.0000
 40
0.2540
 41
0.2540
 70
0
  0
VERTEX
  8
1
 10
29.6926
 20
46.4566
 30
0.0000
 42
1.0000
  0
VERTEX
  8
1
 10
29.6926
 20
46.7106
 30
0.0000
  0
SEQEND
  8
0
  0
POLYLINE
  8
1
 66
1
 10
0.0000
 20
0.0000
 30
0.0000
 40
0.5080
 41
0.5080
 70
0
  0
VERTEX
  8
1
 10
35.0266
 20
44.9834
 30
0.0000
  0
VERTEX
  8
1
 10
33.4264
 20
46.5836
 30
0.0000
  0
SEQEND
  8
0
  0
POLYLINE
  8
1
 66
1
 10
0.0000
 20
0.0000
 30
0.0000
 40
0.2540
 41
0.2540
 70
0
  0
VERTEX
  8
1
 10
33.5162
 20
46.6734
 30
0.0000
 42
1.0000
  0
VERTEX
  8
1
 10
33.3366
 20
46.4938
 30
0.0000
  0
SEQEND
  8
0
  0
POLYLINE
  8
1
 66
1
 10
0.0000
 20
0.0000
 30
0.0000
 40
0.2540
 41
0.2540
 70
0
  0
VERTEX
  8
1
 10
34.9368
 20
44.8936
 30
0.0000
 42
1.0000
  0
VERTEX
  8
1
 10
35.1164
 20
45.0732
 30
0.0000
  0
SEQEND
  8
0
  0
POLYLINE
  8
1
 66
1
 10
0.0000
 20
0.0000
 30
0.0000
 40
0.5080
 41
0.5080
 70
0
  0
VERTEX
  8
1
 10
36.2712
 20
44.9834
 30
0.0000
  0
VERTEX
  8
1
 10
35.0266
 20
44.9834
 30
0.0000
  0
SEQEND
  8
0
  0
POLYLINE
  8
1
 66
1
 10
0.0000
 20
0.0000
 30
0.0000
 40
0.2540
 41
0.2540
 70
0
  0
VERTEX
  8
1
 10
35.0266
 20
45.1104
 30
0.0000
 42
1.0000
  0
VERTEX
  8
1
 10
35.0266
 20
44.8564
 30
0.0000
  0
SEQEND
  8
0
  0
POLYLINE
  8
1
 66
1
 10
0.0000
 20
0.0000
 30
0.0000
 40
0.2540
 41
0.2540
 70
0
  0
VERTEX
  8
1
 10
36.2712
 20
44.8564
 30
0.0000
 42
1.0000
  0
VERTEX
  8
1
 10
36.2712
 20
45.1104
 30
0.0000
  0
SEQEND
  8
0
  0
POLYLINE
  8
1
 66
1
 10
0.0000
 20
0.0000
 30
0.0000
 40
0.5080
 41
0.5080
 70
0
  0
VERTEX
  8
1
 10
37.6936
 20
43.5610
 30
0.0000
  0
VERTEX
  8
1
 10
36.2712
 20
44.9834
 30
0.0000
  0
SEQEND
  8
0
  0
POLYLINE
  8
1
 66
1
 10
0.0000
 20
0.0000
 30
0.0000
 40
0.2540
 41
0.2540
 70
0
  0
VERTEX
  8
1
 10
36.3610
 20
45.0732
 30
0.0000
 42
1.0000
  0
VERTEX
  8
1
 10
36.1814
 20
44.8936
 30
0.0000
  0
SEQEND
  8
0
  0
POLYLINE
  8
1
 66
1
 10
0.0000
 20
0.0000
 30
0.0000
 40
0.2540
 41
0.2540
 70
0
  0
VERTEX
  8
1
 10
37.6038
 20
43.4712
 30
0.0000
 42
1.0000
  0
VERTEX
  8
1
 10
37.7834
 20
43.6508
 30
0.0000
  0
SEQEND
  8
0
  0
POLYLINE
  8
1
 66
1
 10
0.0000
 20
0.0000
 30
0.0000
 40
0.5080
 41
0.5080
 70
0
  0
VERTEX
  8
1
 10
37.6936
 20
37.3380
 30
0.0000
  0
VERTEX
  8
1
 10
37.6936
 20
43.5610
 30
0.0000
  0
SEQEND
  8
0
  0
POLYLINE
  8
1
 66
1
 10
0.0000
 20
0.0000
 30
0.0000
 40
0.2540
 41
0.2540
 70
0
  0
VERTEX
  8
1
 10
37.8206
 20
43.5610
 30
0.0000
 42
1.0000
  0
VERTEX
  8
1
 10
37.5666
 20
43.5610
 30
0.0000
  0
SEQEND
  8
0
  0
POLYLINE
  8
1
 66
1
 10
0.0000
 20
0.0000
 30
0.0000
 40
0.2540
 41
0.2540
 70
0
  0
VERTEX
  8
1
 10
37.5666
 20
37.3380
 30
0.0000
 42
1.0000
  0
VERTEX
  8
1
 10
37.8206
 20
37.3380
 30
0.0000
  0
SEQEND
  8
0
  0
POLYLINE
  8
1
 66
1
 10
0.0000
 20
0.0000
 30
0.0000
 40
0.5080
 41
0.5080
 70
0
  0
VERTEX
  8
1
 10
28.7762
 20
47.5000
 30
0.0000
  0
VERTEX
  8
1
 10
25.9200
 20
47.5000
 30
0.0000
  0
SEQEND
  8
0
  0
POLYLINE
  8
1
 66
1
 10
0.0000
 20
0.0000
 30
0.0000
 40
0.2540
 41
0.2540
 70
0
  0
VERTEX
  8
1
 10
25.9200
 20
47.6270
 30
0.0000
 42
1.0000
  0
VERTEX
  8
1
 10
25.9200
 20
47.3730
 30
0.0000
  0
SEQEND
  8
0
  0
POLYLINE
  8
1
 66
1
 10
0.0000
 20
0.0000
 30
0.0000
 40
0.2540
 41
0.2540
 70
0
  0
VERTEX
  8
1
 10
28.7762
 20
47.3730
 30
0.0000
 42
1.0000
  0
VERTEX
  8
1
 10
28.7762
 20
47.6270
 30
0.0000
  0
SEQEND
  8
0
  0
POLYLINE
  8
1
 66
1
 10
0.0000
 20
0.0000
 30
0.0000
 40
0.5080
 41
0.5080
 70
0
  0
VERTEX
  8
1
 10
29.6926
 20
46.5836
 30
0.0000
  0
VERTEX
  8
1
 10
28.7762
 20
47.5000
 30
0.0000
  0
SEQEND
  8
0
  0
POLYLINE
  8
1
 66
1
 10
0.0000
 20
0.0000
 30
0.0000
 40
0.2540
 41
0.2540
 70
0
  0
VERTEX
  8
1
 10
28.8660
 20
47.5898
 30
0.0000
 42
1.0000
  0
VERTEX
  8
1
 10
28.6864
 20
47.4102
 30
0.0000
  0
SEQEND
  8
0
  0
POLYLINE
  8
1
 66
1
 10
0.0000
 20
0.0000
 30
0.0000
 40
0.2540
 41
0.2540
 70
0
  0
VERTEX
  8
1
 10
29.6028
 20
46.4938
 30
0.0000
 42
1.0000
  0
VERTEX
  8
1
 10
29.7824
 20
46.6734
 30
0.0000
  0
SEQEND
  8
0
  0
POLYLINE
  8
1
 66
1
 10
0.0000
 20
0.0000
 30
0.0000
 40
0.5080
 41
0.5080
 70
0
  0
VERTEX
  8
1
 10
51.3842
 20
37.8714
 30
0.0000
  0
VERTEX
  8
1
 10
57.0738
 20
43.5610
 30
0.0000
  0
SEQEND
  8
0
  0
POLYLINE
  8
1
 66
1
 10
0.0000
 20
0.0000
 30
0.0000
 40
0.2540
 41
0.2540
 70
0
  0
VERTEX
  8
1
 10
57.1636
 20
43.4712
 30
0.0000
 42
1.0000
  0
VERTEX
  8
1
 10
56.9840
 20
43.6508
 30
0.0000
  0
SEQEND
  8
0
  0
POLYLINE
  8
1
 66
1
 10
0.0000
 20
0.0000
 30
0.0000
 40
0.2540
 41
0.2540
 70
0
  0
VERTEX
  8
1
 10
51.2944
 20
37.9612
 30
0.0000
 42
1.0000
  0
VERTEX
  8
1
 10
51.4740
 20
37.7816
 30
0.0000
  0
SEQEND
  8
0
  0
POLYLINE
  8
1
 66
1
 10
0.0000
 20
0.0000
 30
0.0000
 40
0.5080
 41
0.5080
 70
0
  0
VERTEX
  8
1
 10
57.0738
 20
43.5610
 30
0.0000
  0
VERTEX
  8
1
 10
60.2742
 20
43.5610
 30
0.0000
  0
SEQEND
  8
0
  0
POLYLINE
  8
1
 66
1
 10
0.0000
 20
0.0000
 30
0.0000
 40
0.2540
 41
0.2540
 70
0
  0
VERTEX
  8
1
 10
60.2742
 20
43.4340
 30
0.0000
 42
1.0000
  0
VERTEX
  8
1
 10
60.2742
 20
43.6880
 30
0.0000
  0
SEQEND
  8
0
  0
POLYLINE
  8
1
 66
1
 10
0.0000
 20
0.0000
 30
0.0000
 40
0.2540
 41
0.2540
 70
0
  0
VERTEX
  8
1
 10
57.0738
 20
43.6880
 30
0.0000
 42
1.0000
  0
VERTEX
  8
1
 10
57.0738
 20
43.4340
 30
0.0000
  0
SEQEND
  8
0
  0
POLYLINE
  8
1
 66
1
 10
0.0000
 20
0.0000
 30
0.0000
 40
0.5080
 41
0.5080
 70
0
  0
VERTEX
  8
1
 10
60.2742
 20
43.5610
 30
0.0000
  0
VERTEX
  8
1
 10
63.0000
 20
46.2868
 30
0.0000
  0
SEQEND
  8
0
  0
POLYLINE
  8
1
 66
1
 10
0.0000
 20
0.0000
 30
0.0000
 40
0.2540
 41
0.2540
 70
0
  0
VERTEX
  8
1
 10
63.0898
 20
46.1970
 30
0.0000
 42
1.0000
  0
VERTEX
  8
1
 10
62.9102
 20
46.3766
 30
0.0000
  0
SEQEND
  8
0
  0
POLYLINE
  8
1
 66
1
 10
0.0000
 20
0.0000
 30
0.0000
 40
0.2540
 41
0.2540
 70
0
  0
VERTEX
  8
1
 10
60.1844
 20
43.6508
 30
0.0000
 42
1.0000
  0
VERTEX
  8
1
 10
60.3640
 20
43.4712
 30
0.0000
  0
SEQEND
  8
0
  0
POLYLINE
  8
1
 66
1
 10
0.0000
 20
0.0000
 30
0.0000
 40
0.5080
 41
0.5080
 70
0
  0
VERTEX
  8
1
 10
63.0000
 20
46.2868
 30
0.0000
  0
VERTEX
  8
1
 10
63.0000
 20
47.5800
 30
0.0000
  0
SEQEND
  8
0
  0
POLYLINE
  8
1
 66
1
 10
0.0000
 20
0.0000
 30
0.0000
 40
0.2540
 41
0.2540
 70
0
  0
VERTEX
  8
1
 10
63.1270
 20
47.5800
 30
0.0000
 42
1.0000
  0
VERTEX
  8
1
 10
62.8730
 20
47.5800
 30
0.0000
  0
SEQEND
  8
0
  0
POLYLINE
  8
1
 66
1
 10
0.0000
 20
0.0000
 30
0.0000
 40
0.2540
 41
0.2540
 70
0
  0
VERTEX
  8
1
 10
62.8730
 20
46.2868
 30
0.0000
 42
1.0000
  0
VERTEX
  8
1
 10
63.1270
 20
46.2868
 30
0.0000
  0
SEQEND
  8
0
  0
POLYLINE
  8
1
 66
1
 10
0.0000
 20
0.0000
 30
0.0000
 40
0.5080
 41
0.5080
 70
0
  0
VERTEX
  8
1
 10
24.5364
 20
42.6720
 30
0.0000
  0
VERTEX
  8
1
 10
33.4264
 20
42.6720
 30
0.0000
  0
SEQEND
  8
0
  0
POLYLINE
  8
1
 66
1
 10
0.0000
 20
0.0000
 30
0.0000
 40
0.2540
 41
0.2540
 70
0
  0
VERTEX
  8
1
 10
33.4264
 20
42.5450
 30
0.0000
 42
1.0000
  0
VERTEX
  8
1
 10
33.4264
 20
42.7990
 30
0.0000
  0
SEQEND
  8
0
  0
POLYLINE
  8
1
 66
1
 10
0.0000
 20
0.0000
 30
0.0000
 40
0.2540
 41
0.2540
 70
0
  0
VERTEX
  8
1
 10
24.5364
 20
42.7990
 30
0.0000
 42
1.0000
  0
VERTEX
  8
1
 10
24.5364
 20
42.5450
 30
0.0000
  0
SEQEND
  8
0
  0
POLYLINE
  8
1
 66
1
 10
0.0000
 20
0.0000
 30
0.0000
 40
0.5080
 41
0.5080
 70
0
  0
VERTEX
  8
1
 10
22.5000
 20
47.5800
 30
0.0000
  0
VERTEX
  8
1
 10
22.5000
 20
44.7084
 30
0.0000
  0
SEQEND
  8
0
  0
POLYLINE
  8
1
 66
1
 10
0.0000
 20
0.0000
 30
0.0000
 40
0.2540
 41
0.2540
 70
0
  0
VERTEX
  8
1
 10
22.3730
 20
44.7084
 30
0.0000
 42
1.0000
  0
VERTEX
  8
1
 10
22.6270
 20
44.7084
 30
0.0000
  0
SEQEND
  8
0
  0
POLYLINE
  8
1
 66
1
 10
0.0000
 20
0.0000
 30
0.0000
 40
0.2540
 41
0.2540
 70
0
  0
VERTEX
  8
1
 10
22.6270
 20
47.5800
 30
0.0000
 42
1.0000
  0
VERTEX
  8
1
 10
22.3730
 20
47.5800
 30
0.0000
  0
SEQEND
  8
0
  0
POLYLINE
  8
1
 66
1
 10
0.0000
 20
0.0000
 30
0.0000
 40
0.5080
 41
0.5080
 70
0
  0
VERTEX
  8
1
 10
22.5000
 20
44.7084
 30
0.0000
  0
VERTEX
  8
1
 10
24.5364
 20
42.6720
 30
0.0000
  0
SEQEND
  8
0
  0
POLYLINE
  8
1
 66
1
 10
0.0000
 20
0.0000
 30
0.0000
 40
0.2540
 41
0.2540
 70
0
  0
VERTEX
  8
1
 10
24.4466
 20
42.5822
 30
0.0000
 42
1.0000
  0
VERTEX
  8
1
 10
24.6262
 20
42.7618
 30
0.0000
  0
SEQEND
  8
0
  0
POLYLINE
  8
1
 66
1
 10
0.0000
 20
0.0000
 30
0.0000
 40
0.2540
 41
0.2540
 70
0
  0
VERTEX
  8
1
 10
22.5898
 20
44.7982
 30
0.0000
 42
1.0000
  0
VERTEX
  8
1
 10
22.4102
 20
44.6186
 30
0.0000
  0
SEQEND
  8
0
  0
POLYLINE
  8
1
 66
1
 10
0.0000
 20
0.0000
 30
0.0000
 40
0.5080
 41
0.5080
 70
0
  0
VERTEX
  8
1
 10
59.0000
 20
30.9200
 30
0.0000
  0
VERTEX
  8
1
 10
59.0000
 20
37.0800
 30
0.0000
  0
SEQEND
  8
0
  0
POLYLINE
  8
1
 66
1
 10
0.0000
 20
0.0000
 30
0.0000
 40
0.2540
 41
0.2540
 70
0
  0
VERTEX
  8
1
 10
59.1270
 20
37.0800
 30
0.0000
 42
1.0000
  0
VERTEX
  8
1
 10
58.8730
 20
37.0800
 30
0.0000
  0
SEQEND
  8
0
  0
POLYLINE
  8
1
 66
1
 10
0.0000
 20
0.0000
 30
0.0000
 40
0.2540
 41
0.2540
 70
0
  0
VERTEX
  8
1
 10
58.8730
 20
30.9200
 30
0.0000
 42
1.0000
  0
VERTEX
  8
1
 10
59.1270
 20
30.9200
 30
0.0000
  0
SEQEND
  8
0
  0
POLYLINE
  8
1
 66
1
 10
0.0000
 20
0.0000
 30
0.0000
 40
0.5080
 41
0.5080
 70
0
  0
VERTEX
  8
1
 10
55.0000
 20
26.9200
 30
0.0000
  0
VERTEX
  8
1
 10
59.0000
 20
30.9200
 30
0.0000
  0
SEQEND
  8
0
  0
POLYLINE
  8
1
 66
1
 10
0.0000
 20
0.0000
 30
0.0000
 40
0.2540
 41
0.2540
 70
0
  0
VERTEX
  8
1
 10
59.0898
 20
30.8302
 30
0.0000
 42
1.0000
  0
VERTEX
  8
1
 10
58.9102
 20
31.0098
 30
0.0000
  0
SEQEND
  8
0
  0
POLYLINE
  8
1
 66
1
 10
0.0000
 20
0.0000
 30
0.0000
 40
0.2540
 41
0.2540
 70
0
  0
VERTEX
  8
1
 10
54.9102
 20
27.0098
 30
0.0000
 42
1.0000
  0
VERTEX
  8
1
 10
55.0898
 20
26.8302
 30
0.0000
  0
SEQEND
  8
0
  0
POLYLINE
  8
1
 66
1
 10
0.0000
 20
0.0000
 30
0.0000
 40
0.5080
 41
0.5080
 70
0
  0
VERTEX
  8
1
 10
40.7162
 20
20.2692
 30
0.0000
  0
VERTEX
  8
1
 10
41.9854
 20
19.0000
 30
0.0000
  0
SEQEND
  8
0
  0
POLYLINE
  8
1
 66
1
 10
0.0000
 20
0.0000
 30
0.0000
 40
0.2540
 41
0.2540
 70
0
  0
VERTEX
  8
1
 10
41.8956
 20
18.9102
 30
0.0000
 42
1.0000
  0
VERTEX
  8
1
 10
42.0752
 20
19.0898
 30
0.0000
  0
SEQEND
  8
0
  0
POLYLINE
  8
1
 66
1
 10
0.0000
 20
0.0000
 30
0.0000
 40
0.2540
 41
0.2540
 70
0
  0
VERTEX
  8
1
 10
40.8060
 20
20.3590
 30
0.0000
 42
1.0000
  0
VERTEX
  8
1
 10
40.6264
 20
20.1794
 30
0.0000
  0
SEQEND
  8
0
  0
POLYLINE
  8
1
 66
1
 10
0.0000
 20
0.0000
 30
0.0000
 40
0.5080
 41
0.5080
 70
0
  0
VERTEX
  8
1
 10
35.7378
 20
20.2692
 30
0.0000
  0
VERTEX
  8
1
 10
40.7162
 20
20.2692
 30
0.0000
  0
SEQEND
  8
0
  0
POLYLINE
  8
1
 66
1
 10
0.0000
 20
0.0000
 30
0.0000
 40
0.2540
 41
0.2540
 70
0
  0
VERTEX
  8
1
 10
40.7162
 20
20.1422
 30
0.0000
 42
1.0000
  0
VERTEX
  8
1
 10
40.7162
 20
20.3962
 30
0.0000
  0
SEQEND
  8
0
  0
POLYLINE
  8
1
 66
1
 10
0.0000
 20
0.0000
 30
0.0000
 40
0.2540
 41
0.2540
 70
0
  0
VERTEX
  8
1
 10
35.7378
 20
20.3962
 30
0.0000
 42
1.0000
  0
VERTEX
  8
1
 10
35.7378
 20
20.1422
 30
0.0000
  0
SEQEND
  8
0
  0
POLYLINE
  8
1
 66
1
 10
0.0000
 20
0.0000
 30
0.0000
 40
0.5080
 41
0.5080
 70
0
  0
VERTEX
  8
1
 10
35.2044
 20
19.7358
 30
0.0000
  0
VERTEX
  8
1
 10
35.7378
 20
20.2692
 30
0.0000
  0
SEQEND
  8
0
  0
POLYLINE
  8
1
 66
1
 10
0.0000
 20
0.0000
 30
0.0000
 40
0.2540
 41
0.2540
 70
0
  0
VERTEX
  8
1
 10
35.8276
 20
20.1794
 30
0.0000
 42
1.0000
  0
VERTEX
  8
1
 10
35.6480
 20
20.3590
 30
0.0000
  0
SEQEND
  8
0
  0
POLYLINE
  8
1
 66
1
 10
0.0000
 20
0.0000
 30
0.0000
 40
0.2540
 41
0.2540
 70
0
  0
VERTEX
  8
1
 10
35.1146
 20
19.8256
 30
0.0000
 42
1.0000
  0
VERTEX
  8
1
 10
35.2942
 20
19.6460
 30
0.0000
  0
SEQEND
  8
0
  0
POLYLINE
  8
1
 66
1
 10
0.0000
 20
0.0000
 30
0.0000
 40
0.5080
 41
0.5080
 70
0
  0
VERTEX
  8
1
 10
31.1150
 20
19.7358
 30
0.0000
  0
VERTEX
  8
1
 10
35.2044
 20
19.7358
 30
0.0000
  0
SEQEND
  8
0
  0
POLYLINE
  8
1
 66
1
 10
0.0000
 20
0.0000
 30
0.0000
 40
0.2540
 41
0.2540
 70
0
  0
VERTEX
  8
1
 10
35.2044
 20
19.6088
 30
0.0000
 42
1.0000
  0
VERTEX
  8
1
 10
35.2044
 20
19.8628
 30
0.0000
  0
SEQEND
  8
0
  0
POLYLINE
  8
1
 66
1
 10
0.0000
 20
0.0000
 30
0.0000
 40
0.2540
 41
0.2540
 70
0
  0
VERTEX
  8
1
 10
31.1150
 20
19.8628
 30
0.0000
 42
1.0000
  0
VERTEX
  8
1
 10
31.1150
 20
19.6088
 30
0.0000
  0
SEQEND
  8
0
  0
POLYLINE
  8
1
 66
1
 10
0.0000
 20
0.0000
 30
0.0000
 40
0.5080
 41
0.5080
 70
0
  0
VERTEX
  8
1
 10
30.5816
 20
20.2692
 30
0.0000
  0
VERTEX
  8
1
 10
31.1150
 20
19.7358
 30
0.0000
  0
SEQEND
  8
0
  0
POLYLINE
  8
1
 66
1
 10
0.0000
 20
0.0000
 30
0.0000
 40
0.2540
 41
0.2540
 70
0
  0
VERTEX
  8
1
 10
31.0252
 20
19.6460
 30
0.0000
 42
1.0000
  0
VERTEX
  8
1
 10
31.2048
 20
19.8256
 30
0.0000
  0
SEQEND
  8
0
  0
POLYLINE
  8
1
 66
1
 10
0.0000
 20
0.0000
 30
0.0000
 40
0.2540
 41
0.2540
 70
0
  0
VERTEX
  8
1
 10
30.6714
 20
20.3590
 30
0.0000
 42
1.0000
  0
VERTEX
  8
1
 10
30.4918
 20
20.1794
 30
0.0000
  0
SEQEND
  8
0
  0
POLYLINE
  8
1
 66
1
 10
0.0000
 20
0.0000
 30
0.0000
 40
0.5080
 41
0.5080
 70
0
  0
VERTEX
  8
1
 10
28.2702
 20
20.2692
 30
0.0000
  0
VERTEX
  8
1
 10
30.5816
 20
20.2692
 30
0.0000
  0
SEQEND
  8
0
  0
POLYLINE
  8
1
 66
1
 10
0.0000
 20
0.0000
 30
0.0000
 40
0.2540
 41
0.2540
 70
0
  0
VERTEX
  8
1
 10
30.5816
 20
20.1422
 30
0.0000
 42
1.0000
  0
VERTEX
  8
1
 10
30.5816
 20
20.3962
 30
0.0000
  0
SEQEND
  8
0
  0
POLYLINE
  8
1
 66
1
 10
0.0000
 20
0.0000
 30
0.0000
 40
0.2540
 41
0.2540
 70
0
  0
VERTEX
  8
1
 10
28.2702
 20
20.3962
 30
0.0000
 42
1.0000
  0
VERTEX
  8
1
 10
28.2702
 20
20.1422
 30
0.0000
  0
SEQEND
  8
0
  0
POLYLINE
  8
1
 66
1
 10
0.0000
 20
0.0000
 30
0.0000
 40
0.5080
 41
0.5080
 70
0
  0
VERTEX
  8
1
 10
26.5010
 20
18.5000
 30
0.0000
  0
VERTEX
  8
1
 10
28.2702
 20
20.2692
 30
0.0000
  0
SEQEND
  8
0
  0
POLYLINE
  8
1
 66
1
 10
0.0000
 20
0.0000
 30
0.0000
 40
0.2540
 41
0.2540
 70
0
  0
VERTEX
  8
1
 10
28.3600
 20
20.1794
 30
0.0000
 42
1.0000
  0
VERTEX
  8
1
 10
28.1804
 20
20.3590
 30
0.0000
  0
SEQEND
  8
0
  0
POLYLINE
  8
1
 66
1
 10
0.0000
 20
0.0000
 30
0.0000
 40
0.2540
 41
0.2540
 70
0
  0
VERTEX
  8
1
 10
26.4112
 20
18.5898
 30
0.0000
 42
1.0000
  0
VERTEX
  8
1
 10
26.5908
 20
18.4102
 30
0.0000
  0
SEQEND
  8
0
  0
POLYLINE
  8
1
 66
1
 10
0.0000
 20
0.0000
 30
0.0000
 40
0.5080
 41
0.5080
 70
0
  0
VERTEX
  8
1
 10
26.0800
 20
18.5000
 30
0.0000
  0
VERTEX
  8
1
 10
26.5010
 20
18.5000
 30
0.0000
  0
SEQEND
  8
0
  0
POLYLINE
  8
1
 66
1
 10
0.0000
 20
0.0000
 30
0.0000
 40
0.2540
 41
0.2540
 70
0
  0
VERTEX
  8
1
 10
26.5010
 20
18.3730
 30
0.0000
 42
1.0000
  0
VERTEX
  8
1
 10
26.5010
 20
18.6270
 30
0.0000
  0
SEQEND
  8
0
  0
POLYLINE
  8
1
 66
1
 10
0.0000
 20
0.0000
 30
0.0000
 40
0.2540
 41
0.2540
 70
0
  0
VERTEX
  8
1
 10
26.0800
 20
18.6270
 30
0.0000
 42
1.0000
  0
VERTEX
  8
1
 10
26.0800
 20
18.3730
 30
0.0000
  0
SEQEND
  8
0
  0
POLYLINE
  8
1
 66
1
 10
0.0000
 20
0.0000
 30
0.0000
 40
0.5080
 41
0.5080
 70
0
  0
VERTEX
  8
1
 10
41.9854
 20
19.0000
 30
0.0000
  0
VERTEX
  8
1
 10
45.0000
 20
19.0000
 30
0.0000
  0
SEQEND
  8
0
  0
POLYLINE
  8
1
 66
1
 10
0.0000
 20
0.0000
 30
0.0000
 40
0.2540
 41
0.2540
 70
0
  0
VERTEX
  8
1
 10
45.0000
 20
18.8730
 30
0.0000
 42
1.0000
  0
VERTEX
  8
1
 10
45.0000
 20
19.1270
 30
0.0000
  0
SEQEND
  8
0
  0
POLYLINE
  8
1
 66
1
 10
0.0000
 20
0.0000
 30
0.0000
 40
0.2540
 41
0.2540
 70
0
  0
VERTEX
  8
1
 10
41.9854
 20
19.1270
 30
0.0000
 42
1.0000
  0
VERTEX
  8
1
 10
41.9854
 20
18.8730
 30
0.0000
  0
SEQEND
  8
0
  0
POLYLINE
  8
1
 66
1
 10
0.0000
 20
0.0000
 30
0.0000
 40
0.5080
 41
0.5080
 70
0
  0
VERTEX
  8
1
 10
33.4264
 20
42.6720
 30
0.0000
  0
VERTEX
  8
1
 10
33.4408
 20
42.6576
 30
0.0000
  0
SEQEND
  8
0
  0
POLYLINE
  8
1
 66
1
 10
0.0000
 20
0.0000
 30
0.0000
 40
0.2540
 41
0.2540
 70
0
  0
VERTEX
  8
1
 10
33.3510
 20
42.5678
 30
0.0000
 42
1.0000
  0
VERTEX
  8
1
 10
33.5306
 20
42.7474
 30
0.0000
  0
SEQEND
  8
0
  0
POLYLINE
  8
1
 66
1
 10
0.0000
 20
0.0000
 30
0.0000
 40
0.2540
 41
0.2540
 70
0
  0
VERTEX
  8
1
 10
33.5162
 20
42.7618
 30
0.0000
 42
1.0000
  0
VERTEX
  8
1
 10
33.3366
 20
42.5822
 30
0.0000
  0
SEQEND
  8
0
  0
POLYLINE
  8
1
 66
1
 10
0.0000
 20
0.0000
 30
0.0000
 40
0.5080
 41
0.5080
 70
0
  0
VERTEX
  8
1
 10
33.4408
 20
42.6576
 30
0.0000
  0
VERTEX
  8
1
 10
35.1110
 20
42.6576
 30
0.0000
  0
SEQEND
  8
0
  0
POLYLINE
  8
1
 66
1
 10
0.0000
 20
0.0000
 30
0.0000
 40
0.2540
 41
0.2540
 70
0
  0
VERTEX
  8
1
 10
35.1110
 20
42.5306
 30
0.0000
 42
1.0000
  0
VERTEX
  8
1
 10
35.1110
 20
42.7846
 30
0.0000
  0
SEQEND
  8
0
  0
POLYLINE
  8
1
 66
1
 10
0.0000
 20
0.0000
 30
0.0000
 40
0.2540
 41
0.2540
 70
0
  0
VERTEX
  8
1
 10
33.4408
 20
42.7846
 30
0.0000
 42
1.0000
  0
VERTEX
  8
1
 10
33.4408
 20
42.5306
 30
0.0000
  0
SEQEND
  8
0
  0
POLYLINE
  8
1
 66
1
 10
0.0000
 20
0.0000
 30
0.0000
 40
0.5080
 41
0.5080
 70
0
  0
VERTEX
  8
1
 10
55.0000
 20
25.8408
 30
0.0000
  0
VERTEX
  8
1
 10
55.0000
 20
26.9200
 30
0.0000
  0
SEQEND
  8
0
  0
POLYLINE
  8
1
 66
1
 10
0.0000
 20
0.0000
 30
0.0000
 40
0.2540
 41
0.2540
 70
0
  0
VERTEX
  8
1
 10
55.1270
 20
26.9200
 30
0.0000
 42
1.0000
  0
VERTEX
  8
1
 10
54.8730
 20
26.9200
 30
0.0000
  0
SEQEND
  8
0
  0
POLYLINE
  8
1
 66
1
 10
0.0000
 20
0.0000
 30
0.0000
 40
0.2540
 41
0.2540
 70
0
  0
VERTEX
  8
1
 10
54.8730
 20
25.8408
 30
0.0000
 42
1.0000
  0
VERTEX
  8
1
 10
55.1270
 20
25.8408
 30
0.0000
  0
SEQEND
  8
0
  0
POLYLINE
  8
1
 66
1
 10
0.0000
 20
0.0000
 30
0.0000
 40
0.5080
 41
0.5080
 70
0
  0
VERTEX
  8
1
 10
52.4510
 20
23.2918
 30
0.0000
  0
VERTEX
  8
1
 10
55.0000
 20
25.8408
 30
0.0000
  0
SEQEND
  8
0
  0
POLYLINE
  8
1
 66
1
 10
0.0000
 20
0.0000
 30
0.0000
 40
0.2540
 41
0.2540
 70
0
  0
VERTEX
  8
1
 10
55.0898
 20
25.7510
 30
0.0000
 42
1.0000
  0
VERTEX
  8
1
 10
54.9102
 20
25.9306
 30
0.0000
  0
SEQEND
  8
0
  0
POLYLINE
  8
1
 66
1
 10
0.0000
 20
0.0000
 30
0.0000
 40
0.2540
 41
0.2540
 70
0
  0
VERTEX
  8
1
 10
52.3612
 20
23.3816
 30
0.0000
 42
1.0000
  0
VERTEX
  8
1
 10
52.5408
 20
23.2020
 30
0.0000
  0
SEQEND
  8
0
  0
POLYLINE
  8
1
 66
1
 10
0.0000
 20
0.0000
 30
0.0000
 40
0.5080
 41
0.5080
 70
0
  0
VERTEX
  8
1
 10
35.7378
 20
20.2692
 30
0.0000
  0
VERTEX
  8
1
 10
39.4716
 20
24.0030
 30
0.0000
  0
SEQEND
  8
0
  0
POLYLINE
  8
1
 66
1
 10
0.0000
 20
0.0000
 30
0.0000
 40
0.2540
 41
0.2540
 70
0
  0
VERTEX
  8
1
 10
39.5614
 20
23.9132
 30
0.0000
 42
1.0000
  0
VERTEX
  8
1
 10
39.3818
 20
24.0928
 30
0.0000
  0
SEQEND
  8
0
  0
POLYLINE
  8
1
 66
1
 10
0.0000
 20
0.0000
 30
0.0000
 40
0.2540
 41
0.2540
 70
0
  0
VERTEX
  8
1
 10
35.6480
 20
20.3590
 30
0.0000
 42
1.0000
  0
VERTEX
  8
1
 10
35.8276
 20
20.1794
 30
0.0000
  0
SEQEND
  8
0
  0
POLYLINE
  8
1
 66
1
 10
0.0000
 20
0.0000
 30
0.0000
 40
0.5080
 41
0.5080
 70
0
  0
VERTEX
  8
1
 10
39.4716
 20
24.0030
 30
0.0000
  0
VERTEX
  8
1
 10
42.4942
 20
24.0030
 30
0.0000
  0
SEQEND
  8
0
  0
POLYLINE
  8
1
 66
1
 10
0.0000
 20
0.0000
 30
0.0000
 40
0.2540
 41
0.2540
 70
0
  0
VERTEX
  8
1
 10
42.4942
 20
23.8760
 30
0.0000
 42
1.0000
  0
VERTEX
  8
1
 10
42.4942
 20
24.1300
 30
0.0000
  0
SEQEND
  8
0
  0
POLYLINE
  8
1
 66
1
 10
0.0000
 20
0.0000
 30
0.0000
 40
0.2540
 41
0.2540
 70
0
  0
VERTEX
  8
1
 10
39.4716
 20
24.1300
 30
0.0000
 42
1.0000
  0
VERTEX
  8
1
 10
39.4716
 20
23.8760
 30
0.0000
  0
SEQEND
  8
0
  0
POLYLINE
  8
1
 66
1
 10
0.0000
 20
0.0000
 30
0.0000
 40
0.5080
 41
0.5080
 70
0
  0
VERTEX
  8
1
 10
42.4942
 20
24.0030
 30
0.0000
  0
VERTEX
  8
1
 10
43.2054
 20
23.2918
 30
0.0000
  0
SEQEND
  8
0
  0
POLYLINE
  8
1
 66
1
 10
0.0000
 20
0.0000
 30
0.0000
 40
0.2540
 41
0.2540
 70
0
  0
VERTEX
  8
1
 10
43.1156
 20
23.2020
 30
0.0000
 42
1.0000
  0
VERTEX
  8
1
 10
43.2952
 20
23.3816
 30
0.0000
  0
SEQEND
  8
0
  0
POLYLINE
  8
1
 66
1
 10
0.0000
 20
0.0000
 30
0.0000
 40
0.2540
 41
0.2540
 70
0
  0
VERTEX
  8
1
 10
42.5840
 20
24.0928
 30
0.0000
 42
1.0000
  0
VERTEX
  8
1
 10
42.4044
 20
23.9132
 30
0.0000
  0
SEQEND
  8
0
  0
POLYLINE
  8
1
 66
1
 10
0.0000
 20
0.0000
 30
0.0000
 40
0.5080
 41
0.5080
 70
0
  0
VERTEX
  8
1
 10
43.2054
 20
23.2918
 30
0.0000
  0
VERTEX
  8
1
 10
52.4510
 20
23.2918
 30
0.0000
  0
SEQEND
  8
0
  0
POLYLINE
  8
1
 66
1
 10
0.0000
 20
0.0000
 30
0.0000
 40
0.2540
 41
0.2540
 70
0
  0
VERTEX
  8
1
 10
52.4510
 20
23.1648
 30
0.0000
 42
1.0000
  0
VERTEX
  8
1
 10
52.4510
 20
23.4188
 30
0.0000
  0
SEQEND
  8
0
  0
POLYLINE
  8
1
 66
1
 10
0.0000
 20
0.0000
 30
0.0000
 40
0.2540
 41
0.2540
 70
0
  0
VERTEX
  8
1
 10
43.2054
 20
23.4188
 30
0.0000
 42
1.0000
  0
VERTEX
  8
1
 10
43.2054
 20
23.1648
 30
0.0000
  0
SEQEND
  8
0
  0
ENDSEC
  0
EOF
