  0
SECTION
  2
HEADER
  9
$ACADVER
  1
AC1009
  9
$FILLMODE
 70
1
  9
$EXTMIN
 10
-9.9328
 20
-10.9568
 30
0.0000
  9
$EXTMAX
 10
78.8736
 20
60.9024
 30
0.0000
  0
ENDSEC
  0
SECTION
  2
TABLES
  0
TABLE
  2
LTYPE
 70
1
  0
LTYPE
  2
CONTINUOUS
 70
64
  3
Solid line
 72
65
 73
0
 40
0
  0
ENDTAB
  0
TABLE
  2
LAYER
 70
255
  0
LAYER
  2
29
 70
64
 62
253
  6
CONTINUOUS
  0
ENDTAB
  0
ENDSEC
  0
SECTION
  2
BLOCKS
  0
BLOCK
  8
0
  2
RECT
 70
64
 10
0.0000
 20
0.0000
 30
0.0000
  3
RECT
  0
SOLID
  8
0
 10
-0.5000
 20
-0.5000
 30
0.0000
 11
0.5000
 21
-0.5000
 31
0.0000
 12
-0.5000
 22
0.5000
 32
0.0000
 13
0.5000
 23
0.5000
 33
0.0000
  0
ENDBLK
  8
0
  0
BLOCK
  8
0
  2
PIE
 70
64
 10
0.0000
 20
0.0000
 30
0.0000
  3
PIE
  0
POLYLINE
  8
0
 66
1
 10
0.0000
 20
0.0000
 30
0.0000
 40
0.5000
 41
0.5000
 70
0
  0
VERTEX
  8
0
 10
0.0000
 20
-0.2500
 30
0.0000
 42
1.0000
  0
VERTEX
  8
0
 10
0.0000
 20
0.2500
 30
0.0000
 42
1.0000
  0
VERTEX
  8
0
 10
0.0000
 20
-0.2500
 30
0.0000
  0
SEQEND
  8
0
  0
ENDBLK
  8
0
  0
BLOCK
  8
0
  2
OCTAGONP
 70
64
 10
0.0000
 20
0.0000
 30
0.0000
  3
OCTAGONP
  0
POLYLINE
  8
0
 66
1
 10
0.0000
 20
0.0000
 30
0.0000
 40
0.5000
 41
0.5000
 70
0
  0
VERTEX
  8
0
 10
-0.2500
 20
-0.1036
 30
0.0000
  0
VERTEX
  8
0
 10
-0.2500
 20
0.1036
 30
0.0000
  0
VERTEX
  8
0
 10
-0.1036
 20
0.2500
 30
0.0000
  0
VERTEX
  8
0
 10
0.1036
 20
0.2500
 30
0.0000
  0
VERTEX
  8
0
 10
0.2500
 20
0.1036
 30
0.0000
  0
VERTEX
  8
0
 10
0.2500
 20
-0.1036
 30
0.0000
  0
VERTEX
  8
0
 10
0.1036
 20
-0.2500
 30
0.0000
  0
VERTEX
  8
0
 10
-0.1036
 20
-0.2500
 30
0.0000
  0
VERTEX
  8
0
 10
-0.2500
 20
-0.1036
 30
0.0000
  0
VERTEX
  8
0
 10
-0.2500
 20
0.1036
 30
0.0000
  0
SEQEND
  8
0
  0
ENDBLK
  8
0
  0
BLOCK
  8
0
  2
SQUAREP
 70
64
 10
0.0000
 20
0.0000
 30
0.0000
  3
SQUAREP
  0
SOLID
  8
0
 10
-0.5000
 20
-0.5000
 30
0.0000
 11
0.5000
 21
-0.5000
 31
0.0000
 12
-0.5000
 22
0.5000
 32
0.0000
 13
0.5000
 23
0.5000
 33
0.0000
  0
ENDBLK
  8
0
  0
BLOCK
  8
0
  2
ROUNDP
 70
64
 10
0.0000
 20
0.0000
 30
0.0000
  3
ROUNDP
  0
POLYLINE
  8
0
 66
1
 10
0.0000
 20
0.0000
 30
0.0000
 40
0.5000
 41
0.5000
 70
0
  0
VERTEX
  8
0
 10
0.0000
 20
-0.2500
 30
0.0000
 42
1.0000
  0
VERTEX
  8
0
 10
0.0000
 20
0.2500
 30
0.0000
 42
1.0000
  0
VERTEX
  8
0
 10
0.0000
 20
-0.2500
 30
0.0000
  0
SEQEND
  8
0
  0
ENDBLK
  8
0
  0
BLOCK
  8
0
  2
ANNULUSP
 70
64
 10
0.0000
 20
0.0000
 30
0.0000
  3
ANNULUSP
  0
POLYLINE
  8
0
 66
1
 10
0.0000
 20
0.0000
 30
0.0000
 40
0.5000
 41
0.5000
 70
0
  0
VERTEX
  8
0
 10
0.0000
 20
-0.2500
 30
0.0000
 42
1.0000
  0
VERTEX
  8
0
 10
0.0000
 20
0.2500
 30
0.0000
 42
1.0000
  0
VERTEX
  8
0
 10
0.0000
 20
-0.2500
 30
0.0000
  0
SEQEND
  8
0
  0
ENDBLK
  8
0
  0
BLOCK
  8
0
  2
THERMALP
 70
64
 10
0.0000
 20
0.0000
 30
0.0000
  3
THERMALP
  0
POLYLINE
  8
0
 66
1
 10
0.0000
 20
0.0000
 30
0.0000
 40
0.1000
 41
0.1000
 70
0
  0
VERTEX
  8
0
 10
-0.2379
 20
0.4500
 30
0.0000
  0
VERTEX
  8
0
 10
0.2379
 20
0.4500
 30
0.0000
  0
SEQEND
  8
0
  0
POLYLINE
  8
0
 66
1
 10
0.0000
 20
0.0000
 30
0.0000
 40
0.0500
 41
0.0500
 70
0
  0
VERTEX
  8
0
 10
0.2379
 20
0.4250
 30
0.0000
 42
1.0000
  0
VERTEX
  8
0
 10
0.2379
 20
0.4750
 30
0.0000
  0
SEQEND
  8
0
  0
POLYLINE
  8
0
 66
1
 10
0.0000
 20
0.0000
 30
0.0000
 40
0.0500
 41
0.0500
 70
0
  0
VERTEX
  8
0
 10
-0.2379
 20
0.4750
 30
0.0000
 42
1.0000
  0
VERTEX
  8
0
 10
-0.2379
 20
0.4250
 30
0.0000
  0
SEQEND
  8
0
  0
POLYLINE
  8
0
 66
1
 10
0.0000
 20
0.0000
 30
0.0000
 40
0.1000
 41
0.1000
 70
0
  0
VERTEX
  8
0
 10
0.4500
 20
0.2379
 30
0.0000
  0
VERTEX
  8
0
 10
0.4500
 20
-0.2379
 30
0.0000
  0
SEQEND
  8
0
  0
POLYLINE
  8
0
 66
1
 10
0.0000
 20
0.0000
 30
0.0000
 40
0.0500
 41
0.0500
 70
0
  0
VERTEX
  8
0
 10
0.4250
 20
-0.2379
 30
0.0000
 42
1.0000
  0
VERTEX
  8
0
 10
0.4750
 20
-0.2379
 30
0.0000
  0
SEQEND
  8
0
  0
POLYLINE
  8
0
 66
1
 10
0.0000
 20
0.0000
 30
0.0000
 40
0.0500
 41
0.0500
 70
0
  0
VERTEX
  8
0
 10
0.4750
 20
0.2379
 30
0.0000
 42
1.0000
  0
VERTEX
  8
0
 10
0.4250
 20
0.2379
 30
0.0000
  0
SEQEND
  8
0
  0
POLYLINE
  8
0
 66
1
 10
0.0000
 20
0.0000
 30
0.0000
 40
0.1000
 41
0.1000
 70
0
  0
VERTEX
  8
0
 10
0.2379
 20
-0.4500
 30
0.0000
  0
VERTEX
  8
0
 10
-0.2379
 20
-0.4500
 30
0.0000
  0
SEQEND
  8
0
  0
POLYLINE
  8
0
 66
1
 10
0.0000
 20
0.0000
 30
0.0000
 40
0.0500
 41
0.0500
 70
0
  0
VERTEX
  8
0
 10
-0.2379
 20
-0.4250
 30
0.0000
 42
1.0000
  0
VERTEX
  8
0
 10
-0.2379
 20
-0.4750
 30
0.0000
  0
SEQEND
  8
0
  0
POLYLINE
  8
0
 66
1
 10
0.0000
 20
0.0000
 30
0.0000
 40
0.0500
 41
0.0500
 70
0
  0
VERTEX
  8
0
 10
0.2379
 20
-0.4750
 30
0.0000
 42
1.0000
  0
VERTEX
  8
0
 10
0.2379
 20
-0.4250
 30
0.0000
  0
SEQEND
  8
0
  0
POLYLINE
  8
0
 66
1
 10
0.0000
 20
0.0000
 30
0.0000
 40
0.1000
 41
0.1000
 70
0
  0
VERTEX
  8
0
 10
-0.4500
 20
-0.2379
 30
0.0000
  0
VERTEX
  8
0
 10
-0.4500
 20
0.2379
 30
0.0000
  0
SEQEND
  8
0
  0
POLYLINE
  8
0
 66
1
 10
0.0000
 20
0.0000
 30
0.0000
 40
0.0500
 41
0.0500
 70
0
  0
VERTEX
  8
0
 10
-0.4250
 20
0.2379
 30
0.0000
 42
1.0000
  0
VERTEX
  8
0
 10
-0.4750
 20
0.2379
 30
0.0000
  0
SEQEND
  8
0
  0
POLYLINE
  8
0
 66
1
 10
0.0000
 20
0.0000
 30
0.0000
 40
0.0500
 41
0.0500
 70
0
  0
VERTEX
  8
0
 10
-0.4750
 20
-0.2379
 30
0.0000
 42
1.0000
  0
VERTEX
  8
0
 10
-0.4250
 20
-0.2379
 30
0.0000
  0
SEQEND
  8
0
  0
ENDBLK
  8
0
  0
BLOCK
  8
0
  2
OCTAGONV
 70
64
 10
0.0000
 20
0.0000
 30
0.0000
  3
OCTAGONV
  0
POLYLINE
  8
0
 66
1
 10
0.0000
 20
0.0000
 30
0.0000
 40
0.5000
 41
0.5000
 70
0
  0
VERTEX
  8
0
 10
-0.2500
 20
-0.1036
 30
0.0000
  0
VERTEX
  8
0
 10
-0.2500
 20
0.1036
 30
0.0000
  0
VERTEX
  8
0
 10
-0.1036
 20
0.2500
 30
0.0000
  0
VERTEX
  8
0
 10
0.1036
 20
0.2500
 30
0.0000
  0
VERTEX
  8
0
 10
0.2500
 20
0.1036
 30
0.0000
  0
VERTEX
  8
0
 10
0.2500
 20
-0.1036
 30
0.0000
  0
VERTEX
  8
0
 10
0.1036
 20
-0.2500
 30
0.0000
  0
VERTEX
  8
0
 10
-0.1036
 20
-0.2500
 30
0.0000
  0
VERTEX
  8
0
 10
-0.2500
 20
-0.1036
 30
0.0000
  0
VERTEX
  8
0
 10
-0.2500
 20
0.1036
 30
0.0000
  0
SEQEND
  8
0
  0
ENDBLK
  8
0
  0
BLOCK
  8
0
  2
SQUAREV
 70
64
 10
0.0000
 20
0.0000
 30
0.0000
  3
SQUAREV
  0
SOLID
  8
0
 10
-0.5000
 20
-0.5000
 30
0.0000
 11
0.5000
 21
-0.5000
 31
0.0000
 12
-0.5000
 22
0.5000
 32
0.0000
 13
0.5000
 23
0.5000
 33
0.0000
  0
ENDBLK
  8
0
  0
BLOCK
  8
0
  2
ROUNDV
 70
64
 10
0.0000
 20
0.0000
 30
0.0000
  3
ROUNDV
  0
POLYLINE
  8
0
 66
1
 10
0.0000
 20
0.0000
 30
0.0000
 40
0.5000
 41
0.5000
 70
0
  0
VERTEX
  8
0
 10
0.0000
 20
-0.2500
 30
0.0000
 42
1.0000
  0
VERTEX
  8
0
 10
0.0000
 20
0.2500
 30
0.0000
 42
1.0000
  0
VERTEX
  8
0
 10
0.0000
 20
-0.2500
 30
0.0000
  0
SEQEND
  8
0
  0
ENDBLK
  8
0
  0
BLOCK
  8
0
  2
ANNULUSV
 70
64
 10
0.0000
 20
0.0000
 30
0.0000
  3
ANNULUSV
  0
POLYLINE
  8
0
 66
1
 10
0.0000
 20
0.0000
 30
0.0000
 40
0.5000
 41
0.5000
 70
0
  0
VERTEX
  8
0
 10
0.0000
 20
-0.2500
 30
0.0000
 42
1.0000
  0
VERTEX
  8
0
 10
0.0000
 20
0.2500
 30
0.0000
 42
1.0000
  0
VERTEX
  8
0
 10
0.0000
 20
-0.2500
 30
0.0000
  0
SEQEND
  8
0
  0
ENDBLK
  8
0
  0
BLOCK
  8
0
  2
THERMALV
 70
64
 10
0.0000
 20
0.0000
 30
0.0000
  3
THERMALV
  0
POLYLINE
  8
0
 66
1
 10
0.0000
 20
0.0000
 30
0.0000
 40
0.1000
 41
0.1000
 70
0
  0
VERTEX
  8
0
 10
-0.2379
 20
0.4500
 30
0.0000
  0
VERTEX
  8
0
 10
0.2379
 20
0.4500
 30
0.0000
  0
SEQEND
  8
0
  0
POLYLINE
  8
0
 66
1
 10
0.0000
 20
0.0000
 30
0.0000
 40
0.0500
 41
0.0500
 70
0
  0
VERTEX
  8
0
 10
0.2379
 20
0.4250
 30
0.0000
 42
1.0000
  0
VERTEX
  8
0
 10
0.2379
 20
0.4750
 30
0.0000
  0
SEQEND
  8
0
  0
POLYLINE
  8
0
 66
1
 10
0.0000
 20
0.0000
 30
0.0000
 40
0.0500
 41
0.0500
 70
0
  0
VERTEX
  8
0
 10
-0.2379
 20
0.4750
 30
0.0000
 42
1.0000
  0
VERTEX
  8
0
 10
-0.2379
 20
0.4250
 30
0.0000
  0
SEQEND
  8
0
  0
POLYLINE
  8
0
 66
1
 10
0.0000
 20
0.0000
 30
0.0000
 40
0.1000
 41
0.1000
 70
0
  0
VERTEX
  8
0
 10
0.4500
 20
0.2379
 30
0.0000
  0
VERTEX
  8
0
 10
0.4500
 20
-0.2379
 30
0.0000
  0
SEQEND
  8
0
  0
POLYLINE
  8
0
 66
1
 10
0.0000
 20
0.0000
 30
0.0000
 40
0.0500
 41
0.0500
 70
0
  0
VERTEX
  8
0
 10
0.4250
 20
-0.2379
 30
0.0000
 42
1.0000
  0
VERTEX
  8
0
 10
0.4750
 20
-0.2379
 30
0.0000
  0
SEQEND
  8
0
  0
POLYLINE
  8
0
 66
1
 10
0.0000
 20
0.0000
 30
0.0000
 40
0.0500
 41
0.0500
 70
0
  0
VERTEX
  8
0
 10
0.4750
 20
0.2379
 30
0.0000
 42
1.0000
  0
VERTEX
  8
0
 10
0.4250
 20
0.2379
 30
0.0000
  0
SEQEND
  8
0
  0
POLYLINE
  8
0
 66
1
 10
0.0000
 20
0.0000
 30
0.0000
 40
0.1000
 41
0.1000
 70
0
  0
VERTEX
  8
0
 10
0.2379
 20
-0.4500
 30
0.0000
  0
VERTEX
  8
0
 10
-0.2379
 20
-0.4500
 30
0.0000
  0
SEQEND
  8
0
  0
POLYLINE
  8
0
 66
1
 10
0.0000
 20
0.0000
 30
0.0000
 40
0.0500
 41
0.0500
 70
0
  0
VERTEX
  8
0
 10
-0.2379
 20
-0.4250
 30
0.0000
 42
1.0000
  0
VERTEX
  8
0
 10
-0.2379
 20
-0.4750
 30
0.0000
  0
SEQEND
  8
0
  0
POLYLINE
  8
0
 66
1
 10
0.0000
 20
0.0000
 30
0.0000
 40
0.0500
 41
0.0500
 70
0
  0
VERTEX
  8
0
 10
0.2379
 20
-0.4750
 30
0.0000
 42
1.0000
  0
VERTEX
  8
0
 10
0.2379
 20
-0.4250
 30
0.0000
  0
SEQEND
  8
0
  0
POLYLINE
  8
0
 66
1
 10
0.0000
 20
0.0000
 30
0.0000
 40
0.1000
 41
0.1000
 70
0
  0
VERTEX
  8
0
 10
-0.4500
 20
-0.2379
 30
0.0000
  0
VERTEX
  8
0
 10
-0.4500
 20
0.2379
 30
0.0000
  0
SEQEND
  8
0
  0
POLYLINE
  8
0
 66
1
 10
0.0000
 20
0.0000
 30
0.0000
 40
0.0500
 41
0.0500
 70
0
  0
VERTEX
  8
0
 10
-0.4250
 20
0.2379
 30
0.0000
 42
1.0000
  0
VERTEX
  8
0
 10
-0.4750
 20
0.2379
 30
0.0000
  0
SEQEND
  8
0
  0
POLYLINE
  8
0
 66
1
 10
0.0000
 20
0.0000
 30
0.0000
 40
0.0500
 41
0.0500
 70
0
  0
VERTEX
  8
0
 10
-0.4750
 20
-0.2379
 30
0.0000
 42
1.0000
  0
VERTEX
  8
0
 10
-0.4250
 20
-0.2379
 30
0.0000
  0
SEQEND
  8
0
  0
ENDBLK
  8
0
  0
BLOCK
  8
0
  2
LONGP100
 70
64
 10
0.0000
 20
0.0000
 30
0.0000
  3
LONGP100
  0
POLYLINE
  8
0
 66
1
 10
0.0000
 20
0.0000
 30
0.0000
 40
1.0000
 41
1.0000
 70
0
  0
VERTEX
  8
0
 10
-0.5000
 20
0.0000
 30
0.0000
  0
VERTEX
  8
0
 10
0.5000
 20
0.0000
 30
0.0000
  0
SEQEND
  8
0
  0
POLYLINE
  8
0
 66
1
 10
0.0000
 20
0.0000
 30
0.0000
 40
0.5000
 41
0.5000
 70
0
  0
VERTEX
  8
0
 10
0.5000
 20
-0.2500
 30
0.0000
 42
1.0000
  0
VERTEX
  8
0
 10
0.5000
 20
0.2500
 30
0.0000
  0
SEQEND
  8
0
  0
POLYLINE
  8
0
 66
1
 10
0.0000
 20
0.0000
 30
0.0000
 40
0.5000
 41
0.5000
 70
0
  0
VERTEX
  8
0
 10
-0.5000
 20
0.2500
 30
0.0000
 42
1.0000
  0
VERTEX
  8
0
 10
-0.5000
 20
-0.2500
 30
0.0000
  0
SEQEND
  8
0
  0
ENDBLK
  8
0
  0
ENDSEC
  0
SECTION
  2
ENTITIES
  0
INSERT
  8
29
  2
ROUNDP
 10
18.5400
 20
43.0000
 30
0.0000
 41
2.7432
 42
2.7432
 43
1.0000
 50
180.0000
  0
INSERT
  8
29
  2
OCTAGONP
 10
13.4600
 20
43.0000
 30
0.0000
 41
2.7432
 42
2.7432
 43
1.0000
 50
180.0000
  0
INSERT
  8
29
  2
ROUNDP
 10
28.1000
 20
44.4500
 30
0.0000
 41
2.7432
 42
2.7432
 43
1.0000
 50
0.0000
  0
INSERT
  8
29
  2
ROUNDP
 10
31.9100
 20
44.4500
 30
0.0000
 41
2.7432
 42
2.7432
 43
1.0000
 50
0.0000
  0
INSERT
  8
29
  2
ROUNDP
 10
16.7700
 20
31.0000
 30
0.0000
 41
2.7432
 42
2.7432
 43
1.0000
 50
180.0000
  0
INSERT
  8
29
  2
ROUNDP
 10
12.9600
 20
31.0000
 30
0.0000
 41
2.7432
 42
2.7432
 43
1.0000
 50
180.0000
  0
INSERT
  8
29
  2
ROUNDP
 10
40.2700
 20
39.5900
 30
0.0000
 41
2.7432
 42
2.7432
 43
1.0000
 50
270.0000
  0
INSERT
  8
29
  2
OCTAGONP
 10
40.2700
 20
34.5100
 30
0.0000
 41
2.7432
 42
2.7432
 43
1.0000
 50
270.0000
  0
INSERT
  8
29
  2
ROUNDP
 10
40.5000
 20
42.4600
 30
0.0000
 41
2.7432
 42
2.7432
 43
1.0000
 50
90.0000
  0
INSERT
  8
29
  2
OCTAGONP
 10
40.5000
 20
47.5400
 30
0.0000
 41
2.7432
 42
2.7432
 43
1.0000
 50
90.0000
  0
INSERT
  8
29
  2
ROUNDP
 10
46.0000
 20
40.5400
 30
0.0000
 41
2.7432
 42
2.7432
 43
1.0000
 50
270.0000
  0
INSERT
  8
29
  2
OCTAGONP
 10
46.0000
 20
35.4600
 30
0.0000
 41
2.7432
 42
2.7432
 43
1.0000
 50
270.0000
  0
INSERT
  8
29
  2
ROUNDP
 10
67.0000
 20
47.5400
 30
0.0000
 41
2.7432
 42
2.7432
 43
1.0000
 50
270.0000
  0
INSERT
  8
29
  2
OCTAGONP
 10
67.0000
 20
42.4600
 30
0.0000
 41
2.7432
 42
2.7432
 43
1.0000
 50
270.0000
  0
INSERT
  8
29
  2
ROUNDP
 10
63.0000
 20
27.9600
 30
0.0000
 41
2.7432
 42
2.7432
 43
1.0000
 50
90.0000
  0
INSERT
  8
29
  2
OCTAGONP
 10
63.0000
 20
33.0400
 30
0.0000
 41
2.7432
 42
2.7432
 43
1.0000
 50
90.0000
  0
INSERT
  8
29
  2
ROUNDP
 10
53.0400
 20
10.5000
 30
0.0000
 41
2.7432
 42
2.7432
 43
1.0000
 50
180.0000
  0
INSERT
  8
29
  2
OCTAGONP
 10
47.9600
 20
10.5000
 30
0.0000
 41
2.7432
 42
2.7432
 43
1.0000
 50
180.0000
  0
INSERT
  8
29
  2
ROUNDP
 10
44.0400
 20
30.0000
 30
0.0000
 41
2.7432
 42
2.7432
 43
1.0000
 50
180.0000
  0
INSERT
  8
29
  2
OCTAGONP
 10
38.9600
 20
30.0000
 30
0.0000
 41
2.7432
 42
2.7432
 43
1.0000
 50
180.0000
  0
INSERT
  8
29
  2
ROUNDP
 10
37.0000
 20
14.5400
 30
0.0000
 41
2.7432
 42
2.7432
 43
1.0000
 50
270.0000
  0
INSERT
  8
29
  2
OCTAGONP
 10
37.0000
 20
9.4600
 30
0.0000
 41
2.7432
 42
2.7432
 43
1.0000
 50
270.0000
  0
INSERT
  8
29
  2
ROUNDP
 10
33.2700
 20
15.0000
 30
0.0000
 41
2.7432
 42
2.7432
 43
1.0000
 50
180.0000
  0
INSERT
  8
29
  2
ROUNDP
 10
29.4600
 20
15.0000
 30
0.0000
 41
2.7432
 42
2.7432
 43
1.0000
 50
180.0000
  0
INSERT
  8
29
  2
ROUNDP
 10
41.0000
 20
15.0400
 30
0.0000
 41
2.7432
 42
2.7432
 43
1.0000
 50
270.0000
  0
INSERT
  8
29
  2
ROUNDP
 10
41.0000
 20
9.9600
 30
0.0000
 41
2.7432
 42
2.7432
 43
1.0000
 50
270.0000
  0
INSERT
  8
29
  2
ROUNDP
 10
21.0400
 20
11.0000
 30
0.0000
 41
2.7432
 42
2.7432
 43
1.0000
 50
180.0000
  0
INSERT
  8
29
  2
OCTAGONP
 10
15.9600
 20
11.0000
 30
0.0000
 41
2.7432
 42
2.7432
 43
1.0000
 50
180.0000
  0
INSERT
  8
29
  2
ROUNDP
 10
7.4200
 20
12.5100
 30
0.0000
 41
2.7432
 42
2.7432
 43
1.0000
 50
270.0000
  0
INSERT
  8
29
  2
OCTAGONP
 10
7.4200
 20
7.4300
 30
0.0000
 41
2.7432
 42
2.7432
 43
1.0000
 50
270.0000
  0
INSERT
  8
29
  2
ROUNDP
 10
24.4200
 20
27.0000
 30
0.0000
 41
2.7432
 42
2.7432
 43
1.0000
 50
180.0000
  0
INSERT
  8
29
  2
ROUNDP
 10
34.5800
 20
27.0000
 30
0.0000
 41
2.7432
 42
2.7432
 43
1.0000
 50
180.0000
  0
INSERT
  8
29
  2
ROUNDP
 10
28.0800
 20
24.0000
 30
0.0000
 41
2.7432
 42
2.7432
 43
1.0000
 50
0.0000
  0
INSERT
  8
29
  2
ROUNDP
 10
17.9200
 20
24.0000
 30
0.0000
 41
2.7432
 42
2.7432
 43
1.0000
 50
0.0000
  0
INSERT
  8
29
  2
LONGP100
 10
9.0000
 20
3.0000
 30
0.0000
 41
1.9812
 42
1.9812
 43
1.0000
 50
90.0000
  0
INSERT
  8
29
  2
LONGP100
 10
11.5000
 20
3.0000
 30
0.0000
 41
1.9812
 42
1.9812
 43
1.0000
 50
90.0000
  0
INSERT
  8
29
  2
LONGP100
 10
14.0000
 20
3.0000
 30
0.0000
 41
1.9812
 42
1.9812
 43
1.0000
 50
90.0000
  0
INSERT
  8
29
  2
LONGP100
 10
3.5000
 20
29.0000
 30
0.0000
 41
1.9812
 42
1.9812
 43
1.0000
 50
0.0000
  0
INSERT
  8
29
  2
LONGP100
 10
3.5000
 20
26.5000
 30
0.0000
 41
1.9812
 42
1.9812
 43
1.0000
 50
0.0000
  0
INSERT
  8
29
  2
LONGP100
 10
3.5000
 20
23.5000
 30
0.0000
 41
1.9812
 42
1.9812
 43
1.0000
 50
0.0000
  0
INSERT
  8
29
  2
LONGP100
 10
3.5000
 20
21.0000
 30
0.0000
 41
1.9812
 42
1.9812
 43
1.0000
 50
0.0000
  0
INSERT
  8
29
  2
ROUNDP
 10
19.0800
 20
47.5000
 30
0.0000
 41
2.7432
 42
2.7432
 43
1.0000
 50
180.0000
  0
INSERT
  8
29
  2
ROUNDP
 10
8.9200
 20
47.5000
 30
0.0000
 41
2.7432
 42
2.7432
 43
1.0000
 50
180.0000
  0
INSERT
  8
29
  2
ROUNDP
 10
8.5000
 20
42.5800
 30
0.0000
 41
2.7432
 42
2.7432
 43
1.0000
 50
270.0000
  0
INSERT
  8
29
  2
ROUNDP
 10
8.5000
 20
32.4200
 30
0.0000
 41
2.7432
 42
2.7432
 43
1.0000
 50
270.0000
  0
INSERT
  8
29
  2
ROUNDP
 10
3.5000
 20
42.5800
 30
0.0000
 41
2.7432
 42
2.7432
 43
1.0000
 50
270.0000
  0
INSERT
  8
29
  2
ROUNDP
 10
3.5000
 20
32.4200
 30
0.0000
 41
2.7432
 42
2.7432
 43
1.0000
 50
270.0000
  0
INSERT
  8
29
  2
ROUNDP
 10
22.5000
 20
37.4200
 30
0.0000
 41
2.7432
 42
2.7432
 43
1.0000
 50
90.0000
  0
INSERT
  8
29
  2
ROUNDP
 10
22.5000
 20
47.5800
 30
0.0000
 41
2.7432
 42
2.7432
 43
1.0000
 50
90.0000
  0
INSERT
  8
29
  2
ROUNDP
 10
25.9200
 20
47.5000
 30
0.0000
 41
2.7432
 42
2.7432
 43
1.0000
 50
0.0000
  0
INSERT
  8
29
  2
ROUNDP
 10
36.0800
 20
47.5000
 30
0.0000
 41
2.7432
 42
2.7432
 43
1.0000
 50
0.0000
  0
INSERT
  8
29
  2
ROUNDP
 10
29.5800
 20
33.5000
 30
0.0000
 41
2.7432
 42
2.7432
 43
1.0000
 50
180.0000
  0
INSERT
  8
29
  2
ROUNDP
 10
19.4200
 20
33.5000
 30
0.0000
 41
2.7432
 42
2.7432
 43
1.0000
 50
180.0000
  0
INSERT
  8
29
  2
ROUNDP
 10
20.9200
 20
30.0000
 30
0.0000
 41
2.7432
 42
2.7432
 43
1.0000
 50
0.0000
  0
INSERT
  8
29
  2
ROUNDP
 10
31.0800
 20
30.0000
 30
0.0000
 41
2.7432
 42
2.7432
 43
1.0000
 50
0.0000
  0
INSERT
  8
29
  2
ROUNDP
 10
35.1110
 20
32.4976
 30
0.0000
 41
2.7432
 42
2.7432
 43
1.0000
 50
90.0000
  0
INSERT
  8
29
  2
ROUNDP
 10
35.1110
 20
42.6576
 30
0.0000
 41
2.7432
 42
2.7432
 43
1.0000
 50
90.0000
  0
INSERT
  8
29
  2
ROUNDP
 10
57.0000
 20
47.0000
 30
0.0000
 41
3.2032
 42
3.2032
 43
1.0000
 50
180.0000
  0
INSERT
  8
29
  2
ROUNDP
 10
52.0000
 20
47.0000
 30
0.0000
 41
3.2032
 42
3.2032
 43
1.0000
 50
180.0000
  0
INSERT
  8
29
  2
ROUNDP
 10
47.0000
 20
47.0000
 30
0.0000
 41
3.2032
 42
3.2032
 43
1.0000
 50
180.0000
  0
INSERT
  8
29
  2
ROUNDP
 10
59.0000
 20
26.9200
 30
0.0000
 41
2.7432
 42
2.7432
 43
1.0000
 50
90.0000
  0
INSERT
  8
29
  2
ROUNDP
 10
59.0000
 20
37.0800
 30
0.0000
 41
2.7432
 42
2.7432
 43
1.0000
 50
90.0000
  0
INSERT
  8
29
  2
ROUNDP
 10
55.0000
 20
37.0800
 30
0.0000
 41
2.7432
 42
2.7432
 43
1.0000
 50
270.0000
  0
INSERT
  8
29
  2
ROUNDP
 10
55.0000
 20
26.9200
 30
0.0000
 41
2.7432
 42
2.7432
 43
1.0000
 50
270.0000
  0
INSERT
  8
29
  2
ROUNDP
 10
60.0800
 20
40.5000
 30
0.0000
 41
2.7432
 42
2.7432
 43
1.0000
 50
180.0000
  0
INSERT
  8
29
  2
ROUNDP
 10
49.9200
 20
40.5000
 30
0.0000
 41
2.7432
 42
2.7432
 43
1.0000
 50
180.0000
  0
INSERT
  8
29
  2
ROUNDP
 10
63.0000
 20
47.5800
 30
0.0000
 41
2.7432
 42
2.7432
 43
1.0000
 50
270.0000
  0
INSERT
  8
29
  2
ROUNDP
 10
63.0000
 20
37.4200
 30
0.0000
 41
2.7432
 42
2.7432
 43
1.0000
 50
270.0000
  0
INSERT
  8
29
  2
ROUNDP
 10
67.5800
 20
23.0000
 30
0.0000
 41
2.7432
 42
2.7432
 43
1.0000
 50
180.0000
  0
INSERT
  8
29
  2
ROUNDP
 10
57.4200
 20
23.0000
 30
0.0000
 41
2.7432
 42
2.7432
 43
1.0000
 50
180.0000
  0
INSERT
  8
29
  2
ROUNDP
 10
66.9300
 20
36.8100
 30
0.0000
 41
2.7432
 42
2.7432
 43
1.0000
 50
270.0000
  0
INSERT
  8
29
  2
ROUNDP
 10
66.9300
 20
26.6500
 30
0.0000
 41
2.7432
 42
2.7432
 43
1.0000
 50
270.0000
  0
INSERT
  8
29
  2
ROUNDP
 10
56.5800
 20
2.5000
 30
0.0000
 41
2.7432
 42
2.7432
 43
1.0000
 50
180.0000
  0
INSERT
  8
29
  2
ROUNDP
 10
46.4200
 20
2.5000
 30
0.0000
 41
2.7432
 42
2.7432
 43
1.0000
 50
180.0000
  0
INSERT
  8
29
  2
ROUNDP
 10
66.5800
 20
13.5000
 30
0.0000
 41
2.7432
 42
2.7432
 43
1.0000
 50
180.0000
  0
INSERT
  8
29
  2
ROUNDP
 10
56.4200
 20
13.5000
 30
0.0000
 41
2.7432
 42
2.7432
 43
1.0000
 50
180.0000
  0
INSERT
  8
29
  2
ROUNDP
 10
66.5800
 20
17.5000
 30
0.0000
 41
2.7432
 42
2.7432
 43
1.0000
 50
180.0000
  0
INSERT
  8
29
  2
ROUNDP
 10
56.4200
 20
17.5000
 30
0.0000
 41
2.7432
 42
2.7432
 43
1.0000
 50
180.0000
  0
INSERT
  8
29
  2
ROUNDP
 10
50.0800
 20
26.0000
 30
0.0000
 41
2.7432
 42
2.7432
 43
1.0000
 50
180.0000
  0
INSERT
  8
29
  2
ROUNDP
 10
39.9200
 20
26.0000
 30
0.0000
 41
2.7432
 42
2.7432
 43
1.0000
 50
180.0000
  0
INSERT
  8
29
  2
ROUNDP
 10
56.4200
 20
10.0000
 30
0.0000
 41
2.7432
 42
2.7432
 43
1.0000
 50
0.0000
  0
INSERT
  8
29
  2
ROUNDP
 10
66.5800
 20
10.0000
 30
0.0000
 41
2.7432
 42
2.7432
 43
1.0000
 50
0.0000
  0
INSERT
  8
29
  2
ROUNDP
 10
56.5800
 20
6.5000
 30
0.0000
 41
2.7432
 42
2.7432
 43
1.0000
 50
180.0000
  0
INSERT
  8
29
  2
ROUNDP
 10
46.4200
 20
6.5000
 30
0.0000
 41
2.7432
 42
2.7432
 43
1.0000
 50
180.0000
  0
INSERT
  8
29
  2
LONGP100
 10
45.0000
 20
21.5400
 30
0.0000
 41
1.9812
 42
1.9812
 43
1.0000
 50
180.0000
  0
INSERT
  8
29
  2
LONGP100
 10
45.0000
 20
16.4600
 30
0.0000
 41
1.9812
 42
1.9812
 43
1.0000
 50
180.0000
  0
INSERT
  8
29
  2
LONGP100
 10
45.0000
 20
19.0000
 30
0.0000
 41
1.9812
 42
1.9812
 43
1.0000
 50
180.0000
  0
INSERT
  8
29
  2
ROUNDP
 10
43.0800
 20
7.0000
 30
0.0000
 41
2.7432
 42
2.7432
 43
1.0000
 50
180.0000
  0
INSERT
  8
29
  2
ROUNDP
 10
32.9200
 20
7.0000
 30
0.0000
 41
2.7432
 42
2.7432
 43
1.0000
 50
180.0000
  0
INSERT
  8
29
  2
ROUNDP
 10
32.9200
 20
2.5000
 30
0.0000
 41
2.7432
 42
2.7432
 43
1.0000
 50
0.0000
  0
INSERT
  8
29
  2
ROUNDP
 10
43.0800
 20
2.5000
 30
0.0000
 41
2.7432
 42
2.7432
 43
1.0000
 50
0.0000
  0
INSERT
  8
29
  2
ROUNDP
 10
30.9200
 20
22.0000
 30
0.0000
 41
2.7432
 42
2.7432
 43
1.0000
 50
0.0000
  0
INSERT
  8
29
  2
ROUNDP
 10
41.0800
 20
22.0000
 30
0.0000
 41
2.7432
 42
2.7432
 43
1.0000
 50
0.0000
  0
INSERT
  8
29
  2
ROUNDP
 10
39.5800
 20
18.5000
 30
0.0000
 41
2.7432
 42
2.7432
 43
1.0000
 50
180.0000
  0
INSERT
  8
29
  2
ROUNDP
 10
29.4200
 20
18.5000
 30
0.0000
 41
2.7432
 42
2.7432
 43
1.0000
 50
180.0000
  0
INSERT
  8
29
  2
ROUNDP
 10
18.1300
 20
2.9700
 30
0.0000
 41
3.2032
 42
3.2032
 43
1.0000
 50
0.0000
  0
INSERT
  8
29
  2
ROUNDP
 10
23.1300
 20
2.9700
 30
0.0000
 41
3.2032
 42
3.2032
 43
1.0000
 50
0.0000
  0
INSERT
  8
29
  2
ROUNDP
 10
28.1300
 20
2.9700
 30
0.0000
 41
3.2032
 42
3.2032
 43
1.0000
 50
0.0000
  0
INSERT
  8
29
  2
ROUNDP
 10
26.0800
 20
15.0000
 30
0.0000
 41
2.7432
 42
2.7432
 43
1.0000
 50
180.0000
  0
INSERT
  8
29
  2
ROUNDP
 10
15.9200
 20
15.0000
 30
0.0000
 41
2.7432
 42
2.7432
 43
1.0000
 50
180.0000
  0
INSERT
  8
29
  2
ROUNDP
 10
15.9200
 20
18.5000
 30
0.0000
 41
2.7432
 42
2.7432
 43
1.0000
 50
0.0000
  0
INSERT
  8
29
  2
ROUNDP
 10
26.0800
 20
18.5000
 30
0.0000
 41
2.7432
 42
2.7432
 43
1.0000
 50
0.0000
  0
INSERT
  8
29
  2
ROUNDP
 10
7.0000
 20
26.0800
 30
0.0000
 41
2.7432
 42
2.7432
 43
1.0000
 50
270.0000
  0
INSERT
  8
29
  2
ROUNDP
 10
7.0000
 20
15.9200
 30
0.0000
 41
2.7432
 42
2.7432
 43
1.0000
 50
270.0000
  0
INSERT
  8
29
  2
ROUNDP
 10
10.4200
 20
27.0000
 30
0.0000
 41
2.7432
 42
2.7432
 43
1.0000
 50
0.0000
  0
INSERT
  8
29
  2
ROUNDP
 10
20.5800
 20
27.0000
 30
0.0000
 41
2.7432
 42
2.7432
 43
1.0000
 50
0.0000
  0
INSERT
  8
29
  2
ROUNDP
 10
3.5000
 20
7.4200
 30
0.0000
 41
2.7432
 42
2.7432
 43
1.0000
 50
90.0000
  0
INSERT
  8
29
  2
ROUNDP
 10
3.5000
 20
17.5800
 30
0.0000
 41
2.7432
 42
2.7432
 43
1.0000
 50
90.0000
  0
INSERT
  8
29
  2
ROUNDP
 10
12.5000
 20
6.4200
 30
0.0000
 41
2.7432
 42
2.7432
 43
1.0000
 50
90.0000
  0
INSERT
  8
29
  2
ROUNDP
 10
12.5000
 20
16.5800
 30
0.0000
 41
2.7432
 42
2.7432
 43
1.0000
 50
90.0000
  0
INSERT
  8
29
  2
LONGP100
 10
26.4600
 20
11.0000
 30
0.0000
 41
1.9812
 42
1.9812
 43
1.0000
 50
90.0000
  0
INSERT
  8
29
  2
LONGP100
 10
29.0000
 20
11.0000
 30
0.0000
 41
1.9812
 42
1.9812
 43
1.0000
 50
90.0000
  0
INSERT
  8
29
  2
LONGP100
 10
31.5400
 20
11.0000
 30
0.0000
 41
1.9812
 42
1.9812
 43
1.0000
 50
90.0000
  0
INSERT
  8
29
  2
OCTAGONP
 10
16.9050
 20
38.9050
 30
0.0000
 41
2.7432
 42
2.7432
 43
1.0000
 50
180.0000
  0
INSERT
  8
29
  2
OCTAGONP
 10
13.0950
 20
38.9050
 30
0.0000
 41
2.7432
 42
2.7432
 43
1.0000
 50
180.0000
  0
INSERT
  8
29
  2
OCTAGONP
 10
13.0950
 20
35.0950
 30
0.0000
 41
2.7432
 42
2.7432
 43
1.0000
 50
180.0000
  0
INSERT
  8
29
  2
OCTAGONP
 10
27.0950
 20
36.5616
 30
0.0000
 41
2.7432
 42
2.7432
 43
1.0000
 50
0.0000
  0
INSERT
  8
29
  2
OCTAGONP
 10
30.9050
 20
36.5616
 30
0.0000
 41
2.7432
 42
2.7432
 43
1.0000
 50
0.0000
  0
INSERT
  8
29
  2
OCTAGONP
 10
30.9050
 20
40.3716
 30
0.0000
 41
2.7432
 42
2.7432
 43
1.0000
 50
0.0000
  0
INSERT
  8
29
  2
OCTAGONP
 10
51.9050
 20
29.0950
 30
0.0000
 41
2.7432
 42
2.7432
 43
1.0000
 50
90.0000
  0
INSERT
  8
29
  2
OCTAGONP
 10
51.9050
 20
32.9050
 30
0.0000
 41
2.7432
 42
2.7432
 43
1.0000
 50
90.0000
  0
INSERT
  8
29
  2
OCTAGONP
 10
48.0950
 20
32.9050
 30
0.0000
 41
2.7432
 42
2.7432
 43
1.0000
 50
90.0000
  0
INSERT
  8
29
  2
OCTAGONP
 10
52.4050
 20
15.5950
 30
0.0000
 41
2.7432
 42
2.7432
 43
1.0000
 50
90.0000
  0
INSERT
  8
29
  2
OCTAGONP
 10
52.4050
 20
19.4050
 30
0.0000
 41
2.7432
 42
2.7432
 43
1.0000
 50
90.0000
  0
INSERT
  8
29
  2
OCTAGONP
 10
48.5950
 20
19.4050
 30
0.0000
 41
2.7432
 42
2.7432
 43
1.0000
 50
90.0000
  0
INSERT
  8
29
  2
OCTAGONP
 10
60.5950
 20
2.5950
 30
0.0000
 41
2.7432
 42
2.7432
 43
1.0000
 50
0.0000
  0
INSERT
  8
29
  2
OCTAGONP
 10
64.4050
 20
2.5950
 30
0.0000
 41
2.7432
 42
2.7432
 43
1.0000
 50
0.0000
  0
INSERT
  8
29
  2
OCTAGONP
 10
64.4050
 20
6.4050
 30
0.0000
 41
2.7432
 42
2.7432
 43
1.0000
 50
0.0000
  0
INSERT
  8
29
  2
OCTAGONP
 10
13.9050
 20
23.4050
 30
0.0000
 41
2.7432
 42
2.7432
 43
1.0000
 50
180.0000
  0
INSERT
  8
29
  2
OCTAGONP
 10
10.0950
 20
23.4050
 30
0.0000
 41
2.7432
 42
2.7432
 43
1.0000
 50
180.0000
  0
INSERT
  8
29
  2
OCTAGONP
 10
10.0950
 20
19.5950
 30
0.0000
 41
2.7432
 42
2.7432
 43
1.0000
 50
180.0000
  0
INSERT
  8
29
  2
LONGP100
 10
5.2700
 20
47.0000
 30
0.0000
 41
1.9812
 42
1.9812
 43
1.0000
 50
270.0000
  0
INSERT
  8
29
  2
LONGP100
 10
2.7300
 20
47.0000
 30
0.0000
 41
1.9812
 42
1.9812
 43
1.0000
 50
270.0000
  0
INSERT
  8
29
  2
LONGP100
 10
3.3400
 20
2.8500
 30
0.0000
 41
1.9812
 42
1.9812
 43
1.0000
 50
90.0000
  0
INSERT
  8
29
  2
LONGP100
 10
5.8800
 20
2.8500
 30
0.0000
 41
1.9812
 42
1.9812
 43
1.0000
 50
90.0000
  0
ENDSEC
  0
EOF
