%
M48
M72
T01C0.0394
T02C0.0472
%
T01
X5232Y5486
X6232Y5486
X7460Y5546
X8445Y5546
X9429Y5546
X8838Y6892
X6838Y7290
X5295Y7286
X6838Y9290
X6673Y10632
X5295Y11286
X5295Y12632
X5295Y13616
X6673Y14632
X5295Y14797
X5295Y15782
X5295Y17128
X7264Y17128
X9020Y16569
X10520Y16569
X11563Y17553
X12153Y16175
X12020Y14994
X13531Y14994
X14972Y13813
X16090Y13026
X15500Y11648
X14185Y11648
X14185Y10270
X15516Y10270
X17016Y10270
X18484Y10089
X20059Y10286
X19500Y11648
X20090Y13026
X21634Y12845
X21634Y11845
X21634Y10845
X23049Y12004
X24549Y12004
X26130Y11254
X26130Y9679
X26130Y8301
X24799Y8498
X26193Y6923
X26193Y5349
X27773Y5386
X29273Y5386
X29273Y6886
X30130Y8301
X30130Y9679
X30130Y11254
X30523Y13420
X30268Y14857
X28720Y15372
X27146Y14963
X25571Y14963
X24352Y15819
X23634Y14601
X21256Y16175
X22852Y17319
X22027Y18325
X24352Y17319
X25571Y18963
X27146Y18963
X28720Y19097
X30268Y18857
X28720Y17372
X27571Y20309
X30295Y21081
X30295Y23081
X28720Y23097
X23571Y20309
X22027Y20325
X19862Y21081
X19772Y19951
X17740Y21159
X16480Y21864
X14980Y21864
X14122Y23065
X12775Y23097
X11429Y23065
X11216Y21294
X10573Y19681
X9073Y19681
X9073Y18181
X9216Y21294
X7264Y21128
X5295Y21128
X4992Y22868
X5992Y22868
X7429Y23065
X12775Y19097
X14585Y18759
X16085Y18759
X15563Y17553
X16153Y16175
X17531Y14994
X19256Y16175
X19634Y14601
X17740Y17159
X19772Y17951
X16085Y20259
X18122Y23065
X19862Y23081
X10972Y13813
X9392Y13579
X7892Y13579
X8020Y14994
X7892Y12079
X8838Y10892
X10185Y10270
X10185Y11648
X10201Y8695
X12201Y8695
X14335Y8695
X15335Y8695
X16335Y8695
X16878Y7120
X18484Y8089
X20059Y8286
X20878Y7120
X22193Y6923
X22799Y8498
X24549Y10504
X26523Y13420
X22193Y5349
X20878Y5349
X16878Y5349
T02
X14992Y5534
X13023Y5534
X11055Y5534
X22421Y22868
X24390Y22868
X26358Y22868
M30
