G75*
G70*
%OFA0B0*%
%FSLAX24Y24*%
%IPPOS*%
%LPD*%
%AMOC8*
5,1,8,0,0,1.08239X$1,22.5*
%
%ADD10C,0.0030*%
%ADD11C,0.1000*%
%ADD12OC8,0.1000*%
%ADD13C,0.1181*%
%ADD14C,0.0700*%
%ADD15C,0.0200*%
D10*
X004938Y018159D02*
X005185Y018159D01*
X005306Y018159D02*
X005553Y018159D01*
X005430Y018159D02*
X005430Y018529D01*
X005553Y018406D01*
X005675Y018468D02*
X005921Y018221D01*
X005860Y018159D01*
X005736Y018159D01*
X005675Y018221D01*
X005675Y018468D01*
X005736Y018529D01*
X005860Y018529D01*
X005921Y018468D01*
X005921Y018221D01*
X006043Y018159D02*
X006290Y018159D01*
X006043Y018406D01*
X006043Y018468D01*
X006105Y018529D01*
X006228Y018529D01*
X006290Y018468D01*
X006411Y018468D02*
X006411Y018344D01*
X006473Y018282D01*
X006473Y018406D01*
X006596Y018406D01*
X006596Y018282D01*
X006473Y018282D01*
X006411Y018221D02*
X006473Y018159D01*
X006596Y018159D01*
X006658Y018221D01*
X006658Y018468D01*
X006596Y018529D01*
X006473Y018529D01*
X006411Y018468D01*
X006391Y018946D02*
X006391Y019193D01*
X006206Y019193D01*
X006144Y019131D01*
X006144Y018946D01*
X006023Y018946D02*
X005900Y018946D01*
X005961Y018946D02*
X005961Y019193D01*
X006023Y019193D01*
X005961Y019317D02*
X005961Y019378D01*
X005716Y019193D02*
X005777Y019131D01*
X005777Y019008D01*
X005716Y018946D01*
X005531Y018946D01*
X005409Y018946D02*
X005224Y018946D01*
X005162Y019008D01*
X005224Y019070D01*
X005347Y019070D01*
X005409Y019131D01*
X005347Y019193D01*
X005162Y019193D01*
X005531Y019193D02*
X005716Y019193D01*
X005716Y019734D02*
X005469Y019734D01*
X005348Y019734D02*
X005101Y019734D01*
X005101Y019981D02*
X005348Y019734D01*
X005348Y019981D02*
X005101Y019981D01*
X005469Y019981D02*
X005716Y019734D01*
X005838Y019734D02*
X005838Y019981D01*
X005716Y019981D02*
X005469Y019981D01*
X005838Y019734D02*
X006023Y019734D01*
X006084Y019795D01*
X006084Y019981D01*
X006206Y020104D02*
X006453Y020104D01*
X006453Y019734D01*
X006453Y019919D02*
X006329Y019919D01*
X006574Y019981D02*
X006636Y019981D01*
X006760Y019857D01*
X006881Y019857D02*
X007128Y019857D01*
X007128Y019795D02*
X007128Y019919D01*
X007066Y019981D01*
X006943Y019981D01*
X006881Y019919D01*
X006881Y019857D01*
X006943Y019734D02*
X007066Y019734D01*
X007128Y019795D01*
X007249Y019795D02*
X007311Y019734D01*
X007496Y019734D01*
X007618Y019734D02*
X007618Y019981D01*
X007496Y019981D02*
X007311Y019981D01*
X007249Y019919D01*
X007249Y019795D01*
X007496Y019610D02*
X007496Y019981D01*
X007618Y019734D02*
X007803Y019734D01*
X007865Y019795D01*
X007865Y019981D01*
X007986Y020042D02*
X008048Y020104D01*
X008171Y020104D01*
X008233Y020042D01*
X008233Y019981D01*
X008171Y019919D01*
X008048Y019919D01*
X007986Y019857D01*
X007986Y019795D01*
X008048Y019734D01*
X008171Y019734D01*
X008233Y019795D01*
X008233Y019317D02*
X008048Y019317D01*
X007986Y019255D01*
X007986Y019131D01*
X008048Y019070D01*
X008233Y019070D01*
X008109Y019070D02*
X007986Y018946D01*
X007865Y019008D02*
X007865Y019131D01*
X007803Y019193D01*
X007679Y019193D01*
X007618Y019131D01*
X007618Y019070D01*
X007865Y019070D01*
X007865Y019008D02*
X007803Y018946D01*
X007679Y018946D01*
X007496Y018946D02*
X007249Y018946D01*
X007128Y018946D02*
X006881Y018946D01*
X006760Y019008D02*
X006698Y018946D01*
X006574Y018946D01*
X006513Y019008D01*
X006513Y019131D01*
X006574Y019193D01*
X006698Y019193D01*
X006760Y019131D01*
X006760Y019008D01*
X006881Y019193D02*
X007128Y018946D01*
X007128Y019193D02*
X006881Y019193D01*
X007249Y019193D02*
X007496Y018946D01*
X007496Y019193D02*
X007249Y019193D01*
X006760Y019734D02*
X006760Y019981D01*
X008233Y019317D02*
X008233Y018946D01*
X005185Y018406D02*
X005061Y018529D01*
X005061Y018159D01*
D11*
X005295Y017128D03*
X007264Y017128D03*
X009020Y016569D03*
X010520Y016569D03*
X011563Y017553D03*
X012153Y016175D03*
X012020Y014994D03*
X013531Y014994D03*
X014972Y013813D03*
X016090Y013026D03*
X015500Y011648D03*
X014185Y011648D03*
X014185Y010270D03*
X015516Y010270D03*
X017016Y010270D03*
X018484Y010089D03*
X020059Y010286D03*
X019500Y011648D03*
X020090Y013026D03*
X019634Y014601D03*
X021256Y016175D03*
X023634Y014601D03*
X025571Y014963D03*
X027146Y014963D03*
X028720Y015372D03*
X030268Y014857D03*
X030523Y013420D03*
X030130Y011254D03*
X030130Y009679D03*
X030130Y008301D03*
X026130Y008301D03*
X024799Y008498D03*
X026130Y009679D03*
X026130Y011254D03*
X026523Y013420D03*
X027146Y018963D03*
X028720Y019097D03*
X030268Y018857D03*
X027571Y020309D03*
X025571Y018963D03*
X023571Y020309D03*
X022027Y020325D03*
X019862Y021081D03*
X019772Y019951D03*
X017740Y021159D03*
X016480Y021864D03*
X014980Y021864D03*
X014122Y023065D03*
X012775Y023097D03*
X011429Y023065D03*
X011216Y021294D03*
X012775Y019097D03*
X015563Y017553D03*
X016153Y016175D03*
X017531Y014994D03*
X017740Y017159D03*
X010972Y013813D03*
X010185Y011648D03*
X008838Y010892D03*
X010185Y010270D03*
X012201Y008695D03*
X008838Y006892D03*
X006838Y009290D03*
X006673Y010632D03*
X005295Y011286D03*
X006673Y014632D03*
X008020Y014994D03*
X007264Y021128D03*
X005295Y021128D03*
X007429Y023065D03*
X018122Y023065D03*
X028720Y023097D03*
X030295Y023081D03*
X020059Y008286D03*
X020878Y007120D03*
X022193Y006923D03*
X022193Y005349D03*
X020878Y005349D03*
X016878Y005349D03*
X016878Y007120D03*
X026193Y006923D03*
X026193Y005349D03*
X005295Y007286D03*
D12*
X006838Y007290D03*
X010201Y008695D03*
X007892Y012079D03*
X007892Y013579D03*
X009392Y013579D03*
X009073Y018181D03*
X009073Y019681D03*
X010573Y019681D03*
X009216Y021294D03*
X014585Y018759D03*
X016085Y018759D03*
X016085Y020259D03*
X019772Y017951D03*
X019256Y016175D03*
X022027Y018325D03*
X022852Y017319D03*
X024352Y017319D03*
X024352Y015819D03*
X024549Y012004D03*
X023049Y012004D03*
X024549Y010504D03*
X022799Y008498D03*
X018484Y008089D03*
X027773Y005386D03*
X029273Y005386D03*
X029273Y006886D03*
X028720Y017372D03*
X030295Y021081D03*
X019862Y023081D03*
D13*
X022421Y022868D03*
X024390Y022868D03*
X026358Y022868D03*
X014992Y005534D03*
X013023Y005534D03*
X011055Y005534D03*
D14*
X005232Y005836D02*
X005232Y005136D01*
X006232Y005136D02*
X006232Y005836D01*
X007460Y005896D02*
X007460Y005196D01*
X008445Y005196D02*
X008445Y005896D01*
X009429Y005896D02*
X009429Y005196D01*
X014335Y008345D02*
X014335Y009045D01*
X015335Y009045D02*
X015335Y008345D01*
X016335Y008345D02*
X016335Y009045D01*
X021284Y010845D02*
X021984Y010845D01*
X021984Y011845D02*
X021284Y011845D01*
X021284Y012845D02*
X021984Y012845D01*
X005992Y022518D02*
X005992Y023218D01*
X004992Y023218D02*
X004992Y022518D01*
X004945Y015782D02*
X005645Y015782D01*
X005645Y014797D02*
X004945Y014797D01*
X004945Y013616D02*
X005645Y013616D01*
X005645Y012632D02*
X004945Y012632D01*
D15*
X005295Y012632D02*
X005605Y012632D01*
X006367Y013394D01*
X006367Y013725D01*
X005295Y014797D01*
X005670Y014797D01*
X006507Y015634D01*
X006507Y015916D01*
X005295Y017128D01*
X004547Y017876D01*
X004547Y021724D01*
X004992Y022169D01*
X004992Y022634D01*
X005832Y021794D01*
X006437Y021794D01*
X006787Y022144D01*
X009797Y022144D01*
X010217Y021724D01*
X010217Y020954D01*
X010707Y020464D01*
X011617Y020464D01*
X012775Y021623D01*
X012775Y023097D01*
X011429Y023065D02*
X011216Y022853D01*
X011216Y021294D01*
X010573Y019681D02*
X012191Y019681D01*
X012775Y019097D01*
X011941Y018504D02*
X009396Y018504D01*
X009073Y018181D01*
X009774Y017314D02*
X008231Y017314D01*
X008045Y017128D01*
X007264Y017128D01*
X009020Y016569D02*
X009020Y015766D01*
X010972Y013813D01*
X011055Y013731D01*
X011055Y005534D01*
X009441Y005534D01*
X009429Y005546D01*
X008445Y005546D02*
X008445Y006498D01*
X008838Y006892D01*
X007767Y007024D02*
X007207Y006464D01*
X006927Y006464D01*
X006232Y005769D01*
X006232Y005486D01*
X005232Y005486D02*
X005232Y007223D01*
X005295Y007286D01*
X005299Y007290D01*
X006838Y007290D01*
X007767Y007304D02*
X007767Y007024D01*
X007767Y007304D02*
X007767Y007584D01*
X007067Y008284D01*
X006507Y008284D01*
X005295Y009496D01*
X005295Y011286D01*
X005295Y012632D01*
X006673Y010632D02*
X006673Y009455D01*
X006838Y009290D01*
X006673Y010632D02*
X007892Y011851D01*
X007892Y012079D01*
X008838Y010892D02*
X008838Y008376D01*
X007767Y007304D01*
X008857Y008354D02*
X008857Y010873D01*
X008838Y010892D01*
X009823Y011648D02*
X010185Y011648D01*
X010185Y010270D01*
X010201Y010254D01*
X010201Y008695D01*
X008857Y008354D02*
X011055Y006157D01*
X011055Y005534D01*
X012201Y006357D02*
X013023Y005534D01*
X012201Y006357D02*
X012201Y008695D01*
X014335Y008695D02*
X014335Y009089D01*
X015516Y010270D01*
X015516Y011632D01*
X015500Y011648D01*
X014185Y011648D02*
X013531Y012301D01*
X013531Y014994D01*
X012020Y014994D01*
X012020Y014860D01*
X010972Y013813D01*
X009392Y013579D02*
X008020Y014951D01*
X008020Y014994D01*
X007892Y013579D02*
X009823Y011648D01*
X012153Y016175D02*
X012153Y016963D01*
X011563Y017553D01*
X010579Y016569D01*
X010520Y016569D01*
X009774Y017314D01*
X011941Y018504D02*
X012291Y018154D01*
X013061Y018154D01*
X013691Y018784D01*
X013691Y019484D01*
X014041Y019834D01*
X015161Y019834D01*
X015161Y020814D01*
X016211Y021864D01*
X016480Y021864D01*
X017681Y023065D01*
X018122Y023065D01*
X019862Y023081D02*
X020075Y022868D01*
X022421Y022868D01*
X024390Y022868D02*
X024390Y022247D01*
X023097Y020954D01*
X022657Y020954D01*
X022027Y020325D01*
X023571Y020309D02*
X023571Y019868D01*
X024476Y018963D01*
X025571Y018963D01*
X025571Y018538D01*
X024352Y017319D01*
X023617Y016554D02*
X022852Y017319D01*
X023617Y016554D02*
X026178Y016554D01*
X028720Y019097D01*
X028720Y021506D01*
X030295Y023081D01*
X028720Y023097D02*
X027571Y021947D01*
X027571Y020309D01*
X026358Y019750D02*
X027146Y018963D01*
X026358Y019750D02*
X026358Y022868D01*
X026358Y022943D01*
X023571Y019868D02*
X022027Y018325D01*
X019772Y017951D02*
X017996Y016175D01*
X016153Y016175D01*
X015957Y017159D02*
X017740Y017159D01*
X017740Y017920D01*
X019772Y019951D01*
X019772Y020990D01*
X019862Y021081D01*
X016027Y018969D02*
X015161Y019834D01*
X014585Y018759D02*
X014585Y018532D01*
X015563Y017553D01*
X015957Y017159D01*
X016085Y018759D02*
X016027Y018969D01*
X014980Y021864D02*
X014980Y022207D01*
X014122Y023065D01*
X009216Y021294D02*
X009216Y019825D01*
X009073Y019681D01*
X009216Y021294D02*
X007429Y021294D01*
X007264Y021128D01*
X005295Y021128D01*
X004992Y022634D02*
X004992Y022868D01*
X005992Y022868D02*
X006189Y023065D01*
X007429Y023065D01*
X016153Y014994D02*
X014972Y013813D01*
X016090Y013026D02*
X017016Y012101D01*
X017016Y010270D01*
X017016Y009557D01*
X018484Y008089D01*
X019453Y007120D01*
X020878Y007120D01*
X021634Y007483D02*
X022193Y006923D01*
X021634Y007483D02*
X021634Y010845D01*
X020857Y010454D02*
X020577Y010734D01*
X020577Y011294D01*
X021127Y011845D01*
X021634Y011845D01*
X022057Y011845D01*
X022799Y011103D01*
X022799Y008498D01*
X023237Y008060D01*
X023237Y006044D01*
X022541Y005349D01*
X022193Y005349D01*
X020878Y005349D01*
X020059Y008286D02*
X020857Y009084D01*
X020857Y010454D01*
X020059Y010286D02*
X019500Y010845D01*
X019500Y011648D01*
X019500Y012435D01*
X020090Y013026D01*
X021634Y012845D02*
X019878Y014601D01*
X019634Y014601D01*
X018484Y014471D02*
X017961Y014994D01*
X018075Y014994D01*
X019256Y016175D01*
X017961Y014994D02*
X017531Y014994D01*
X016153Y014994D01*
X018484Y014471D02*
X018484Y010089D01*
X016878Y008152D02*
X016878Y007120D01*
X016878Y005349D01*
X015335Y005876D02*
X014992Y005534D01*
X015335Y005876D02*
X015335Y008695D01*
X016335Y008695D02*
X016878Y008152D01*
X023049Y012004D02*
X023049Y012996D01*
X022021Y014024D01*
X022021Y015410D01*
X021256Y016175D01*
X023634Y014601D02*
X024549Y013685D01*
X024549Y012004D01*
X025380Y012004D01*
X026130Y011254D01*
X026523Y011648D01*
X026523Y013420D01*
X027146Y014963D02*
X026289Y015819D01*
X024352Y015819D01*
X027146Y014963D02*
X027555Y015372D01*
X028720Y015372D01*
X030268Y014857D02*
X029091Y013680D01*
X029091Y009340D01*
X030130Y008301D01*
X030130Y006242D01*
X029273Y005386D01*
X027736Y006923D01*
X026193Y006923D01*
X024799Y006742D02*
X026193Y005349D01*
X027736Y005349D01*
X027773Y005386D01*
X029273Y006886D02*
X026480Y009679D01*
X026130Y009679D01*
X025381Y010428D01*
X025381Y010874D01*
X025001Y011254D01*
X023799Y011254D01*
X023049Y012004D01*
X024549Y010504D02*
X024549Y008748D01*
X024799Y008498D01*
X024799Y006742D01*
X030130Y009679D02*
X030130Y011254D01*
X030523Y013420D02*
X030967Y013863D01*
X030967Y020409D01*
X030295Y021081D01*
X030268Y018857D02*
X028783Y017372D01*
X028720Y017372D01*
M02*
