  0
SECTION
  2
HEADER
  9
$ACADVER
  1
AC1009
  9
$FILLMODE
 70
1
  9
$EXTMIN
 10
-9.9328
 20
-10.9568
 30
0.0000
  9
$EXTMAX
 10
78.8736
 20
60.9024
 30
0.0000
  0
ENDSEC
  0
SECTION
  2
TABLES
  0
TABLE
  2
LTYPE
 70
1
  0
LTYPE
  2
CONTINUOUS
 70
64
  3
Solid line
 72
65
 73
0
 40
0
  0
ENDTAB
  0
TABLE
  2
LAYER
 70
255
  0
LAYER
  2
16
 70
64
 62
175
  6
CONTINUOUS
  0
LAYER
  2
17
 70
64
 62
82
  6
CONTINUOUS
  0
ENDTAB
  0
ENDSEC
  0
SECTION
  2
BLOCKS
  0
BLOCK
  8
0
  2
RECT
 70
64
 10
0.0000
 20
0.0000
 30
0.0000
  3
RECT
  0
SOLID
  8
0
 10
-0.5000
 20
-0.5000
 30
0.0000
 11
0.5000
 21
-0.5000
 31
0.0000
 12
-0.5000
 22
0.5000
 32
0.0000
 13
0.5000
 23
0.5000
 33
0.0000
  0
ENDBLK
  8
0
  0
BLOCK
  8
0
  2
PIE
 70
64
 10
0.0000
 20
0.0000
 30
0.0000
  3
PIE
  0
POLYLINE
  8
0
 66
1
 10
0.0000
 20
0.0000
 30
0.0000
 40
0.5000
 41
0.5000
 70
0
  0
VERTEX
  8
0
 10
0.0000
 20
-0.2500
 30
0.0000
 42
1.0000
  0
VERTEX
  8
0
 10
0.0000
 20
0.2500
 30
0.0000
 42
1.0000
  0
VERTEX
  8
0
 10
0.0000
 20
-0.2500
 30
0.0000
  0
SEQEND
  8
0
  0
ENDBLK
  8
0
  0
BLOCK
  8
0
  2
OCTAGONP
 70
64
 10
0.0000
 20
0.0000
 30
0.0000
  3
OCTAGONP
  0
POLYLINE
  8
0
 66
1
 10
0.0000
 20
0.0000
 30
0.0000
 40
0.5000
 41
0.5000
 70
0
  0
VERTEX
  8
0
 10
-0.2500
 20
-0.1036
 30
0.0000
  0
VERTEX
  8
0
 10
-0.2500
 20
0.1036
 30
0.0000
  0
VERTEX
  8
0
 10
-0.1036
 20
0.2500
 30
0.0000
  0
VERTEX
  8
0
 10
0.1036
 20
0.2500
 30
0.0000
  0
VERTEX
  8
0
 10
0.2500
 20
0.1036
 30
0.0000
  0
VERTEX
  8
0
 10
0.2500
 20
-0.1036
 30
0.0000
  0
VERTEX
  8
0
 10
0.1036
 20
-0.2500
 30
0.0000
  0
VERTEX
  8
0
 10
-0.1036
 20
-0.2500
 30
0.0000
  0
VERTEX
  8
0
 10
-0.2500
 20
-0.1036
 30
0.0000
  0
VERTEX
  8
0
 10
-0.2500
 20
0.1036
 30
0.0000
  0
SEQEND
  8
0
  0
ENDBLK
  8
0
  0
BLOCK
  8
0
  2
SQUAREP
 70
64
 10
0.0000
 20
0.0000
 30
0.0000
  3
SQUAREP
  0
SOLID
  8
0
 10
-0.5000
 20
-0.5000
 30
0.0000
 11
0.5000
 21
-0.5000
 31
0.0000
 12
-0.5000
 22
0.5000
 32
0.0000
 13
0.5000
 23
0.5000
 33
0.0000
  0
ENDBLK
  8
0
  0
BLOCK
  8
0
  2
ROUNDP
 70
64
 10
0.0000
 20
0.0000
 30
0.0000
  3
ROUNDP
  0
POLYLINE
  8
0
 66
1
 10
0.0000
 20
0.0000
 30
0.0000
 40
0.5000
 41
0.5000
 70
0
  0
VERTEX
  8
0
 10
0.0000
 20
-0.2500
 30
0.0000
 42
1.0000
  0
VERTEX
  8
0
 10
0.0000
 20
0.2500
 30
0.0000
 42
1.0000
  0
VERTEX
  8
0
 10
0.0000
 20
-0.2500
 30
0.0000
  0
SEQEND
  8
0
  0
ENDBLK
  8
0
  0
BLOCK
  8
0
  2
ANNULUSP
 70
64
 10
0.0000
 20
0.0000
 30
0.0000
  3
ANNULUSP
  0
POLYLINE
  8
0
 66
1
 10
0.0000
 20
0.0000
 30
0.0000
 40
0.5000
 41
0.5000
 70
0
  0
VERTEX
  8
0
 10
0.0000
 20
-0.2500
 30
0.0000
 42
1.0000
  0
VERTEX
  8
0
 10
0.0000
 20
0.2500
 30
0.0000
 42
1.0000
  0
VERTEX
  8
0
 10
0.0000
 20
-0.2500
 30
0.0000
  0
SEQEND
  8
0
  0
ENDBLK
  8
0
  0
BLOCK
  8
0
  2
THERMALP
 70
64
 10
0.0000
 20
0.0000
 30
0.0000
  3
THERMALP
  0
POLYLINE
  8
0
 66
1
 10
0.0000
 20
0.0000
 30
0.0000
 40
0.1000
 41
0.1000
 70
0
  0
VERTEX
  8
0
 10
-0.2379
 20
0.4500
 30
0.0000
  0
VERTEX
  8
0
 10
0.2379
 20
0.4500
 30
0.0000
  0
SEQEND
  8
0
  0
POLYLINE
  8
0
 66
1
 10
0.0000
 20
0.0000
 30
0.0000
 40
0.0500
 41
0.0500
 70
0
  0
VERTEX
  8
0
 10
0.2379
 20
0.4250
 30
0.0000
 42
1.0000
  0
VERTEX
  8
0
 10
0.2379
 20
0.4750
 30
0.0000
  0
SEQEND
  8
0
  0
POLYLINE
  8
0
 66
1
 10
0.0000
 20
0.0000
 30
0.0000
 40
0.0500
 41
0.0500
 70
0
  0
VERTEX
  8
0
 10
-0.2379
 20
0.4750
 30
0.0000
 42
1.0000
  0
VERTEX
  8
0
 10
-0.2379
 20
0.4250
 30
0.0000
  0
SEQEND
  8
0
  0
POLYLINE
  8
0
 66
1
 10
0.0000
 20
0.0000
 30
0.0000
 40
0.1000
 41
0.1000
 70
0
  0
VERTEX
  8
0
 10
0.4500
 20
0.2379
 30
0.0000
  0
VERTEX
  8
0
 10
0.4500
 20
-0.2379
 30
0.0000
  0
SEQEND
  8
0
  0
POLYLINE
  8
0
 66
1
 10
0.0000
 20
0.0000
 30
0.0000
 40
0.0500
 41
0.0500
 70
0
  0
VERTEX
  8
0
 10
0.4250
 20
-0.2379
 30
0.0000
 42
1.0000
  0
VERTEX
  8
0
 10
0.4750
 20
-0.2379
 30
0.0000
  0
SEQEND
  8
0
  0
POLYLINE
  8
0
 66
1
 10
0.0000
 20
0.0000
 30
0.0000
 40
0.0500
 41
0.0500
 70
0
  0
VERTEX
  8
0
 10
0.4750
 20
0.2379
 30
0.0000
 42
1.0000
  0
VERTEX
  8
0
 10
0.4250
 20
0.2379
 30
0.0000
  0
SEQEND
  8
0
  0
POLYLINE
  8
0
 66
1
 10
0.0000
 20
0.0000
 30
0.0000
 40
0.1000
 41
0.1000
 70
0
  0
VERTEX
  8
0
 10
0.2379
 20
-0.4500
 30
0.0000
  0
VERTEX
  8
0
 10
-0.2379
 20
-0.4500
 30
0.0000
  0
SEQEND
  8
0
  0
POLYLINE
  8
0
 66
1
 10
0.0000
 20
0.0000
 30
0.0000
 40
0.0500
 41
0.0500
 70
0
  0
VERTEX
  8
0
 10
-0.2379
 20
-0.4250
 30
0.0000
 42
1.0000
  0
VERTEX
  8
0
 10
-0.2379
 20
-0.4750
 30
0.0000
  0
SEQEND
  8
0
  0
POLYLINE
  8
0
 66
1
 10
0.0000
 20
0.0000
 30
0.0000
 40
0.0500
 41
0.0500
 70
0
  0
VERTEX
  8
0
 10
0.2379
 20
-0.4750
 30
0.0000
 42
1.0000
  0
VERTEX
  8
0
 10
0.2379
 20
-0.4250
 30
0.0000
  0
SEQEND
  8
0
  0
POLYLINE
  8
0
 66
1
 10
0.0000
 20
0.0000
 30
0.0000
 40
0.1000
 41
0.1000
 70
0
  0
VERTEX
  8
0
 10
-0.4500
 20
-0.2379
 30
0.0000
  0
VERTEX
  8
0
 10
-0.4500
 20
0.2379
 30
0.0000
  0
SEQEND
  8
0
  0
POLYLINE
  8
0
 66
1
 10
0.0000
 20
0.0000
 30
0.0000
 40
0.0500
 41
0.0500
 70
0
  0
VERTEX
  8
0
 10
-0.4250
 20
0.2379
 30
0.0000
 42
1.0000
  0
VERTEX
  8
0
 10
-0.4750
 20
0.2379
 30
0.0000
  0
SEQEND
  8
0
  0
POLYLINE
  8
0
 66
1
 10
0.0000
 20
0.0000
 30
0.0000
 40
0.0500
 41
0.0500
 70
0
  0
VERTEX
  8
0
 10
-0.4750
 20
-0.2379
 30
0.0000
 42
1.0000
  0
VERTEX
  8
0
 10
-0.4250
 20
-0.2379
 30
0.0000
  0
SEQEND
  8
0
  0
ENDBLK
  8
0
  0
BLOCK
  8
0
  2
OCTAGONV
 70
64
 10
0.0000
 20
0.0000
 30
0.0000
  3
OCTAGONV
  0
POLYLINE
  8
0
 66
1
 10
0.0000
 20
0.0000
 30
0.0000
 40
0.5000
 41
0.5000
 70
0
  0
VERTEX
  8
0
 10
-0.2500
 20
-0.1036
 30
0.0000
  0
VERTEX
  8
0
 10
-0.2500
 20
0.1036
 30
0.0000
  0
VERTEX
  8
0
 10
-0.1036
 20
0.2500
 30
0.0000
  0
VERTEX
  8
0
 10
0.1036
 20
0.2500
 30
0.0000
  0
VERTEX
  8
0
 10
0.2500
 20
0.1036
 30
0.0000
  0
VERTEX
  8
0
 10
0.2500
 20
-0.1036
 30
0.0000
  0
VERTEX
  8
0
 10
0.1036
 20
-0.2500
 30
0.0000
  0
VERTEX
  8
0
 10
-0.1036
 20
-0.2500
 30
0.0000
  0
VERTEX
  8
0
 10
-0.2500
 20
-0.1036
 30
0.0000
  0
VERTEX
  8
0
 10
-0.2500
 20
0.1036
 30
0.0000
  0
SEQEND
  8
0
  0
ENDBLK
  8
0
  0
BLOCK
  8
0
  2
SQUAREV
 70
64
 10
0.0000
 20
0.0000
 30
0.0000
  3
SQUAREV
  0
SOLID
  8
0
 10
-0.5000
 20
-0.5000
 30
0.0000
 11
0.5000
 21
-0.5000
 31
0.0000
 12
-0.5000
 22
0.5000
 32
0.0000
 13
0.5000
 23
0.5000
 33
0.0000
  0
ENDBLK
  8
0
  0
BLOCK
  8
0
  2
ROUNDV
 70
64
 10
0.0000
 20
0.0000
 30
0.0000
  3
ROUNDV
  0
POLYLINE
  8
0
 66
1
 10
0.0000
 20
0.0000
 30
0.0000
 40
0.5000
 41
0.5000
 70
0
  0
VERTEX
  8
0
 10
0.0000
 20
-0.2500
 30
0.0000
 42
1.0000
  0
VERTEX
  8
0
 10
0.0000
 20
0.2500
 30
0.0000
 42
1.0000
  0
VERTEX
  8
0
 10
0.0000
 20
-0.2500
 30
0.0000
  0
SEQEND
  8
0
  0
ENDBLK
  8
0
  0
BLOCK
  8
0
  2
ANNULUSV
 70
64
 10
0.0000
 20
0.0000
 30
0.0000
  3
ANNULUSV
  0
POLYLINE
  8
0
 66
1
 10
0.0000
 20
0.0000
 30
0.0000
 40
0.5000
 41
0.5000
 70
0
  0
VERTEX
  8
0
 10
0.0000
 20
-0.2500
 30
0.0000
 42
1.0000
  0
VERTEX
  8
0
 10
0.0000
 20
0.2500
 30
0.0000
 42
1.0000
  0
VERTEX
  8
0
 10
0.0000
 20
-0.2500
 30
0.0000
  0
SEQEND
  8
0
  0
ENDBLK
  8
0
  0
BLOCK
  8
0
  2
THERMALV
 70
64
 10
0.0000
 20
0.0000
 30
0.0000
  3
THERMALV
  0
POLYLINE
  8
0
 66
1
 10
0.0000
 20
0.0000
 30
0.0000
 40
0.1000
 41
0.1000
 70
0
  0
VERTEX
  8
0
 10
-0.2379
 20
0.4500
 30
0.0000
  0
VERTEX
  8
0
 10
0.2379
 20
0.4500
 30
0.0000
  0
SEQEND
  8
0
  0
POLYLINE
  8
0
 66
1
 10
0.0000
 20
0.0000
 30
0.0000
 40
0.0500
 41
0.0500
 70
0
  0
VERTEX
  8
0
 10
0.2379
 20
0.4250
 30
0.0000
 42
1.0000
  0
VERTEX
  8
0
 10
0.2379
 20
0.4750
 30
0.0000
  0
SEQEND
  8
0
  0
POLYLINE
  8
0
 66
1
 10
0.0000
 20
0.0000
 30
0.0000
 40
0.0500
 41
0.0500
 70
0
  0
VERTEX
  8
0
 10
-0.2379
 20
0.4750
 30
0.0000
 42
1.0000
  0
VERTEX
  8
0
 10
-0.2379
 20
0.4250
 30
0.0000
  0
SEQEND
  8
0
  0
POLYLINE
  8
0
 66
1
 10
0.0000
 20
0.0000
 30
0.0000
 40
0.1000
 41
0.1000
 70
0
  0
VERTEX
  8
0
 10
0.4500
 20
0.2379
 30
0.0000
  0
VERTEX
  8
0
 10
0.4500
 20
-0.2379
 30
0.0000
  0
SEQEND
  8
0
  0
POLYLINE
  8
0
 66
1
 10
0.0000
 20
0.0000
 30
0.0000
 40
0.0500
 41
0.0500
 70
0
  0
VERTEX
  8
0
 10
0.4250
 20
-0.2379
 30
0.0000
 42
1.0000
  0
VERTEX
  8
0
 10
0.4750
 20
-0.2379
 30
0.0000
  0
SEQEND
  8
0
  0
POLYLINE
  8
0
 66
1
 10
0.0000
 20
0.0000
 30
0.0000
 40
0.0500
 41
0.0500
 70
0
  0
VERTEX
  8
0
 10
0.4750
 20
0.2379
 30
0.0000
 42
1.0000
  0
VERTEX
  8
0
 10
0.4250
 20
0.2379
 30
0.0000
  0
SEQEND
  8
0
  0
POLYLINE
  8
0
 66
1
 10
0.0000
 20
0.0000
 30
0.0000
 40
0.1000
 41
0.1000
 70
0
  0
VERTEX
  8
0
 10
0.2379
 20
-0.4500
 30
0.0000
  0
VERTEX
  8
0
 10
-0.2379
 20
-0.4500
 30
0.0000
  0
SEQEND
  8
0
  0
POLYLINE
  8
0
 66
1
 10
0.0000
 20
0.0000
 30
0.0000
 40
0.0500
 41
0.0500
 70
0
  0
VERTEX
  8
0
 10
-0.2379
 20
-0.4250
 30
0.0000
 42
1.0000
  0
VERTEX
  8
0
 10
-0.2379
 20
-0.4750
 30
0.0000
  0
SEQEND
  8
0
  0
POLYLINE
  8
0
 66
1
 10
0.0000
 20
0.0000
 30
0.0000
 40
0.0500
 41
0.0500
 70
0
  0
VERTEX
  8
0
 10
0.2379
 20
-0.4750
 30
0.0000
 42
1.0000
  0
VERTEX
  8
0
 10
0.2379
 20
-0.4250
 30
0.0000
  0
SEQEND
  8
0
  0
POLYLINE
  8
0
 66
1
 10
0.0000
 20
0.0000
 30
0.0000
 40
0.1000
 41
0.1000
 70
0
  0
VERTEX
  8
0
 10
-0.4500
 20
-0.2379
 30
0.0000
  0
VERTEX
  8
0
 10
-0.4500
 20
0.2379
 30
0.0000
  0
SEQEND
  8
0
  0
POLYLINE
  8
0
 66
1
 10
0.0000
 20
0.0000
 30
0.0000
 40
0.0500
 41
0.0500
 70
0
  0
VERTEX
  8
0
 10
-0.4250
 20
0.2379
 30
0.0000
 42
1.0000
  0
VERTEX
  8
0
 10
-0.4750
 20
0.2379
 30
0.0000
  0
SEQEND
  8
0
  0
POLYLINE
  8
0
 66
1
 10
0.0000
 20
0.0000
 30
0.0000
 40
0.0500
 41
0.0500
 70
0
  0
VERTEX
  8
0
 10
-0.4750
 20
-0.2379
 30
0.0000
 42
1.0000
  0
VERTEX
  8
0
 10
-0.4250
 20
-0.2379
 30
0.0000
  0
SEQEND
  8
0
  0
ENDBLK
  8
0
  0
BLOCK
  8
0
  2
LONGP100
 70
64
 10
0.0000
 20
0.0000
 30
0.0000
  3
LONGP100
  0
POLYLINE
  8
0
 66
1
 10
0.0000
 20
0.0000
 30
0.0000
 40
1.0000
 41
1.0000
 70
0
  0
VERTEX
  8
0
 10
-0.5000
 20
0.0000
 30
0.0000
  0
VERTEX
  8
0
 10
0.5000
 20
0.0000
 30
0.0000
  0
SEQEND
  8
0
  0
POLYLINE
  8
0
 66
1
 10
0.0000
 20
0.0000
 30
0.0000
 40
0.5000
 41
0.5000
 70
0
  0
VERTEX
  8
0
 10
0.5000
 20
-0.2500
 30
0.0000
 42
1.0000
  0
VERTEX
  8
0
 10
0.5000
 20
0.2500
 30
0.0000
  0
SEQEND
  8
0
  0
POLYLINE
  8
0
 66
1
 10
0.0000
 20
0.0000
 30
0.0000
 40
0.5000
 41
0.5000
 70
0
  0
VERTEX
  8
0
 10
-0.5000
 20
0.2500
 30
0.0000
 42
1.0000
  0
VERTEX
  8
0
 10
-0.5000
 20
-0.2500
 30
0.0000
  0
SEQEND
  8
0
  0
ENDBLK
  8
0
  0
ENDSEC
  0
SECTION
  2
ENTITIES
  0
INSERT
  8
17
  2
ROUNDP
 10
18.5400
 20
43.0000
 30
0.0000
 41
2.5400
 42
2.5400
 43
1.0000
 50
180.0000
  0
INSERT
  8
17
  2
OCTAGONP
 10
13.4600
 20
43.0000
 30
0.0000
 41
2.5400
 42
2.5400
 43
1.0000
 50
180.0000
  0
INSERT
  8
17
  2
ROUNDP
 10
28.1000
 20
44.4500
 30
0.0000
 41
2.5400
 42
2.5400
 43
1.0000
 50
0.0000
  0
INSERT
  8
17
  2
ROUNDP
 10
31.9100
 20
44.4500
 30
0.0000
 41
2.5400
 42
2.5400
 43
1.0000
 50
0.0000
  0
INSERT
  8
17
  2
ROUNDP
 10
16.7700
 20
31.0000
 30
0.0000
 41
2.5400
 42
2.5400
 43
1.0000
 50
180.0000
  0
INSERT
  8
17
  2
ROUNDP
 10
12.9600
 20
31.0000
 30
0.0000
 41
2.5400
 42
2.5400
 43
1.0000
 50
180.0000
  0
INSERT
  8
17
  2
ROUNDP
 10
40.2700
 20
39.5900
 30
0.0000
 41
2.5400
 42
2.5400
 43
1.0000
 50
270.0000
  0
INSERT
  8
17
  2
OCTAGONP
 10
40.2700
 20
34.5100
 30
0.0000
 41
2.5400
 42
2.5400
 43
1.0000
 50
270.0000
  0
INSERT
  8
17
  2
ROUNDP
 10
40.5000
 20
42.4600
 30
0.0000
 41
2.5400
 42
2.5400
 43
1.0000
 50
90.0000
  0
INSERT
  8
17
  2
OCTAGONP
 10
40.5000
 20
47.5400
 30
0.0000
 41
2.5400
 42
2.5400
 43
1.0000
 50
90.0000
  0
INSERT
  8
17
  2
ROUNDP
 10
46.0000
 20
40.5400
 30
0.0000
 41
2.5400
 42
2.5400
 43
1.0000
 50
270.0000
  0
INSERT
  8
17
  2
OCTAGONP
 10
46.0000
 20
35.4600
 30
0.0000
 41
2.5400
 42
2.5400
 43
1.0000
 50
270.0000
  0
INSERT
  8
17
  2
ROUNDP
 10
67.0000
 20
47.5400
 30
0.0000
 41
2.5400
 42
2.5400
 43
1.0000
 50
270.0000
  0
INSERT
  8
17
  2
OCTAGONP
 10
67.0000
 20
42.4600
 30
0.0000
 41
2.5400
 42
2.5400
 43
1.0000
 50
270.0000
  0
INSERT
  8
17
  2
ROUNDP
 10
63.0000
 20
27.9600
 30
0.0000
 41
2.5400
 42
2.5400
 43
1.0000
 50
90.0000
  0
INSERT
  8
17
  2
OCTAGONP
 10
63.0000
 20
33.0400
 30
0.0000
 41
2.5400
 42
2.5400
 43
1.0000
 50
90.0000
  0
INSERT
  8
17
  2
ROUNDP
 10
53.0400
 20
10.5000
 30
0.0000
 41
2.5400
 42
2.5400
 43
1.0000
 50
180.0000
  0
INSERT
  8
17
  2
OCTAGONP
 10
47.9600
 20
10.5000
 30
0.0000
 41
2.5400
 42
2.5400
 43
1.0000
 50
180.0000
  0
INSERT
  8
17
  2
ROUNDP
 10
44.0400
 20
30.0000
 30
0.0000
 41
2.5400
 42
2.5400
 43
1.0000
 50
180.0000
  0
INSERT
  8
17
  2
OCTAGONP
 10
38.9600
 20
30.0000
 30
0.0000
 41
2.5400
 42
2.5400
 43
1.0000
 50
180.0000
  0
INSERT
  8
17
  2
ROUNDP
 10
37.0000
 20
14.5400
 30
0.0000
 41
2.5400
 42
2.5400
 43
1.0000
 50
270.0000
  0
INSERT
  8
17
  2
OCTAGONP
 10
37.0000
 20
9.4600
 30
0.0000
 41
2.5400
 42
2.5400
 43
1.0000
 50
270.0000
  0
INSERT
  8
17
  2
ROUNDP
 10
33.2700
 20
15.0000
 30
0.0000
 41
2.5400
 42
2.5400
 43
1.0000
 50
180.0000
  0
INSERT
  8
17
  2
ROUNDP
 10
29.4600
 20
15.0000
 30
0.0000
 41
2.5400
 42
2.5400
 43
1.0000
 50
180.0000
  0
INSERT
  8
17
  2
ROUNDP
 10
41.0000
 20
15.0400
 30
0.0000
 41
2.5400
 42
2.5400
 43
1.0000
 50
270.0000
  0
INSERT
  8
17
  2
ROUNDP
 10
41.0000
 20
9.9600
 30
0.0000
 41
2.5400
 42
2.5400
 43
1.0000
 50
270.0000
  0
INSERT
  8
17
  2
ROUNDP
 10
21.0400
 20
11.0000
 30
0.0000
 41
2.5400
 42
2.5400
 43
1.0000
 50
180.0000
  0
INSERT
  8
17
  2
OCTAGONP
 10
15.9600
 20
11.0000
 30
0.0000
 41
2.5400
 42
2.5400
 43
1.0000
 50
180.0000
  0
INSERT
  8
17
  2
ROUNDP
 10
7.4200
 20
12.5100
 30
0.0000
 41
2.5400
 42
2.5400
 43
1.0000
 50
270.0000
  0
INSERT
  8
17
  2
OCTAGONP
 10
7.4200
 20
7.4300
 30
0.0000
 41
2.5400
 42
2.5400
 43
1.0000
 50
270.0000
  0
INSERT
  8
17
  2
ROUNDP
 10
24.4200
 20
27.0000
 30
0.0000
 41
2.5400
 42
2.5400
 43
1.0000
 50
180.0000
  0
INSERT
  8
17
  2
ROUNDP
 10
34.5800
 20
27.0000
 30
0.0000
 41
2.5400
 42
2.5400
 43
1.0000
 50
180.0000
  0
INSERT
  8
17
  2
ROUNDP
 10
28.0800
 20
24.0000
 30
0.0000
 41
2.5400
 42
2.5400
 43
1.0000
 50
0.0000
  0
INSERT
  8
17
  2
ROUNDP
 10
17.9200
 20
24.0000
 30
0.0000
 41
2.5400
 42
2.5400
 43
1.0000
 50
0.0000
  0
INSERT
  8
17
  2
LONGP100
 10
9.0000
 20
3.0000
 30
0.0000
 41
1.7780
 42
1.7780
 43
1.0000
 50
90.0000
  0
INSERT
  8
17
  2
LONGP100
 10
11.5000
 20
3.0000
 30
0.0000
 41
1.7780
 42
1.7780
 43
1.0000
 50
90.0000
  0
INSERT
  8
17
  2
LONGP100
 10
14.0000
 20
3.0000
 30
0.0000
 41
1.7780
 42
1.7780
 43
1.0000
 50
90.0000
  0
INSERT
  8
17
  2
LONGP100
 10
3.5000
 20
29.0000
 30
0.0000
 41
1.7780
 42
1.7780
 43
1.0000
 50
0.0000
  0
INSERT
  8
17
  2
LONGP100
 10
3.5000
 20
26.5000
 30
0.0000
 41
1.7780
 42
1.7780
 43
1.0000
 50
0.0000
  0
INSERT
  8
17
  2
LONGP100
 10
3.5000
 20
23.5000
 30
0.0000
 41
1.7780
 42
1.7780
 43
1.0000
 50
0.0000
  0
INSERT
  8
17
  2
LONGP100
 10
3.5000
 20
21.0000
 30
0.0000
 41
1.7780
 42
1.7780
 43
1.0000
 50
0.0000
  0
INSERT
  8
17
  2
ROUNDP
 10
19.0800
 20
47.5000
 30
0.0000
 41
2.5400
 42
2.5400
 43
1.0000
 50
180.0000
  0
INSERT
  8
17
  2
ROUNDP
 10
8.9200
 20
47.5000
 30
0.0000
 41
2.5400
 42
2.5400
 43
1.0000
 50
180.0000
  0
INSERT
  8
17
  2
ROUNDP
 10
8.5000
 20
42.5800
 30
0.0000
 41
2.5400
 42
2.5400
 43
1.0000
 50
270.0000
  0
INSERT
  8
17
  2
ROUNDP
 10
8.5000
 20
32.4200
 30
0.0000
 41
2.5400
 42
2.5400
 43
1.0000
 50
270.0000
  0
INSERT
  8
17
  2
ROUNDP
 10
3.5000
 20
42.5800
 30
0.0000
 41
2.5400
 42
2.5400
 43
1.0000
 50
270.0000
  0
INSERT
  8
17
  2
ROUNDP
 10
3.5000
 20
32.4200
 30
0.0000
 41
2.5400
 42
2.5400
 43
1.0000
 50
270.0000
  0
INSERT
  8
17
  2
ROUNDP
 10
22.5000
 20
37.4200
 30
0.0000
 41
2.5400
 42
2.5400
 43
1.0000
 50
90.0000
  0
INSERT
  8
17
  2
ROUNDP
 10
22.5000
 20
47.5800
 30
0.0000
 41
2.5400
 42
2.5400
 43
1.0000
 50
90.0000
  0
INSERT
  8
17
  2
ROUNDP
 10
25.9200
 20
47.5000
 30
0.0000
 41
2.5400
 42
2.5400
 43
1.0000
 50
0.0000
  0
INSERT
  8
17
  2
ROUNDP
 10
36.0800
 20
47.5000
 30
0.0000
 41
2.5400
 42
2.5400
 43
1.0000
 50
0.0000
  0
INSERT
  8
17
  2
ROUNDP
 10
29.5800
 20
33.5000
 30
0.0000
 41
2.5400
 42
2.5400
 43
1.0000
 50
180.0000
  0
INSERT
  8
17
  2
ROUNDP
 10
19.4200
 20
33.5000
 30
0.0000
 41
2.5400
 42
2.5400
 43
1.0000
 50
180.0000
  0
INSERT
  8
17
  2
ROUNDP
 10
20.9200
 20
30.0000
 30
0.0000
 41
2.5400
 42
2.5400
 43
1.0000
 50
0.0000
  0
INSERT
  8
17
  2
ROUNDP
 10
31.0800
 20
30.0000
 30
0.0000
 41
2.5400
 42
2.5400
 43
1.0000
 50
0.0000
  0
INSERT
  8
17
  2
ROUNDP
 10
35.1110
 20
32.4976
 30
0.0000
 41
2.5400
 42
2.5400
 43
1.0000
 50
90.0000
  0
INSERT
  8
17
  2
ROUNDP
 10
35.1110
 20
42.6576
 30
0.0000
 41
2.5400
 42
2.5400
 43
1.0000
 50
90.0000
  0
INSERT
  8
17
  2
ROUNDP
 10
57.0000
 20
47.0000
 30
0.0000
 41
3.0000
 42
3.0000
 43
1.0000
 50
180.0000
  0
INSERT
  8
17
  2
ROUNDP
 10
52.0000
 20
47.0000
 30
0.0000
 41
3.0000
 42
3.0000
 43
1.0000
 50
180.0000
  0
INSERT
  8
17
  2
ROUNDP
 10
47.0000
 20
47.0000
 30
0.0000
 41
3.0000
 42
3.0000
 43
1.0000
 50
180.0000
  0
INSERT
  8
17
  2
ROUNDP
 10
59.0000
 20
26.9200
 30
0.0000
 41
2.5400
 42
2.5400
 43
1.0000
 50
90.0000
  0
INSERT
  8
17
  2
ROUNDP
 10
59.0000
 20
37.0800
 30
0.0000
 41
2.5400
 42
2.5400
 43
1.0000
 50
90.0000
  0
INSERT
  8
17
  2
ROUNDP
 10
55.0000
 20
37.0800
 30
0.0000
 41
2.5400
 42
2.5400
 43
1.0000
 50
270.0000
  0
INSERT
  8
17
  2
ROUNDP
 10
55.0000
 20
26.9200
 30
0.0000
 41
2.5400
 42
2.5400
 43
1.0000
 50
270.0000
  0
INSERT
  8
17
  2
ROUNDP
 10
60.0800
 20
40.5000
 30
0.0000
 41
2.5400
 42
2.5400
 43
1.0000
 50
180.0000
  0
INSERT
  8
17
  2
ROUNDP
 10
49.9200
 20
40.5000
 30
0.0000
 41
2.5400
 42
2.5400
 43
1.0000
 50
180.0000
  0
INSERT
  8
17
  2
ROUNDP
 10
63.0000
 20
47.5800
 30
0.0000
 41
2.5400
 42
2.5400
 43
1.0000
 50
270.0000
  0
INSERT
  8
17
  2
ROUNDP
 10
63.0000
 20
37.4200
 30
0.0000
 41
2.5400
 42
2.5400
 43
1.0000
 50
270.0000
  0
INSERT
  8
17
  2
ROUNDP
 10
67.5800
 20
23.0000
 30
0.0000
 41
2.5400
 42
2.5400
 43
1.0000
 50
180.0000
  0
INSERT
  8
17
  2
ROUNDP
 10
57.4200
 20
23.0000
 30
0.0000
 41
2.5400
 42
2.5400
 43
1.0000
 50
180.0000
  0
INSERT
  8
17
  2
ROUNDP
 10
66.9300
 20
36.8100
 30
0.0000
 41
2.5400
 42
2.5400
 43
1.0000
 50
270.0000
  0
INSERT
  8
17
  2
ROUNDP
 10
66.9300
 20
26.6500
 30
0.0000
 41
2.5400
 42
2.5400
 43
1.0000
 50
270.0000
  0
INSERT
  8
17
  2
ROUNDP
 10
56.5800
 20
2.5000
 30
0.0000
 41
2.5400
 42
2.5400
 43
1.0000
 50
180.0000
  0
INSERT
  8
17
  2
ROUNDP
 10
46.4200
 20
2.5000
 30
0.0000
 41
2.5400
 42
2.5400
 43
1.0000
 50
180.0000
  0
INSERT
  8
17
  2
ROUNDP
 10
66.5800
 20
13.5000
 30
0.0000
 41
2.5400
 42
2.5400
 43
1.0000
 50
180.0000
  0
INSERT
  8
17
  2
ROUNDP
 10
56.4200
 20
13.5000
 30
0.0000
 41
2.5400
 42
2.5400
 43
1.0000
 50
180.0000
  0
INSERT
  8
17
  2
ROUNDP
 10
66.5800
 20
17.5000
 30
0.0000
 41
2.5400
 42
2.5400
 43
1.0000
 50
180.0000
  0
INSERT
  8
17
  2
ROUNDP
 10
56.4200
 20
17.5000
 30
0.0000
 41
2.5400
 42
2.5400
 43
1.0000
 50
180.0000
  0
INSERT
  8
17
  2
ROUNDP
 10
50.0800
 20
26.0000
 30
0.0000
 41
2.5400
 42
2.5400
 43
1.0000
 50
180.0000
  0
INSERT
  8
17
  2
ROUNDP
 10
39.9200
 20
26.0000
 30
0.0000
 41
2.5400
 42
2.5400
 43
1.0000
 50
180.0000
  0
INSERT
  8
17
  2
ROUNDP
 10
56.4200
 20
10.0000
 30
0.0000
 41
2.5400
 42
2.5400
 43
1.0000
 50
0.0000
  0
INSERT
  8
17
  2
ROUNDP
 10
66.5800
 20
10.0000
 30
0.0000
 41
2.5400
 42
2.5400
 43
1.0000
 50
0.0000
  0
INSERT
  8
17
  2
ROUNDP
 10
56.5800
 20
6.5000
 30
0.0000
 41
2.5400
 42
2.5400
 43
1.0000
 50
180.0000
  0
INSERT
  8
17
  2
ROUNDP
 10
46.4200
 20
6.5000
 30
0.0000
 41
2.5400
 42
2.5400
 43
1.0000
 50
180.0000
  0
INSERT
  8
17
  2
LONGP100
 10
45.0000
 20
21.5400
 30
0.0000
 41
1.7780
 42
1.7780
 43
1.0000
 50
180.0000
  0
INSERT
  8
17
  2
LONGP100
 10
45.0000
 20
16.4600
 30
0.0000
 41
1.7780
 42
1.7780
 43
1.0000
 50
180.0000
  0
INSERT
  8
17
  2
LONGP100
 10
45.0000
 20
19.0000
 30
0.0000
 41
1.7780
 42
1.7780
 43
1.0000
 50
180.0000
  0
INSERT
  8
17
  2
ROUNDP
 10
43.0800
 20
7.0000
 30
0.0000
 41
2.5400
 42
2.5400
 43
1.0000
 50
180.0000
  0
INSERT
  8
17
  2
ROUNDP
 10
32.9200
 20
7.0000
 30
0.0000
 41
2.5400
 42
2.5400
 43
1.0000
 50
180.0000
  0
INSERT
  8
17
  2
ROUNDP
 10
32.9200
 20
2.5000
 30
0.0000
 41
2.5400
 42
2.5400
 43
1.0000
 50
0.0000
  0
INSERT
  8
17
  2
ROUNDP
 10
43.0800
 20
2.5000
 30
0.0000
 41
2.5400
 42
2.5400
 43
1.0000
 50
0.0000
  0
INSERT
  8
17
  2
ROUNDP
 10
30.9200
 20
22.0000
 30
0.0000
 41
2.5400
 42
2.5400
 43
1.0000
 50
0.0000
  0
INSERT
  8
17
  2
ROUNDP
 10
41.0800
 20
22.0000
 30
0.0000
 41
2.5400
 42
2.5400
 43
1.0000
 50
0.0000
  0
INSERT
  8
17
  2
ROUNDP
 10
39.5800
 20
18.5000
 30
0.0000
 41
2.5400
 42
2.5400
 43
1.0000
 50
180.0000
  0
INSERT
  8
17
  2
ROUNDP
 10
29.4200
 20
18.5000
 30
0.0000
 41
2.5400
 42
2.5400
 43
1.0000
 50
180.0000
  0
INSERT
  8
17
  2
ROUNDP
 10
18.1300
 20
2.9700
 30
0.0000
 41
3.0000
 42
3.0000
 43
1.0000
 50
0.0000
  0
INSERT
  8
17
  2
ROUNDP
 10
23.1300
 20
2.9700
 30
0.0000
 41
3.0000
 42
3.0000
 43
1.0000
 50
0.0000
  0
INSERT
  8
17
  2
ROUNDP
 10
28.1300
 20
2.9700
 30
0.0000
 41
3.0000
 42
3.0000
 43
1.0000
 50
0.0000
  0
INSERT
  8
17
  2
ROUNDP
 10
26.0800
 20
15.0000
 30
0.0000
 41
2.5400
 42
2.5400
 43
1.0000
 50
180.0000
  0
INSERT
  8
17
  2
ROUNDP
 10
15.9200
 20
15.0000
 30
0.0000
 41
2.5400
 42
2.5400
 43
1.0000
 50
180.0000
  0
INSERT
  8
17
  2
ROUNDP
 10
15.9200
 20
18.5000
 30
0.0000
 41
2.5400
 42
2.5400
 43
1.0000
 50
0.0000
  0
INSERT
  8
17
  2
ROUNDP
 10
26.0800
 20
18.5000
 30
0.0000
 41
2.5400
 42
2.5400
 43
1.0000
 50
0.0000
  0
INSERT
  8
17
  2
ROUNDP
 10
7.0000
 20
26.0800
 30
0.0000
 41
2.5400
 42
2.5400
 43
1.0000
 50
270.0000
  0
INSERT
  8
17
  2
ROUNDP
 10
7.0000
 20
15.9200
 30
0.0000
 41
2.5400
 42
2.5400
 43
1.0000
 50
270.0000
  0
INSERT
  8
17
  2
ROUNDP
 10
10.4200
 20
27.0000
 30
0.0000
 41
2.5400
 42
2.5400
 43
1.0000
 50
0.0000
  0
INSERT
  8
17
  2
ROUNDP
 10
20.5800
 20
27.0000
 30
0.0000
 41
2.5400
 42
2.5400
 43
1.0000
 50
0.0000
  0
INSERT
  8
17
  2
ROUNDP
 10
3.5000
 20
7.4200
 30
0.0000
 41
2.5400
 42
2.5400
 43
1.0000
 50
90.0000
  0
INSERT
  8
17
  2
ROUNDP
 10
3.5000
 20
17.5800
 30
0.0000
 41
2.5400
 42
2.5400
 43
1.0000
 50
90.0000
  0
INSERT
  8
17
  2
ROUNDP
 10
12.5000
 20
6.4200
 30
0.0000
 41
2.5400
 42
2.5400
 43
1.0000
 50
90.0000
  0
INSERT
  8
17
  2
ROUNDP
 10
12.5000
 20
16.5800
 30
0.0000
 41
2.5400
 42
2.5400
 43
1.0000
 50
90.0000
  0
INSERT
  8
17
  2
LONGP100
 10
26.4600
 20
11.0000
 30
0.0000
 41
1.7780
 42
1.7780
 43
1.0000
 50
90.0000
  0
INSERT
  8
17
  2
LONGP100
 10
29.0000
 20
11.0000
 30
0.0000
 41
1.7780
 42
1.7780
 43
1.0000
 50
90.0000
  0
INSERT
  8
17
  2
LONGP100
 10
31.5400
 20
11.0000
 30
0.0000
 41
1.7780
 42
1.7780
 43
1.0000
 50
90.0000
  0
INSERT
  8
17
  2
OCTAGONP
 10
16.9050
 20
38.9050
 30
0.0000
 41
2.5400
 42
2.5400
 43
1.0000
 50
180.0000
  0
INSERT
  8
17
  2
OCTAGONP
 10
13.0950
 20
38.9050
 30
0.0000
 41
2.5400
 42
2.5400
 43
1.0000
 50
180.0000
  0
INSERT
  8
17
  2
OCTAGONP
 10
13.0950
 20
35.0950
 30
0.0000
 41
2.5400
 42
2.5400
 43
1.0000
 50
180.0000
  0
INSERT
  8
17
  2
OCTAGONP
 10
27.0950
 20
36.5616
 30
0.0000
 41
2.5400
 42
2.5400
 43
1.0000
 50
0.0000
  0
INSERT
  8
17
  2
OCTAGONP
 10
30.9050
 20
36.5616
 30
0.0000
 41
2.5400
 42
2.5400
 43
1.0000
 50
0.0000
  0
INSERT
  8
17
  2
OCTAGONP
 10
30.9050
 20
40.3716
 30
0.0000
 41
2.5400
 42
2.5400
 43
1.0000
 50
0.0000
  0
INSERT
  8
17
  2
OCTAGONP
 10
51.9050
 20
29.0950
 30
0.0000
 41
2.5400
 42
2.5400
 43
1.0000
 50
90.0000
  0
INSERT
  8
17
  2
OCTAGONP
 10
51.9050
 20
32.9050
 30
0.0000
 41
2.5400
 42
2.5400
 43
1.0000
 50
90.0000
  0
INSERT
  8
17
  2
OCTAGONP
 10
48.0950
 20
32.9050
 30
0.0000
 41
2.5400
 42
2.5400
 43
1.0000
 50
90.0000
  0
INSERT
  8
17
  2
OCTAGONP
 10
52.4050
 20
15.5950
 30
0.0000
 41
2.5400
 42
2.5400
 43
1.0000
 50
90.0000
  0
INSERT
  8
17
  2
OCTAGONP
 10
52.4050
 20
19.4050
 30
0.0000
 41
2.5400
 42
2.5400
 43
1.0000
 50
90.0000
  0
INSERT
  8
17
  2
OCTAGONP
 10
48.5950
 20
19.4050
 30
0.0000
 41
2.5400
 42
2.5400
 43
1.0000
 50
90.0000
  0
INSERT
  8
17
  2
OCTAGONP
 10
60.5950
 20
2.5950
 30
0.0000
 41
2.5400
 42
2.5400
 43
1.0000
 50
0.0000
  0
INSERT
  8
17
  2
OCTAGONP
 10
64.4050
 20
2.5950
 30
0.0000
 41
2.5400
 42
2.5400
 43
1.0000
 50
0.0000
  0
INSERT
  8
17
  2
OCTAGONP
 10
64.4050
 20
6.4050
 30
0.0000
 41
2.5400
 42
2.5400
 43
1.0000
 50
0.0000
  0
INSERT
  8
17
  2
OCTAGONP
 10
13.9050
 20
23.4050
 30
0.0000
 41
2.5400
 42
2.5400
 43
1.0000
 50
180.0000
  0
INSERT
  8
17
  2
OCTAGONP
 10
10.0950
 20
23.4050
 30
0.0000
 41
2.5400
 42
2.5400
 43
1.0000
 50
180.0000
  0
INSERT
  8
17
  2
OCTAGONP
 10
10.0950
 20
19.5950
 30
0.0000
 41
2.5400
 42
2.5400
 43
1.0000
 50
180.0000
  0
INSERT
  8
17
  2
LONGP100
 10
5.2700
 20
47.0000
 30
0.0000
 41
1.7780
 42
1.7780
 43
1.0000
 50
270.0000
  0
INSERT
  8
17
  2
LONGP100
 10
2.7300
 20
47.0000
 30
0.0000
 41
1.7780
 42
1.7780
 43
1.0000
 50
270.0000
  0
INSERT
  8
17
  2
LONGP100
 10
3.3400
 20
2.8500
 30
0.0000
 41
1.7780
 42
1.7780
 43
1.0000
 50
90.0000
  0
INSERT
  8
17
  2
LONGP100
 10
5.8800
 20
2.8500
 30
0.0000
 41
1.7780
 42
1.7780
 43
1.0000
 50
90.0000
  0
POLYLINE
  8
16
 66
1
 10
0.0000
 20
0.0000
 30
0.0000
 40
0.5080
 41
0.5080
 70
0
  0
VERTEX
  8
16
 10
5.2700
 20
47.0000
 30
0.0000
  0
VERTEX
  8
16
 10
5.7700
 20
47.5000
 30
0.0000
  0
SEQEND
  8
0
  0
POLYLINE
  8
16
 66
1
 10
0.0000
 20
0.0000
 30
0.0000
 40
0.2540
 41
0.2540
 70
0
  0
VERTEX
  8
16
 10
5.8598
 20
47.4102
 30
0.0000
 42
1.0000
  0
VERTEX
  8
16
 10
5.6802
 20
47.5898
 30
0.0000
  0
SEQEND
  8
0
  0
POLYLINE
  8
16
 66
1
 10
0.0000
 20
0.0000
 30
0.0000
 40
0.2540
 41
0.2540
 70
0
  0
VERTEX
  8
16
 10
5.1802
 20
47.0898
 30
0.0000
 42
1.0000
  0
VERTEX
  8
16
 10
5.3598
 20
46.9102
 30
0.0000
  0
SEQEND
  8
0
  0
POLYLINE
  8
16
 66
1
 10
0.0000
 20
0.0000
 30
0.0000
 40
0.5080
 41
0.5080
 70
0
  0
VERTEX
  8
16
 10
5.7700
 20
47.5000
 30
0.0000
  0
VERTEX
  8
16
 10
8.9200
 20
47.5000
 30
0.0000
  0
SEQEND
  8
0
  0
POLYLINE
  8
16
 66
1
 10
0.0000
 20
0.0000
 30
0.0000
 40
0.2540
 41
0.2540
 70
0
  0
VERTEX
  8
16
 10
8.9200
 20
47.3730
 30
0.0000
 42
1.0000
  0
VERTEX
  8
16
 10
8.9200
 20
47.6270
 30
0.0000
  0
SEQEND
  8
0
  0
POLYLINE
  8
16
 66
1
 10
0.0000
 20
0.0000
 30
0.0000
 40
0.2540
 41
0.2540
 70
0
  0
VERTEX
  8
16
 10
5.7700
 20
47.6270
 30
0.0000
 42
1.0000
  0
VERTEX
  8
16
 10
5.7700
 20
47.3730
 30
0.0000
  0
SEQEND
  8
0
  0
POLYLINE
  8
16
 66
1
 10
0.0000
 20
0.0000
 30
0.0000
 40
0.5080
 41
0.5080
 70
0
  0
VERTEX
  8
16
 10
3.3400
 20
2.8500
 30
0.0000
  0
VERTEX
  8
16
 10
3.3400
 20
7.2600
 30
0.0000
  0
SEQEND
  8
0
  0
POLYLINE
  8
16
 66
1
 10
0.0000
 20
0.0000
 30
0.0000
 40
0.2540
 41
0.2540
 70
0
  0
VERTEX
  8
16
 10
3.4670
 20
7.2600
 30
0.0000
 42
1.0000
  0
VERTEX
  8
16
 10
3.2130
 20
7.2600
 30
0.0000
  0
SEQEND
  8
0
  0
POLYLINE
  8
16
 66
1
 10
0.0000
 20
0.0000
 30
0.0000
 40
0.2540
 41
0.2540
 70
0
  0
VERTEX
  8
16
 10
3.2130
 20
2.8500
 30
0.0000
 42
1.0000
  0
VERTEX
  8
16
 10
3.4670
 20
2.8500
 30
0.0000
  0
SEQEND
  8
0
  0
POLYLINE
  8
16
 66
1
 10
0.0000
 20
0.0000
 30
0.0000
 40
0.5080
 41
0.5080
 70
0
  0
VERTEX
  8
16
 10
3.3400
 20
7.2600
 30
0.0000
  0
VERTEX
  8
16
 10
3.5000
 20
7.4200
 30
0.0000
  0
SEQEND
  8
0
  0
POLYLINE
  8
16
 66
1
 10
0.0000
 20
0.0000
 30
0.0000
 40
0.2540
 41
0.2540
 70
0
  0
VERTEX
  8
16
 10
3.5898
 20
7.3302
 30
0.0000
 42
1.0000
  0
VERTEX
  8
16
 10
3.4102
 20
7.5098
 30
0.0000
  0
SEQEND
  8
0
  0
POLYLINE
  8
16
 66
1
 10
0.0000
 20
0.0000
 30
0.0000
 40
0.2540
 41
0.2540
 70
0
  0
VERTEX
  8
16
 10
3.2502
 20
7.3498
 30
0.0000
 42
1.0000
  0
VERTEX
  8
16
 10
3.4298
 20
7.1702
 30
0.0000
  0
SEQEND
  8
0
  0
POLYLINE
  8
16
 66
1
 10
0.0000
 20
0.0000
 30
0.0000
 40
0.5080
 41
0.5080
 70
0
  0
VERTEX
  8
16
 10
3.5100
 20
7.4300
 30
0.0000
  0
VERTEX
  8
16
 10
7.4200
 20
7.4300
 30
0.0000
  0
SEQEND
  8
0
  0
POLYLINE
  8
16
 66
1
 10
0.0000
 20
0.0000
 30
0.0000
 40
0.2540
 41
0.2540
 70
0
  0
VERTEX
  8
16
 10
7.4200
 20
7.3030
 30
0.0000
 42
1.0000
  0
VERTEX
  8
16
 10
7.4200
 20
7.5570
 30
0.0000
  0
SEQEND
  8
0
  0
POLYLINE
  8
16
 66
1
 10
0.0000
 20
0.0000
 30
0.0000
 40
0.2540
 41
0.2540
 70
0
  0
VERTEX
  8
16
 10
3.5100
 20
7.5570
 30
0.0000
 42
1.0000
  0
VERTEX
  8
16
 10
3.5100
 20
7.3030
 30
0.0000
  0
SEQEND
  8
0
  0
POLYLINE
  8
16
 66
1
 10
0.0000
 20
0.0000
 30
0.0000
 40
0.5080
 41
0.5080
 70
0
  0
VERTEX
  8
16
 10
3.5000
 20
7.4200
 30
0.0000
  0
VERTEX
  8
16
 10
3.5100
 20
7.4300
 30
0.0000
  0
SEQEND
  8
0
  0
POLYLINE
  8
16
 66
1
 10
0.0000
 20
0.0000
 30
0.0000
 40
0.2540
 41
0.2540
 70
0
  0
VERTEX
  8
16
 10
3.5998
 20
7.3402
 30
0.0000
 42
1.0000
  0
VERTEX
  8
16
 10
3.4202
 20
7.5198
 30
0.0000
  0
SEQEND
  8
0
  0
POLYLINE
  8
16
 66
1
 10
0.0000
 20
0.0000
 30
0.0000
 40
0.2540
 41
0.2540
 70
0
  0
VERTEX
  8
16
 10
3.4102
 20
7.5098
 30
0.0000
 42
1.0000
  0
VERTEX
  8
16
 10
3.5898
 20
7.3302
 30
0.0000
  0
SEQEND
  8
0
  0
POLYLINE
  8
16
 66
1
 10
0.0000
 20
0.0000
 30
0.0000
 40
0.5080
 41
0.5080
 70
0
  0
VERTEX
  8
16
 10
20.5800
 20
27.0000
 30
0.0000
  0
VERTEX
  8
16
 10
24.4200
 20
27.0000
 30
0.0000
  0
SEQEND
  8
0
  0
POLYLINE
  8
16
 66
1
 10
0.0000
 20
0.0000
 30
0.0000
 40
0.2540
 41
0.2540
 70
0
  0
VERTEX
  8
16
 10
24.4200
 20
26.8730
 30
0.0000
 42
1.0000
  0
VERTEX
  8
16
 10
24.4200
 20
27.1270
 30
0.0000
  0
SEQEND
  8
0
  0
POLYLINE
  8
16
 66
1
 10
0.0000
 20
0.0000
 30
0.0000
 40
0.2540
 41
0.2540
 70
0
  0
VERTEX
  8
16
 10
20.5800
 20
27.1270
 30
0.0000
 42
1.0000
  0
VERTEX
  8
16
 10
20.5800
 20
26.8730
 30
0.0000
  0
SEQEND
  8
0
  0
POLYLINE
  8
16
 66
1
 10
0.0000
 20
0.0000
 30
0.0000
 40
0.5080
 41
0.5080
 70
0
  0
VERTEX
  8
16
 10
20.5800
 20
26.6600
 30
0.0000
  0
VERTEX
  8
16
 10
20.5800
 20
27.0000
 30
0.0000
  0
SEQEND
  8
0
  0
POLYLINE
  8
16
 66
1
 10
0.0000
 20
0.0000
 30
0.0000
 40
0.2540
 41
0.2540
 70
0
  0
VERTEX
  8
16
 10
20.7070
 20
27.0000
 30
0.0000
 42
1.0000
  0
VERTEX
  8
16
 10
20.4530
 20
27.0000
 30
0.0000
  0
SEQEND
  8
0
  0
POLYLINE
  8
16
 66
1
 10
0.0000
 20
0.0000
 30
0.0000
 40
0.2540
 41
0.2540
 70
0
  0
VERTEX
  8
16
 10
20.4530
 20
26.6600
 30
0.0000
 42
1.0000
  0
VERTEX
  8
16
 10
20.7070
 20
26.6600
 30
0.0000
  0
SEQEND
  8
0
  0
POLYLINE
  8
16
 66
1
 10
0.0000
 20
0.0000
 30
0.0000
 40
0.5080
 41
0.5080
 70
0
  0
VERTEX
  8
16
 10
17.9200
 20
24.0000
 30
0.0000
  0
VERTEX
  8
16
 10
20.5800
 20
26.6600
 30
0.0000
  0
SEQEND
  8
0
  0
POLYLINE
  8
16
 66
1
 10
0.0000
 20
0.0000
 30
0.0000
 40
0.2540
 41
0.2540
 70
0
  0
VERTEX
  8
16
 10
20.6698
 20
26.5702
 30
0.0000
 42
1.0000
  0
VERTEX
  8
16
 10
20.4902
 20
26.7498
 30
0.0000
  0
SEQEND
  8
0
  0
POLYLINE
  8
16
 66
1
 10
0.0000
 20
0.0000
 30
0.0000
 40
0.2540
 41
0.2540
 70
0
  0
VERTEX
  8
16
 10
17.8302
 20
24.0898
 30
0.0000
 42
1.0000
  0
VERTEX
  8
16
 10
18.0098
 20
23.9102
 30
0.0000
  0
SEQEND
  8
0
  0
POLYLINE
  8
16
 66
1
 10
0.0000
 20
0.0000
 30
0.0000
 40
0.5080
 41
0.5080
 70
0
  0
VERTEX
  8
16
 10
17.9200
 20
24.0000
 30
0.0000
  0
VERTEX
  8
16
 10
12.9600
 20
28.9600
 30
0.0000
  0
SEQEND
  8
0
  0
POLYLINE
  8
16
 66
1
 10
0.0000
 20
0.0000
 30
0.0000
 40
0.2540
 41
0.2540
 70
0
  0
VERTEX
  8
16
 10
13.0498
 20
29.0498
 30
0.0000
 42
1.0000
  0
VERTEX
  8
16
 10
12.8702
 20
28.8702
 30
0.0000
  0
SEQEND
  8
0
  0
POLYLINE
  8
16
 66
1
 10
0.0000
 20
0.0000
 30
0.0000
 40
0.2540
 41
0.2540
 70
0
  0
VERTEX
  8
16
 10
17.8302
 20
23.9102
 30
0.0000
 42
1.0000
  0
VERTEX
  8
16
 10
18.0098
 20
24.0898
 30
0.0000
  0
SEQEND
  8
0
  0
POLYLINE
  8
16
 66
1
 10
0.0000
 20
0.0000
 30
0.0000
 40
0.5080
 41
0.5080
 70
0
  0
VERTEX
  8
16
 10
12.9600
 20
28.9600
 30
0.0000
  0
VERTEX
  8
16
 10
12.9600
 20
31.0000
 30
0.0000
  0
SEQEND
  8
0
  0
POLYLINE
  8
16
 66
1
 10
0.0000
 20
0.0000
 30
0.0000
 40
0.2540
 41
0.2540
 70
0
  0
VERTEX
  8
16
 10
13.0870
 20
31.0000
 30
0.0000
 42
1.0000
  0
VERTEX
  8
16
 10
12.8330
 20
31.0000
 30
0.0000
  0
SEQEND
  8
0
  0
POLYLINE
  8
16
 66
1
 10
0.0000
 20
0.0000
 30
0.0000
 40
0.2540
 41
0.2540
 70
0
  0
VERTEX
  8
16
 10
12.8330
 20
28.9600
 30
0.0000
 42
1.0000
  0
VERTEX
  8
16
 10
13.0870
 20
28.9600
 30
0.0000
  0
SEQEND
  8
0
  0
POLYLINE
  8
16
 66
1
 10
0.0000
 20
0.0000
 30
0.0000
 40
0.5080
 41
0.5080
 70
0
  0
VERTEX
  8
16
 10
18.1300
 20
23.7900
 30
0.0000
  0
VERTEX
  8
16
 10
17.9200
 20
24.0000
 30
0.0000
  0
SEQEND
  8
0
  0
POLYLINE
  8
16
 66
1
 10
0.0000
 20
0.0000
 30
0.0000
 40
0.2540
 41
0.2540
 70
0
  0
VERTEX
  8
16
 10
18.0098
 20
24.0898
 30
0.0000
 42
1.0000
  0
VERTEX
  8
16
 10
17.8302
 20
23.9102
 30
0.0000
  0
SEQEND
  8
0
  0
POLYLINE
  8
16
 66
1
 10
0.0000
 20
0.0000
 30
0.0000
 40
0.2540
 41
0.2540
 70
0
  0
VERTEX
  8
16
 10
18.0402
 20
23.7002
 30
0.0000
 42
1.0000
  0
VERTEX
  8
16
 10
18.2198
 20
23.8798
 30
0.0000
  0
SEQEND
  8
0
  0
POLYLINE
  8
16
 66
1
 10
0.0000
 20
0.0000
 30
0.0000
 40
0.5080
 41
0.5080
 70
0
  0
VERTEX
  8
16
 10
18.1300
 20
2.9700
 30
0.0000
  0
VERTEX
  8
16
 10
18.1300
 20
23.7900
 30
0.0000
  0
SEQEND
  8
0
  0
POLYLINE
  8
16
 66
1
 10
0.0000
 20
0.0000
 30
0.0000
 40
0.2540
 41
0.2540
 70
0
  0
VERTEX
  8
16
 10
18.2570
 20
23.7900
 30
0.0000
 42
1.0000
  0
VERTEX
  8
16
 10
18.0030
 20
23.7900
 30
0.0000
  0
SEQEND
  8
0
  0
POLYLINE
  8
16
 66
1
 10
0.0000
 20
0.0000
 30
0.0000
 40
0.2540
 41
0.2540
 70
0
  0
VERTEX
  8
16
 10
18.0030
 20
2.9700
 30
0.0000
 42
1.0000
  0
VERTEX
  8
16
 10
18.2570
 20
2.9700
 30
0.0000
  0
SEQEND
  8
0
  0
POLYLINE
  8
16
 66
1
 10
0.0000
 20
0.0000
 30
0.0000
 40
0.5080
 41
0.5080
 70
0
  0
VERTEX
  8
16
 10
18.1300
 20
4.5522
 30
0.0000
  0
VERTEX
  8
16
 10
18.1300
 20
2.9700
 30
0.0000
  0
SEQEND
  8
0
  0
POLYLINE
  8
16
 66
1
 10
0.0000
 20
0.0000
 30
0.0000
 40
0.2540
 41
0.2540
 70
0
  0
VERTEX
  8
16
 10
18.0030
 20
2.9700
 30
0.0000
 42
1.0000
  0
VERTEX
  8
16
 10
18.2570
 20
2.9700
 30
0.0000
  0
SEQEND
  8
0
  0
POLYLINE
  8
16
 66
1
 10
0.0000
 20
0.0000
 30
0.0000
 40
0.2540
 41
0.2540
 70
0
  0
VERTEX
  8
16
 10
18.2570
 20
4.5522
 30
0.0000
 42
1.0000
  0
VERTEX
  8
16
 10
18.0030
 20
4.5522
 30
0.0000
  0
SEQEND
  8
0
  0
POLYLINE
  8
16
 66
1
 10
0.0000
 20
0.0000
 30
0.0000
 40
0.5080
 41
0.5080
 70
0
  0
VERTEX
  8
16
 10
12.5476
 20
10.1346
 30
0.0000
  0
VERTEX
  8
16
 10
18.1300
 20
4.5522
 30
0.0000
  0
SEQEND
  8
0
  0
POLYLINE
  8
16
 66
1
 10
0.0000
 20
0.0000
 30
0.0000
 40
0.2540
 41
0.2540
 70
0
  0
VERTEX
  8
16
 10
18.0402
 20
4.4624
 30
0.0000
 42
1.0000
  0
VERTEX
  8
16
 10
18.2198
 20
4.6420
 30
0.0000
  0
SEQEND
  8
0
  0
POLYLINE
  8
16
 66
1
 10
0.0000
 20
0.0000
 30
0.0000
 40
0.2540
 41
0.2540
 70
0
  0
VERTEX
  8
16
 10
12.6374
 20
10.2244
 30
0.0000
 42
1.0000
  0
VERTEX
  8
16
 10
12.4578
 20
10.0448
 30
0.0000
  0
SEQEND
  8
0
  0
POLYLINE
  8
16
 66
1
 10
0.0000
 20
0.0000
 30
0.0000
 40
0.5080
 41
0.5080
 70
0
  0
VERTEX
  8
16
 10
12.5476
 20
16.5324
 30
0.0000
  0
VERTEX
  8
16
 10
12.5476
 20
10.1346
 30
0.0000
  0
SEQEND
  8
0
  0
POLYLINE
  8
16
 66
1
 10
0.0000
 20
0.0000
 30
0.0000
 40
0.2540
 41
0.2540
 70
0
  0
VERTEX
  8
16
 10
12.4206
 20
10.1346
 30
0.0000
 42
1.0000
  0
VERTEX
  8
16
 10
12.6746
 20
10.1346
 30
0.0000
  0
SEQEND
  8
0
  0
POLYLINE
  8
16
 66
1
 10
0.0000
 20
0.0000
 30
0.0000
 40
0.2540
 41
0.2540
 70
0
  0
VERTEX
  8
16
 10
12.6746
 20
16.5324
 30
0.0000
 42
1.0000
  0
VERTEX
  8
16
 10
12.4206
 20
16.5324
 30
0.0000
  0
SEQEND
  8
0
  0
POLYLINE
  8
16
 66
1
 10
0.0000
 20
0.0000
 30
0.0000
 40
0.5080
 41
0.5080
 70
0
  0
VERTEX
  8
16
 10
12.5000
 20
16.5800
 30
0.0000
  0
VERTEX
  8
16
 10
12.5476
 20
16.5324
 30
0.0000
  0
SEQEND
  8
0
  0
POLYLINE
  8
16
 66
1
 10
0.0000
 20
0.0000
 30
0.0000
 40
0.2540
 41
0.2540
 70
0
  0
VERTEX
  8
16
 10
12.4578
 20
16.4426
 30
0.0000
 42
1.0000
  0
VERTEX
  8
16
 10
12.6374
 20
16.6222
 30
0.0000
  0
SEQEND
  8
0
  0
POLYLINE
  8
16
 66
1
 10
0.0000
 20
0.0000
 30
0.0000
 40
0.2540
 41
0.2540
 70
0
  0
VERTEX
  8
16
 10
12.5898
 20
16.6698
 30
0.0000
 42
1.0000
  0
VERTEX
  8
16
 10
12.4102
 20
16.4902
 30
0.0000
  0
SEQEND
  8
0
  0
POLYLINE
  8
16
 66
1
 10
0.0000
 20
0.0000
 30
0.0000
 40
0.5080
 41
0.5080
 70
0
  0
VERTEX
  8
16
 10
12.5000
 20
10.1886
 30
0.0000
  0
VERTEX
  8
16
 10
12.5000
 20
16.5800
 30
0.0000
  0
SEQEND
  8
0
  0
POLYLINE
  8
16
 66
1
 10
0.0000
 20
0.0000
 30
0.0000
 40
0.2540
 41
0.2540
 70
0
  0
VERTEX
  8
16
 10
12.6270
 20
16.5800
 30
0.0000
 42
1.0000
  0
VERTEX
  8
16
 10
12.3730
 20
16.5800
 30
0.0000
  0
SEQEND
  8
0
  0
POLYLINE
  8
16
 66
1
 10
0.0000
 20
0.0000
 30
0.0000
 40
0.2540
 41
0.2540
 70
0
  0
VERTEX
  8
16
 10
12.3730
 20
10.1886
 30
0.0000
 42
1.0000
  0
VERTEX
  8
16
 10
12.6270
 20
10.1886
 30
0.0000
  0
SEQEND
  8
0
  0
POLYLINE
  8
16
 66
1
 10
0.0000
 20
0.0000
 30
0.0000
 40
0.5080
 41
0.5080
 70
0
  0
VERTEX
  8
16
 10
9.7790
 20
7.4676
 30
0.0000
  0
VERTEX
  8
16
 10
12.5000
 20
10.1886
 30
0.0000
  0
SEQEND
  8
0
  0
POLYLINE
  8
16
 66
1
 10
0.0000
 20
0.0000
 30
0.0000
 40
0.2540
 41
0.2540
 70
0
  0
VERTEX
  8
16
 10
12.5898
 20
10.0988
 30
0.0000
 42
1.0000
  0
VERTEX
  8
16
 10
12.4102
 20
10.2784
 30
0.0000
  0
SEQEND
  8
0
  0
POLYLINE
  8
16
 66
1
 10
0.0000
 20
0.0000
 30
0.0000
 40
0.2540
 41
0.2540
 70
0
  0
VERTEX
  8
16
 10
9.6892
 20
7.5574
 30
0.0000
 42
1.0000
  0
VERTEX
  8
16
 10
9.8688
 20
7.3778
 30
0.0000
  0
SEQEND
  8
0
  0
POLYLINE
  8
16
 66
1
 10
0.0000
 20
0.0000
 30
0.0000
 40
0.5080
 41
0.5080
 70
0
  0
VERTEX
  8
16
 10
9.7790
 20
6.7564
 30
0.0000
  0
VERTEX
  8
16
 10
9.7790
 20
7.4676
 30
0.0000
  0
SEQEND
  8
0
  0
POLYLINE
  8
16
 66
1
 10
0.0000
 20
0.0000
 30
0.0000
 40
0.2540
 41
0.2540
 70
0
  0
VERTEX
  8
16
 10
9.9060
 20
7.4676
 30
0.0000
 42
1.0000
  0
VERTEX
  8
16
 10
9.6520
 20
7.4676
 30
0.0000
  0
SEQEND
  8
0
  0
POLYLINE
  8
16
 66
1
 10
0.0000
 20
0.0000
 30
0.0000
 40
0.2540
 41
0.2540
 70
0
  0
VERTEX
  8
16
 10
9.6520
 20
6.7564
 30
0.0000
 42
1.0000
  0
VERTEX
  8
16
 10
9.9060
 20
6.7564
 30
0.0000
  0
SEQEND
  8
0
  0
POLYLINE
  8
16
 66
1
 10
0.0000
 20
0.0000
 30
0.0000
 40
0.5080
 41
0.5080
 70
0
  0
VERTEX
  8
16
 10
5.8800
 20
2.8500
 30
0.0000
  0
VERTEX
  8
16
 10
5.8800
 20
3.5686
 30
0.0000
  0
SEQEND
  8
0
  0
POLYLINE
  8
16
 66
1
 10
0.0000
 20
0.0000
 30
0.0000
 40
0.2540
 41
0.2540
 70
0
  0
VERTEX
  8
16
 10
6.0070
 20
3.5686
 30
0.0000
 42
1.0000
  0
VERTEX
  8
16
 10
5.7530
 20
3.5686
 30
0.0000
  0
SEQEND
  8
0
  0
POLYLINE
  8
16
 66
1
 10
0.0000
 20
0.0000
 30
0.0000
 40
0.2540
 41
0.2540
 70
0
  0
VERTEX
  8
16
 10
5.7530
 20
2.8500
 30
0.0000
 42
1.0000
  0
VERTEX
  8
16
 10
6.0070
 20
2.8500
 30
0.0000
  0
SEQEND
  8
0
  0
POLYLINE
  8
16
 66
1
 10
0.0000
 20
0.0000
 30
0.0000
 40
0.5080
 41
0.5080
 70
0
  0
VERTEX
  8
16
 10
5.8800
 20
3.5686
 30
0.0000
  0
VERTEX
  8
16
 10
7.6454
 20
5.3340
 30
0.0000
  0
SEQEND
  8
0
  0
POLYLINE
  8
16
 66
1
 10
0.0000
 20
0.0000
 30
0.0000
 40
0.2540
 41
0.2540
 70
0
  0
VERTEX
  8
16
 10
7.7352
 20
5.2442
 30
0.0000
 42
1.0000
  0
VERTEX
  8
16
 10
7.5556
 20
5.4238
 30
0.0000
  0
SEQEND
  8
0
  0
POLYLINE
  8
16
 66
1
 10
0.0000
 20
0.0000
 30
0.0000
 40
0.2540
 41
0.2540
 70
0
  0
VERTEX
  8
16
 10
5.7902
 20
3.6584
 30
0.0000
 42
1.0000
  0
VERTEX
  8
16
 10
5.9698
 20
3.4788
 30
0.0000
  0
SEQEND
  8
0
  0
POLYLINE
  8
16
 66
1
 10
0.0000
 20
0.0000
 30
0.0000
 40
0.5080
 41
0.5080
 70
0
  0
VERTEX
  8
16
 10
7.6454
 20
5.3340
 30
0.0000
  0
VERTEX
  8
16
 10
8.3566
 20
5.3340
 30
0.0000
  0
SEQEND
  8
0
  0
POLYLINE
  8
16
 66
1
 10
0.0000
 20
0.0000
 30
0.0000
 40
0.2540
 41
0.2540
 70
0
  0
VERTEX
  8
16
 10
8.3566
 20
5.2070
 30
0.0000
 42
1.0000
  0
VERTEX
  8
16
 10
8.3566
 20
5.4610
 30
0.0000
  0
SEQEND
  8
0
  0
POLYLINE
  8
16
 66
1
 10
0.0000
 20
0.0000
 30
0.0000
 40
0.2540
 41
0.2540
 70
0
  0
VERTEX
  8
16
 10
7.6454
 20
5.4610
 30
0.0000
 42
1.0000
  0
VERTEX
  8
16
 10
7.6454
 20
5.2070
 30
0.0000
  0
SEQEND
  8
0
  0
POLYLINE
  8
16
 66
1
 10
0.0000
 20
0.0000
 30
0.0000
 40
0.5080
 41
0.5080
 70
0
  0
VERTEX
  8
16
 10
8.3566
 20
5.3340
 30
0.0000
  0
VERTEX
  8
16
 10
9.7790
 20
6.7564
 30
0.0000
  0
SEQEND
  8
0
  0
POLYLINE
  8
16
 66
1
 10
0.0000
 20
0.0000
 30
0.0000
 40
0.2540
 41
0.2540
 70
0
  0
VERTEX
  8
16
 10
9.8688
 20
6.6666
 30
0.0000
 42
1.0000
  0
VERTEX
  8
16
 10
9.6892
 20
6.8462
 30
0.0000
  0
SEQEND
  8
0
  0
POLYLINE
  8
16
 66
1
 10
0.0000
 20
0.0000
 30
0.0000
 40
0.2540
 41
0.2540
 70
0
  0
VERTEX
  8
16
 10
8.2668
 20
5.4238
 30
0.0000
 42
1.0000
  0
VERTEX
  8
16
 10
8.4464
 20
5.2442
 30
0.0000
  0
SEQEND
  8
0
  0
POLYLINE
  8
16
 66
1
 10
0.0000
 20
0.0000
 30
0.0000
 40
0.5080
 41
0.5080
 70
0
  0
VERTEX
  8
16
 10
3.5000
 20
13.0354
 30
0.0000
  0
VERTEX
  8
16
 10
3.5000
 20
17.5800
 30
0.0000
  0
SEQEND
  8
0
  0
POLYLINE
  8
16
 66
1
 10
0.0000
 20
0.0000
 30
0.0000
 40
0.2540
 41
0.2540
 70
0
  0
VERTEX
  8
16
 10
3.6270
 20
17.5800
 30
0.0000
 42
1.0000
  0
VERTEX
  8
16
 10
3.3730
 20
17.5800
 30
0.0000
  0
SEQEND
  8
0
  0
POLYLINE
  8
16
 66
1
 10
0.0000
 20
0.0000
 30
0.0000
 40
0.2540
 41
0.2540
 70
0
  0
VERTEX
  8
16
 10
3.3730
 20
13.0354
 30
0.0000
 42
1.0000
  0
VERTEX
  8
16
 10
3.6270
 20
13.0354
 30
0.0000
  0
SEQEND
  8
0
  0
POLYLINE
  8
16
 66
1
 10
0.0000
 20
0.0000
 30
0.0000
 40
0.5080
 41
0.5080
 70
0
  0
VERTEX
  8
16
 10
6.5786
 20
9.9568
 30
0.0000
  0
VERTEX
  8
16
 10
3.5000
 20
13.0354
 30
0.0000
  0
SEQEND
  8
0
  0
POLYLINE
  8
16
 66
1
 10
0.0000
 20
0.0000
 30
0.0000
 40
0.2540
 41
0.2540
 70
0
  0
VERTEX
  8
16
 10
3.5898
 20
13.1252
 30
0.0000
 42
1.0000
  0
VERTEX
  8
16
 10
3.4102
 20
12.9456
 30
0.0000
  0
SEQEND
  8
0
  0
POLYLINE
  8
16
 66
1
 10
0.0000
 20
0.0000
 30
0.0000
 40
0.2540
 41
0.2540
 70
0
  0
VERTEX
  8
16
 10
6.4888
 20
9.8670
 30
0.0000
 42
1.0000
  0
VERTEX
  8
16
 10
6.6684
 20
10.0466
 30
0.0000
  0
SEQEND
  8
0
  0
POLYLINE
  8
16
 66
1
 10
0.0000
 20
0.0000
 30
0.0000
 40
0.5080
 41
0.5080
 70
0
  0
VERTEX
  8
16
 10
8.0010
 20
9.9568
 30
0.0000
  0
VERTEX
  8
16
 10
6.5786
 20
9.9568
 30
0.0000
  0
SEQEND
  8
0
  0
POLYLINE
  8
16
 66
1
 10
0.0000
 20
0.0000
 30
0.0000
 40
0.2540
 41
0.2540
 70
0
  0
VERTEX
  8
16
 10
6.5786
 20
10.0838
 30
0.0000
 42
1.0000
  0
VERTEX
  8
16
 10
6.5786
 20
9.8298
 30
0.0000
  0
SEQEND
  8
0
  0
POLYLINE
  8
16
 66
1
 10
0.0000
 20
0.0000
 30
0.0000
 40
0.2540
 41
0.2540
 70
0
  0
VERTEX
  8
16
 10
8.0010
 20
9.8298
 30
0.0000
 42
1.0000
  0
VERTEX
  8
16
 10
8.0010
 20
10.0838
 30
0.0000
  0
SEQEND
  8
0
  0
POLYLINE
  8
16
 66
1
 10
0.0000
 20
0.0000
 30
0.0000
 40
0.5080
 41
0.5080
 70
0
  0
VERTEX
  8
16
 10
9.7790
 20
8.1788
 30
0.0000
  0
VERTEX
  8
16
 10
8.0010
 20
9.9568
 30
0.0000
  0
SEQEND
  8
0
  0
POLYLINE
  8
16
 66
1
 10
0.0000
 20
0.0000
 30
0.0000
 40
0.2540
 41
0.2540
 70
0
  0
VERTEX
  8
16
 10
8.0908
 20
10.0466
 30
0.0000
 42
1.0000
  0
VERTEX
  8
16
 10
7.9112
 20
9.8670
 30
0.0000
  0
SEQEND
  8
0
  0
POLYLINE
  8
16
 66
1
 10
0.0000
 20
0.0000
 30
0.0000
 40
0.2540
 41
0.2540
 70
0
  0
VERTEX
  8
16
 10
9.6892
 20
8.0890
 30
0.0000
 42
1.0000
  0
VERTEX
  8
16
 10
9.8688
 20
8.2686
 30
0.0000
  0
SEQEND
  8
0
  0
POLYLINE
  8
16
 66
1
 10
0.0000
 20
0.0000
 30
0.0000
 40
0.5080
 41
0.5080
 70
0
  0
VERTEX
  8
16
 10
9.7790
 20
7.4676
 30
0.0000
  0
VERTEX
  8
16
 10
9.7790
 20
8.1788
 30
0.0000
  0
SEQEND
  8
0
  0
POLYLINE
  8
16
 66
1
 10
0.0000
 20
0.0000
 30
0.0000
 40
0.2540
 41
0.2540
 70
0
  0
VERTEX
  8
16
 10
9.9060
 20
8.1788
 30
0.0000
 42
1.0000
  0
VERTEX
  8
16
 10
9.6520
 20
8.1788
 30
0.0000
  0
SEQEND
  8
0
  0
POLYLINE
  8
16
 66
1
 10
0.0000
 20
0.0000
 30
0.0000
 40
0.2540
 41
0.2540
 70
0
  0
VERTEX
  8
16
 10
9.6520
 20
7.4676
 30
0.0000
 42
1.0000
  0
VERTEX
  8
16
 10
9.9060
 20
7.4676
 30
0.0000
  0
SEQEND
  8
0
  0
POLYLINE
  8
16
 66
1
 10
0.0000
 20
0.0000
 30
0.0000
 40
0.5080
 41
0.5080
 70
0
  0
VERTEX
  8
16
 10
3.5000
 20
17.5800
 30
0.0000
  0
VERTEX
  8
16
 10
3.5000
 20
21.0000
 30
0.0000
  0
SEQEND
  8
0
  0
POLYLINE
  8
16
 66
1
 10
0.0000
 20
0.0000
 30
0.0000
 40
0.2540
 41
0.2540
 70
0
  0
VERTEX
  8
16
 10
3.6270
 20
21.0000
 30
0.0000
 42
1.0000
  0
VERTEX
  8
16
 10
3.3730
 20
21.0000
 30
0.0000
  0
SEQEND
  8
0
  0
POLYLINE
  8
16
 66
1
 10
0.0000
 20
0.0000
 30
0.0000
 40
0.2540
 41
0.2540
 70
0
  0
VERTEX
  8
16
 10
3.3730
 20
17.5800
 30
0.0000
 42
1.0000
  0
VERTEX
  8
16
 10
3.6270
 20
17.5800
 30
0.0000
  0
SEQEND
  8
0
  0
POLYLINE
  8
16
 66
1
 10
0.0000
 20
0.0000
 30
0.0000
 40
0.5080
 41
0.5080
 70
0
  0
VERTEX
  8
16
 10
6.2230
 20
23.7770
 30
0.0000
  0
VERTEX
  8
16
 10
3.5000
 20
26.5000
 30
0.0000
  0
SEQEND
  8
0
  0
POLYLINE
  8
16
 66
1
 10
0.0000
 20
0.0000
 30
0.0000
 40
0.2540
 41
0.2540
 70
0
  0
VERTEX
  8
16
 10
3.5898
 20
26.5898
 30
0.0000
 42
1.0000
  0
VERTEX
  8
16
 10
3.4102
 20
26.4102
 30
0.0000
  0
SEQEND
  8
0
  0
POLYLINE
  8
16
 66
1
 10
0.0000
 20
0.0000
 30
0.0000
 40
0.2540
 41
0.2540
 70
0
  0
VERTEX
  8
16
 10
6.1332
 20
23.6872
 30
0.0000
 42
1.0000
  0
VERTEX
  8
16
 10
6.3128
 20
23.8668
 30
0.0000
  0
SEQEND
  8
0
  0
POLYLINE
  8
16
 66
1
 10
0.0000
 20
0.0000
 30
0.0000
 40
0.5080
 41
0.5080
 70
0
  0
VERTEX
  8
16
 10
6.2230
 20
22.9362
 30
0.0000
  0
VERTEX
  8
16
 10
6.2230
 20
23.7770
 30
0.0000
  0
SEQEND
  8
0
  0
POLYLINE
  8
16
 66
1
 10
0.0000
 20
0.0000
 30
0.0000
 40
0.2540
 41
0.2540
 70
0
  0
VERTEX
  8
16
 10
6.3500
 20
23.7770
 30
0.0000
 42
1.0000
  0
VERTEX
  8
16
 10
6.0960
 20
23.7770
 30
0.0000
  0
SEQEND
  8
0
  0
POLYLINE
  8
16
 66
1
 10
0.0000
 20
0.0000
 30
0.0000
 40
0.2540
 41
0.2540
 70
0
  0
VERTEX
  8
16
 10
6.0960
 20
22.9362
 30
0.0000
 42
1.0000
  0
VERTEX
  8
16
 10
6.3500
 20
22.9362
 30
0.0000
  0
SEQEND
  8
0
  0
POLYLINE
  8
16
 66
1
 10
0.0000
 20
0.0000
 30
0.0000
 40
0.5080
 41
0.5080
 70
0
  0
VERTEX
  8
16
 10
4.2868
 20
21.0000
 30
0.0000
  0
VERTEX
  8
16
 10
6.2230
 20
22.9362
 30
0.0000
  0
SEQEND
  8
0
  0
POLYLINE
  8
16
 66
1
 10
0.0000
 20
0.0000
 30
0.0000
 40
0.2540
 41
0.2540
 70
0
  0
VERTEX
  8
16
 10
6.3128
 20
22.8464
 30
0.0000
 42
1.0000
  0
VERTEX
  8
16
 10
6.1332
 20
23.0260
 30
0.0000
  0
SEQEND
  8
0
  0
POLYLINE
  8
16
 66
1
 10
0.0000
 20
0.0000
 30
0.0000
 40
0.2540
 41
0.2540
 70
0
  0
VERTEX
  8
16
 10
4.1970
 20
21.0898
 30
0.0000
 42
1.0000
  0
VERTEX
  8
16
 10
4.3766
 20
20.9102
 30
0.0000
  0
SEQEND
  8
0
  0
POLYLINE
  8
16
 66
1
 10
0.0000
 20
0.0000
 30
0.0000
 40
0.5080
 41
0.5080
 70
0
  0
VERTEX
  8
16
 10
3.5000
 20
21.0000
 30
0.0000
  0
VERTEX
  8
16
 10
4.2868
 20
21.0000
 30
0.0000
  0
SEQEND
  8
0
  0
POLYLINE
  8
16
 66
1
 10
0.0000
 20
0.0000
 30
0.0000
 40
0.2540
 41
0.2540
 70
0
  0
VERTEX
  8
16
 10
4.2868
 20
20.8730
 30
0.0000
 42
1.0000
  0
VERTEX
  8
16
 10
4.2868
 20
21.1270
 30
0.0000
  0
SEQEND
  8
0
  0
POLYLINE
  8
16
 66
1
 10
0.0000
 20
0.0000
 30
0.0000
 40
0.2540
 41
0.2540
 70
0
  0
VERTEX
  8
16
 10
3.5000
 20
21.1270
 30
0.0000
 42
1.0000
  0
VERTEX
  8
16
 10
3.5000
 20
20.8730
 30
0.0000
  0
SEQEND
  8
0
  0
POLYLINE
  8
16
 66
1
 10
0.0000
 20
0.0000
 30
0.0000
 40
0.5080
 41
0.5080
 70
0
  0
VERTEX
  8
16
 10
3.5000
 20
26.5000
 30
0.0000
  0
VERTEX
  8
16
 10
4.4528
 20
26.5000
 30
0.0000
  0
SEQEND
  8
0
  0
POLYLINE
  8
16
 66
1
 10
0.0000
 20
0.0000
 30
0.0000
 40
0.2540
 41
0.2540
 70
0
  0
VERTEX
  8
16
 10
4.4528
 20
26.3730
 30
0.0000
 42
1.0000
  0
VERTEX
  8
16
 10
4.4528
 20
26.6270
 30
0.0000
  0
SEQEND
  8
0
  0
POLYLINE
  8
16
 66
1
 10
0.0000
 20
0.0000
 30
0.0000
 40
0.2540
 41
0.2540
 70
0
  0
VERTEX
  8
16
 10
3.5000
 20
26.6270
 30
0.0000
 42
1.0000
  0
VERTEX
  8
16
 10
3.5000
 20
26.3730
 30
0.0000
  0
SEQEND
  8
0
  0
POLYLINE
  8
16
 66
1
 10
0.0000
 20
0.0000
 30
0.0000
 40
0.5080
 41
0.5080
 70
0
  0
VERTEX
  8
16
 10
4.4528
 20
26.5000
 30
0.0000
  0
VERTEX
  8
16
 10
6.5786
 20
28.6258
 30
0.0000
  0
SEQEND
  8
0
  0
POLYLINE
  8
16
 66
1
 10
0.0000
 20
0.0000
 30
0.0000
 40
0.2540
 41
0.2540
 70
0
  0
VERTEX
  8
16
 10
6.6684
 20
28.5360
 30
0.0000
 42
1.0000
  0
VERTEX
  8
16
 10
6.4888
 20
28.7156
 30
0.0000
  0
SEQEND
  8
0
  0
POLYLINE
  8
16
 66
1
 10
0.0000
 20
0.0000
 30
0.0000
 40
0.2540
 41
0.2540
 70
0
  0
VERTEX
  8
16
 10
4.3630
 20
26.5898
 30
0.0000
 42
1.0000
  0
VERTEX
  8
16
 10
4.5426
 20
26.4102
 30
0.0000
  0
SEQEND
  8
0
  0
POLYLINE
  8
16
 66
1
 10
0.0000
 20
0.0000
 30
0.0000
 40
0.5080
 41
0.5080
 70
0
  0
VERTEX
  8
16
 10
6.5786
 20
28.6258
 30
0.0000
  0
VERTEX
  8
16
 10
6.5786
 20
29.3414
 30
0.0000
  0
SEQEND
  8
0
  0
POLYLINE
  8
16
 66
1
 10
0.0000
 20
0.0000
 30
0.0000
 40
0.2540
 41
0.2540
 70
0
  0
VERTEX
  8
16
 10
6.7056
 20
29.3414
 30
0.0000
 42
1.0000
  0
VERTEX
  8
16
 10
6.4516
 20
29.3414
 30
0.0000
  0
SEQEND
  8
0
  0
POLYLINE
  8
16
 66
1
 10
0.0000
 20
0.0000
 30
0.0000
 40
0.2540
 41
0.2540
 70
0
  0
VERTEX
  8
16
 10
6.4516
 20
28.6258
 30
0.0000
 42
1.0000
  0
VERTEX
  8
16
 10
6.7056
 20
28.6258
 30
0.0000
  0
SEQEND
  8
0
  0
POLYLINE
  8
16
 66
1
 10
0.0000
 20
0.0000
 30
0.0000
 40
0.5080
 41
0.5080
 70
0
  0
VERTEX
  8
16
 10
6.5786
 20
29.3414
 30
0.0000
  0
VERTEX
  8
16
 10
3.5000
 20
32.4200
 30
0.0000
  0
SEQEND
  8
0
  0
POLYLINE
  8
16
 66
1
 10
0.0000
 20
0.0000
 30
0.0000
 40
0.2540
 41
0.2540
 70
0
  0
VERTEX
  8
16
 10
3.5898
 20
32.5098
 30
0.0000
 42
1.0000
  0
VERTEX
  8
16
 10
3.4102
 20
32.3302
 30
0.0000
  0
SEQEND
  8
0
  0
POLYLINE
  8
16
 66
1
 10
0.0000
 20
0.0000
 30
0.0000
 40
0.2540
 41
0.2540
 70
0
  0
VERTEX
  8
16
 10
6.4888
 20
29.2516
 30
0.0000
 42
1.0000
  0
VERTEX
  8
16
 10
6.6684
 20
29.4312
 30
0.0000
  0
SEQEND
  8
0
  0
POLYLINE
  8
16
 66
1
 10
0.0000
 20
0.0000
 30
0.0000
 40
0.5080
 41
0.5080
 70
0
  0
VERTEX
  8
16
 10
3.5000
 20
32.4200
 30
0.0000
  0
VERTEX
  8
16
 10
1.6002
 20
34.3198
 30
0.0000
  0
SEQEND
  8
0
  0
POLYLINE
  8
16
 66
1
 10
0.0000
 20
0.0000
 30
0.0000
 40
0.2540
 41
0.2540
 70
0
  0
VERTEX
  8
16
 10
1.6900
 20
34.4096
 30
0.0000
 42
1.0000
  0
VERTEX
  8
16
 10
1.5104
 20
34.2300
 30
0.0000
  0
SEQEND
  8
0
  0
POLYLINE
  8
16
 66
1
 10
0.0000
 20
0.0000
 30
0.0000
 40
0.2540
 41
0.2540
 70
0
  0
VERTEX
  8
16
 10
3.4102
 20
32.3302
 30
0.0000
 42
1.0000
  0
VERTEX
  8
16
 10
3.5898
 20
32.5098
 30
0.0000
  0
SEQEND
  8
0
  0
POLYLINE
  8
16
 66
1
 10
0.0000
 20
0.0000
 30
0.0000
 40
0.5080
 41
0.5080
 70
0
  0
VERTEX
  8
16
 10
1.6002
 20
34.3198
 30
0.0000
  0
VERTEX
  8
16
 10
1.6002
 20
44.0944
 30
0.0000
  0
SEQEND
  8
0
  0
POLYLINE
  8
16
 66
1
 10
0.0000
 20
0.0000
 30
0.0000
 40
0.2540
 41
0.2540
 70
0
  0
VERTEX
  8
16
 10
1.7272
 20
44.0944
 30
0.0000
 42
1.0000
  0
VERTEX
  8
16
 10
1.4732
 20
44.0944
 30
0.0000
  0
SEQEND
  8
0
  0
POLYLINE
  8
16
 66
1
 10
0.0000
 20
0.0000
 30
0.0000
 40
0.2540
 41
0.2540
 70
0
  0
VERTEX
  8
16
 10
1.4732
 20
34.3198
 30
0.0000
 42
1.0000
  0
VERTEX
  8
16
 10
1.7272
 20
34.3198
 30
0.0000
  0
SEQEND
  8
0
  0
POLYLINE
  8
16
 66
1
 10
0.0000
 20
0.0000
 30
0.0000
 40
0.5080
 41
0.5080
 70
0
  0
VERTEX
  8
16
 10
1.6002
 20
44.0944
 30
0.0000
  0
VERTEX
  8
16
 10
2.7300
 20
45.2242
 30
0.0000
  0
SEQEND
  8
0
  0
POLYLINE
  8
16
 66
1
 10
0.0000
 20
0.0000
 30
0.0000
 40
0.2540
 41
0.2540
 70
0
  0
VERTEX
  8
16
 10
2.8198
 20
45.1344
 30
0.0000
 42
1.0000
  0
VERTEX
  8
16
 10
2.6402
 20
45.3140
 30
0.0000
  0
SEQEND
  8
0
  0
POLYLINE
  8
16
 66
1
 10
0.0000
 20
0.0000
 30
0.0000
 40
0.2540
 41
0.2540
 70
0
  0
VERTEX
  8
16
 10
1.5104
 20
44.1842
 30
0.0000
 42
1.0000
  0
VERTEX
  8
16
 10
1.6900
 20
44.0046
 30
0.0000
  0
SEQEND
  8
0
  0
POLYLINE
  8
16
 66
1
 10
0.0000
 20
0.0000
 30
0.0000
 40
0.5080
 41
0.5080
 70
0
  0
VERTEX
  8
16
 10
2.7300
 20
45.2242
 30
0.0000
  0
VERTEX
  8
16
 10
2.7300
 20
46.4058
 30
0.0000
  0
SEQEND
  8
0
  0
POLYLINE
  8
16
 66
1
 10
0.0000
 20
0.0000
 30
0.0000
 40
0.2540
 41
0.2540
 70
0
  0
VERTEX
  8
16
 10
2.8570
 20
46.4058
 30
0.0000
 42
1.0000
  0
VERTEX
  8
16
 10
2.6030
 20
46.4058
 30
0.0000
  0
SEQEND
  8
0
  0
POLYLINE
  8
16
 66
1
 10
0.0000
 20
0.0000
 30
0.0000
 40
0.2540
 41
0.2540
 70
0
  0
VERTEX
  8
16
 10
2.6030
 20
45.2242
 30
0.0000
 42
1.0000
  0
VERTEX
  8
16
 10
2.8570
 20
45.2242
 30
0.0000
  0
SEQEND
  8
0
  0
POLYLINE
  8
16
 66
1
 10
0.0000
 20
0.0000
 30
0.0000
 40
0.5080
 41
0.5080
 70
0
  0
VERTEX
  8
16
 10
2.7300
 20
46.4058
 30
0.0000
  0
VERTEX
  8
16
 10
2.7300
 20
47.0000
 30
0.0000
  0
SEQEND
  8
0
  0
POLYLINE
  8
16
 66
1
 10
0.0000
 20
0.0000
 30
0.0000
 40
0.2540
 41
0.2540
 70
0
  0
VERTEX
  8
16
 10
2.8570
 20
47.0000
 30
0.0000
 42
1.0000
  0
VERTEX
  8
16
 10
2.6030
 20
47.0000
 30
0.0000
  0
SEQEND
  8
0
  0
POLYLINE
  8
16
 66
1
 10
0.0000
 20
0.0000
 30
0.0000
 40
0.2540
 41
0.2540
 70
0
  0
VERTEX
  8
16
 10
2.6030
 20
46.4058
 30
0.0000
 42
1.0000
  0
VERTEX
  8
16
 10
2.8570
 20
46.4058
 30
0.0000
  0
SEQEND
  8
0
  0
POLYLINE
  8
16
 66
1
 10
0.0000
 20
0.0000
 30
0.0000
 40
0.5080
 41
0.5080
 70
0
  0
VERTEX
  8
16
 10
22.5000
 20
43.8360
 30
0.0000
  0
VERTEX
  8
16
 10
22.5000
 20
47.5800
 30
0.0000
  0
SEQEND
  8
0
  0
POLYLINE
  8
16
 66
1
 10
0.0000
 20
0.0000
 30
0.0000
 40
0.2540
 41
0.2540
 70
0
  0
VERTEX
  8
16
 10
22.6270
 20
47.5800
 30
0.0000
 42
1.0000
  0
VERTEX
  8
16
 10
22.3730
 20
47.5800
 30
0.0000
  0
SEQEND
  8
0
  0
POLYLINE
  8
16
 66
1
 10
0.0000
 20
0.0000
 30
0.0000
 40
0.2540
 41
0.2540
 70
0
  0
VERTEX
  8
16
 10
22.3730
 20
43.8360
 30
0.0000
 42
1.0000
  0
VERTEX
  8
16
 10
22.6270
 20
43.8360
 30
0.0000
  0
SEQEND
  8
0
  0
POLYLINE
  8
16
 66
1
 10
0.0000
 20
0.0000
 30
0.0000
 40
0.5080
 41
0.5080
 70
0
  0
VERTEX
  8
16
 10
19.5580
 20
40.8940
 30
0.0000
  0
VERTEX
  8
16
 10
22.5000
 20
43.8360
 30
0.0000
  0
SEQEND
  8
0
  0
POLYLINE
  8
16
 66
1
 10
0.0000
 20
0.0000
 30
0.0000
 40
0.2540
 41
0.2540
 70
0
  0
VERTEX
  8
16
 10
22.5898
 20
43.7462
 30
0.0000
 42
1.0000
  0
VERTEX
  8
16
 10
22.4102
 20
43.9258
 30
0.0000
  0
SEQEND
  8
0
  0
POLYLINE
  8
16
 66
1
 10
0.0000
 20
0.0000
 30
0.0000
 40
0.2540
 41
0.2540
 70
0
  0
VERTEX
  8
16
 10
19.4682
 20
40.9838
 30
0.0000
 42
1.0000
  0
VERTEX
  8
16
 10
19.6478
 20
40.8042
 30
0.0000
  0
SEQEND
  8
0
  0
POLYLINE
  8
16
 66
1
 10
0.0000
 20
0.0000
 30
0.0000
 40
0.5080
 41
0.5080
 70
0
  0
VERTEX
  8
16
 10
17.2466
 20
40.8940
 30
0.0000
  0
VERTEX
  8
16
 10
19.5580
 20
40.8940
 30
0.0000
  0
SEQEND
  8
0
  0
POLYLINE
  8
16
 66
1
 10
0.0000
 20
0.0000
 30
0.0000
 40
0.2540
 41
0.2540
 70
0
  0
VERTEX
  8
16
 10
19.5580
 20
40.7670
 30
0.0000
 42
1.0000
  0
VERTEX
  8
16
 10
19.5580
 20
41.0210
 30
0.0000
  0
SEQEND
  8
0
  0
POLYLINE
  8
16
 66
1
 10
0.0000
 20
0.0000
 30
0.0000
 40
0.2540
 41
0.2540
 70
0
  0
VERTEX
  8
16
 10
17.2466
 20
41.0210
 30
0.0000
 42
1.0000
  0
VERTEX
  8
16
 10
17.2466
 20
40.7670
 30
0.0000
  0
SEQEND
  8
0
  0
POLYLINE
  8
16
 66
1
 10
0.0000
 20
0.0000
 30
0.0000
 40
0.5080
 41
0.5080
 70
0
  0
VERTEX
  8
16
 10
16.0020
 20
42.1386
 30
0.0000
  0
VERTEX
  8
16
 10
17.2466
 20
40.8940
 30
0.0000
  0
SEQEND
  8
0
  0
POLYLINE
  8
16
 66
1
 10
0.0000
 20
0.0000
 30
0.0000
 40
0.2540
 41
0.2540
 70
0
  0
VERTEX
  8
16
 10
17.1568
 20
40.8042
 30
0.0000
 42
1.0000
  0
VERTEX
  8
16
 10
17.3364
 20
40.9838
 30
0.0000
  0
SEQEND
  8
0
  0
POLYLINE
  8
16
 66
1
 10
0.0000
 20
0.0000
 30
0.0000
 40
0.2540
 41
0.2540
 70
0
  0
VERTEX
  8
16
 10
16.0918
 20
42.2284
 30
0.0000
 42
1.0000
  0
VERTEX
  8
16
 10
15.9122
 20
42.0488
 30
0.0000
  0
SEQEND
  8
0
  0
POLYLINE
  8
16
 66
1
 10
0.0000
 20
0.0000
 30
0.0000
 40
0.5080
 41
0.5080
 70
0
  0
VERTEX
  8
16
 10
16.0020
 20
44.0944
 30
0.0000
  0
VERTEX
  8
16
 10
16.0020
 20
42.1386
 30
0.0000
  0
SEQEND
  8
0
  0
POLYLINE
  8
16
 66
1
 10
0.0000
 20
0.0000
 30
0.0000
 40
0.2540
 41
0.2540
 70
0
  0
VERTEX
  8
16
 10
15.8750
 20
42.1386
 30
0.0000
 42
1.0000
  0
VERTEX
  8
16
 10
16.1290
 20
42.1386
 30
0.0000
  0
SEQEND
  8
0
  0
POLYLINE
  8
16
 66
1
 10
0.0000
 20
0.0000
 30
0.0000
 40
0.2540
 41
0.2540
 70
0
  0
VERTEX
  8
16
 10
16.1290
 20
44.0944
 30
0.0000
 42
1.0000
  0
VERTEX
  8
16
 10
15.8750
 20
44.0944
 30
0.0000
  0
SEQEND
  8
0
  0
POLYLINE
  8
16
 66
1
 10
0.0000
 20
0.0000
 30
0.0000
 40
0.5080
 41
0.5080
 70
0
  0
VERTEX
  8
16
 10
14.9352
 20
45.1612
 30
0.0000
  0
VERTEX
  8
16
 10
16.0020
 20
44.0944
 30
0.0000
  0
SEQEND
  8
0
  0
POLYLINE
  8
16
 66
1
 10
0.0000
 20
0.0000
 30
0.0000
 40
0.2540
 41
0.2540
 70
0
  0
VERTEX
  8
16
 10
15.9122
 20
44.0046
 30
0.0000
 42
1.0000
  0
VERTEX
  8
16
 10
16.0918
 20
44.1842
 30
0.0000
  0
SEQEND
  8
0
  0
POLYLINE
  8
16
 66
1
 10
0.0000
 20
0.0000
 30
0.0000
 40
0.2540
 41
0.2540
 70
0
  0
VERTEX
  8
16
 10
15.0250
 20
45.2510
 30
0.0000
 42
1.0000
  0
VERTEX
  8
16
 10
14.8454
 20
45.0714
 30
0.0000
  0
SEQEND
  8
0
  0
POLYLINE
  8
16
 66
1
 10
0.0000
 20
0.0000
 30
0.0000
 40
0.5080
 41
0.5080
 70
0
  0
VERTEX
  8
16
 10
7.2898
 20
45.1612
 30
0.0000
  0
VERTEX
  8
16
 10
14.9352
 20
45.1612
 30
0.0000
  0
SEQEND
  8
0
  0
POLYLINE
  8
16
 66
1
 10
0.0000
 20
0.0000
 30
0.0000
 40
0.2540
 41
0.2540
 70
0
  0
VERTEX
  8
16
 10
14.9352
 20
45.0342
 30
0.0000
 42
1.0000
  0
VERTEX
  8
16
 10
14.9352
 20
45.2882
 30
0.0000
  0
SEQEND
  8
0
  0
POLYLINE
  8
16
 66
1
 10
0.0000
 20
0.0000
 30
0.0000
 40
0.2540
 41
0.2540
 70
0
  0
VERTEX
  8
16
 10
7.2898
 20
45.2882
 30
0.0000
 42
1.0000
  0
VERTEX
  8
16
 10
7.2898
 20
45.0342
 30
0.0000
  0
SEQEND
  8
0
  0
POLYLINE
  8
16
 66
1
 10
0.0000
 20
0.0000
 30
0.0000
 40
0.5080
 41
0.5080
 70
0
  0
VERTEX
  8
16
 10
6.4008
 20
44.2722
 30
0.0000
  0
VERTEX
  8
16
 10
7.2898
 20
45.1612
 30
0.0000
  0
SEQEND
  8
0
  0
POLYLINE
  8
16
 66
1
 10
0.0000
 20
0.0000
 30
0.0000
 40
0.2540
 41
0.2540
 70
0
  0
VERTEX
  8
16
 10
7.3796
 20
45.0714
 30
0.0000
 42
1.0000
  0
VERTEX
  8
16
 10
7.2000
 20
45.2510
 30
0.0000
  0
SEQEND
  8
0
  0
POLYLINE
  8
16
 66
1
 10
0.0000
 20
0.0000
 30
0.0000
 40
0.2540
 41
0.2540
 70
0
  0
VERTEX
  8
16
 10
6.3110
 20
44.3620
 30
0.0000
 42
1.0000
  0
VERTEX
  8
16
 10
6.4906
 20
44.1824
 30
0.0000
  0
SEQEND
  8
0
  0
POLYLINE
  8
16
 66
1
 10
0.0000
 20
0.0000
 30
0.0000
 40
0.5080
 41
0.5080
 70
0
  0
VERTEX
  8
16
 10
4.8636
 20
44.2722
 30
0.0000
  0
VERTEX
  8
16
 10
6.4008
 20
44.2722
 30
0.0000
  0
SEQEND
  8
0
  0
POLYLINE
  8
16
 66
1
 10
0.0000
 20
0.0000
 30
0.0000
 40
0.2540
 41
0.2540
 70
0
  0
VERTEX
  8
16
 10
6.4008
 20
44.1452
 30
0.0000
 42
1.0000
  0
VERTEX
  8
16
 10
6.4008
 20
44.3992
 30
0.0000
  0
SEQEND
  8
0
  0
POLYLINE
  8
16
 66
1
 10
0.0000
 20
0.0000
 30
0.0000
 40
0.2540
 41
0.2540
 70
0
  0
VERTEX
  8
16
 10
4.8636
 20
44.3992
 30
0.0000
 42
1.0000
  0
VERTEX
  8
16
 10
4.8636
 20
44.1452
 30
0.0000
  0
SEQEND
  8
0
  0
POLYLINE
  8
16
 66
1
 10
0.0000
 20
0.0000
 30
0.0000
 40
0.5080
 41
0.5080
 70
0
  0
VERTEX
  8
16
 10
2.7300
 20
46.4058
 30
0.0000
  0
VERTEX
  8
16
 10
4.8636
 20
44.2722
 30
0.0000
  0
SEQEND
  8
0
  0
POLYLINE
  8
16
 66
1
 10
0.0000
 20
0.0000
 30
0.0000
 40
0.2540
 41
0.2540
 70
0
  0
VERTEX
  8
16
 10
4.7738
 20
44.1824
 30
0.0000
 42
1.0000
  0
VERTEX
  8
16
 10
4.9534
 20
44.3620
 30
0.0000
  0
SEQEND
  8
0
  0
POLYLINE
  8
16
 66
1
 10
0.0000
 20
0.0000
 30
0.0000
 40
0.2540
 41
0.2540
 70
0
  0
VERTEX
  8
16
 10
2.8198
 20
46.4956
 30
0.0000
 42
1.0000
  0
VERTEX
  8
16
 10
2.6402
 20
46.3160
 30
0.0000
  0
SEQEND
  8
0
  0
POLYLINE
  8
16
 66
1
 10
0.0000
 20
0.0000
 30
0.0000
 40
0.5080
 41
0.5080
 70
0
  0
VERTEX
  8
16
 10
24.4200
 20
27.0000
 30
0.0000
  0
VERTEX
  8
16
 10
24.4200
 20
20.1600
 30
0.0000
  0
SEQEND
  8
0
  0
POLYLINE
  8
16
 66
1
 10
0.0000
 20
0.0000
 30
0.0000
 40
0.2540
 41
0.2540
 70
0
  0
VERTEX
  8
16
 10
24.2930
 20
20.1600
 30
0.0000
 42
1.0000
  0
VERTEX
  8
16
 10
24.5470
 20
20.1600
 30
0.0000
  0
SEQEND
  8
0
  0
POLYLINE
  8
16
 66
1
 10
0.0000
 20
0.0000
 30
0.0000
 40
0.2540
 41
0.2540
 70
0
  0
VERTEX
  8
16
 10
24.5470
 20
27.0000
 30
0.0000
 42
1.0000
  0
VERTEX
  8
16
 10
24.2930
 20
27.0000
 30
0.0000
  0
SEQEND
  8
0
  0
POLYLINE
  8
16
 66
1
 10
0.0000
 20
0.0000
 30
0.0000
 40
0.5080
 41
0.5080
 70
0
  0
VERTEX
  8
16
 10
24.4200
 20
20.1600
 30
0.0000
  0
VERTEX
  8
16
 10
26.0800
 20
18.5000
 30
0.0000
  0
SEQEND
  8
0
  0
POLYLINE
  8
16
 66
1
 10
0.0000
 20
0.0000
 30
0.0000
 40
0.2540
 41
0.2540
 70
0
  0
VERTEX
  8
16
 10
25.9902
 20
18.4102
 30
0.0000
 42
1.0000
  0
VERTEX
  8
16
 10
26.1698
 20
18.5898
 30
0.0000
  0
SEQEND
  8
0
  0
POLYLINE
  8
16
 66
1
 10
0.0000
 20
0.0000
 30
0.0000
 40
0.2540
 41
0.2540
 70
0
  0
VERTEX
  8
16
 10
24.5098
 20
20.2498
 30
0.0000
 42
1.0000
  0
VERTEX
  8
16
 10
24.3302
 20
20.0702
 30
0.0000
  0
SEQEND
  8
0
  0
POLYLINE
  8
16
 66
1
 10
0.0000
 20
0.0000
 30
0.0000
 40
0.5080
 41
0.5080
 70
0
  0
VERTEX
  8
16
 10
47.9600
 20
10.5000
 30
0.0000
  0
VERTEX
  8
16
 10
49.0728
 20
9.3872
 30
0.0000
  0
SEQEND
  8
0
  0
POLYLINE
  8
16
 66
1
 10
0.0000
 20
0.0000
 30
0.0000
 40
0.2540
 41
0.2540
 70
0
  0
VERTEX
  8
16
 10
48.9830
 20
9.2974
 30
0.0000
 42
1.0000
  0
VERTEX
  8
16
 10
49.1626
 20
9.4770
 30
0.0000
  0
SEQEND
  8
0
  0
POLYLINE
  8
16
 66
1
 10
0.0000
 20
0.0000
 30
0.0000
 40
0.2540
 41
0.2540
 70
0
  0
VERTEX
  8
16
 10
48.0498
 20
10.5898
 30
0.0000
 42
1.0000
  0
VERTEX
  8
16
 10
47.8702
 20
10.4102
 30
0.0000
  0
SEQEND
  8
0
  0
POLYLINE
  8
16
 66
1
 10
0.0000
 20
0.0000
 30
0.0000
 40
0.5080
 41
0.5080
 70
0
  0
VERTEX
  8
16
 10
49.0728
 20
9.3872
 30
0.0000
  0
VERTEX
  8
16
 10
49.0728
 20
4.2672
 30
0.0000
  0
SEQEND
  8
0
  0
POLYLINE
  8
16
 66
1
 10
0.0000
 20
0.0000
 30
0.0000
 40
0.2540
 41
0.2540
 70
0
  0
VERTEX
  8
16
 10
48.9458
 20
4.2672
 30
0.0000
 42
1.0000
  0
VERTEX
  8
16
 10
49.1998
 20
4.2672
 30
0.0000
  0
SEQEND
  8
0
  0
POLYLINE
  8
16
 66
1
 10
0.0000
 20
0.0000
 30
0.0000
 40
0.2540
 41
0.2540
 70
0
  0
VERTEX
  8
16
 10
49.1998
 20
9.3872
 30
0.0000
 42
1.0000
  0
VERTEX
  8
16
 10
48.9458
 20
9.3872
 30
0.0000
  0
SEQEND
  8
0
  0
POLYLINE
  8
16
 66
1
 10
0.0000
 20
0.0000
 30
0.0000
 40
0.5080
 41
0.5080
 70
0
  0
VERTEX
  8
16
 10
49.0728
 20
4.2672
 30
0.0000
  0
VERTEX
  8
16
 10
47.3056
 20
2.5000
 30
0.0000
  0
SEQEND
  8
0
  0
POLYLINE
  8
16
 66
1
 10
0.0000
 20
0.0000
 30
0.0000
 40
0.2540
 41
0.2540
 70
0
  0
VERTEX
  8
16
 10
47.2158
 20
2.5898
 30
0.0000
 42
1.0000
  0
VERTEX
  8
16
 10
47.3954
 20
2.4102
 30
0.0000
  0
SEQEND
  8
0
  0
POLYLINE
  8
16
 66
1
 10
0.0000
 20
0.0000
 30
0.0000
 40
0.2540
 41
0.2540
 70
0
  0
VERTEX
  8
16
 10
49.1626
 20
4.1774
 30
0.0000
 42
1.0000
  0
VERTEX
  8
16
 10
48.9830
 20
4.3570
 30
0.0000
  0
SEQEND
  8
0
  0
POLYLINE
  8
16
 66
1
 10
0.0000
 20
0.0000
 30
0.0000
 40
0.5080
 41
0.5080
 70
0
  0
VERTEX
  8
16
 10
47.3056
 20
2.5000
 30
0.0000
  0
VERTEX
  8
16
 10
46.4200
 20
2.5000
 30
0.0000
  0
SEQEND
  8
0
  0
POLYLINE
  8
16
 66
1
 10
0.0000
 20
0.0000
 30
0.0000
 40
0.2540
 41
0.2540
 70
0
  0
VERTEX
  8
16
 10
46.4200
 20
2.6270
 30
0.0000
 42
1.0000
  0
VERTEX
  8
16
 10
46.4200
 20
2.3730
 30
0.0000
  0
SEQEND
  8
0
  0
POLYLINE
  8
16
 66
1
 10
0.0000
 20
0.0000
 30
0.0000
 40
0.2540
 41
0.2540
 70
0
  0
VERTEX
  8
16
 10
47.3056
 20
2.3730
 30
0.0000
 42
1.0000
  0
VERTEX
  8
16
 10
47.3056
 20
2.6270
 30
0.0000
  0
SEQEND
  8
0
  0
POLYLINE
  8
16
 66
1
 10
0.0000
 20
0.0000
 30
0.0000
 40
0.5080
 41
0.5080
 70
0
  0
VERTEX
  8
16
 10
46.4200
 20
2.5000
 30
0.0000
  0
VERTEX
  8
16
 10
43.0800
 20
2.5000
 30
0.0000
  0
SEQEND
  8
0
  0
POLYLINE
  8
16
 66
1
 10
0.0000
 20
0.0000
 30
0.0000
 40
0.2540
 41
0.2540
 70
0
  0
VERTEX
  8
16
 10
43.0800
 20
2.6270
 30
0.0000
 42
1.0000
  0
VERTEX
  8
16
 10
43.0800
 20
2.3730
 30
0.0000
  0
SEQEND
  8
0
  0
POLYLINE
  8
16
 66
1
 10
0.0000
 20
0.0000
 30
0.0000
 40
0.2540
 41
0.2540
 70
0
  0
VERTEX
  8
16
 10
46.4200
 20
2.3730
 30
0.0000
 42
1.0000
  0
VERTEX
  8
16
 10
46.4200
 20
2.6270
 30
0.0000
  0
SEQEND
  8
0
  0
POLYLINE
  8
16
 66
1
 10
0.0000
 20
0.0000
 30
0.0000
 40
0.5080
 41
0.5080
 70
0
  0
VERTEX
  8
16
 10
57.0000
 20
39.0800
 30
0.0000
  0
VERTEX
  8
16
 10
57.0000
 20
47.0000
 30
0.0000
  0
SEQEND
  8
0
  0
POLYLINE
  8
16
 66
1
 10
0.0000
 20
0.0000
 30
0.0000
 40
0.2540
 41
0.2540
 70
0
  0
VERTEX
  8
16
 10
57.1270
 20
47.0000
 30
0.0000
 42
1.0000
  0
VERTEX
  8
16
 10
56.8730
 20
47.0000
 30
0.0000
  0
SEQEND
  8
0
  0
POLYLINE
  8
16
 66
1
 10
0.0000
 20
0.0000
 30
0.0000
 40
0.2540
 41
0.2540
 70
0
  0
VERTEX
  8
16
 10
56.8730
 20
39.0800
 30
0.0000
 42
1.0000
  0
VERTEX
  8
16
 10
57.1270
 20
39.0800
 30
0.0000
  0
SEQEND
  8
0
  0
POLYLINE
  8
16
 66
1
 10
0.0000
 20
0.0000
 30
0.0000
 40
0.5080
 41
0.5080
 70
0
  0
VERTEX
  8
16
 10
59.0000
 20
37.0800
 30
0.0000
  0
VERTEX
  8
16
 10
57.0000
 20
39.0800
 30
0.0000
  0
SEQEND
  8
0
  0
POLYLINE
  8
16
 66
1
 10
0.0000
 20
0.0000
 30
0.0000
 40
0.2540
 41
0.2540
 70
0
  0
VERTEX
  8
16
 10
57.0898
 20
39.1698
 30
0.0000
 42
1.0000
  0
VERTEX
  8
16
 10
56.9102
 20
38.9902
 30
0.0000
  0
SEQEND
  8
0
  0
POLYLINE
  8
16
 66
1
 10
0.0000
 20
0.0000
 30
0.0000
 40
0.2540
 41
0.2540
 70
0
  0
VERTEX
  8
16
 10
58.9102
 20
36.9902
 30
0.0000
 42
1.0000
  0
VERTEX
  8
16
 10
59.0898
 20
37.1698
 30
0.0000
  0
SEQEND
  8
0
  0
POLYLINE
  8
16
 66
1
 10
0.0000
 20
0.0000
 30
0.0000
 40
0.5080
 41
0.5080
 70
0
  0
VERTEX
  8
16
 10
18.1300
 20
2.9700
 30
0.0000
  0
VERTEX
  8
16
 10
14.0300
 20
2.9700
 30
0.0000
  0
SEQEND
  8
0
  0
POLYLINE
  8
16
 66
1
 10
0.0000
 20
0.0000
 30
0.0000
 40
0.2540
 41
0.2540
 70
0
  0
VERTEX
  8
16
 10
14.0300
 20
3.0970
 30
0.0000
 42
1.0000
  0
VERTEX
  8
16
 10
14.0300
 20
2.8430
 30
0.0000
  0
SEQEND
  8
0
  0
POLYLINE
  8
16
 66
1
 10
0.0000
 20
0.0000
 30
0.0000
 40
0.2540
 41
0.2540
 70
0
  0
VERTEX
  8
16
 10
18.1300
 20
2.8430
 30
0.0000
 42
1.0000
  0
VERTEX
  8
16
 10
18.1300
 20
3.0970
 30
0.0000
  0
SEQEND
  8
0
  0
POLYLINE
  8
16
 66
1
 10
0.0000
 20
0.0000
 30
0.0000
 40
0.5080
 41
0.5080
 70
0
  0
VERTEX
  8
16
 10
14.0300
 20
2.9700
 30
0.0000
  0
VERTEX
  8
16
 10
14.0000
 20
3.0000
 30
0.0000
  0
SEQEND
  8
0
  0
POLYLINE
  8
16
 66
1
 10
0.0000
 20
0.0000
 30
0.0000
 40
0.2540
 41
0.2540
 70
0
  0
VERTEX
  8
16
 10
14.0898
 20
3.0898
 30
0.0000
 42
1.0000
  0
VERTEX
  8
16
 10
13.9102
 20
2.9102
 30
0.0000
  0
SEQEND
  8
0
  0
POLYLINE
  8
16
 66
1
 10
0.0000
 20
0.0000
 30
0.0000
 40
0.2540
 41
0.2540
 70
0
  0
VERTEX
  8
16
 10
13.9402
 20
2.8802
 30
0.0000
 42
1.0000
  0
VERTEX
  8
16
 10
14.1198
 20
3.0598
 30
0.0000
  0
SEQEND
  8
0
  0
POLYLINE
  8
16
 66
1
 10
0.0000
 20
0.0000
 30
0.0000
 40
0.5080
 41
0.5080
 70
0
  0
VERTEX
  8
16
 10
43.0276
 20
11.9876
 30
0.0000
  0
VERTEX
  8
16
 10
41.0000
 20
9.9600
 30
0.0000
  0
SEQEND
  8
0
  0
POLYLINE
  8
16
 66
1
 10
0.0000
 20
0.0000
 30
0.0000
 40
0.2540
 41
0.2540
 70
0
  0
VERTEX
  8
16
 10
40.9102
 20
10.0498
 30
0.0000
 42
1.0000
  0
VERTEX
  8
16
 10
41.0898
 20
9.8702
 30
0.0000
  0
SEQEND
  8
0
  0
POLYLINE
  8
16
 66
1
 10
0.0000
 20
0.0000
 30
0.0000
 40
0.2540
 41
0.2540
 70
0
  0
VERTEX
  8
16
 10
43.1174
 20
11.8978
 30
0.0000
 42
1.0000
  0
VERTEX
  8
16
 10
42.9378
 20
12.0774
 30
0.0000
  0
SEQEND
  8
0
  0
POLYLINE
  8
16
 66
1
 10
0.0000
 20
0.0000
 30
0.0000
 40
0.5080
 41
0.5080
 70
0
  0
VERTEX
  8
16
 10
43.0276
 20
15.4686
 30
0.0000
  0
VERTEX
  8
16
 10
43.0276
 20
11.9876
 30
0.0000
  0
SEQEND
  8
0
  0
POLYLINE
  8
16
 66
1
 10
0.0000
 20
0.0000
 30
0.0000
 40
0.2540
 41
0.2540
 70
0
  0
VERTEX
  8
16
 10
42.9006
 20
11.9876
 30
0.0000
 42
1.0000
  0
VERTEX
  8
16
 10
43.1546
 20
11.9876
 30
0.0000
  0
SEQEND
  8
0
  0
POLYLINE
  8
16
 66
1
 10
0.0000
 20
0.0000
 30
0.0000
 40
0.2540
 41
0.2540
 70
0
  0
VERTEX
  8
16
 10
43.1546
 20
15.4686
 30
0.0000
 42
1.0000
  0
VERTEX
  8
16
 10
42.9006
 20
15.4686
 30
0.0000
  0
SEQEND
  8
0
  0
POLYLINE
  8
16
 66
1
 10
0.0000
 20
0.0000
 30
0.0000
 40
0.5080
 41
0.5080
 70
0
  0
VERTEX
  8
16
 10
42.3164
 20
16.1798
 30
0.0000
  0
VERTEX
  8
16
 10
43.0276
 20
15.4686
 30
0.0000
  0
SEQEND
  8
0
  0
POLYLINE
  8
16
 66
1
 10
0.0000
 20
0.0000
 30
0.0000
 40
0.2540
 41
0.2540
 70
0
  0
VERTEX
  8
16
 10
42.9378
 20
15.3788
 30
0.0000
 42
1.0000
  0
VERTEX
  8
16
 10
43.1174
 20
15.5584
 30
0.0000
  0
SEQEND
  8
0
  0
POLYLINE
  8
16
 66
1
 10
0.0000
 20
0.0000
 30
0.0000
 40
0.2540
 41
0.2540
 70
0
  0
VERTEX
  8
16
 10
42.4062
 20
16.2696
 30
0.0000
 42
1.0000
  0
VERTEX
  8
16
 10
42.2266
 20
16.0900
 30
0.0000
  0
SEQEND
  8
0
  0
POLYLINE
  8
16
 66
1
 10
0.0000
 20
0.0000
 30
0.0000
 40
0.5080
 41
0.5080
 70
0
  0
VERTEX
  8
16
 10
42.3164
 20
17.6022
 30
0.0000
  0
VERTEX
  8
16
 10
42.3164
 20
16.1798
 30
0.0000
  0
SEQEND
  8
0
  0
POLYLINE
  8
16
 66
1
 10
0.0000
 20
0.0000
 30
0.0000
 40
0.2540
 41
0.2540
 70
0
  0
VERTEX
  8
16
 10
42.1894
 20
16.1798
 30
0.0000
 42
1.0000
  0
VERTEX
  8
16
 10
42.4434
 20
16.1798
 30
0.0000
  0
SEQEND
  8
0
  0
POLYLINE
  8
16
 66
1
 10
0.0000
 20
0.0000
 30
0.0000
 40
0.2540
 41
0.2540
 70
0
  0
VERTEX
  8
16
 10
42.4434
 20
17.6022
 30
0.0000
 42
1.0000
  0
VERTEX
  8
16
 10
42.1894
 20
17.6022
 30
0.0000
  0
SEQEND
  8
0
  0
POLYLINE
  8
16
 66
1
 10
0.0000
 20
0.0000
 30
0.0000
 40
0.5080
 41
0.5080
 70
0
  0
VERTEX
  8
16
 10
43.7142
 20
19.0000
 30
0.0000
  0
VERTEX
  8
16
 10
42.3164
 20
17.6022
 30
0.0000
  0
SEQEND
  8
0
  0
POLYLINE
  8
16
 66
1
 10
0.0000
 20
0.0000
 30
0.0000
 40
0.2540
 41
0.2540
 70
0
  0
VERTEX
  8
16
 10
42.2266
 20
17.6920
 30
0.0000
 42
1.0000
  0
VERTEX
  8
16
 10
42.4062
 20
17.5124
 30
0.0000
  0
SEQEND
  8
0
  0
POLYLINE
  8
16
 66
1
 10
0.0000
 20
0.0000
 30
0.0000
 40
0.2540
 41
0.2540
 70
0
  0
VERTEX
  8
16
 10
43.8040
 20
18.9102
 30
0.0000
 42
1.0000
  0
VERTEX
  8
16
 10
43.6244
 20
19.0898
 30
0.0000
  0
SEQEND
  8
0
  0
POLYLINE
  8
16
 66
1
 10
0.0000
 20
0.0000
 30
0.0000
 40
0.5080
 41
0.5080
 70
0
  0
VERTEX
  8
16
 10
45.0000
 20
19.0000
 30
0.0000
  0
VERTEX
  8
16
 10
43.7142
 20
19.0000
 30
0.0000
  0
SEQEND
  8
0
  0
POLYLINE
  8
16
 66
1
 10
0.0000
 20
0.0000
 30
0.0000
 40
0.2540
 41
0.2540
 70
0
  0
VERTEX
  8
16
 10
43.7142
 20
19.1270
 30
0.0000
 42
1.0000
  0
VERTEX
  8
16
 10
43.7142
 20
18.8730
 30
0.0000
  0
SEQEND
  8
0
  0
POLYLINE
  8
16
 66
1
 10
0.0000
 20
0.0000
 30
0.0000
 40
0.2540
 41
0.2540
 70
0
  0
VERTEX
  8
16
 10
45.0000
 20
18.8730
 30
0.0000
 42
1.0000
  0
VERTEX
  8
16
 10
45.0000
 20
19.1270
 30
0.0000
  0
SEQEND
  8
0
  0
POLYLINE
  8
16
 66
1
 10
0.0000
 20
0.0000
 30
0.0000
 40
0.5080
 41
0.5080
 70
0
  0
VERTEX
  8
16
 10
57.0000
 20
47.0000
 30
0.0000
  0
VERTEX
  8
16
 10
57.0000
 20
47.1908
 30
0.0000
  0
SEQEND
  8
0
  0
POLYLINE
  8
16
 66
1
 10
0.0000
 20
0.0000
 30
0.0000
 40
0.2540
 41
0.2540
 70
0
  0
VERTEX
  8
16
 10
57.1270
 20
47.1908
 30
0.0000
 42
1.0000
  0
VERTEX
  8
16
 10
56.8730
 20
47.1908
 30
0.0000
  0
SEQEND
  8
0
  0
POLYLINE
  8
16
 66
1
 10
0.0000
 20
0.0000
 30
0.0000
 40
0.2540
 41
0.2540
 70
0
  0
VERTEX
  8
16
 10
56.8730
 20
47.0000
 30
0.0000
 42
1.0000
  0
VERTEX
  8
16
 10
57.1270
 20
47.0000
 30
0.0000
  0
SEQEND
  8
0
  0
POLYLINE
  8
16
 66
1
 10
0.0000
 20
0.0000
 30
0.0000
 40
0.5080
 41
0.5080
 70
0
  0
VERTEX
  8
16
 10
47.9600
 20
17.1148
 30
0.0000
  0
VERTEX
  8
16
 10
47.9600
 20
10.5000
 30
0.0000
  0
SEQEND
  8
0
  0
POLYLINE
  8
16
 66
1
 10
0.0000
 20
0.0000
 30
0.0000
 40
0.2540
 41
0.2540
 70
0
  0
VERTEX
  8
16
 10
47.8330
 20
10.5000
 30
0.0000
 42
1.0000
  0
VERTEX
  8
16
 10
48.0870
 20
10.5000
 30
0.0000
  0
SEQEND
  8
0
  0
POLYLINE
  8
16
 66
1
 10
0.0000
 20
0.0000
 30
0.0000
 40
0.2540
 41
0.2540
 70
0
  0
VERTEX
  8
16
 10
48.0870
 20
17.1148
 30
0.0000
 42
1.0000
  0
VERTEX
  8
16
 10
47.8330
 20
17.1148
 30
0.0000
  0
SEQEND
  8
0
  0
POLYLINE
  8
16
 66
1
 10
0.0000
 20
0.0000
 30
0.0000
 40
0.5080
 41
0.5080
 70
0
  0
VERTEX
  8
16
 10
46.0748
 20
19.0000
 30
0.0000
  0
VERTEX
  8
16
 10
47.9600
 20
17.1148
 30
0.0000
  0
SEQEND
  8
0
  0
POLYLINE
  8
16
 66
1
 10
0.0000
 20
0.0000
 30
0.0000
 40
0.2540
 41
0.2540
 70
0
  0
VERTEX
  8
16
 10
47.8702
 20
17.0250
 30
0.0000
 42
1.0000
  0
VERTEX
  8
16
 10
48.0498
 20
17.2046
 30
0.0000
  0
SEQEND
  8
0
  0
POLYLINE
  8
16
 66
1
 10
0.0000
 20
0.0000
 30
0.0000
 40
0.2540
 41
0.2540
 70
0
  0
VERTEX
  8
16
 10
46.1646
 20
19.0898
 30
0.0000
 42
1.0000
  0
VERTEX
  8
16
 10
45.9850
 20
18.9102
 30
0.0000
  0
SEQEND
  8
0
  0
POLYLINE
  8
16
 66
1
 10
0.0000
 20
0.0000
 30
0.0000
 40
0.5080
 41
0.5080
 70
0
  0
VERTEX
  8
16
 10
45.0000
 20
19.0000
 30
0.0000
  0
VERTEX
  8
16
 10
46.0748
 20
19.0000
 30
0.0000
  0
SEQEND
  8
0
  0
POLYLINE
  8
16
 66
1
 10
0.0000
 20
0.0000
 30
0.0000
 40
0.2540
 41
0.2540
 70
0
  0
VERTEX
  8
16
 10
46.0748
 20
18.8730
 30
0.0000
 42
1.0000
  0
VERTEX
  8
16
 10
46.0748
 20
19.1270
 30
0.0000
  0
SEQEND
  8
0
  0
POLYLINE
  8
16
 66
1
 10
0.0000
 20
0.0000
 30
0.0000
 40
0.2540
 41
0.2540
 70
0
  0
VERTEX
  8
16
 10
45.0000
 20
19.1270
 30
0.0000
 42
1.0000
  0
VERTEX
  8
16
 10
45.0000
 20
18.8730
 30
0.0000
  0
SEQEND
  8
0
  0
POLYLINE
  8
16
 66
1
 10
0.0000
 20
0.0000
 30
0.0000
 40
0.5080
 41
0.5080
 70
0
  0
VERTEX
  8
16
 10
11.5000
 20
3.0000
 30
0.0000
  0
VERTEX
  8
16
 10
11.5000
 20
5.4200
 30
0.0000
  0
SEQEND
  8
0
  0
POLYLINE
  8
16
 66
1
 10
0.0000
 20
0.0000
 30
0.0000
 40
0.2540
 41
0.2540
 70
0
  0
VERTEX
  8
16
 10
11.6270
 20
5.4200
 30
0.0000
 42
1.0000
  0
VERTEX
  8
16
 10
11.3730
 20
5.4200
 30
0.0000
  0
SEQEND
  8
0
  0
POLYLINE
  8
16
 66
1
 10
0.0000
 20
0.0000
 30
0.0000
 40
0.2540
 41
0.2540
 70
0
  0
VERTEX
  8
16
 10
11.3730
 20
3.0000
 30
0.0000
 42
1.0000
  0
VERTEX
  8
16
 10
11.6270
 20
3.0000
 30
0.0000
  0
SEQEND
  8
0
  0
POLYLINE
  8
16
 66
1
 10
0.0000
 20
0.0000
 30
0.0000
 40
0.5080
 41
0.5080
 70
0
  0
VERTEX
  8
16
 10
11.5000
 20
5.4200
 30
0.0000
  0
VERTEX
  8
16
 10
12.5000
 20
6.4200
 30
0.0000
  0
SEQEND
  8
0
  0
POLYLINE
  8
16
 66
1
 10
0.0000
 20
0.0000
 30
0.0000
 40
0.2540
 41
0.2540
 70
0
  0
VERTEX
  8
16
 10
12.5898
 20
6.3302
 30
0.0000
 42
1.0000
  0
VERTEX
  8
16
 10
12.4102
 20
6.5098
 30
0.0000
  0
SEQEND
  8
0
  0
POLYLINE
  8
16
 66
1
 10
0.0000
 20
0.0000
 30
0.0000
 40
0.2540
 41
0.2540
 70
0
  0
VERTEX
  8
16
 10
11.4102
 20
5.5098
 30
0.0000
 42
1.0000
  0
VERTEX
  8
16
 10
11.5898
 20
5.3302
 30
0.0000
  0
SEQEND
  8
0
  0
POLYLINE
  8
16
 66
1
 10
0.0000
 20
0.0000
 30
0.0000
 40
0.5080
 41
0.5080
 70
0
  0
VERTEX
  8
16
 10
52.4050
 20
11.1350
 30
0.0000
  0
VERTEX
  8
16
 10
52.4050
 20
15.5950
 30
0.0000
  0
SEQEND
  8
0
  0
POLYLINE
  8
16
 66
1
 10
0.0000
 20
0.0000
 30
0.0000
 40
0.2540
 41
0.2540
 70
0
  0
VERTEX
  8
16
 10
52.5320
 20
15.5950
 30
0.0000
 42
1.0000
  0
VERTEX
  8
16
 10
52.2780
 20
15.5950
 30
0.0000
  0
SEQEND
  8
0
  0
POLYLINE
  8
16
 66
1
 10
0.0000
 20
0.0000
 30
0.0000
 40
0.2540
 41
0.2540
 70
0
  0
VERTEX
  8
16
 10
52.2780
 20
11.1350
 30
0.0000
 42
1.0000
  0
VERTEX
  8
16
 10
52.5320
 20
11.1350
 30
0.0000
  0
SEQEND
  8
0
  0
POLYLINE
  8
16
 66
1
 10
0.0000
 20
0.0000
 30
0.0000
 40
0.5080
 41
0.5080
 70
0
  0
VERTEX
  8
16
 10
53.0400
 20
10.5000
 30
0.0000
  0
VERTEX
  8
16
 10
52.4050
 20
11.1350
 30
0.0000
  0
SEQEND
  8
0
  0
POLYLINE
  8
16
 66
1
 10
0.0000
 20
0.0000
 30
0.0000
 40
0.2540
 41
0.2540
 70
0
  0
VERTEX
  8
16
 10
52.4948
 20
11.2248
 30
0.0000
 42
1.0000
  0
VERTEX
  8
16
 10
52.3152
 20
11.0452
 30
0.0000
  0
SEQEND
  8
0
  0
POLYLINE
  8
16
 66
1
 10
0.0000
 20
0.0000
 30
0.0000
 40
0.2540
 41
0.2540
 70
0
  0
VERTEX
  8
16
 10
52.9502
 20
10.4102
 30
0.0000
 42
1.0000
  0
VERTEX
  8
16
 10
53.1298
 20
10.5898
 30
0.0000
  0
SEQEND
  8
0
  0
POLYLINE
  8
16
 66
1
 10
0.0000
 20
0.0000
 30
0.0000
 40
0.5080
 41
0.5080
 70
0
  0
VERTEX
  8
16
 10
53.0400
 20
6.0400
 30
0.0000
  0
VERTEX
  8
16
 10
53.0400
 20
10.5000
 30
0.0000
  0
SEQEND
  8
0
  0
POLYLINE
  8
16
 66
1
 10
0.0000
 20
0.0000
 30
0.0000
 40
0.2540
 41
0.2540
 70
0
  0
VERTEX
  8
16
 10
53.1670
 20
10.5000
 30
0.0000
 42
1.0000
  0
VERTEX
  8
16
 10
52.9130
 20
10.5000
 30
0.0000
  0
SEQEND
  8
0
  0
POLYLINE
  8
16
 66
1
 10
0.0000
 20
0.0000
 30
0.0000
 40
0.2540
 41
0.2540
 70
0
  0
VERTEX
  8
16
 10
52.9130
 20
6.0400
 30
0.0000
 42
1.0000
  0
VERTEX
  8
16
 10
53.1670
 20
6.0400
 30
0.0000
  0
SEQEND
  8
0
  0
POLYLINE
  8
16
 66
1
 10
0.0000
 20
0.0000
 30
0.0000
 40
0.5080
 41
0.5080
 70
0
  0
VERTEX
  8
16
 10
56.5800
 20
2.5000
 30
0.0000
  0
VERTEX
  8
16
 10
53.0400
 20
6.0400
 30
0.0000
  0
SEQEND
  8
0
  0
POLYLINE
  8
16
 66
1
 10
0.0000
 20
0.0000
 30
0.0000
 40
0.2540
 41
0.2540
 70
0
  0
VERTEX
  8
16
 10
53.1298
 20
6.1298
 30
0.0000
 42
1.0000
  0
VERTEX
  8
16
 10
52.9502
 20
5.9502
 30
0.0000
  0
SEQEND
  8
0
  0
POLYLINE
  8
16
 66
1
 10
0.0000
 20
0.0000
 30
0.0000
 40
0.2540
 41
0.2540
 70
0
  0
VERTEX
  8
16
 10
56.4902
 20
2.4102
 30
0.0000
 42
1.0000
  0
VERTEX
  8
16
 10
56.6698
 20
2.5898
 30
0.0000
  0
SEQEND
  8
0
  0
POLYLINE
  8
16
 66
1
 10
0.0000
 20
0.0000
 30
0.0000
 40
0.5080
 41
0.5080
 70
0
  0
VERTEX
  8
16
 10
56.5800
 20
2.5000
 30
0.0000
  0
VERTEX
  8
16
 10
60.5000
 20
2.5000
 30
0.0000
  0
SEQEND
  8
0
  0
POLYLINE
  8
16
 66
1
 10
0.0000
 20
0.0000
 30
0.0000
 40
0.2540
 41
0.2540
 70
0
  0
VERTEX
  8
16
 10
60.5000
 20
2.3730
 30
0.0000
 42
1.0000
  0
VERTEX
  8
16
 10
60.5000
 20
2.6270
 30
0.0000
  0
SEQEND
  8
0
  0
POLYLINE
  8
16
 66
1
 10
0.0000
 20
0.0000
 30
0.0000
 40
0.2540
 41
0.2540
 70
0
  0
VERTEX
  8
16
 10
56.5800
 20
2.6270
 30
0.0000
 42
1.0000
  0
VERTEX
  8
16
 10
56.5800
 20
2.3730
 30
0.0000
  0
SEQEND
  8
0
  0
POLYLINE
  8
16
 66
1
 10
0.0000
 20
0.0000
 30
0.0000
 40
0.5080
 41
0.5080
 70
0
  0
VERTEX
  8
16
 10
60.5000
 20
2.5000
 30
0.0000
  0
VERTEX
  8
16
 10
60.5950
 20
2.5950
 30
0.0000
  0
SEQEND
  8
0
  0
POLYLINE
  8
16
 66
1
 10
0.0000
 20
0.0000
 30
0.0000
 40
0.2540
 41
0.2540
 70
0
  0
VERTEX
  8
16
 10
60.6848
 20
2.5052
 30
0.0000
 42
1.0000
  0
VERTEX
  8
16
 10
60.5052
 20
2.6848
 30
0.0000
  0
SEQEND
  8
0
  0
POLYLINE
  8
16
 66
1
 10
0.0000
 20
0.0000
 30
0.0000
 40
0.2540
 41
0.2540
 70
0
  0
VERTEX
  8
16
 10
60.4102
 20
2.5898
 30
0.0000
 42
1.0000
  0
VERTEX
  8
16
 10
60.5898
 20
2.4102
 30
0.0000
  0
SEQEND
  8
0
  0
POLYLINE
  8
16
 66
1
 10
0.0000
 20
0.0000
 30
0.0000
 40
0.5080
 41
0.5080
 70
0
  0
VERTEX
  8
16
 10
18.5400
 20
46.9600
 30
0.0000
  0
VERTEX
  8
16
 10
19.0800
 20
47.5000
 30
0.0000
  0
SEQEND
  8
0
  0
POLYLINE
  8
16
 66
1
 10
0.0000
 20
0.0000
 30
0.0000
 40
0.2540
 41
0.2540
 70
0
  0
VERTEX
  8
16
 10
19.1698
 20
47.4102
 30
0.0000
 42
1.0000
  0
VERTEX
  8
16
 10
18.9902
 20
47.5898
 30
0.0000
  0
SEQEND
  8
0
  0
POLYLINE
  8
16
 66
1
 10
0.0000
 20
0.0000
 30
0.0000
 40
0.2540
 41
0.2540
 70
0
  0
VERTEX
  8
16
 10
18.4502
 20
47.0498
 30
0.0000
 42
1.0000
  0
VERTEX
  8
16
 10
18.6298
 20
46.8702
 30
0.0000
  0
SEQEND
  8
0
  0
POLYLINE
  8
16
 66
1
 10
0.0000
 20
0.0000
 30
0.0000
 40
0.5080
 41
0.5080
 70
0
  0
VERTEX
  8
16
 10
18.5400
 20
43.0000
 30
0.0000
  0
VERTEX
  8
16
 10
18.5400
 20
46.9600
 30
0.0000
  0
SEQEND
  8
0
  0
POLYLINE
  8
16
 66
1
 10
0.0000
 20
0.0000
 30
0.0000
 40
0.2540
 41
0.2540
 70
0
  0
VERTEX
  8
16
 10
18.6670
 20
46.9600
 30
0.0000
 42
1.0000
  0
VERTEX
  8
16
 10
18.4130
 20
46.9600
 30
0.0000
  0
SEQEND
  8
0
  0
POLYLINE
  8
16
 66
1
 10
0.0000
 20
0.0000
 30
0.0000
 40
0.2540
 41
0.2540
 70
0
  0
VERTEX
  8
16
 10
18.4130
 20
43.0000
 30
0.0000
 42
1.0000
  0
VERTEX
  8
16
 10
18.6670
 20
43.0000
 30
0.0000
  0
SEQEND
  8
0
  0
POLYLINE
  8
16
 66
1
 10
0.0000
 20
0.0000
 30
0.0000
 40
0.5080
 41
0.5080
 70
0
  0
VERTEX
  8
16
 10
8.9200
 20
43.0000
 30
0.0000
  0
VERTEX
  8
16
 10
13.4600
 20
43.0000
 30
0.0000
  0
SEQEND
  8
0
  0
POLYLINE
  8
16
 66
1
 10
0.0000
 20
0.0000
 30
0.0000
 40
0.2540
 41
0.2540
 70
0
  0
VERTEX
  8
16
 10
13.4600
 20
42.8730
 30
0.0000
 42
1.0000
  0
VERTEX
  8
16
 10
13.4600
 20
43.1270
 30
0.0000
  0
SEQEND
  8
0
  0
POLYLINE
  8
16
 66
1
 10
0.0000
 20
0.0000
 30
0.0000
 40
0.2540
 41
0.2540
 70
0
  0
VERTEX
  8
16
 10
8.9200
 20
43.1270
 30
0.0000
 42
1.0000
  0
VERTEX
  8
16
 10
8.9200
 20
42.8730
 30
0.0000
  0
SEQEND
  8
0
  0
POLYLINE
  8
16
 66
1
 10
0.0000
 20
0.0000
 30
0.0000
 40
0.5080
 41
0.5080
 70
0
  0
VERTEX
  8
16
 10
8.5000
 20
42.5800
 30
0.0000
  0
VERTEX
  8
16
 10
8.9200
 20
43.0000
 30
0.0000
  0
SEQEND
  8
0
  0
POLYLINE
  8
16
 66
1
 10
0.0000
 20
0.0000
 30
0.0000
 40
0.2540
 41
0.2540
 70
0
  0
VERTEX
  8
16
 10
9.0098
 20
42.9102
 30
0.0000
 42
1.0000
  0
VERTEX
  8
16
 10
8.8302
 20
43.0898
 30
0.0000
  0
SEQEND
  8
0
  0
POLYLINE
  8
16
 66
1
 10
0.0000
 20
0.0000
 30
0.0000
 40
0.2540
 41
0.2540
 70
0
  0
VERTEX
  8
16
 10
8.4102
 20
42.6698
 30
0.0000
 42
1.0000
  0
VERTEX
  8
16
 10
8.5898
 20
42.4902
 30
0.0000
  0
SEQEND
  8
0
  0
POLYLINE
  8
16
 66
1
 10
0.0000
 20
0.0000
 30
0.0000
 40
0.5080
 41
0.5080
 70
0
  0
VERTEX
  8
16
 10
3.5000
 20
42.5800
 30
0.0000
  0
VERTEX
  8
16
 10
8.5000
 20
42.5800
 30
0.0000
  0
SEQEND
  8
0
  0
POLYLINE
  8
16
 66
1
 10
0.0000
 20
0.0000
 30
0.0000
 40
0.2540
 41
0.2540
 70
0
  0
VERTEX
  8
16
 10
8.5000
 20
42.4530
 30
0.0000
 42
1.0000
  0
VERTEX
  8
16
 10
8.5000
 20
42.7070
 30
0.0000
  0
SEQEND
  8
0
  0
POLYLINE
  8
16
 66
1
 10
0.0000
 20
0.0000
 30
0.0000
 40
0.2540
 41
0.2540
 70
0
  0
VERTEX
  8
16
 10
3.5000
 20
42.7070
 30
0.0000
 42
1.0000
  0
VERTEX
  8
16
 10
3.5000
 20
42.4530
 30
0.0000
  0
SEQEND
  8
0
  0
POLYLINE
  8
16
 66
1
 10
0.0000
 20
0.0000
 30
0.0000
 40
0.5080
 41
0.5080
 70
0
  0
VERTEX
  8
16
 10
13.4600
 20
43.0000
 30
0.0000
  0
VERTEX
  8
16
 10
13.4600
 20
39.2700
 30
0.0000
  0
SEQEND
  8
0
  0
POLYLINE
  8
16
 66
1
 10
0.0000
 20
0.0000
 30
0.0000
 40
0.2540
 41
0.2540
 70
0
  0
VERTEX
  8
16
 10
13.3330
 20
39.2700
 30
0.0000
 42
1.0000
  0
VERTEX
  8
16
 10
13.5870
 20
39.2700
 30
0.0000
  0
SEQEND
  8
0
  0
POLYLINE
  8
16
 66
1
 10
0.0000
 20
0.0000
 30
0.0000
 40
0.2540
 41
0.2540
 70
0
  0
VERTEX
  8
16
 10
13.5870
 20
43.0000
 30
0.0000
 42
1.0000
  0
VERTEX
  8
16
 10
13.3330
 20
43.0000
 30
0.0000
  0
SEQEND
  8
0
  0
POLYLINE
  8
16
 66
1
 10
0.0000
 20
0.0000
 30
0.0000
 40
0.5080
 41
0.5080
 70
0
  0
VERTEX
  8
16
 10
13.4600
 20
39.2700
 30
0.0000
  0
VERTEX
  8
16
 10
13.0950
 20
38.9050
 30
0.0000
  0
SEQEND
  8
0
  0
POLYLINE
  8
16
 66
1
 10
0.0000
 20
0.0000
 30
0.0000
 40
0.2540
 41
0.2540
 70
0
  0
VERTEX
  8
16
 10
13.0052
 20
38.9948
 30
0.0000
 42
1.0000
  0
VERTEX
  8
16
 10
13.1848
 20
38.8152
 30
0.0000
  0
SEQEND
  8
0
  0
POLYLINE
  8
16
 66
1
 10
0.0000
 20
0.0000
 30
0.0000
 40
0.2540
 41
0.2540
 70
0
  0
VERTEX
  8
16
 10
13.5498
 20
39.1802
 30
0.0000
 42
1.0000
  0
VERTEX
  8
16
 10
13.3702
 20
39.3598
 30
0.0000
  0
SEQEND
  8
0
  0
POLYLINE
  8
16
 66
1
 10
0.0000
 20
0.0000
 30
0.0000
 40
0.5080
 41
0.5080
 70
0
  0
VERTEX
  8
16
 10
30.7578
 20
37.0950
 30
0.0000
  0
VERTEX
  8
16
 10
30.9050
 20
36.5616
 30
0.0000
  0
SEQEND
  8
0
  0
POLYLINE
  8
16
 66
1
 10
0.0000
 20
0.0000
 30
0.0000
 40
0.2540
 41
0.2540
 70
0
  0
VERTEX
  8
16
 10
30.7826
 20
36.5278
 30
0.0000
 42
1.0000
  0
VERTEX
  8
16
 10
31.0274
 20
36.5954
 30
0.0000
  0
SEQEND
  8
0
  0
POLYLINE
  8
16
 66
1
 10
0.0000
 20
0.0000
 30
0.0000
 40
0.2540
 41
0.2540
 70
0
  0
VERTEX
  8
16
 10
30.8802
 20
37.1288
 30
0.0000
 42
1.0000
  0
VERTEX
  8
16
 10
30.6354
 20
37.0612
 30
0.0000
  0
SEQEND
  8
0
  0
POLYLINE
  8
16
 66
1
 10
0.0000
 20
0.0000
 30
0.0000
 40
0.5080
 41
0.5080
 70
0
  0
VERTEX
  8
16
 10
28.5590
 20
39.2938
 30
0.0000
  0
VERTEX
  8
16
 10
30.7578
 20
37.0950
 30
0.0000
  0
SEQEND
  8
0
  0
POLYLINE
  8
16
 66
1
 10
0.0000
 20
0.0000
 30
0.0000
 40
0.2540
 41
0.2540
 70
0
  0
VERTEX
  8
16
 10
30.6680
 20
37.0052
 30
0.0000
 42
1.0000
  0
VERTEX
  8
16
 10
30.8476
 20
37.1848
 30
0.0000
  0
SEQEND
  8
0
  0
POLYLINE
  8
16
 66
1
 10
0.0000
 20
0.0000
 30
0.0000
 40
0.2540
 41
0.2540
 70
0
  0
VERTEX
  8
16
 10
28.6488
 20
39.3836
 30
0.0000
 42
1.0000
  0
VERTEX
  8
16
 10
28.4692
 20
39.2040
 30
0.0000
  0
SEQEND
  8
0
  0
POLYLINE
  8
16
 66
1
 10
0.0000
 20
0.0000
 30
0.0000
 40
0.5080
 41
0.5080
 70
0
  0
VERTEX
  8
16
 10
25.7142
 20
39.2938
 30
0.0000
  0
VERTEX
  8
16
 10
28.5590
 20
39.2938
 30
0.0000
  0
SEQEND
  8
0
  0
POLYLINE
  8
16
 66
1
 10
0.0000
 20
0.0000
 30
0.0000
 40
0.2540
 41
0.2540
 70
0
  0
VERTEX
  8
16
 10
28.5590
 20
39.1668
 30
0.0000
 42
1.0000
  0
VERTEX
  8
16
 10
28.5590
 20
39.4208
 30
0.0000
  0
SEQEND
  8
0
  0
POLYLINE
  8
16
 66
1
 10
0.0000
 20
0.0000
 30
0.0000
 40
0.2540
 41
0.2540
 70
0
  0
VERTEX
  8
16
 10
25.7142
 20
39.4208
 30
0.0000
 42
1.0000
  0
VERTEX
  8
16
 10
25.7142
 20
39.1668
 30
0.0000
  0
SEQEND
  8
0
  0
POLYLINE
  8
16
 66
1
 10
0.0000
 20
0.0000
 30
0.0000
 40
0.5080
 41
0.5080
 70
0
  0
VERTEX
  8
16
 10
24.8252
 20
38.4048
 30
0.0000
  0
VERTEX
  8
16
 10
25.7142
 20
39.2938
 30
0.0000
  0
SEQEND
  8
0
  0
POLYLINE
  8
16
 66
1
 10
0.0000
 20
0.0000
 30
0.0000
 40
0.2540
 41
0.2540
 70
0
  0
VERTEX
  8
16
 10
25.8040
 20
39.2040
 30
0.0000
 42
1.0000
  0
VERTEX
  8
16
 10
25.6244
 20
39.3836
 30
0.0000
  0
SEQEND
  8
0
  0
POLYLINE
  8
16
 66
1
 10
0.0000
 20
0.0000
 30
0.0000
 40
0.2540
 41
0.2540
 70
0
  0
VERTEX
  8
16
 10
24.7354
 20
38.4946
 30
0.0000
 42
1.0000
  0
VERTEX
  8
16
 10
24.9150
 20
38.3150
 30
0.0000
  0
SEQEND
  8
0
  0
POLYLINE
  8
16
 66
1
 10
0.0000
 20
0.0000
 30
0.0000
 40
0.5080
 41
0.5080
 70
0
  0
VERTEX
  8
16
 10
24.8252
 20
36.6268
 30
0.0000
  0
VERTEX
  8
16
 10
24.8252
 20
38.4048
 30
0.0000
  0
SEQEND
  8
0
  0
POLYLINE
  8
16
 66
1
 10
0.0000
 20
0.0000
 30
0.0000
 40
0.2540
 41
0.2540
 70
0
  0
VERTEX
  8
16
 10
24.9522
 20
38.4048
 30
0.0000
 42
1.0000
  0
VERTEX
  8
16
 10
24.6982
 20
38.4048
 30
0.0000
  0
SEQEND
  8
0
  0
POLYLINE
  8
16
 66
1
 10
0.0000
 20
0.0000
 30
0.0000
 40
0.2540
 41
0.2540
 70
0
  0
VERTEX
  8
16
 10
24.6982
 20
36.6268
 30
0.0000
 42
1.0000
  0
VERTEX
  8
16
 10
24.9522
 20
36.6268
 30
0.0000
  0
SEQEND
  8
0
  0
POLYLINE
  8
16
 66
1
 10
0.0000
 20
0.0000
 30
0.0000
 40
0.5080
 41
0.5080
 70
0
  0
VERTEX
  8
16
 10
23.2250
 20
35.0266
 30
0.0000
  0
VERTEX
  8
16
 10
24.8252
 20
36.6268
 30
0.0000
  0
SEQEND
  8
0
  0
POLYLINE
  8
16
 66
1
 10
0.0000
 20
0.0000
 30
0.0000
 40
0.2540
 41
0.2540
 70
0
  0
VERTEX
  8
16
 10
24.9150
 20
36.5370
 30
0.0000
 42
1.0000
  0
VERTEX
  8
16
 10
24.7354
 20
36.7166
 30
0.0000
  0
SEQEND
  8
0
  0
POLYLINE
  8
16
 66
1
 10
0.0000
 20
0.0000
 30
0.0000
 40
0.2540
 41
0.2540
 70
0
  0
VERTEX
  8
16
 10
23.1352
 20
35.1164
 30
0.0000
 42
1.0000
  0
VERTEX
  8
16
 10
23.3148
 20
34.9368
 30
0.0000
  0
SEQEND
  8
0
  0
POLYLINE
  8
16
 66
1
 10
0.0000
 20
0.0000
 30
0.0000
 40
0.5080
 41
0.5080
 70
0
  0
VERTEX
  8
16
 10
21.2692
 20
35.0266
 30
0.0000
  0
VERTEX
  8
16
 10
23.2250
 20
35.0266
 30
0.0000
  0
SEQEND
  8
0
  0
POLYLINE
  8
16
 66
1
 10
0.0000
 20
0.0000
 30
0.0000
 40
0.2540
 41
0.2540
 70
0
  0
VERTEX
  8
16
 10
23.2250
 20
34.8996
 30
0.0000
 42
1.0000
  0
VERTEX
  8
16
 10
23.2250
 20
35.1536
 30
0.0000
  0
SEQEND
  8
0
  0
POLYLINE
  8
16
 66
1
 10
0.0000
 20
0.0000
 30
0.0000
 40
0.2540
 41
0.2540
 70
0
  0
VERTEX
  8
16
 10
21.2692
 20
35.1536
 30
0.0000
 42
1.0000
  0
VERTEX
  8
16
 10
21.2692
 20
34.8996
 30
0.0000
  0
SEQEND
  8
0
  0
POLYLINE
  8
16
 66
1
 10
0.0000
 20
0.0000
 30
0.0000
 40
0.5080
 41
0.5080
 70
0
  0
VERTEX
  8
16
 10
20.3802
 20
35.9156
 30
0.0000
  0
VERTEX
  8
16
 10
21.2692
 20
35.0266
 30
0.0000
  0
SEQEND
  8
0
  0
POLYLINE
  8
16
 66
1
 10
0.0000
 20
0.0000
 30
0.0000
 40
0.2540
 41
0.2540
 70
0
  0
VERTEX
  8
16
 10
21.1794
 20
34.9368
 30
0.0000
 42
1.0000
  0
VERTEX
  8
16
 10
21.3590
 20
35.1164
 30
0.0000
  0
SEQEND
  8
0
  0
POLYLINE
  8
16
 66
1
 10
0.0000
 20
0.0000
 30
0.0000
 40
0.2540
 41
0.2540
 70
0
  0
VERTEX
  8
16
 10
20.4700
 20
36.0054
 30
0.0000
 42
1.0000
  0
VERTEX
  8
16
 10
20.2904
 20
35.8258
 30
0.0000
  0
SEQEND
  8
0
  0
POLYLINE
  8
16
 66
1
 10
0.0000
 20
0.0000
 30
0.0000
 40
0.5080
 41
0.5080
 70
0
  0
VERTEX
  8
16
 10
13.9156
 20
35.9156
 30
0.0000
  0
VERTEX
  8
16
 10
20.3802
 20
35.9156
 30
0.0000
  0
SEQEND
  8
0
  0
POLYLINE
  8
16
 66
1
 10
0.0000
 20
0.0000
 30
0.0000
 40
0.2540
 41
0.2540
 70
0
  0
VERTEX
  8
16
 10
20.3802
 20
35.7886
 30
0.0000
 42
1.0000
  0
VERTEX
  8
16
 10
20.3802
 20
36.0426
 30
0.0000
  0
SEQEND
  8
0
  0
POLYLINE
  8
16
 66
1
 10
0.0000
 20
0.0000
 30
0.0000
 40
0.2540
 41
0.2540
 70
0
  0
VERTEX
  8
16
 10
13.9156
 20
36.0426
 30
0.0000
 42
1.0000
  0
VERTEX
  8
16
 10
13.9156
 20
35.7886
 30
0.0000
  0
SEQEND
  8
0
  0
POLYLINE
  8
16
 66
1
 10
0.0000
 20
0.0000
 30
0.0000
 40
0.5080
 41
0.5080
 70
0
  0
VERTEX
  8
16
 10
13.0950
 20
35.0950
 30
0.0000
  0
VERTEX
  8
16
 10
13.9156
 20
35.9156
 30
0.0000
  0
SEQEND
  8
0
  0
POLYLINE
  8
16
 66
1
 10
0.0000
 20
0.0000
 30
0.0000
 40
0.2540
 41
0.2540
 70
0
  0
VERTEX
  8
16
 10
14.0054
 20
35.8258
 30
0.0000
 42
1.0000
  0
VERTEX
  8
16
 10
13.8258
 20
36.0054
 30
0.0000
  0
SEQEND
  8
0
  0
POLYLINE
  8
16
 66
1
 10
0.0000
 20
0.0000
 30
0.0000
 40
0.2540
 41
0.2540
 70
0
  0
VERTEX
  8
16
 10
13.0052
 20
35.1848
 30
0.0000
 42
1.0000
  0
VERTEX
  8
16
 10
13.1848
 20
35.0052
 30
0.0000
  0
SEQEND
  8
0
  0
POLYLINE
  8
16
 66
1
 10
0.0000
 20
0.0000
 30
0.0000
 40
0.5080
 41
0.5080
 70
0
  0
VERTEX
  8
16
 10
31.2260
 20
44.4500
 30
0.0000
  0
VERTEX
  8
16
 10
31.9100
 20
44.4500
 30
0.0000
  0
SEQEND
  8
0
  0
POLYLINE
  8
16
 66
1
 10
0.0000
 20
0.0000
 30
0.0000
 40
0.2540
 41
0.2540
 70
0
  0
VERTEX
  8
16
 10
31.9100
 20
44.3230
 30
0.0000
 42
1.0000
  0
VERTEX
  8
16
 10
31.9100
 20
44.5770
 30
0.0000
  0
SEQEND
  8
0
  0
POLYLINE
  8
16
 66
1
 10
0.0000
 20
0.0000
 30
0.0000
 40
0.2540
 41
0.2540
 70
0
  0
VERTEX
  8
16
 10
31.2260
 20
44.5770
 30
0.0000
 42
1.0000
  0
VERTEX
  8
16
 10
31.2260
 20
44.3230
 30
0.0000
  0
SEQEND
  8
0
  0
POLYLINE
  8
16
 66
1
 10
0.0000
 20
0.0000
 30
0.0000
 40
0.5080
 41
0.5080
 70
0
  0
VERTEX
  8
16
 10
28.5590
 20
41.7830
 30
0.0000
  0
VERTEX
  8
16
 10
31.2260
 20
44.4500
 30
0.0000
  0
SEQEND
  8
0
  0
POLYLINE
  8
16
 66
1
 10
0.0000
 20
0.0000
 30
0.0000
 40
0.2540
 41
0.2540
 70
0
  0
VERTEX
  8
16
 10
31.3158
 20
44.3602
 30
0.0000
 42
1.0000
  0
VERTEX
  8
16
 10
31.1362
 20
44.5398
 30
0.0000
  0
SEQEND
  8
0
  0
POLYLINE
  8
16
 66
1
 10
0.0000
 20
0.0000
 30
0.0000
 40
0.2540
 41
0.2540
 70
0
  0
VERTEX
  8
16
 10
28.4692
 20
41.8728
 30
0.0000
 42
1.0000
  0
VERTEX
  8
16
 10
28.6488
 20
41.6932
 30
0.0000
  0
SEQEND
  8
0
  0
POLYLINE
  8
16
 66
1
 10
0.0000
 20
0.0000
 30
0.0000
 40
0.5080
 41
0.5080
 70
0
  0
VERTEX
  8
16
 10
28.5590
 20
39.2938
 30
0.0000
  0
VERTEX
  8
16
 10
28.5590
 20
41.7830
 30
0.0000
  0
SEQEND
  8
0
  0
POLYLINE
  8
16
 66
1
 10
0.0000
 20
0.0000
 30
0.0000
 40
0.2540
 41
0.2540
 70
0
  0
VERTEX
  8
16
 10
28.6860
 20
41.7830
 30
0.0000
 42
1.0000
  0
VERTEX
  8
16
 10
28.4320
 20
41.7830
 30
0.0000
  0
SEQEND
  8
0
  0
POLYLINE
  8
16
 66
1
 10
0.0000
 20
0.0000
 30
0.0000
 40
0.2540
 41
0.2540
 70
0
  0
VERTEX
  8
16
 10
28.4320
 20
39.2938
 30
0.0000
 42
1.0000
  0
VERTEX
  8
16
 10
28.6860
 20
39.2938
 30
0.0000
  0
SEQEND
  8
0
  0
POLYLINE
  8
16
 66
1
 10
0.0000
 20
0.0000
 30
0.0000
 40
0.5080
 41
0.5080
 70
0
  0
VERTEX
  8
16
 10
31.9100
 20
44.4500
 30
0.0000
  0
VERTEX
  8
16
 10
34.9600
 20
47.5000
 30
0.0000
  0
SEQEND
  8
0
  0
POLYLINE
  8
16
 66
1
 10
0.0000
 20
0.0000
 30
0.0000
 40
0.2540
 41
0.2540
 70
0
  0
VERTEX
  8
16
 10
35.0498
 20
47.4102
 30
0.0000
 42
1.0000
  0
VERTEX
  8
16
 10
34.8702
 20
47.5898
 30
0.0000
  0
SEQEND
  8
0
  0
POLYLINE
  8
16
 66
1
 10
0.0000
 20
0.0000
 30
0.0000
 40
0.2540
 41
0.2540
 70
0
  0
VERTEX
  8
16
 10
31.8202
 20
44.5398
 30
0.0000
 42
1.0000
  0
VERTEX
  8
16
 10
31.9998
 20
44.3602
 30
0.0000
  0
SEQEND
  8
0
  0
POLYLINE
  8
16
 66
1
 10
0.0000
 20
0.0000
 30
0.0000
 40
0.5080
 41
0.5080
 70
0
  0
VERTEX
  8
16
 10
34.9600
 20
47.5000
 30
0.0000
  0
VERTEX
  8
16
 10
36.0800
 20
47.5000
 30
0.0000
  0
SEQEND
  8
0
  0
POLYLINE
  8
16
 66
1
 10
0.0000
 20
0.0000
 30
0.0000
 40
0.2540
 41
0.2540
 70
0
  0
VERTEX
  8
16
 10
36.0800
 20
47.3730
 30
0.0000
 42
1.0000
  0
VERTEX
  8
16
 10
36.0800
 20
47.6270
 30
0.0000
  0
SEQEND
  8
0
  0
POLYLINE
  8
16
 66
1
 10
0.0000
 20
0.0000
 30
0.0000
 40
0.2540
 41
0.2540
 70
0
  0
VERTEX
  8
16
 10
34.9600
 20
47.6270
 30
0.0000
 42
1.0000
  0
VERTEX
  8
16
 10
34.9600
 20
47.3730
 30
0.0000
  0
SEQEND
  8
0
  0
POLYLINE
  8
16
 66
1
 10
0.0000
 20
0.0000
 30
0.0000
 40
0.5080
 41
0.5080
 70
0
  0
VERTEX
  8
16
 10
16.9050
 20
38.9050
 30
0.0000
  0
VERTEX
  8
16
 10
21.0150
 20
38.9050
 30
0.0000
  0
SEQEND
  8
0
  0
POLYLINE
  8
16
 66
1
 10
0.0000
 20
0.0000
 30
0.0000
 40
0.2540
 41
0.2540
 70
0
  0
VERTEX
  8
16
 10
21.0150
 20
38.7780
 30
0.0000
 42
1.0000
  0
VERTEX
  8
16
 10
21.0150
 20
39.0320
 30
0.0000
  0
SEQEND
  8
0
  0
POLYLINE
  8
16
 66
1
 10
0.0000
 20
0.0000
 30
0.0000
 40
0.2540
 41
0.2540
 70
0
  0
VERTEX
  8
16
 10
16.9050
 20
39.0320
 30
0.0000
 42
1.0000
  0
VERTEX
  8
16
 10
16.9050
 20
38.7780
 30
0.0000
  0
SEQEND
  8
0
  0
POLYLINE
  8
16
 66
1
 10
0.0000
 20
0.0000
 30
0.0000
 40
0.5080
 41
0.5080
 70
0
  0
VERTEX
  8
16
 10
21.0150
 20
38.9050
 30
0.0000
  0
VERTEX
  8
16
 10
22.5000
 20
37.4200
 30
0.0000
  0
SEQEND
  8
0
  0
POLYLINE
  8
16
 66
1
 10
0.0000
 20
0.0000
 30
0.0000
 40
0.2540
 41
0.2540
 70
0
  0
VERTEX
  8
16
 10
22.4102
 20
37.3302
 30
0.0000
 42
1.0000
  0
VERTEX
  8
16
 10
22.5898
 20
37.5098
 30
0.0000
  0
SEQEND
  8
0
  0
POLYLINE
  8
16
 66
1
 10
0.0000
 20
0.0000
 30
0.0000
 40
0.2540
 41
0.2540
 70
0
  0
VERTEX
  8
16
 10
21.1048
 20
38.9948
 30
0.0000
 42
1.0000
  0
VERTEX
  8
16
 10
20.9252
 20
38.8152
 30
0.0000
  0
SEQEND
  8
0
  0
POLYLINE
  8
16
 66
1
 10
0.0000
 20
0.0000
 30
0.0000
 40
0.5080
 41
0.5080
 70
0
  0
VERTEX
  8
16
 10
16.7700
 20
31.0000
 30
0.0000
  0
VERTEX
  8
16
 10
16.9200
 20
31.0000
 30
0.0000
  0
SEQEND
  8
0
  0
POLYLINE
  8
16
 66
1
 10
0.0000
 20
0.0000
 30
0.0000
 40
0.2540
 41
0.2540
 70
0
  0
VERTEX
  8
16
 10
16.9200
 20
30.8730
 30
0.0000
 42
1.0000
  0
VERTEX
  8
16
 10
16.9200
 20
31.1270
 30
0.0000
  0
SEQEND
  8
0
  0
POLYLINE
  8
16
 66
1
 10
0.0000
 20
0.0000
 30
0.0000
 40
0.2540
 41
0.2540
 70
0
  0
VERTEX
  8
16
 10
16.7700
 20
31.1270
 30
0.0000
 42
1.0000
  0
VERTEX
  8
16
 10
16.7700
 20
30.8730
 30
0.0000
  0
SEQEND
  8
0
  0
POLYLINE
  8
16
 66
1
 10
0.0000
 20
0.0000
 30
0.0000
 40
0.5080
 41
0.5080
 70
0
  0
VERTEX
  8
16
 10
16.9200
 20
31.0000
 30
0.0000
  0
VERTEX
  8
16
 10
19.4200
 20
33.5000
 30
0.0000
  0
SEQEND
  8
0
  0
POLYLINE
  8
16
 66
1
 10
0.0000
 20
0.0000
 30
0.0000
 40
0.2540
 41
0.2540
 70
0
  0
VERTEX
  8
16
 10
19.5098
 20
33.4102
 30
0.0000
 42
1.0000
  0
VERTEX
  8
16
 10
19.3302
 20
33.5898
 30
0.0000
  0
SEQEND
  8
0
  0
POLYLINE
  8
16
 66
1
 10
0.0000
 20
0.0000
 30
0.0000
 40
0.2540
 41
0.2540
 70
0
  0
VERTEX
  8
16
 10
16.8302
 20
31.0898
 30
0.0000
 42
1.0000
  0
VERTEX
  8
16
 10
17.0098
 20
30.9102
 30
0.0000
  0
SEQEND
  8
0
  0
POLYLINE
  8
16
 66
1
 10
0.0000
 20
0.0000
 30
0.0000
 40
0.5080
 41
0.5080
 70
0
  0
VERTEX
  8
16
 10
8.5000
 20
32.4200
 30
0.0000
  0
VERTEX
  8
16
 10
10.4838
 20
32.4200
 30
0.0000
  0
SEQEND
  8
0
  0
POLYLINE
  8
16
 66
1
 10
0.0000
 20
0.0000
 30
0.0000
 40
0.2540
 41
0.2540
 70
0
  0
VERTEX
  8
16
 10
10.4838
 20
32.2930
 30
0.0000
 42
1.0000
  0
VERTEX
  8
16
 10
10.4838
 20
32.5470
 30
0.0000
  0
SEQEND
  8
0
  0
POLYLINE
  8
16
 66
1
 10
0.0000
 20
0.0000
 30
0.0000
 40
0.2540
 41
0.2540
 70
0
  0
VERTEX
  8
16
 10
8.5000
 20
32.5470
 30
0.0000
 42
1.0000
  0
VERTEX
  8
16
 10
8.5000
 20
32.2930
 30
0.0000
  0
SEQEND
  8
0
  0
POLYLINE
  8
16
 66
1
 10
0.0000
 20
0.0000
 30
0.0000
 40
0.5080
 41
0.5080
 70
0
  0
VERTEX
  8
16
 10
10.4838
 20
32.4200
 30
0.0000
  0
VERTEX
  8
16
 10
10.9568
 20
32.8930
 30
0.0000
  0
SEQEND
  8
0
  0
POLYLINE
  8
16
 66
1
 10
0.0000
 20
0.0000
 30
0.0000
 40
0.2540
 41
0.2540
 70
0
  0
VERTEX
  8
16
 10
11.0466
 20
32.8032
 30
0.0000
 42
1.0000
  0
VERTEX
  8
16
 10
10.8670
 20
32.9828
 30
0.0000
  0
SEQEND
  8
0
  0
POLYLINE
  8
16
 66
1
 10
0.0000
 20
0.0000
 30
0.0000
 40
0.2540
 41
0.2540
 70
0
  0
VERTEX
  8
16
 10
10.3940
 20
32.5098
 30
0.0000
 42
1.0000
  0
VERTEX
  8
16
 10
10.5736
 20
32.3302
 30
0.0000
  0
SEQEND
  8
0
  0
POLYLINE
  8
16
 66
1
 10
0.0000
 20
0.0000
 30
0.0000
 40
0.5080
 41
0.5080
 70
0
  0
VERTEX
  8
16
 10
10.9568
 20
32.8930
 30
0.0000
  0
VERTEX
  8
16
 10
14.8770
 20
32.8930
 30
0.0000
  0
SEQEND
  8
0
  0
POLYLINE
  8
16
 66
1
 10
0.0000
 20
0.0000
 30
0.0000
 40
0.2540
 41
0.2540
 70
0
  0
VERTEX
  8
16
 10
14.8770
 20
32.7660
 30
0.0000
 42
1.0000
  0
VERTEX
  8
16
 10
14.8770
 20
33.0200
 30
0.0000
  0
SEQEND
  8
0
  0
POLYLINE
  8
16
 66
1
 10
0.0000
 20
0.0000
 30
0.0000
 40
0.2540
 41
0.2540
 70
0
  0
VERTEX
  8
16
 10
10.9568
 20
33.0200
 30
0.0000
 42
1.0000
  0
VERTEX
  8
16
 10
10.9568
 20
32.7660
 30
0.0000
  0
SEQEND
  8
0
  0
POLYLINE
  8
16
 66
1
 10
0.0000
 20
0.0000
 30
0.0000
 40
0.5080
 41
0.5080
 70
0
  0
VERTEX
  8
16
 10
14.8770
 20
32.8930
 30
0.0000
  0
VERTEX
  8
16
 10
16.7700
 20
31.0000
 30
0.0000
  0
SEQEND
  8
0
  0
POLYLINE
  8
16
 66
1
 10
0.0000
 20
0.0000
 30
0.0000
 40
0.2540
 41
0.2540
 70
0
  0
VERTEX
  8
16
 10
16.6802
 20
30.9102
 30
0.0000
 42
1.0000
  0
VERTEX
  8
16
 10
16.8598
 20
31.0898
 30
0.0000
  0
SEQEND
  8
0
  0
POLYLINE
  8
16
 66
1
 10
0.0000
 20
0.0000
 30
0.0000
 40
0.2540
 41
0.2540
 70
0
  0
VERTEX
  8
16
 10
14.9668
 20
32.9828
 30
0.0000
 42
1.0000
  0
VERTEX
  8
16
 10
14.7872
 20
32.8032
 30
0.0000
  0
SEQEND
  8
0
  0
POLYLINE
  8
16
 66
1
 10
0.0000
 20
0.0000
 30
0.0000
 40
0.5080
 41
0.5080
 70
0
  0
VERTEX
  8
16
 10
19.4200
 20
33.5000
 30
0.0000
  0
VERTEX
  8
16
 10
20.9200
 20
32.0000
 30
0.0000
  0
SEQEND
  8
0
  0
POLYLINE
  8
16
 66
1
 10
0.0000
 20
0.0000
 30
0.0000
 40
0.2540
 41
0.2540
 70
0
  0
VERTEX
  8
16
 10
20.8302
 20
31.9102
 30
0.0000
 42
1.0000
  0
VERTEX
  8
16
 10
21.0098
 20
32.0898
 30
0.0000
  0
SEQEND
  8
0
  0
POLYLINE
  8
16
 66
1
 10
0.0000
 20
0.0000
 30
0.0000
 40
0.2540
 41
0.2540
 70
0
  0
VERTEX
  8
16
 10
19.5098
 20
33.5898
 30
0.0000
 42
1.0000
  0
VERTEX
  8
16
 10
19.3302
 20
33.4102
 30
0.0000
  0
SEQEND
  8
0
  0
POLYLINE
  8
16
 66
1
 10
0.0000
 20
0.0000
 30
0.0000
 40
0.5080
 41
0.5080
 70
0
  0
VERTEX
  8
16
 10
20.9200
 20
32.0000
 30
0.0000
  0
VERTEX
  8
16
 10
20.9200
 20
30.0000
 30
0.0000
  0
SEQEND
  8
0
  0
POLYLINE
  8
16
 66
1
 10
0.0000
 20
0.0000
 30
0.0000
 40
0.2540
 41
0.2540
 70
0
  0
VERTEX
  8
16
 10
20.7930
 20
30.0000
 30
0.0000
 42
1.0000
  0
VERTEX
  8
16
 10
21.0470
 20
30.0000
 30
0.0000
  0
SEQEND
  8
0
  0
POLYLINE
  8
16
 66
1
 10
0.0000
 20
0.0000
 30
0.0000
 40
0.2540
 41
0.2540
 70
0
  0
VERTEX
  8
16
 10
21.0470
 20
32.0000
 30
0.0000
 42
1.0000
  0
VERTEX
  8
16
 10
20.7930
 20
32.0000
 30
0.0000
  0
SEQEND
  8
0
  0
POLYLINE
  8
16
 66
1
 10
0.0000
 20
0.0000
 30
0.0000
 40
0.5080
 41
0.5080
 70
0
  0
VERTEX
  8
16
 10
27.0950
 20
35.9850
 30
0.0000
  0
VERTEX
  8
16
 10
27.0950
 20
36.5616
 30
0.0000
  0
SEQEND
  8
0
  0
POLYLINE
  8
16
 66
1
 10
0.0000
 20
0.0000
 30
0.0000
 40
0.2540
 41
0.2540
 70
0
  0
VERTEX
  8
16
 10
27.2220
 20
36.5616
 30
0.0000
 42
1.0000
  0
VERTEX
  8
16
 10
26.9680
 20
36.5616
 30
0.0000
  0
SEQEND
  8
0
  0
POLYLINE
  8
16
 66
1
 10
0.0000
 20
0.0000
 30
0.0000
 40
0.2540
 41
0.2540
 70
0
  0
VERTEX
  8
16
 10
26.9680
 20
35.9850
 30
0.0000
 42
1.0000
  0
VERTEX
  8
16
 10
27.2220
 20
35.9850
 30
0.0000
  0
SEQEND
  8
0
  0
POLYLINE
  8
16
 66
1
 10
0.0000
 20
0.0000
 30
0.0000
 40
0.5080
 41
0.5080
 70
0
  0
VERTEX
  8
16
 10
29.5800
 20
33.5000
 30
0.0000
  0
VERTEX
  8
16
 10
27.0950
 20
35.9850
 30
0.0000
  0
SEQEND
  8
0
  0
POLYLINE
  8
16
 66
1
 10
0.0000
 20
0.0000
 30
0.0000
 40
0.2540
 41
0.2540
 70
0
  0
VERTEX
  8
16
 10
27.1848
 20
36.0748
 30
0.0000
 42
1.0000
  0
VERTEX
  8
16
 10
27.0052
 20
35.8952
 30
0.0000
  0
SEQEND
  8
0
  0
POLYLINE
  8
16
 66
1
 10
0.0000
 20
0.0000
 30
0.0000
 40
0.2540
 41
0.2540
 70
0
  0
VERTEX
  8
16
 10
29.4902
 20
33.4102
 30
0.0000
 42
1.0000
  0
VERTEX
  8
16
 10
29.6698
 20
33.5898
 30
0.0000
  0
SEQEND
  8
0
  0
POLYLINE
  8
16
 66
1
 10
0.0000
 20
0.0000
 30
0.0000
 40
0.5080
 41
0.5080
 70
0
  0
VERTEX
  8
16
 10
40.2700
 20
42.2300
 30
0.0000
  0
VERTEX
  8
16
 10
40.5000
 20
42.4600
 30
0.0000
  0
SEQEND
  8
0
  0
POLYLINE
  8
16
 66
1
 10
0.0000
 20
0.0000
 30
0.0000
 40
0.2540
 41
0.2540
 70
0
  0
VERTEX
  8
16
 10
40.5898
 20
42.3702
 30
0.0000
 42
1.0000
  0
VERTEX
  8
16
 10
40.4102
 20
42.5498
 30
0.0000
  0
SEQEND
  8
0
  0
POLYLINE
  8
16
 66
1
 10
0.0000
 20
0.0000
 30
0.0000
 40
0.2540
 41
0.2540
 70
0
  0
VERTEX
  8
16
 10
40.1802
 20
42.3198
 30
0.0000
 42
1.0000
  0
VERTEX
  8
16
 10
40.3598
 20
42.1402
 30
0.0000
  0
SEQEND
  8
0
  0
POLYLINE
  8
16
 66
1
 10
0.0000
 20
0.0000
 30
0.0000
 40
0.5080
 41
0.5080
 70
0
  0
VERTEX
  8
16
 10
40.2700
 20
39.5900
 30
0.0000
  0
VERTEX
  8
16
 10
40.2700
 20
42.2300
 30
0.0000
  0
SEQEND
  8
0
  0
POLYLINE
  8
16
 66
1
 10
0.0000
 20
0.0000
 30
0.0000
 40
0.2540
 41
0.2540
 70
0
  0
VERTEX
  8
16
 10
40.3970
 20
42.2300
 30
0.0000
 42
1.0000
  0
VERTEX
  8
16
 10
40.1430
 20
42.2300
 30
0.0000
  0
SEQEND
  8
0
  0
POLYLINE
  8
16
 66
1
 10
0.0000
 20
0.0000
 30
0.0000
 40
0.2540
 41
0.2540
 70
0
  0
VERTEX
  8
16
 10
40.1430
 20
39.5900
 30
0.0000
 42
1.0000
  0
VERTEX
  8
16
 10
40.3970
 20
39.5900
 30
0.0000
  0
SEQEND
  8
0
  0
POLYLINE
  8
16
 66
1
 10
0.0000
 20
0.0000
 30
0.0000
 40
0.5080
 41
0.5080
 70
0
  0
VERTEX
  8
16
 10
29.5800
 20
33.5000
 30
0.0000
  0
VERTEX
  8
16
 10
30.5824
 20
32.4976
 30
0.0000
  0
SEQEND
  8
0
  0
POLYLINE
  8
16
 66
1
 10
0.0000
 20
0.0000
 30
0.0000
 40
0.2540
 41
0.2540
 70
0
  0
VERTEX
  8
16
 10
30.4926
 20
32.4078
 30
0.0000
 42
1.0000
  0
VERTEX
  8
16
 10
30.6722
 20
32.5874
 30
0.0000
  0
SEQEND
  8
0
  0
POLYLINE
  8
16
 66
1
 10
0.0000
 20
0.0000
 30
0.0000
 40
0.2540
 41
0.2540
 70
0
  0
VERTEX
  8
16
 10
29.6698
 20
33.5898
 30
0.0000
 42
1.0000
  0
VERTEX
  8
16
 10
29.4902
 20
33.4102
 30
0.0000
  0
SEQEND
  8
0
  0
POLYLINE
  8
16
 66
1
 10
0.0000
 20
0.0000
 30
0.0000
 40
0.5080
 41
0.5080
 70
0
  0
VERTEX
  8
16
 10
30.5824
 20
32.4976
 30
0.0000
  0
VERTEX
  8
16
 10
35.1110
 20
32.4976
 30
0.0000
  0
SEQEND
  8
0
  0
POLYLINE
  8
16
 66
1
 10
0.0000
 20
0.0000
 30
0.0000
 40
0.2540
 41
0.2540
 70
0
  0
VERTEX
  8
16
 10
35.1110
 20
32.3706
 30
0.0000
 42
1.0000
  0
VERTEX
  8
16
 10
35.1110
 20
32.6246
 30
0.0000
  0
SEQEND
  8
0
  0
POLYLINE
  8
16
 66
1
 10
0.0000
 20
0.0000
 30
0.0000
 40
0.2540
 41
0.2540
 70
0
  0
VERTEX
  8
16
 10
30.5824
 20
32.6246
 30
0.0000
 42
1.0000
  0
VERTEX
  8
16
 10
30.5824
 20
32.3706
 30
0.0000
  0
SEQEND
  8
0
  0
POLYLINE
  8
16
 66
1
 10
0.0000
 20
0.0000
 30
0.0000
 40
0.5080
 41
0.5080
 70
0
  0
VERTEX
  8
16
 10
35.1110
 20
34.4310
 30
0.0000
  0
VERTEX
  8
16
 10
40.2700
 20
39.5900
 30
0.0000
  0
SEQEND
  8
0
  0
POLYLINE
  8
16
 66
1
 10
0.0000
 20
0.0000
 30
0.0000
 40
0.2540
 41
0.2540
 70
0
  0
VERTEX
  8
16
 10
40.3598
 20
39.5002
 30
0.0000
 42
1.0000
  0
VERTEX
  8
16
 10
40.1802
 20
39.6798
 30
0.0000
  0
SEQEND
  8
0
  0
POLYLINE
  8
16
 66
1
 10
0.0000
 20
0.0000
 30
0.0000
 40
0.2540
 41
0.2540
 70
0
  0
VERTEX
  8
16
 10
35.0212
 20
34.5208
 30
0.0000
 42
1.0000
  0
VERTEX
  8
16
 10
35.2008
 20
34.3412
 30
0.0000
  0
SEQEND
  8
0
  0
POLYLINE
  8
16
 66
1
 10
0.0000
 20
0.0000
 30
0.0000
 40
0.5080
 41
0.5080
 70
0
  0
VERTEX
  8
16
 10
35.1110
 20
32.4976
 30
0.0000
  0
VERTEX
  8
16
 10
35.1110
 20
34.4310
 30
0.0000
  0
SEQEND
  8
0
  0
POLYLINE
  8
16
 66
1
 10
0.0000
 20
0.0000
 30
0.0000
 40
0.2540
 41
0.2540
 70
0
  0
VERTEX
  8
16
 10
35.2380
 20
34.4310
 30
0.0000
 42
1.0000
  0
VERTEX
  8
16
 10
34.9840
 20
34.4310
 30
0.0000
  0
SEQEND
  8
0
  0
POLYLINE
  8
16
 66
1
 10
0.0000
 20
0.0000
 30
0.0000
 40
0.2540
 41
0.2540
 70
0
  0
VERTEX
  8
16
 10
34.9840
 20
32.4976
 30
0.0000
 42
1.0000
  0
VERTEX
  8
16
 10
35.2380
 20
32.4976
 30
0.0000
  0
SEQEND
  8
0
  0
POLYLINE
  8
16
 66
1
 10
0.0000
 20
0.0000
 30
0.0000
 40
0.5080
 41
0.5080
 70
0
  0
VERTEX
  8
16
 10
35.7600
 20
30.0000
 30
0.0000
  0
VERTEX
  8
16
 10
40.2700
 20
34.5100
 30
0.0000
  0
SEQEND
  8
0
  0
POLYLINE
  8
16
 66
1
 10
0.0000
 20
0.0000
 30
0.0000
 40
0.2540
 41
0.2540
 70
0
  0
VERTEX
  8
16
 10
40.3598
 20
34.4202
 30
0.0000
 42
1.0000
  0
VERTEX
  8
16
 10
40.1802
 20
34.5998
 30
0.0000
  0
SEQEND
  8
0
  0
POLYLINE
  8
16
 66
1
 10
0.0000
 20
0.0000
 30
0.0000
 40
0.2540
 41
0.2540
 70
0
  0
VERTEX
  8
16
 10
35.6702
 20
30.0898
 30
0.0000
 42
1.0000
  0
VERTEX
  8
16
 10
35.8498
 20
29.9102
 30
0.0000
  0
SEQEND
  8
0
  0
POLYLINE
  8
16
 66
1
 10
0.0000
 20
0.0000
 30
0.0000
 40
0.5080
 41
0.5080
 70
0
  0
VERTEX
  8
16
 10
31.0800
 20
30.0000
 30
0.0000
  0
VERTEX
  8
16
 10
35.7600
 20
30.0000
 30
0.0000
  0
SEQEND
  8
0
  0
POLYLINE
  8
16
 66
1
 10
0.0000
 20
0.0000
 30
0.0000
 40
0.2540
 41
0.2540
 70
0
  0
VERTEX
  8
16
 10
35.7600
 20
29.8730
 30
0.0000
 42
1.0000
  0
VERTEX
  8
16
 10
35.7600
 20
30.1270
 30
0.0000
  0
SEQEND
  8
0
  0
POLYLINE
  8
16
 66
1
 10
0.0000
 20
0.0000
 30
0.0000
 40
0.2540
 41
0.2540
 70
0
  0
VERTEX
  8
16
 10
31.0800
 20
30.1270
 30
0.0000
 42
1.0000
  0
VERTEX
  8
16
 10
31.0800
 20
29.8730
 30
0.0000
  0
SEQEND
  8
0
  0
POLYLINE
  8
16
 66
1
 10
0.0000
 20
0.0000
 30
0.0000
 40
0.5080
 41
0.5080
 70
0
  0
VERTEX
  8
16
 10
40.5000
 20
47.5400
 30
0.0000
  0
VERTEX
  8
16
 10
41.0400
 20
47.0000
 30
0.0000
  0
SEQEND
  8
0
  0
POLYLINE
  8
16
 66
1
 10
0.0000
 20
0.0000
 30
0.0000
 40
0.2540
 41
0.2540
 70
0
  0
VERTEX
  8
16
 10
40.9502
 20
46.9102
 30
0.0000
 42
1.0000
  0
VERTEX
  8
16
 10
41.1298
 20
47.0898
 30
0.0000
  0
SEQEND
  8
0
  0
POLYLINE
  8
16
 66
1
 10
0.0000
 20
0.0000
 30
0.0000
 40
0.2540
 41
0.2540
 70
0
  0
VERTEX
  8
16
 10
40.5898
 20
47.6298
 30
0.0000
 42
1.0000
  0
VERTEX
  8
16
 10
40.4102
 20
47.4502
 30
0.0000
  0
SEQEND
  8
0
  0
POLYLINE
  8
16
 66
1
 10
0.0000
 20
0.0000
 30
0.0000
 40
0.5080
 41
0.5080
 70
0
  0
VERTEX
  8
16
 10
41.0400
 20
47.0000
 30
0.0000
  0
VERTEX
  8
16
 10
47.0000
 20
47.0000
 30
0.0000
  0
SEQEND
  8
0
  0
POLYLINE
  8
16
 66
1
 10
0.0000
 20
0.0000
 30
0.0000
 40
0.2540
 41
0.2540
 70
0
  0
VERTEX
  8
16
 10
47.0000
 20
46.8730
 30
0.0000
 42
1.0000
  0
VERTEX
  8
16
 10
47.0000
 20
47.1270
 30
0.0000
  0
SEQEND
  8
0
  0
POLYLINE
  8
16
 66
1
 10
0.0000
 20
0.0000
 30
0.0000
 40
0.2540
 41
0.2540
 70
0
  0
VERTEX
  8
16
 10
41.0400
 20
47.1270
 30
0.0000
 42
1.0000
  0
VERTEX
  8
16
 10
41.0400
 20
46.8730
 30
0.0000
  0
SEQEND
  8
0
  0
POLYLINE
  8
16
 66
1
 10
0.0000
 20
0.0000
 30
0.0000
 40
0.5080
 41
0.5080
 70
0
  0
VERTEX
  8
16
 10
52.0000
 20
45.4214
 30
0.0000
  0
VERTEX
  8
16
 10
52.0000
 20
47.0000
 30
0.0000
  0
SEQEND
  8
0
  0
POLYLINE
  8
16
 66
1
 10
0.0000
 20
0.0000
 30
0.0000
 40
0.2540
 41
0.2540
 70
0
  0
VERTEX
  8
16
 10
52.1270
 20
47.0000
 30
0.0000
 42
1.0000
  0
VERTEX
  8
16
 10
51.8730
 20
47.0000
 30
0.0000
  0
SEQEND
  8
0
  0
POLYLINE
  8
16
 66
1
 10
0.0000
 20
0.0000
 30
0.0000
 40
0.2540
 41
0.2540
 70
0
  0
VERTEX
  8
16
 10
51.8730
 20
45.4214
 30
0.0000
 42
1.0000
  0
VERTEX
  8
16
 10
52.1270
 20
45.4214
 30
0.0000
  0
SEQEND
  8
0
  0
POLYLINE
  8
16
 66
1
 10
0.0000
 20
0.0000
 30
0.0000
 40
0.5080
 41
0.5080
 70
0
  0
VERTEX
  8
16
 10
48.7172
 20
42.1386
 30
0.0000
  0
VERTEX
  8
16
 10
52.0000
 20
45.4214
 30
0.0000
  0
SEQEND
  8
0
  0
POLYLINE
  8
16
 66
1
 10
0.0000
 20
0.0000
 30
0.0000
 40
0.2540
 41
0.2540
 70
0
  0
VERTEX
  8
16
 10
52.0898
 20
45.3316
 30
0.0000
 42
1.0000
  0
VERTEX
  8
16
 10
51.9102
 20
45.5112
 30
0.0000
  0
SEQEND
  8
0
  0
POLYLINE
  8
16
 66
1
 10
0.0000
 20
0.0000
 30
0.0000
 40
0.2540
 41
0.2540
 70
0
  0
VERTEX
  8
16
 10
48.6274
 20
42.2284
 30
0.0000
 42
1.0000
  0
VERTEX
  8
16
 10
48.8070
 20
42.0488
 30
0.0000
  0
SEQEND
  8
0
  0
POLYLINE
  8
16
 66
1
 10
0.0000
 20
0.0000
 30
0.0000
 40
0.5080
 41
0.5080
 70
0
  0
VERTEX
  8
16
 10
47.5986
 20
42.1386
 30
0.0000
  0
VERTEX
  8
16
 10
48.7172
 20
42.1386
 30
0.0000
  0
SEQEND
  8
0
  0
POLYLINE
  8
16
 66
1
 10
0.0000
 20
0.0000
 30
0.0000
 40
0.2540
 41
0.2540
 70
0
  0
VERTEX
  8
16
 10
48.7172
 20
42.0116
 30
0.0000
 42
1.0000
  0
VERTEX
  8
16
 10
48.7172
 20
42.2656
 30
0.0000
  0
SEQEND
  8
0
  0
POLYLINE
  8
16
 66
1
 10
0.0000
 20
0.0000
 30
0.0000
 40
0.2540
 41
0.2540
 70
0
  0
VERTEX
  8
16
 10
47.5986
 20
42.2656
 30
0.0000
 42
1.0000
  0
VERTEX
  8
16
 10
47.5986
 20
42.0116
 30
0.0000
  0
SEQEND
  8
0
  0
POLYLINE
  8
16
 66
1
 10
0.0000
 20
0.0000
 30
0.0000
 40
0.5080
 41
0.5080
 70
0
  0
VERTEX
  8
16
 10
46.0000
 20
40.5400
 30
0.0000
  0
VERTEX
  8
16
 10
47.5986
 20
42.1386
 30
0.0000
  0
SEQEND
  8
0
  0
POLYLINE
  8
16
 66
1
 10
0.0000
 20
0.0000
 30
0.0000
 40
0.2540
 41
0.2540
 70
0
  0
VERTEX
  8
16
 10
47.6884
 20
42.0488
 30
0.0000
 42
1.0000
  0
VERTEX
  8
16
 10
47.5088
 20
42.2284
 30
0.0000
  0
SEQEND
  8
0
  0
POLYLINE
  8
16
 66
1
 10
0.0000
 20
0.0000
 30
0.0000
 40
0.2540
 41
0.2540
 70
0
  0
VERTEX
  8
16
 10
45.9102
 20
40.6298
 30
0.0000
 42
1.0000
  0
VERTEX
  8
16
 10
46.0898
 20
40.4502
 30
0.0000
  0
SEQEND
  8
0
  0
POLYLINE
  8
16
 66
1
 10
0.0000
 20
0.0000
 30
0.0000
 40
0.5080
 41
0.5080
 70
0
  0
VERTEX
  8
16
 10
49.9200
 20
39.3800
 30
0.0000
  0
VERTEX
  8
16
 10
49.9200
 20
40.5000
 30
0.0000
  0
SEQEND
  8
0
  0
POLYLINE
  8
16
 66
1
 10
0.0000
 20
0.0000
 30
0.0000
 40
0.2540
 41
0.2540
 70
0
  0
VERTEX
  8
16
 10
50.0470
 20
40.5000
 30
0.0000
 42
1.0000
  0
VERTEX
  8
16
 10
49.7930
 20
40.5000
 30
0.0000
  0
SEQEND
  8
0
  0
POLYLINE
  8
16
 66
1
 10
0.0000
 20
0.0000
 30
0.0000
 40
0.2540
 41
0.2540
 70
0
  0
VERTEX
  8
16
 10
49.7930
 20
39.3800
 30
0.0000
 42
1.0000
  0
VERTEX
  8
16
 10
50.0470
 20
39.3800
 30
0.0000
  0
SEQEND
  8
0
  0
POLYLINE
  8
16
 66
1
 10
0.0000
 20
0.0000
 30
0.0000
 40
0.5080
 41
0.5080
 70
0
  0
VERTEX
  8
16
 10
46.0000
 20
35.4600
 30
0.0000
  0
VERTEX
  8
16
 10
49.9200
 20
39.3800
 30
0.0000
  0
SEQEND
  8
0
  0
POLYLINE
  8
16
 66
1
 10
0.0000
 20
0.0000
 30
0.0000
 40
0.2540
 41
0.2540
 70
0
  0
VERTEX
  8
16
 10
50.0098
 20
39.2902
 30
0.0000
 42
1.0000
  0
VERTEX
  8
16
 10
49.8302
 20
39.4698
 30
0.0000
  0
SEQEND
  8
0
  0
POLYLINE
  8
16
 66
1
 10
0.0000
 20
0.0000
 30
0.0000
 40
0.2540
 41
0.2540
 70
0
  0
VERTEX
  8
16
 10
45.9102
 20
35.5498
 30
0.0000
 42
1.0000
  0
VERTEX
  8
16
 10
46.0898
 20
35.3702
 30
0.0000
  0
SEQEND
  8
0
  0
POLYLINE
  8
16
 66
1
 10
0.0000
 20
0.0000
 30
0.0000
 40
0.5080
 41
0.5080
 70
0
  0
VERTEX
  8
16
 10
49.9200
 20
39.3800
 30
0.0000
  0
VERTEX
  8
16
 10
52.2200
 20
37.0800
 30
0.0000
  0
SEQEND
  8
0
  0
POLYLINE
  8
16
 66
1
 10
0.0000
 20
0.0000
 30
0.0000
 40
0.2540
 41
0.2540
 70
0
  0
VERTEX
  8
16
 10
52.1302
 20
36.9902
 30
0.0000
 42
1.0000
  0
VERTEX
  8
16
 10
52.3098
 20
37.1698
 30
0.0000
  0
SEQEND
  8
0
  0
POLYLINE
  8
16
 66
1
 10
0.0000
 20
0.0000
 30
0.0000
 40
0.2540
 41
0.2540
 70
0
  0
VERTEX
  8
16
 10
50.0098
 20
39.4698
 30
0.0000
 42
1.0000
  0
VERTEX
  8
16
 10
49.8302
 20
39.2902
 30
0.0000
  0
SEQEND
  8
0
  0
POLYLINE
  8
16
 66
1
 10
0.0000
 20
0.0000
 30
0.0000
 40
0.5080
 41
0.5080
 70
0
  0
VERTEX
  8
16
 10
52.2200
 20
37.0800
 30
0.0000
  0
VERTEX
  8
16
 10
55.0000
 20
37.0800
 30
0.0000
  0
SEQEND
  8
0
  0
POLYLINE
  8
16
 66
1
 10
0.0000
 20
0.0000
 30
0.0000
 40
0.2540
 41
0.2540
 70
0
  0
VERTEX
  8
16
 10
55.0000
 20
36.9530
 30
0.0000
 42
1.0000
  0
VERTEX
  8
16
 10
55.0000
 20
37.2070
 30
0.0000
  0
SEQEND
  8
0
  0
POLYLINE
  8
16
 66
1
 10
0.0000
 20
0.0000
 30
0.0000
 40
0.2540
 41
0.2540
 70
0
  0
VERTEX
  8
16
 10
52.2200
 20
37.2070
 30
0.0000
 42
1.0000
  0
VERTEX
  8
16
 10
52.2200
 20
36.9530
 30
0.0000
  0
SEQEND
  8
0
  0
POLYLINE
  8
16
 66
1
 10
0.0000
 20
0.0000
 30
0.0000
 40
0.5080
 41
0.5080
 70
0
  0
VERTEX
  8
16
 10
55.0000
 20
37.0800
 30
0.0000
  0
VERTEX
  8
16
 10
55.0000
 20
36.0000
 30
0.0000
  0
SEQEND
  8
0
  0
POLYLINE
  8
16
 66
1
 10
0.0000
 20
0.0000
 30
0.0000
 40
0.2540
 41
0.2540
 70
0
  0
VERTEX
  8
16
 10
54.8730
 20
36.0000
 30
0.0000
 42
1.0000
  0
VERTEX
  8
16
 10
55.1270
 20
36.0000
 30
0.0000
  0
SEQEND
  8
0
  0
POLYLINE
  8
16
 66
1
 10
0.0000
 20
0.0000
 30
0.0000
 40
0.2540
 41
0.2540
 70
0
  0
VERTEX
  8
16
 10
55.1270
 20
37.0800
 30
0.0000
 42
1.0000
  0
VERTEX
  8
16
 10
54.8730
 20
37.0800
 30
0.0000
  0
SEQEND
  8
0
  0
POLYLINE
  8
16
 66
1
 10
0.0000
 20
0.0000
 30
0.0000
 40
0.5080
 41
0.5080
 70
0
  0
VERTEX
  8
16
 10
55.0000
 20
36.0000
 30
0.0000
  0
VERTEX
  8
16
 10
51.9050
 20
32.9050
 30
0.0000
  0
SEQEND
  8
0
  0
POLYLINE
  8
16
 66
1
 10
0.0000
 20
0.0000
 30
0.0000
 40
0.2540
 41
0.2540
 70
0
  0
VERTEX
  8
16
 10
51.8152
 20
32.9948
 30
0.0000
 42
1.0000
  0
VERTEX
  8
16
 10
51.9948
 20
32.8152
 30
0.0000
  0
SEQEND
  8
0
  0
POLYLINE
  8
16
 66
1
 10
0.0000
 20
0.0000
 30
0.0000
 40
0.2540
 41
0.2540
 70
0
  0
VERTEX
  8
16
 10
55.0898
 20
35.9102
 30
0.0000
 42
1.0000
  0
VERTEX
  8
16
 10
54.9102
 20
36.0898
 30
0.0000
  0
SEQEND
  8
0
  0
POLYLINE
  8
16
 66
1
 10
0.0000
 20
0.0000
 30
0.0000
 40
0.5080
 41
0.5080
 70
0
  0
VERTEX
  8
16
 10
63.0000
 20
43.5400
 30
0.0000
  0
VERTEX
  8
16
 10
67.0000
 20
47.5400
 30
0.0000
  0
SEQEND
  8
0
  0
POLYLINE
  8
16
 66
1
 10
0.0000
 20
0.0000
 30
0.0000
 40
0.2540
 41
0.2540
 70
0
  0
VERTEX
  8
16
 10
67.0898
 20
47.4502
 30
0.0000
 42
1.0000
  0
VERTEX
  8
16
 10
66.9102
 20
47.6298
 30
0.0000
  0
SEQEND
  8
0
  0
POLYLINE
  8
16
 66
1
 10
0.0000
 20
0.0000
 30
0.0000
 40
0.2540
 41
0.2540
 70
0
  0
VERTEX
  8
16
 10
62.9102
 20
43.6298
 30
0.0000
 42
1.0000
  0
VERTEX
  8
16
 10
63.0898
 20
43.4502
 30
0.0000
  0
SEQEND
  8
0
  0
POLYLINE
  8
16
 66
1
 10
0.0000
 20
0.0000
 30
0.0000
 40
0.5080
 41
0.5080
 70
0
  0
VERTEX
  8
16
 10
63.0000
 20
37.4200
 30
0.0000
  0
VERTEX
  8
16
 10
63.0000
 20
43.5400
 30
0.0000
  0
SEQEND
  8
0
  0
POLYLINE
  8
16
 66
1
 10
0.0000
 20
0.0000
 30
0.0000
 40
0.2540
 41
0.2540
 70
0
  0
VERTEX
  8
16
 10
63.1270
 20
43.5400
 30
0.0000
 42
1.0000
  0
VERTEX
  8
16
 10
62.8730
 20
43.5400
 30
0.0000
  0
SEQEND
  8
0
  0
POLYLINE
  8
16
 66
1
 10
0.0000
 20
0.0000
 30
0.0000
 40
0.2540
 41
0.2540
 70
0
  0
VERTEX
  8
16
 10
62.8730
 20
37.4200
 30
0.0000
 42
1.0000
  0
VERTEX
  8
16
 10
63.1270
 20
37.4200
 30
0.0000
  0
SEQEND
  8
0
  0
POLYLINE
  8
16
 66
1
 10
0.0000
 20
0.0000
 30
0.0000
 40
0.5080
 41
0.5080
 70
0
  0
VERTEX
  8
16
 10
56.5426
 20
30.9626
 30
0.0000
  0
VERTEX
  8
16
 10
63.0000
 20
37.4200
 30
0.0000
  0
SEQEND
  8
0
  0
POLYLINE
  8
16
 66
1
 10
0.0000
 20
0.0000
 30
0.0000
 40
0.2540
 41
0.2540
 70
0
  0
VERTEX
  8
16
 10
63.0898
 20
37.3302
 30
0.0000
 42
1.0000
  0
VERTEX
  8
16
 10
62.9102
 20
37.5098
 30
0.0000
  0
SEQEND
  8
0
  0
POLYLINE
  8
16
 66
1
 10
0.0000
 20
0.0000
 30
0.0000
 40
0.2540
 41
0.2540
 70
0
  0
VERTEX
  8
16
 10
56.4528
 20
31.0524
 30
0.0000
 42
1.0000
  0
VERTEX
  8
16
 10
56.6324
 20
30.8728
 30
0.0000
  0
SEQEND
  8
0
  0
POLYLINE
  8
16
 66
1
 10
0.0000
 20
0.0000
 30
0.0000
 40
0.5080
 41
0.5080
 70
0
  0
VERTEX
  8
16
 10
50.0374
 20
30.9626
 30
0.0000
  0
VERTEX
  8
16
 10
56.5426
 20
30.9626
 30
0.0000
  0
SEQEND
  8
0
  0
POLYLINE
  8
16
 66
1
 10
0.0000
 20
0.0000
 30
0.0000
 40
0.2540
 41
0.2540
 70
0
  0
VERTEX
  8
16
 10
56.5426
 20
30.8356
 30
0.0000
 42
1.0000
  0
VERTEX
  8
16
 10
56.5426
 20
31.0896
 30
0.0000
  0
SEQEND
  8
0
  0
POLYLINE
  8
16
 66
1
 10
0.0000
 20
0.0000
 30
0.0000
 40
0.2540
 41
0.2540
 70
0
  0
VERTEX
  8
16
 10
50.0374
 20
31.0896
 30
0.0000
 42
1.0000
  0
VERTEX
  8
16
 10
50.0374
 20
30.8356
 30
0.0000
  0
SEQEND
  8
0
  0
POLYLINE
  8
16
 66
1
 10
0.0000
 20
0.0000
 30
0.0000
 40
0.5080
 41
0.5080
 70
0
  0
VERTEX
  8
16
 10
48.0950
 20
32.9050
 30
0.0000
  0
VERTEX
  8
16
 10
50.0374
 20
30.9626
 30
0.0000
  0
SEQEND
  8
0
  0
POLYLINE
  8
16
 66
1
 10
0.0000
 20
0.0000
 30
0.0000
 40
0.2540
 41
0.2540
 70
0
  0
VERTEX
  8
16
 10
49.9476
 20
30.8728
 30
0.0000
 42
1.0000
  0
VERTEX
  8
16
 10
50.1272
 20
31.0524
 30
0.0000
  0
SEQEND
  8
0
  0
POLYLINE
  8
16
 66
1
 10
0.0000
 20
0.0000
 30
0.0000
 40
0.2540
 41
0.2540
 70
0
  0
VERTEX
  8
16
 10
48.1848
 20
32.9948
 30
0.0000
 42
1.0000
  0
VERTEX
  8
16
 10
48.0052
 20
32.8152
 30
0.0000
  0
SEQEND
  8
0
  0
POLYLINE
  8
16
 66
1
 10
0.0000
 20
0.0000
 30
0.0000
 40
0.5080
 41
0.5080
 70
0
  0
VERTEX
  8
16
 10
60.0400
 20
27.9600
 30
0.0000
  0
VERTEX
  8
16
 10
63.0000
 20
27.9600
 30
0.0000
  0
SEQEND
  8
0
  0
POLYLINE
  8
16
 66
1
 10
0.0000
 20
0.0000
 30
0.0000
 40
0.2540
 41
0.2540
 70
0
  0
VERTEX
  8
16
 10
63.0000
 20
27.8330
 30
0.0000
 42
1.0000
  0
VERTEX
  8
16
 10
63.0000
 20
28.0870
 30
0.0000
  0
SEQEND
  8
0
  0
POLYLINE
  8
16
 66
1
 10
0.0000
 20
0.0000
 30
0.0000
 40
0.2540
 41
0.2540
 70
0
  0
VERTEX
  8
16
 10
60.0400
 20
28.0870
 30
0.0000
 42
1.0000
  0
VERTEX
  8
16
 10
60.0400
 20
27.8330
 30
0.0000
  0
SEQEND
  8
0
  0
POLYLINE
  8
16
 66
1
 10
0.0000
 20
0.0000
 30
0.0000
 40
0.5080
 41
0.5080
 70
0
  0
VERTEX
  8
16
 10
59.0000
 20
26.9200
 30
0.0000
  0
VERTEX
  8
16
 10
60.0400
 20
27.9600
 30
0.0000
  0
SEQEND
  8
0
  0
POLYLINE
  8
16
 66
1
 10
0.0000
 20
0.0000
 30
0.0000
 40
0.2540
 41
0.2540
 70
0
  0
VERTEX
  8
16
 10
60.1298
 20
27.8702
 30
0.0000
 42
1.0000
  0
VERTEX
  8
16
 10
59.9502
 20
28.0498
 30
0.0000
  0
SEQEND
  8
0
  0
POLYLINE
  8
16
 66
1
 10
0.0000
 20
0.0000
 30
0.0000
 40
0.2540
 41
0.2540
 70
0
  0
VERTEX
  8
16
 10
58.9102
 20
27.0098
 30
0.0000
 42
1.0000
  0
VERTEX
  8
16
 10
59.0898
 20
26.8302
 30
0.0000
  0
SEQEND
  8
0
  0
POLYLINE
  8
16
 66
1
 10
0.0000
 20
0.0000
 30
0.0000
 40
0.5080
 41
0.5080
 70
0
  0
VERTEX
  8
16
 10
56.8250
 20
29.0950
 30
0.0000
  0
VERTEX
  8
16
 10
59.0000
 20
26.9200
 30
0.0000
  0
SEQEND
  8
0
  0
POLYLINE
  8
16
 66
1
 10
0.0000
 20
0.0000
 30
0.0000
 40
0.2540
 41
0.2540
 70
0
  0
VERTEX
  8
16
 10
58.9102
 20
26.8302
 30
0.0000
 42
1.0000
  0
VERTEX
  8
16
 10
59.0898
 20
27.0098
 30
0.0000
  0
SEQEND
  8
0
  0
POLYLINE
  8
16
 66
1
 10
0.0000
 20
0.0000
 30
0.0000
 40
0.2540
 41
0.2540
 70
0
  0
VERTEX
  8
16
 10
56.9148
 20
29.1848
 30
0.0000
 42
1.0000
  0
VERTEX
  8
16
 10
56.7352
 20
29.0052
 30
0.0000
  0
SEQEND
  8
0
  0
POLYLINE
  8
16
 66
1
 10
0.0000
 20
0.0000
 30
0.0000
 40
0.5080
 41
0.5080
 70
0
  0
VERTEX
  8
16
 10
51.9050
 20
29.0950
 30
0.0000
  0
VERTEX
  8
16
 10
56.8250
 20
29.0950
 30
0.0000
  0
SEQEND
  8
0
  0
POLYLINE
  8
16
 66
1
 10
0.0000
 20
0.0000
 30
0.0000
 40
0.2540
 41
0.2540
 70
0
  0
VERTEX
  8
16
 10
56.8250
 20
28.9680
 30
0.0000
 42
1.0000
  0
VERTEX
  8
16
 10
56.8250
 20
29.2220
 30
0.0000
  0
SEQEND
  8
0
  0
POLYLINE
  8
16
 66
1
 10
0.0000
 20
0.0000
 30
0.0000
 40
0.2540
 41
0.2540
 70
0
  0
VERTEX
  8
16
 10
51.9050
 20
29.2220
 30
0.0000
 42
1.0000
  0
VERTEX
  8
16
 10
51.9050
 20
28.9680
 30
0.0000
  0
SEQEND
  8
0
  0
POLYLINE
  8
16
 66
1
 10
0.0000
 20
0.0000
 30
0.0000
 40
0.5080
 41
0.5080
 70
0
  0
VERTEX
  8
16
 10
67.5800
 20
23.0000
 30
0.0000
  0
VERTEX
  8
16
 10
68.7070
 20
24.1270
 30
0.0000
  0
SEQEND
  8
0
  0
POLYLINE
  8
16
 66
1
 10
0.0000
 20
0.0000
 30
0.0000
 40
0.2540
 41
0.2540
 70
0
  0
VERTEX
  8
16
 10
68.7968
 20
24.0372
 30
0.0000
 42
1.0000
  0
VERTEX
  8
16
 10
68.6172
 20
24.2168
 30
0.0000
  0
SEQEND
  8
0
  0
POLYLINE
  8
16
 66
1
 10
0.0000
 20
0.0000
 30
0.0000
 40
0.2540
 41
0.2540
 70
0
  0
VERTEX
  8
16
 10
67.4902
 20
23.0898
 30
0.0000
 42
1.0000
  0
VERTEX
  8
16
 10
67.6698
 20
22.9102
 30
0.0000
  0
SEQEND
  8
0
  0
POLYLINE
  8
16
 66
1
 10
0.0000
 20
0.0000
 30
0.0000
 40
0.5080
 41
0.5080
 70
0
  0
VERTEX
  8
16
 10
68.7070
 20
24.1270
 30
0.0000
  0
VERTEX
  8
16
 10
68.7070
 20
40.7530
 30
0.0000
  0
SEQEND
  8
0
  0
POLYLINE
  8
16
 66
1
 10
0.0000
 20
0.0000
 30
0.0000
 40
0.2540
 41
0.2540
 70
0
  0
VERTEX
  8
16
 10
68.8340
 20
40.7530
 30
0.0000
 42
1.0000
  0
VERTEX
  8
16
 10
68.5800
 20
40.7530
 30
0.0000
  0
SEQEND
  8
0
  0
POLYLINE
  8
16
 66
1
 10
0.0000
 20
0.0000
 30
0.0000
 40
0.2540
 41
0.2540
 70
0
  0
VERTEX
  8
16
 10
68.5800
 20
24.1270
 30
0.0000
 42
1.0000
  0
VERTEX
  8
16
 10
68.8340
 20
24.1270
 30
0.0000
  0
SEQEND
  8
0
  0
POLYLINE
  8
16
 66
1
 10
0.0000
 20
0.0000
 30
0.0000
 40
0.5080
 41
0.5080
 70
0
  0
VERTEX
  8
16
 10
68.7070
 20
40.7530
 30
0.0000
  0
VERTEX
  8
16
 10
67.0000
 20
42.4600
 30
0.0000
  0
SEQEND
  8
0
  0
POLYLINE
  8
16
 66
1
 10
0.0000
 20
0.0000
 30
0.0000
 40
0.2540
 41
0.2540
 70
0
  0
VERTEX
  8
16
 10
67.0898
 20
42.5498
 30
0.0000
 42
1.0000
  0
VERTEX
  8
16
 10
66.9102
 20
42.3702
 30
0.0000
  0
SEQEND
  8
0
  0
POLYLINE
  8
16
 66
1
 10
0.0000
 20
0.0000
 30
0.0000
 40
0.2540
 41
0.2540
 70
0
  0
VERTEX
  8
16
 10
68.6172
 20
40.6632
 30
0.0000
 42
1.0000
  0
VERTEX
  8
16
 10
68.7968
 20
40.8428
 30
0.0000
  0
SEQEND
  8
0
  0
POLYLINE
  8
16
 66
1
 10
0.0000
 20
0.0000
 30
0.0000
 40
0.5080
 41
0.5080
 70
0
  0
VERTEX
  8
16
 10
63.0000
 20
33.0400
 30
0.0000
  0
VERTEX
  8
16
 10
63.1600
 20
33.0400
 30
0.0000
  0
SEQEND
  8
0
  0
POLYLINE
  8
16
 66
1
 10
0.0000
 20
0.0000
 30
0.0000
 40
0.2540
 41
0.2540
 70
0
  0
VERTEX
  8
16
 10
63.1600
 20
32.9130
 30
0.0000
 42
1.0000
  0
VERTEX
  8
16
 10
63.1600
 20
33.1670
 30
0.0000
  0
SEQEND
  8
0
  0
POLYLINE
  8
16
 66
1
 10
0.0000
 20
0.0000
 30
0.0000
 40
0.2540
 41
0.2540
 70
0
  0
VERTEX
  8
16
 10
63.0000
 20
33.1670
 30
0.0000
 42
1.0000
  0
VERTEX
  8
16
 10
63.0000
 20
32.9130
 30
0.0000
  0
SEQEND
  8
0
  0
POLYLINE
  8
16
 66
1
 10
0.0000
 20
0.0000
 30
0.0000
 40
0.5080
 41
0.5080
 70
0
  0
VERTEX
  8
16
 10
63.1600
 20
33.0400
 30
0.0000
  0
VERTEX
  8
16
 10
66.9300
 20
36.8100
 30
0.0000
  0
SEQEND
  8
0
  0
POLYLINE
  8
16
 66
1
 10
0.0000
 20
0.0000
 30
0.0000
 40
0.2540
 41
0.2540
 70
0
  0
VERTEX
  8
16
 10
67.0198
 20
36.7202
 30
0.0000
 42
1.0000
  0
VERTEX
  8
16
 10
66.8402
 20
36.8998
 30
0.0000
  0
SEQEND
  8
0
  0
POLYLINE
  8
16
 66
1
 10
0.0000
 20
0.0000
 30
0.0000
 40
0.2540
 41
0.2540
 70
0
  0
VERTEX
  8
16
 10
63.0702
 20
33.1298
 30
0.0000
 42
1.0000
  0
VERTEX
  8
16
 10
63.2498
 20
32.9502
 30
0.0000
  0
SEQEND
  8
0
  0
POLYLINE
  8
16
 66
1
 10
0.0000
 20
0.0000
 30
0.0000
 40
0.5080
 41
0.5080
 70
0
  0
VERTEX
  8
16
 10
57.4200
 20
18.5000
 30
0.0000
  0
VERTEX
  8
16
 10
57.4200
 20
23.0000
 30
0.0000
  0
SEQEND
  8
0
  0
POLYLINE
  8
16
 66
1
 10
0.0000
 20
0.0000
 30
0.0000
 40
0.2540
 41
0.2540
 70
0
  0
VERTEX
  8
16
 10
57.5470
 20
23.0000
 30
0.0000
 42
1.0000
  0
VERTEX
  8
16
 10
57.2930
 20
23.0000
 30
0.0000
  0
SEQEND
  8
0
  0
POLYLINE
  8
16
 66
1
 10
0.0000
 20
0.0000
 30
0.0000
 40
0.2540
 41
0.2540
 70
0
  0
VERTEX
  8
16
 10
57.2930
 20
18.5000
 30
0.0000
 42
1.0000
  0
VERTEX
  8
16
 10
57.5470
 20
18.5000
 30
0.0000
  0
SEQEND
  8
0
  0
POLYLINE
  8
16
 66
1
 10
0.0000
 20
0.0000
 30
0.0000
 40
0.5080
 41
0.5080
 70
0
  0
VERTEX
  8
16
 10
56.4200
 20
17.5000
 30
0.0000
  0
VERTEX
  8
16
 10
57.4200
 20
18.5000
 30
0.0000
  0
SEQEND
  8
0
  0
POLYLINE
  8
16
 66
1
 10
0.0000
 20
0.0000
 30
0.0000
 40
0.2540
 41
0.2540
 70
0
  0
VERTEX
  8
16
 10
57.5098
 20
18.4102
 30
0.0000
 42
1.0000
  0
VERTEX
  8
16
 10
57.3302
 20
18.5898
 30
0.0000
  0
SEQEND
  8
0
  0
POLYLINE
  8
16
 66
1
 10
0.0000
 20
0.0000
 30
0.0000
 40
0.2540
 41
0.2540
 70
0
  0
VERTEX
  8
16
 10
56.3302
 20
17.5898
 30
0.0000
 42
1.0000
  0
VERTEX
  8
16
 10
56.5098
 20
17.4102
 30
0.0000
  0
SEQEND
  8
0
  0
POLYLINE
  8
16
 66
1
 10
0.0000
 20
0.0000
 30
0.0000
 40
0.5080
 41
0.5080
 70
0
  0
VERTEX
  8
16
 10
52.4050
 20
23.6750
 30
0.0000
  0
VERTEX
  8
16
 10
50.0800
 20
26.0000
 30
0.0000
  0
SEQEND
  8
0
  0
POLYLINE
  8
16
 66
1
 10
0.0000
 20
0.0000
 30
0.0000
 40
0.2540
 41
0.2540
 70
0
  0
VERTEX
  8
16
 10
50.1698
 20
26.0898
 30
0.0000
 42
1.0000
  0
VERTEX
  8
16
 10
49.9902
 20
25.9102
 30
0.0000
  0
SEQEND
  8
0
  0
POLYLINE
  8
16
 66
1
 10
0.0000
 20
0.0000
 30
0.0000
 40
0.2540
 41
0.2540
 70
0
  0
VERTEX
  8
16
 10
52.3152
 20
23.5852
 30
0.0000
 42
1.0000
  0
VERTEX
  8
16
 10
52.4948
 20
23.7648
 30
0.0000
  0
SEQEND
  8
0
  0
POLYLINE
  8
16
 66
1
 10
0.0000
 20
0.0000
 30
0.0000
 40
0.5080
 41
0.5080
 70
0
  0
VERTEX
  8
16
 10
52.4050
 20
19.4050
 30
0.0000
  0
VERTEX
  8
16
 10
52.4050
 20
23.6750
 30
0.0000
  0
SEQEND
  8
0
  0
POLYLINE
  8
16
 66
1
 10
0.0000
 20
0.0000
 30
0.0000
 40
0.2540
 41
0.2540
 70
0
  0
VERTEX
  8
16
 10
52.5320
 20
23.6750
 30
0.0000
 42
1.0000
  0
VERTEX
  8
16
 10
52.2780
 20
23.6750
 30
0.0000
  0
SEQEND
  8
0
  0
POLYLINE
  8
16
 66
1
 10
0.0000
 20
0.0000
 30
0.0000
 40
0.2540
 41
0.2540
 70
0
  0
VERTEX
  8
16
 10
52.2780
 20
19.4050
 30
0.0000
 42
1.0000
  0
VERTEX
  8
16
 10
52.5320
 20
19.4050
 30
0.0000
  0
SEQEND
  8
0
  0
POLYLINE
  8
16
 66
1
 10
0.0000
 20
0.0000
 30
0.0000
 40
0.5080
 41
0.5080
 70
0
  0
VERTEX
  8
16
 10
52.4050
 20
19.4050
 30
0.0000
  0
VERTEX
  8
16
 10
54.5150
 20
19.4050
 30
0.0000
  0
SEQEND
  8
0
  0
POLYLINE
  8
16
 66
1
 10
0.0000
 20
0.0000
 30
0.0000
 40
0.2540
 41
0.2540
 70
0
  0
VERTEX
  8
16
 10
54.5150
 20
19.2780
 30
0.0000
 42
1.0000
  0
VERTEX
  8
16
 10
54.5150
 20
19.5320
 30
0.0000
  0
SEQEND
  8
0
  0
POLYLINE
  8
16
 66
1
 10
0.0000
 20
0.0000
 30
0.0000
 40
0.2540
 41
0.2540
 70
0
  0
VERTEX
  8
16
 10
52.4050
 20
19.5320
 30
0.0000
 42
1.0000
  0
VERTEX
  8
16
 10
52.4050
 20
19.2780
 30
0.0000
  0
SEQEND
  8
0
  0
POLYLINE
  8
16
 66
1
 10
0.0000
 20
0.0000
 30
0.0000
 40
0.5080
 41
0.5080
 70
0
  0
VERTEX
  8
16
 10
54.5150
 20
19.4050
 30
0.0000
  0
VERTEX
  8
16
 10
56.4200
 20
17.5000
 30
0.0000
  0
SEQEND
  8
0
  0
POLYLINE
  8
16
 66
1
 10
0.0000
 20
0.0000
 30
0.0000
 40
0.2540
 41
0.2540
 70
0
  0
VERTEX
  8
16
 10
56.3302
 20
17.4102
 30
0.0000
 42
1.0000
  0
VERTEX
  8
16
 10
56.5098
 20
17.5898
 30
0.0000
  0
SEQEND
  8
0
  0
POLYLINE
  8
16
 66
1
 10
0.0000
 20
0.0000
 30
0.0000
 40
0.2540
 41
0.2540
 70
0
  0
VERTEX
  8
16
 10
54.6048
 20
19.4948
 30
0.0000
 42
1.0000
  0
VERTEX
  8
16
 10
54.4252
 20
19.3152
 30
0.0000
  0
SEQEND
  8
0
  0
POLYLINE
  8
16
 66
1
 10
0.0000
 20
0.0000
 30
0.0000
 40
0.5080
 41
0.5080
 70
0
  0
VERTEX
  8
16
 10
63.9412
 20
23.6612
 30
0.0000
  0
VERTEX
  8
16
 10
66.9300
 20
26.6500
 30
0.0000
  0
SEQEND
  8
0
  0
POLYLINE
  8
16
 66
1
 10
0.0000
 20
0.0000
 30
0.0000
 40
0.2540
 41
0.2540
 70
0
  0
VERTEX
  8
16
 10
67.0198
 20
26.5602
 30
0.0000
 42
1.0000
  0
VERTEX
  8
16
 10
66.8402
 20
26.7398
 30
0.0000
  0
SEQEND
  8
0
  0
POLYLINE
  8
16
 66
1
 10
0.0000
 20
0.0000
 30
0.0000
 40
0.2540
 41
0.2540
 70
0
  0
VERTEX
  8
16
 10
63.8514
 20
23.7510
 30
0.0000
 42
1.0000
  0
VERTEX
  8
16
 10
64.0310
 20
23.5714
 30
0.0000
  0
SEQEND
  8
0
  0
POLYLINE
  8
16
 66
1
 10
0.0000
 20
0.0000
 30
0.0000
 40
0.5080
 41
0.5080
 70
0
  0
VERTEX
  8
16
 10
63.9412
 20
12.6388
 30
0.0000
  0
VERTEX
  8
16
 10
63.9412
 20
23.6612
 30
0.0000
  0
SEQEND
  8
0
  0
POLYLINE
  8
16
 66
1
 10
0.0000
 20
0.0000
 30
0.0000
 40
0.2540
 41
0.2540
 70
0
  0
VERTEX
  8
16
 10
64.0682
 20
23.6612
 30
0.0000
 42
1.0000
  0
VERTEX
  8
16
 10
63.8142
 20
23.6612
 30
0.0000
  0
SEQEND
  8
0
  0
POLYLINE
  8
16
 66
1
 10
0.0000
 20
0.0000
 30
0.0000
 40
0.2540
 41
0.2540
 70
0
  0
VERTEX
  8
16
 10
63.8142
 20
12.6388
 30
0.0000
 42
1.0000
  0
VERTEX
  8
16
 10
64.0682
 20
12.6388
 30
0.0000
  0
SEQEND
  8
0
  0
POLYLINE
  8
16
 66
1
 10
0.0000
 20
0.0000
 30
0.0000
 40
0.5080
 41
0.5080
 70
0
  0
VERTEX
  8
16
 10
66.5800
 20
10.0000
 30
0.0000
  0
VERTEX
  8
16
 10
63.9412
 20
12.6388
 30
0.0000
  0
SEQEND
  8
0
  0
POLYLINE
  8
16
 66
1
 10
0.0000
 20
0.0000
 30
0.0000
 40
0.2540
 41
0.2540
 70
0
  0
VERTEX
  8
16
 10
64.0310
 20
12.7286
 30
0.0000
 42
1.0000
  0
VERTEX
  8
16
 10
63.8514
 20
12.5490
 30
0.0000
  0
SEQEND
  8
0
  0
POLYLINE
  8
16
 66
1
 10
0.0000
 20
0.0000
 30
0.0000
 40
0.2540
 41
0.2540
 70
0
  0
VERTEX
  8
16
 10
66.4902
 20
9.9102
 30
0.0000
 42
1.0000
  0
VERTEX
  8
16
 10
66.6698
 20
10.0898
 30
0.0000
  0
SEQEND
  8
0
  0
POLYLINE
  8
16
 66
1
 10
0.0000
 20
0.0000
 30
0.0000
 40
0.5080
 41
0.5080
 70
0
  0
VERTEX
  8
16
 10
66.5800
 20
4.7700
 30
0.0000
  0
VERTEX
  8
16
 10
66.5800
 20
10.0000
 30
0.0000
  0
SEQEND
  8
0
  0
POLYLINE
  8
16
 66
1
 10
0.0000
 20
0.0000
 30
0.0000
 40
0.2540
 41
0.2540
 70
0
  0
VERTEX
  8
16
 10
66.7070
 20
10.0000
 30
0.0000
 42
1.0000
  0
VERTEX
  8
16
 10
66.4530
 20
10.0000
 30
0.0000
  0
SEQEND
  8
0
  0
POLYLINE
  8
16
 66
1
 10
0.0000
 20
0.0000
 30
0.0000
 40
0.2540
 41
0.2540
 70
0
  0
VERTEX
  8
16
 10
66.4530
 20
4.7700
 30
0.0000
 42
1.0000
  0
VERTEX
  8
16
 10
66.7070
 20
4.7700
 30
0.0000
  0
SEQEND
  8
0
  0
POLYLINE
  8
16
 66
1
 10
0.0000
 20
0.0000
 30
0.0000
 40
0.5080
 41
0.5080
 70
0
  0
VERTEX
  8
16
 10
64.4050
 20
2.5950
 30
0.0000
  0
VERTEX
  8
16
 10
66.5800
 20
4.7700
 30
0.0000
  0
SEQEND
  8
0
  0
POLYLINE
  8
16
 66
1
 10
0.0000
 20
0.0000
 30
0.0000
 40
0.2540
 41
0.2540
 70
0
  0
VERTEX
  8
16
 10
66.6698
 20
4.6802
 30
0.0000
 42
1.0000
  0
VERTEX
  8
16
 10
66.4902
 20
4.8598
 30
0.0000
  0
SEQEND
  8
0
  0
POLYLINE
  8
16
 66
1
 10
0.0000
 20
0.0000
 30
0.0000
 40
0.2540
 41
0.2540
 70
0
  0
VERTEX
  8
16
 10
64.3152
 20
2.6848
 30
0.0000
 42
1.0000
  0
VERTEX
  8
16
 10
64.4948
 20
2.5052
 30
0.0000
  0
SEQEND
  8
0
  0
POLYLINE
  8
16
 66
1
 10
0.0000
 20
0.0000
 30
0.0000
 40
0.5080
 41
0.5080
 70
0
  0
VERTEX
  8
16
 10
60.5000
 20
6.5000
 30
0.0000
  0
VERTEX
  8
16
 10
64.4050
 20
2.5950
 30
0.0000
  0
SEQEND
  8
0
  0
POLYLINE
  8
16
 66
1
 10
0.0000
 20
0.0000
 30
0.0000
 40
0.2540
 41
0.2540
 70
0
  0
VERTEX
  8
16
 10
64.3152
 20
2.5052
 30
0.0000
 42
1.0000
  0
VERTEX
  8
16
 10
64.4948
 20
2.6848
 30
0.0000
  0
SEQEND
  8
0
  0
POLYLINE
  8
16
 66
1
 10
0.0000
 20
0.0000
 30
0.0000
 40
0.2540
 41
0.2540
 70
0
  0
VERTEX
  8
16
 10
60.5898
 20
6.5898
 30
0.0000
 42
1.0000
  0
VERTEX
  8
16
 10
60.4102
 20
6.4102
 30
0.0000
  0
SEQEND
  8
0
  0
POLYLINE
  8
16
 66
1
 10
0.0000
 20
0.0000
 30
0.0000
 40
0.5080
 41
0.5080
 70
0
  0
VERTEX
  8
16
 10
56.5800
 20
6.5000
 30
0.0000
  0
VERTEX
  8
16
 10
60.5000
 20
6.5000
 30
0.0000
  0
SEQEND
  8
0
  0
POLYLINE
  8
16
 66
1
 10
0.0000
 20
0.0000
 30
0.0000
 40
0.2540
 41
0.2540
 70
0
  0
VERTEX
  8
16
 10
60.5000
 20
6.3730
 30
0.0000
 42
1.0000
  0
VERTEX
  8
16
 10
60.5000
 20
6.6270
 30
0.0000
  0
SEQEND
  8
0
  0
POLYLINE
  8
16
 66
1
 10
0.0000
 20
0.0000
 30
0.0000
 40
0.2540
 41
0.2540
 70
0
  0
VERTEX
  8
16
 10
56.5800
 20
6.6270
 30
0.0000
 42
1.0000
  0
VERTEX
  8
16
 10
56.5800
 20
6.3730
 30
0.0000
  0
SEQEND
  8
0
  0
POLYLINE
  8
16
 66
1
 10
0.0000
 20
0.0000
 30
0.0000
 40
0.5080
 41
0.5080
 70
0
  0
VERTEX
  8
16
 10
40.5400
 20
26.0000
 30
0.0000
  0
VERTEX
  8
16
 10
39.9200
 20
26.0000
 30
0.0000
  0
SEQEND
  8
0
  0
POLYLINE
  8
16
 66
1
 10
0.0000
 20
0.0000
 30
0.0000
 40
0.2540
 41
0.2540
 70
0
  0
VERTEX
  8
16
 10
39.9200
 20
26.1270
 30
0.0000
 42
1.0000
  0
VERTEX
  8
16
 10
39.9200
 20
25.8730
 30
0.0000
  0
SEQEND
  8
0
  0
POLYLINE
  8
16
 66
1
 10
0.0000
 20
0.0000
 30
0.0000
 40
0.2540
 41
0.2540
 70
0
  0
VERTEX
  8
16
 10
40.5400
 20
25.8730
 30
0.0000
 42
1.0000
  0
VERTEX
  8
16
 10
40.5400
 20
26.1270
 30
0.0000
  0
SEQEND
  8
0
  0
POLYLINE
  8
16
 66
1
 10
0.0000
 20
0.0000
 30
0.0000
 40
0.5080
 41
0.5080
 70
0
  0
VERTEX
  8
16
 10
45.0000
 20
21.5400
 30
0.0000
  0
VERTEX
  8
16
 10
40.5400
 20
26.0000
 30
0.0000
  0
SEQEND
  8
0
  0
POLYLINE
  8
16
 66
1
 10
0.0000
 20
0.0000
 30
0.0000
 40
0.2540
 41
0.2540
 70
0
  0
VERTEX
  8
16
 10
40.6298
 20
26.0898
 30
0.0000
 42
1.0000
  0
VERTEX
  8
16
 10
40.4502
 20
25.9102
 30
0.0000
  0
SEQEND
  8
0
  0
POLYLINE
  8
16
 66
1
 10
0.0000
 20
0.0000
 30
0.0000
 40
0.2540
 41
0.2540
 70
0
  0
VERTEX
  8
16
 10
44.9102
 20
21.4502
 30
0.0000
 42
1.0000
  0
VERTEX
  8
16
 10
45.0898
 20
21.6298
 30
0.0000
  0
SEQEND
  8
0
  0
POLYLINE
  8
16
 66
1
 10
0.0000
 20
0.0000
 30
0.0000
 40
0.5080
 41
0.5080
 70
0
  0
VERTEX
  8
16
 10
45.0000
 20
7.9200
 30
0.0000
  0
VERTEX
  8
16
 10
45.0000
 20
16.4600
 30
0.0000
  0
SEQEND
  8
0
  0
POLYLINE
  8
16
 66
1
 10
0.0000
 20
0.0000
 30
0.0000
 40
0.2540
 41
0.2540
 70
0
  0
VERTEX
  8
16
 10
45.1270
 20
16.4600
 30
0.0000
 42
1.0000
  0
VERTEX
  8
16
 10
44.8730
 20
16.4600
 30
0.0000
  0
SEQEND
  8
0
  0
POLYLINE
  8
16
 66
1
 10
0.0000
 20
0.0000
 30
0.0000
 40
0.2540
 41
0.2540
 70
0
  0
VERTEX
  8
16
 10
44.8730
 20
7.9200
 30
0.0000
 42
1.0000
  0
VERTEX
  8
16
 10
45.1270
 20
7.9200
 30
0.0000
  0
SEQEND
  8
0
  0
POLYLINE
  8
16
 66
1
 10
0.0000
 20
0.0000
 30
0.0000
 40
0.5080
 41
0.5080
 70
0
  0
VERTEX
  8
16
 10
46.4200
 20
6.5000
 30
0.0000
  0
VERTEX
  8
16
 10
45.0000
 20
7.9200
 30
0.0000
  0
SEQEND
  8
0
  0
POLYLINE
  8
16
 66
1
 10
0.0000
 20
0.0000
 30
0.0000
 40
0.2540
 41
0.2540
 70
0
  0
VERTEX
  8
16
 10
45.0898
 20
8.0098
 30
0.0000
 42
1.0000
  0
VERTEX
  8
16
 10
44.9102
 20
7.8302
 30
0.0000
  0
SEQEND
  8
0
  0
POLYLINE
  8
16
 66
1
 10
0.0000
 20
0.0000
 30
0.0000
 40
0.2540
 41
0.2540
 70
0
  0
VERTEX
  8
16
 10
46.3302
 20
6.4102
 30
0.0000
 42
1.0000
  0
VERTEX
  8
16
 10
46.5098
 20
6.5898
 30
0.0000
  0
SEQEND
  8
0
  0
POLYLINE
  8
16
 66
1
 10
0.0000
 20
0.0000
 30
0.0000
 40
0.5080
 41
0.5080
 70
0
  0
VERTEX
  8
16
 10
57.3100
 20
13.5000
 30
0.0000
  0
VERTEX
  8
16
 10
64.4050
 20
6.4050
 30
0.0000
  0
SEQEND
  8
0
  0
POLYLINE
  8
16
 66
1
 10
0.0000
 20
0.0000
 30
0.0000
 40
0.2540
 41
0.2540
 70
0
  0
VERTEX
  8
16
 10
64.3152
 20
6.3152
 30
0.0000
 42
1.0000
  0
VERTEX
  8
16
 10
64.4948
 20
6.4948
 30
0.0000
  0
SEQEND
  8
0
  0
POLYLINE
  8
16
 66
1
 10
0.0000
 20
0.0000
 30
0.0000
 40
0.2540
 41
0.2540
 70
0
  0
VERTEX
  8
16
 10
57.3998
 20
13.5898
 30
0.0000
 42
1.0000
  0
VERTEX
  8
16
 10
57.2202
 20
13.4102
 30
0.0000
  0
SEQEND
  8
0
  0
POLYLINE
  8
16
 66
1
 10
0.0000
 20
0.0000
 30
0.0000
 40
0.5080
 41
0.5080
 70
0
  0
VERTEX
  8
16
 10
56.4200
 20
13.5000
 30
0.0000
  0
VERTEX
  8
16
 10
57.3100
 20
13.5000
 30
0.0000
  0
SEQEND
  8
0
  0
POLYLINE
  8
16
 66
1
 10
0.0000
 20
0.0000
 30
0.0000
 40
0.2540
 41
0.2540
 70
0
  0
VERTEX
  8
16
 10
57.3100
 20
13.3730
 30
0.0000
 42
1.0000
  0
VERTEX
  8
16
 10
57.3100
 20
13.6270
 30
0.0000
  0
SEQEND
  8
0
  0
POLYLINE
  8
16
 66
1
 10
0.0000
 20
0.0000
 30
0.0000
 40
0.2540
 41
0.2540
 70
0
  0
VERTEX
  8
16
 10
56.4200
 20
13.6270
 30
0.0000
 42
1.0000
  0
VERTEX
  8
16
 10
56.4200
 20
13.3730
 30
0.0000
  0
SEQEND
  8
0
  0
POLYLINE
  8
16
 66
1
 10
0.0000
 20
0.0000
 30
0.0000
 40
0.5080
 41
0.5080
 70
0
  0
VERTEX
  8
16
 10
54.5178
 20
15.4022
 30
0.0000
  0
VERTEX
  8
16
 10
56.4200
 20
13.5000
 30
0.0000
  0
SEQEND
  8
0
  0
POLYLINE
  8
16
 66
1
 10
0.0000
 20
0.0000
 30
0.0000
 40
0.2540
 41
0.2540
 70
0
  0
VERTEX
  8
16
 10
56.3302
 20
13.4102
 30
0.0000
 42
1.0000
  0
VERTEX
  8
16
 10
56.5098
 20
13.5898
 30
0.0000
  0
SEQEND
  8
0
  0
POLYLINE
  8
16
 66
1
 10
0.0000
 20
0.0000
 30
0.0000
 40
0.2540
 41
0.2540
 70
0
  0
VERTEX
  8
16
 10
54.6076
 20
15.4920
 30
0.0000
 42
1.0000
  0
VERTEX
  8
16
 10
54.4280
 20
15.3124
 30
0.0000
  0
SEQEND
  8
0
  0
POLYLINE
  8
16
 66
1
 10
0.0000
 20
0.0000
 30
0.0000
 40
0.5080
 41
0.5080
 70
0
  0
VERTEX
  8
16
 10
54.5178
 20
16.5354
 30
0.0000
  0
VERTEX
  8
16
 10
54.5178
 20
15.4022
 30
0.0000
  0
SEQEND
  8
0
  0
POLYLINE
  8
16
 66
1
 10
0.0000
 20
0.0000
 30
0.0000
 40
0.2540
 41
0.2540
 70
0
  0
VERTEX
  8
16
 10
54.3908
 20
15.4022
 30
0.0000
 42
1.0000
  0
VERTEX
  8
16
 10
54.6448
 20
15.4022
 30
0.0000
  0
SEQEND
  8
0
  0
POLYLINE
  8
16
 66
1
 10
0.0000
 20
0.0000
 30
0.0000
 40
0.2540
 41
0.2540
 70
0
  0
VERTEX
  8
16
 10
54.6448
 20
16.5354
 30
0.0000
 42
1.0000
  0
VERTEX
  8
16
 10
54.3908
 20
16.5354
 30
0.0000
  0
SEQEND
  8
0
  0
POLYLINE
  8
16
 66
1
 10
0.0000
 20
0.0000
 30
0.0000
 40
0.5080
 41
0.5080
 70
0
  0
VERTEX
  8
16
 10
53.5526
 20
17.5006
 30
0.0000
  0
VERTEX
  8
16
 10
54.5178
 20
16.5354
 30
0.0000
  0
SEQEND
  8
0
  0
POLYLINE
  8
16
 66
1
 10
0.0000
 20
0.0000
 30
0.0000
 40
0.2540
 41
0.2540
 70
0
  0
VERTEX
  8
16
 10
54.4280
 20
16.4456
 30
0.0000
 42
1.0000
  0
VERTEX
  8
16
 10
54.6076
 20
16.6252
 30
0.0000
  0
SEQEND
  8
0
  0
POLYLINE
  8
16
 66
1
 10
0.0000
 20
0.0000
 30
0.0000
 40
0.2540
 41
0.2540
 70
0
  0
VERTEX
  8
16
 10
53.6424
 20
17.5904
 30
0.0000
 42
1.0000
  0
VERTEX
  8
16
 10
53.4628
 20
17.4108
 30
0.0000
  0
SEQEND
  8
0
  0
POLYLINE
  8
16
 66
1
 10
0.0000
 20
0.0000
 30
0.0000
 40
0.5080
 41
0.5080
 70
0
  0
VERTEX
  8
16
 10
50.4994
 20
17.5006
 30
0.0000
  0
VERTEX
  8
16
 10
53.5526
 20
17.5006
 30
0.0000
  0
SEQEND
  8
0
  0
POLYLINE
  8
16
 66
1
 10
0.0000
 20
0.0000
 30
0.0000
 40
0.2540
 41
0.2540
 70
0
  0
VERTEX
  8
16
 10
53.5526
 20
17.3736
 30
0.0000
 42
1.0000
  0
VERTEX
  8
16
 10
53.5526
 20
17.6276
 30
0.0000
  0
SEQEND
  8
0
  0
POLYLINE
  8
16
 66
1
 10
0.0000
 20
0.0000
 30
0.0000
 40
0.2540
 41
0.2540
 70
0
  0
VERTEX
  8
16
 10
50.4994
 20
17.6276
 30
0.0000
 42
1.0000
  0
VERTEX
  8
16
 10
50.4994
 20
17.3736
 30
0.0000
  0
SEQEND
  8
0
  0
POLYLINE
  8
16
 66
1
 10
0.0000
 20
0.0000
 30
0.0000
 40
0.5080
 41
0.5080
 70
0
  0
VERTEX
  8
16
 10
50.4994
 20
17.5006
 30
0.0000
  0
VERTEX
  8
16
 10
48.5950
 20
19.4050
 30
0.0000
  0
SEQEND
  8
0
  0
POLYLINE
  8
16
 66
1
 10
0.0000
 20
0.0000
 30
0.0000
 40
0.2540
 41
0.2540
 70
0
  0
VERTEX
  8
16
 10
48.6848
 20
19.4948
 30
0.0000
 42
1.0000
  0
VERTEX
  8
16
 10
48.5052
 20
19.3152
 30
0.0000
  0
SEQEND
  8
0
  0
POLYLINE
  8
16
 66
1
 10
0.0000
 20
0.0000
 30
0.0000
 40
0.2540
 41
0.2540
 70
0
  0
VERTEX
  8
16
 10
50.4096
 20
17.4108
 30
0.0000
 42
1.0000
  0
VERTEX
  8
16
 10
50.5892
 20
17.5904
 30
0.0000
  0
SEQEND
  8
0
  0
POLYLINE
  8
16
 66
1
 10
0.0000
 20
0.0000
 30
0.0000
 40
0.5080
 41
0.5080
 70
0
  0
VERTEX
  8
16
 10
45.9834
 20
28.0566
 30
0.0000
  0
VERTEX
  8
16
 10
44.0400
 20
30.0000
 30
0.0000
  0
SEQEND
  8
0
  0
POLYLINE
  8
16
 66
1
 10
0.0000
 20
0.0000
 30
0.0000
 40
0.2540
 41
0.2540
 70
0
  0
VERTEX
  8
16
 10
44.1298
 20
30.0898
 30
0.0000
 42
1.0000
  0
VERTEX
  8
16
 10
43.9502
 20
29.9102
 30
0.0000
  0
SEQEND
  8
0
  0
POLYLINE
  8
16
 66
1
 10
0.0000
 20
0.0000
 30
0.0000
 40
0.2540
 41
0.2540
 70
0
  0
VERTEX
  8
16
 10
45.8936
 20
27.9668
 30
0.0000
 42
1.0000
  0
VERTEX
  8
16
 10
46.0732
 20
28.1464
 30
0.0000
  0
SEQEND
  8
0
  0
POLYLINE
  8
16
 66
1
 10
0.0000
 20
0.0000
 30
0.0000
 40
0.5080
 41
0.5080
 70
0
  0
VERTEX
  8
16
 10
45.9834
 20
24.5364
 30
0.0000
  0
VERTEX
  8
16
 10
45.9834
 20
28.0566
 30
0.0000
  0
SEQEND
  8
0
  0
POLYLINE
  8
16
 66
1
 10
0.0000
 20
0.0000
 30
0.0000
 40
0.2540
 41
0.2540
 70
0
  0
VERTEX
  8
16
 10
46.1104
 20
28.0566
 30
0.0000
 42
1.0000
  0
VERTEX
  8
16
 10
45.8564
 20
28.0566
 30
0.0000
  0
SEQEND
  8
0
  0
POLYLINE
  8
16
 66
1
 10
0.0000
 20
0.0000
 30
0.0000
 40
0.2540
 41
0.2540
 70
0
  0
VERTEX
  8
16
 10
45.8564
 20
24.5364
 30
0.0000
 42
1.0000
  0
VERTEX
  8
16
 10
46.1104
 20
24.5364
 30
0.0000
  0
SEQEND
  8
0
  0
POLYLINE
  8
16
 66
1
 10
0.0000
 20
0.0000
 30
0.0000
 40
0.5080
 41
0.5080
 70
0
  0
VERTEX
  8
16
 10
48.5950
 20
21.9248
 30
0.0000
  0
VERTEX
  8
16
 10
45.9834
 20
24.5364
 30
0.0000
  0
SEQEND
  8
0
  0
POLYLINE
  8
16
 66
1
 10
0.0000
 20
0.0000
 30
0.0000
 40
0.2540
 41
0.2540
 70
0
  0
VERTEX
  8
16
 10
46.0732
 20
24.6262
 30
0.0000
 42
1.0000
  0
VERTEX
  8
16
 10
45.8936
 20
24.4466
 30
0.0000
  0
SEQEND
  8
0
  0
POLYLINE
  8
16
 66
1
 10
0.0000
 20
0.0000
 30
0.0000
 40
0.2540
 41
0.2540
 70
0
  0
VERTEX
  8
16
 10
48.5052
 20
21.8350
 30
0.0000
 42
1.0000
  0
VERTEX
  8
16
 10
48.6848
 20
22.0146
 30
0.0000
  0
SEQEND
  8
0
  0
POLYLINE
  8
16
 66
1
 10
0.0000
 20
0.0000
 30
0.0000
 40
0.5080
 41
0.5080
 70
0
  0
VERTEX
  8
16
 10
48.5950
 20
19.4050
 30
0.0000
  0
VERTEX
  8
16
 10
48.5950
 20
21.9248
 30
0.0000
  0
SEQEND
  8
0
  0
POLYLINE
  8
16
 66
1
 10
0.0000
 20
0.0000
 30
0.0000
 40
0.2540
 41
0.2540
 70
0
  0
VERTEX
  8
16
 10
48.7220
 20
21.9248
 30
0.0000
 42
1.0000
  0
VERTEX
  8
16
 10
48.4680
 20
21.9248
 30
0.0000
  0
SEQEND
  8
0
  0
POLYLINE
  8
16
 66
1
 10
0.0000
 20
0.0000
 30
0.0000
 40
0.2540
 41
0.2540
 70
0
  0
VERTEX
  8
16
 10
48.4680
 20
19.4050
 30
0.0000
 42
1.0000
  0
VERTEX
  8
16
 10
48.7220
 20
19.4050
 30
0.0000
  0
SEQEND
  8
0
  0
POLYLINE
  8
16
 66
1
 10
0.0000
 20
0.0000
 30
0.0000
 40
0.5080
 41
0.5080
 70
0
  0
VERTEX
  8
16
 10
35.9600
 20
27.0000
 30
0.0000
  0
VERTEX
  8
16
 10
38.9600
 20
30.0000
 30
0.0000
  0
SEQEND
  8
0
  0
POLYLINE
  8
16
 66
1
 10
0.0000
 20
0.0000
 30
0.0000
 40
0.2540
 41
0.2540
 70
0
  0
VERTEX
  8
16
 10
39.0498
 20
29.9102
 30
0.0000
 42
1.0000
  0
VERTEX
  8
16
 10
38.8702
 20
30.0898
 30
0.0000
  0
SEQEND
  8
0
  0
POLYLINE
  8
16
 66
1
 10
0.0000
 20
0.0000
 30
0.0000
 40
0.2540
 41
0.2540
 70
0
  0
VERTEX
  8
16
 10
35.8702
 20
27.0898
 30
0.0000
 42
1.0000
  0
VERTEX
  8
16
 10
36.0498
 20
26.9102
 30
0.0000
  0
SEQEND
  8
0
  0
POLYLINE
  8
16
 66
1
 10
0.0000
 20
0.0000
 30
0.0000
 40
0.5080
 41
0.5080
 70
0
  0
VERTEX
  8
16
 10
35.6710
 20
27.0000
 30
0.0000
  0
VERTEX
  8
16
 10
34.5800
 20
27.0000
 30
0.0000
  0
SEQEND
  8
0
  0
POLYLINE
  8
16
 66
1
 10
0.0000
 20
0.0000
 30
0.0000
 40
0.2540
 41
0.2540
 70
0
  0
VERTEX
  8
16
 10
34.5800
 20
27.1270
 30
0.0000
 42
1.0000
  0
VERTEX
  8
16
 10
34.5800
 20
26.8730
 30
0.0000
  0
SEQEND
  8
0
  0
POLYLINE
  8
16
 66
1
 10
0.0000
 20
0.0000
 30
0.0000
 40
0.2540
 41
0.2540
 70
0
  0
VERTEX
  8
16
 10
35.6710
 20
26.8730
 30
0.0000
 42
1.0000
  0
VERTEX
  8
16
 10
35.6710
 20
27.1270
 30
0.0000
  0
SEQEND
  8
0
  0
POLYLINE
  8
16
 66
1
 10
0.0000
 20
0.0000
 30
0.0000
 40
0.5080
 41
0.5080
 70
0
  0
VERTEX
  8
16
 10
35.6710
 20
27.0000
 30
0.0000
  0
VERTEX
  8
16
 10
35.9600
 20
27.0000
 30
0.0000
  0
SEQEND
  8
0
  0
POLYLINE
  8
16
 66
1
 10
0.0000
 20
0.0000
 30
0.0000
 40
0.2540
 41
0.2540
 70
0
  0
VERTEX
  8
16
 10
35.9600
 20
26.8730
 30
0.0000
 42
1.0000
  0
VERTEX
  8
16
 10
35.9600
 20
27.1270
 30
0.0000
  0
SEQEND
  8
0
  0
POLYLINE
  8
16
 66
1
 10
0.0000
 20
0.0000
 30
0.0000
 40
0.2540
 41
0.2540
 70
0
  0
VERTEX
  8
16
 10
35.6710
 20
27.1270
 30
0.0000
 42
1.0000
  0
VERTEX
  8
16
 10
35.6710
 20
26.8730
 30
0.0000
  0
SEQEND
  8
0
  0
POLYLINE
  8
16
 66
1
 10
0.0000
 20
0.0000
 30
0.0000
 40
0.5080
 41
0.5080
 70
0
  0
VERTEX
  8
16
 10
34.5800
 20
27.0000
 30
0.0000
  0
VERTEX
  8
16
 10
31.0800
 20
27.0000
 30
0.0000
  0
SEQEND
  8
0
  0
POLYLINE
  8
16
 66
1
 10
0.0000
 20
0.0000
 30
0.0000
 40
0.2540
 41
0.2540
 70
0
  0
VERTEX
  8
16
 10
31.0800
 20
27.1270
 30
0.0000
 42
1.0000
  0
VERTEX
  8
16
 10
31.0800
 20
26.8730
 30
0.0000
  0
SEQEND
  8
0
  0
POLYLINE
  8
16
 66
1
 10
0.0000
 20
0.0000
 30
0.0000
 40
0.2540
 41
0.2540
 70
0
  0
VERTEX
  8
16
 10
34.5800
 20
26.8730
 30
0.0000
 42
1.0000
  0
VERTEX
  8
16
 10
34.5800
 20
27.1270
 30
0.0000
  0
SEQEND
  8
0
  0
POLYLINE
  8
16
 66
1
 10
0.0000
 20
0.0000
 30
0.0000
 40
0.5080
 41
0.5080
 70
0
  0
VERTEX
  8
16
 10
31.0800
 20
27.0000
 30
0.0000
  0
VERTEX
  8
16
 10
28.0800
 20
24.0000
 30
0.0000
  0
SEQEND
  8
0
  0
POLYLINE
  8
16
 66
1
 10
0.0000
 20
0.0000
 30
0.0000
 40
0.2540
 41
0.2540
 70
0
  0
VERTEX
  8
16
 10
27.9902
 20
24.0898
 30
0.0000
 42
1.0000
  0
VERTEX
  8
16
 10
28.1698
 20
23.9102
 30
0.0000
  0
SEQEND
  8
0
  0
POLYLINE
  8
16
 66
1
 10
0.0000
 20
0.0000
 30
0.0000
 40
0.2540
 41
0.2540
 70
0
  0
VERTEX
  8
16
 10
31.1698
 20
26.9102
 30
0.0000
 42
1.0000
  0
VERTEX
  8
16
 10
30.9902
 20
27.0898
 30
0.0000
  0
SEQEND
  8
0
  0
POLYLINE
  8
16
 66
1
 10
0.0000
 20
0.0000
 30
0.0000
 40
0.5080
 41
0.5080
 70
0
  0
VERTEX
  8
16
 10
37.0000
 20
14.5400
 30
0.0000
  0
VERTEX
  8
16
 10
37.0000
 20
25.6710
 30
0.0000
  0
SEQEND
  8
0
  0
POLYLINE
  8
16
 66
1
 10
0.0000
 20
0.0000
 30
0.0000
 40
0.2540
 41
0.2540
 70
0
  0
VERTEX
  8
16
 10
37.1270
 20
25.6710
 30
0.0000
 42
1.0000
  0
VERTEX
  8
16
 10
36.8730
 20
25.6710
 30
0.0000
  0
SEQEND
  8
0
  0
POLYLINE
  8
16
 66
1
 10
0.0000
 20
0.0000
 30
0.0000
 40
0.2540
 41
0.2540
 70
0
  0
VERTEX
  8
16
 10
36.8730
 20
14.5400
 30
0.0000
 42
1.0000
  0
VERTEX
  8
16
 10
37.1270
 20
14.5400
 30
0.0000
  0
SEQEND
  8
0
  0
POLYLINE
  8
16
 66
1
 10
0.0000
 20
0.0000
 30
0.0000
 40
0.5080
 41
0.5080
 70
0
  0
VERTEX
  8
16
 10
37.0000
 20
25.6710
 30
0.0000
  0
VERTEX
  8
16
 10
35.6710
 20
27.0000
 30
0.0000
  0
SEQEND
  8
0
  0
POLYLINE
  8
16
 66
1
 10
0.0000
 20
0.0000
 30
0.0000
 40
0.2540
 41
0.2540
 70
0
  0
VERTEX
  8
16
 10
35.7608
 20
27.0898
 30
0.0000
 42
1.0000
  0
VERTEX
  8
16
 10
35.5812
 20
26.9102
 30
0.0000
  0
SEQEND
  8
0
  0
POLYLINE
  8
16
 66
1
 10
0.0000
 20
0.0000
 30
0.0000
 40
0.2540
 41
0.2540
 70
0
  0
VERTEX
  8
16
 10
36.9102
 20
25.5812
 30
0.0000
 42
1.0000
  0
VERTEX
  8
16
 10
37.0898
 20
25.7608
 30
0.0000
  0
SEQEND
  8
0
  0
POLYLINE
  8
16
 66
1
 10
0.0000
 20
0.0000
 30
0.0000
 40
0.5080
 41
0.5080
 70
0
  0
VERTEX
  8
16
 10
33.2700
 20
19.6500
 30
0.0000
  0
VERTEX
  8
16
 10
30.9200
 20
22.0000
 30
0.0000
  0
SEQEND
  8
0
  0
POLYLINE
  8
16
 66
1
 10
0.0000
 20
0.0000
 30
0.0000
 40
0.2540
 41
0.2540
 70
0
  0
VERTEX
  8
16
 10
31.0098
 20
22.0898
 30
0.0000
 42
1.0000
  0
VERTEX
  8
16
 10
30.8302
 20
21.9102
 30
0.0000
  0
SEQEND
  8
0
  0
POLYLINE
  8
16
 66
1
 10
0.0000
 20
0.0000
 30
0.0000
 40
0.2540
 41
0.2540
 70
0
  0
VERTEX
  8
16
 10
33.1802
 20
19.5602
 30
0.0000
 42
1.0000
  0
VERTEX
  8
16
 10
33.3598
 20
19.7398
 30
0.0000
  0
SEQEND
  8
0
  0
POLYLINE
  8
16
 66
1
 10
0.0000
 20
0.0000
 30
0.0000
 40
0.5080
 41
0.5080
 70
0
  0
VERTEX
  8
16
 10
33.2700
 20
15.0000
 30
0.0000
  0
VERTEX
  8
16
 10
33.2700
 20
19.6500
 30
0.0000
  0
SEQEND
  8
0
  0
POLYLINE
  8
16
 66
1
 10
0.0000
 20
0.0000
 30
0.0000
 40
0.2540
 41
0.2540
 70
0
  0
VERTEX
  8
16
 10
33.3970
 20
19.6500
 30
0.0000
 42
1.0000
  0
VERTEX
  8
16
 10
33.1430
 20
19.6500
 30
0.0000
  0
SEQEND
  8
0
  0
POLYLINE
  8
16
 66
1
 10
0.0000
 20
0.0000
 30
0.0000
 40
0.2540
 41
0.2540
 70
0
  0
VERTEX
  8
16
 10
33.1430
 20
15.0000
 30
0.0000
 42
1.0000
  0
VERTEX
  8
16
 10
33.3970
 20
15.0000
 30
0.0000
  0
SEQEND
  8
0
  0
POLYLINE
  8
16
 66
1
 10
0.0000
 20
0.0000
 30
0.0000
 40
0.5080
 41
0.5080
 70
0
  0
VERTEX
  8
16
 10
37.0000
 20
9.4600
 30
0.0000
  0
VERTEX
  8
16
 10
39.4600
 20
7.0000
 30
0.0000
  0
SEQEND
  8
0
  0
POLYLINE
  8
16
 66
1
 10
0.0000
 20
0.0000
 30
0.0000
 40
0.2540
 41
0.2540
 70
0
  0
VERTEX
  8
16
 10
39.3702
 20
6.9102
 30
0.0000
 42
1.0000
  0
VERTEX
  8
16
 10
39.5498
 20
7.0898
 30
0.0000
  0
SEQEND
  8
0
  0
POLYLINE
  8
16
 66
1
 10
0.0000
 20
0.0000
 30
0.0000
 40
0.2540
 41
0.2540
 70
0
  0
VERTEX
  8
16
 10
37.0898
 20
9.5498
 30
0.0000
 42
1.0000
  0
VERTEX
  8
16
 10
36.9102
 20
9.3702
 30
0.0000
  0
SEQEND
  8
0
  0
POLYLINE
  8
16
 66
1
 10
0.0000
 20
0.0000
 30
0.0000
 40
0.5080
 41
0.5080
 70
0
  0
VERTEX
  8
16
 10
39.4600
 20
7.0000
 30
0.0000
  0
VERTEX
  8
16
 10
43.0800
 20
7.0000
 30
0.0000
  0
SEQEND
  8
0
  0
POLYLINE
  8
16
 66
1
 10
0.0000
 20
0.0000
 30
0.0000
 40
0.2540
 41
0.2540
 70
0
  0
VERTEX
  8
16
 10
43.0800
 20
6.8730
 30
0.0000
 42
1.0000
  0
VERTEX
  8
16
 10
43.0800
 20
7.1270
 30
0.0000
  0
SEQEND
  8
0
  0
POLYLINE
  8
16
 66
1
 10
0.0000
 20
0.0000
 30
0.0000
 40
0.2540
 41
0.2540
 70
0
  0
VERTEX
  8
16
 10
39.4600
 20
7.1270
 30
0.0000
 42
1.0000
  0
VERTEX
  8
16
 10
39.4600
 20
6.8730
 30
0.0000
  0
SEQEND
  8
0
  0
POLYLINE
  8
16
 66
1
 10
0.0000
 20
0.0000
 30
0.0000
 40
0.5080
 41
0.5080
 70
0
  0
VERTEX
  8
16
 10
33.2700
 20
13.1900
 30
0.0000
  0
VERTEX
  8
16
 10
33.2700
 20
15.0000
 30
0.0000
  0
SEQEND
  8
0
  0
POLYLINE
  8
16
 66
1
 10
0.0000
 20
0.0000
 30
0.0000
 40
0.2540
 41
0.2540
 70
0
  0
VERTEX
  8
16
 10
33.3970
 20
15.0000
 30
0.0000
 42
1.0000
  0
VERTEX
  8
16
 10
33.1430
 20
15.0000
 30
0.0000
  0
SEQEND
  8
0
  0
POLYLINE
  8
16
 66
1
 10
0.0000
 20
0.0000
 30
0.0000
 40
0.2540
 41
0.2540
 70
0
  0
VERTEX
  8
16
 10
33.1430
 20
13.1900
 30
0.0000
 42
1.0000
  0
VERTEX
  8
16
 10
33.3970
 20
13.1900
 30
0.0000
  0
SEQEND
  8
0
  0
POLYLINE
  8
16
 66
1
 10
0.0000
 20
0.0000
 30
0.0000
 40
0.5080
 41
0.5080
 70
0
  0
VERTEX
  8
16
 10
37.0000
 20
9.4600
 30
0.0000
  0
VERTEX
  8
16
 10
33.2700
 20
13.1900
 30
0.0000
  0
SEQEND
  8
0
  0
POLYLINE
  8
16
 66
1
 10
0.0000
 20
0.0000
 30
0.0000
 40
0.2540
 41
0.2540
 70
0
  0
VERTEX
  8
16
 10
33.3598
 20
13.2798
 30
0.0000
 42
1.0000
  0
VERTEX
  8
16
 10
33.1802
 20
13.1002
 30
0.0000
  0
SEQEND
  8
0
  0
POLYLINE
  8
16
 66
1
 10
0.0000
 20
0.0000
 30
0.0000
 40
0.2540
 41
0.2540
 70
0
  0
VERTEX
  8
16
 10
36.9102
 20
9.3702
 30
0.0000
 42
1.0000
  0
VERTEX
  8
16
 10
37.0898
 20
9.5498
 30
0.0000
  0
SEQEND
  8
0
  0
POLYLINE
  8
16
 66
1
 10
0.0000
 20
0.0000
 30
0.0000
 40
0.5080
 41
0.5080
 70
0
  0
VERTEX
  8
16
 10
32.9200
 20
9.6200
 30
0.0000
  0
VERTEX
  8
16
 10
31.5400
 20
11.0000
 30
0.0000
  0
SEQEND
  8
0
  0
POLYLINE
  8
16
 66
1
 10
0.0000
 20
0.0000
 30
0.0000
 40
0.2540
 41
0.2540
 70
0
  0
VERTEX
  8
16
 10
31.6298
 20
11.0898
 30
0.0000
 42
1.0000
  0
VERTEX
  8
16
 10
31.4502
 20
10.9102
 30
0.0000
  0
SEQEND
  8
0
  0
POLYLINE
  8
16
 66
1
 10
0.0000
 20
0.0000
 30
0.0000
 40
0.2540
 41
0.2540
 70
0
  0
VERTEX
  8
16
 10
32.8302
 20
9.5302
 30
0.0000
 42
1.0000
  0
VERTEX
  8
16
 10
33.0098
 20
9.7098
 30
0.0000
  0
SEQEND
  8
0
  0
POLYLINE
  8
16
 66
1
 10
0.0000
 20
0.0000
 30
0.0000
 40
0.5080
 41
0.5080
 70
0
  0
VERTEX
  8
16
 10
32.9200
 20
7.0000
 30
0.0000
  0
VERTEX
  8
16
 10
32.9200
 20
9.6200
 30
0.0000
  0
SEQEND
  8
0
  0
POLYLINE
  8
16
 66
1
 10
0.0000
 20
0.0000
 30
0.0000
 40
0.2540
 41
0.2540
 70
0
  0
VERTEX
  8
16
 10
33.0470
 20
9.6200
 30
0.0000
 42
1.0000
  0
VERTEX
  8
16
 10
32.7930
 20
9.6200
 30
0.0000
  0
SEQEND
  8
0
  0
POLYLINE
  8
16
 66
1
 10
0.0000
 20
0.0000
 30
0.0000
 40
0.2540
 41
0.2540
 70
0
  0
VERTEX
  8
16
 10
32.7930
 20
7.0000
 30
0.0000
 42
1.0000
  0
VERTEX
  8
16
 10
33.0470
 20
7.0000
 30
0.0000
  0
SEQEND
  8
0
  0
POLYLINE
  8
16
 66
1
 10
0.0000
 20
0.0000
 30
0.0000
 40
0.5080
 41
0.5080
 70
0
  0
VERTEX
  8
16
 10
32.9200
 20
2.5000
 30
0.0000
  0
VERTEX
  8
16
 10
32.9200
 20
7.0000
 30
0.0000
  0
SEQEND
  8
0
  0
POLYLINE
  8
16
 66
1
 10
0.0000
 20
0.0000
 30
0.0000
 40
0.2540
 41
0.2540
 70
0
  0
VERTEX
  8
16
 10
33.0470
 20
7.0000
 30
0.0000
 42
1.0000
  0
VERTEX
  8
16
 10
32.7930
 20
7.0000
 30
0.0000
  0
SEQEND
  8
0
  0
POLYLINE
  8
16
 66
1
 10
0.0000
 20
0.0000
 30
0.0000
 40
0.2540
 41
0.2540
 70
0
  0
VERTEX
  8
16
 10
32.7930
 20
2.5000
 30
0.0000
 42
1.0000
  0
VERTEX
  8
16
 10
33.0470
 20
2.5000
 30
0.0000
  0
SEQEND
  8
0
  0
POLYLINE
  8
16
 66
1
 10
0.0000
 20
0.0000
 30
0.0000
 40
0.5080
 41
0.5080
 70
0
  0
VERTEX
  8
16
 10
39.5800
 20
20.5000
 30
0.0000
  0
VERTEX
  8
16
 10
41.0800
 20
22.0000
 30
0.0000
  0
SEQEND
  8
0
  0
POLYLINE
  8
16
 66
1
 10
0.0000
 20
0.0000
 30
0.0000
 40
0.2540
 41
0.2540
 70
0
  0
VERTEX
  8
16
 10
41.1698
 20
21.9102
 30
0.0000
 42
1.0000
  0
VERTEX
  8
16
 10
40.9902
 20
22.0898
 30
0.0000
  0
SEQEND
  8
0
  0
POLYLINE
  8
16
 66
1
 10
0.0000
 20
0.0000
 30
0.0000
 40
0.2540
 41
0.2540
 70
0
  0
VERTEX
  8
16
 10
39.4902
 20
20.5898
 30
0.0000
 42
1.0000
  0
VERTEX
  8
16
 10
39.6698
 20
20.4102
 30
0.0000
  0
SEQEND
  8
0
  0
POLYLINE
  8
16
 66
1
 10
0.0000
 20
0.0000
 30
0.0000
 40
0.5080
 41
0.5080
 70
0
  0
VERTEX
  8
16
 10
39.5800
 20
18.5000
 30
0.0000
  0
VERTEX
  8
16
 10
39.5800
 20
20.5000
 30
0.0000
  0
SEQEND
  8
0
  0
POLYLINE
  8
16
 66
1
 10
0.0000
 20
0.0000
 30
0.0000
 40
0.2540
 41
0.2540
 70
0
  0
VERTEX
  8
16
 10
39.7070
 20
20.5000
 30
0.0000
 42
1.0000
  0
VERTEX
  8
16
 10
39.4530
 20
20.5000
 30
0.0000
  0
SEQEND
  8
0
  0
POLYLINE
  8
16
 66
1
 10
0.0000
 20
0.0000
 30
0.0000
 40
0.2540
 41
0.2540
 70
0
  0
VERTEX
  8
16
 10
39.4530
 20
18.5000
 30
0.0000
 42
1.0000
  0
VERTEX
  8
16
 10
39.7070
 20
18.5000
 30
0.0000
  0
SEQEND
  8
0
  0
POLYLINE
  8
16
 66
1
 10
0.0000
 20
0.0000
 30
0.0000
 40
0.5080
 41
0.5080
 70
0
  0
VERTEX
  8
16
 10
39.5800
 20
16.4600
 30
0.0000
  0
VERTEX
  8
16
 10
39.5800
 20
18.5000
 30
0.0000
  0
SEQEND
  8
0
  0
POLYLINE
  8
16
 66
1
 10
0.0000
 20
0.0000
 30
0.0000
 40
0.2540
 41
0.2540
 70
0
  0
VERTEX
  8
16
 10
39.7070
 20
18.5000
 30
0.0000
 42
1.0000
  0
VERTEX
  8
16
 10
39.4530
 20
18.5000
 30
0.0000
  0
SEQEND
  8
0
  0
POLYLINE
  8
16
 66
1
 10
0.0000
 20
0.0000
 30
0.0000
 40
0.2540
 41
0.2540
 70
0
  0
VERTEX
  8
16
 10
39.4530
 20
16.4600
 30
0.0000
 42
1.0000
  0
VERTEX
  8
16
 10
39.7070
 20
16.4600
 30
0.0000
  0
SEQEND
  8
0
  0
POLYLINE
  8
16
 66
1
 10
0.0000
 20
0.0000
 30
0.0000
 40
0.5080
 41
0.5080
 70
0
  0
VERTEX
  8
16
 10
41.0000
 20
15.0400
 30
0.0000
  0
VERTEX
  8
16
 10
39.5800
 20
16.4600
 30
0.0000
  0
SEQEND
  8
0
  0
POLYLINE
  8
16
 66
1
 10
0.0000
 20
0.0000
 30
0.0000
 40
0.2540
 41
0.2540
 70
0
  0
VERTEX
  8
16
 10
39.6698
 20
16.5498
 30
0.0000
 42
1.0000
  0
VERTEX
  8
16
 10
39.4902
 20
16.3702
 30
0.0000
  0
SEQEND
  8
0
  0
POLYLINE
  8
16
 66
1
 10
0.0000
 20
0.0000
 30
0.0000
 40
0.2540
 41
0.2540
 70
0
  0
VERTEX
  8
16
 10
40.9102
 20
14.9502
 30
0.0000
 42
1.0000
  0
VERTEX
  8
16
 10
41.0898
 20
15.1298
 30
0.0000
  0
SEQEND
  8
0
  0
POLYLINE
  8
16
 66
1
 10
0.0000
 20
0.0000
 30
0.0000
 40
0.5080
 41
0.5080
 70
0
  0
VERTEX
  8
16
 10
26.4600
 20
12.0000
 30
0.0000
  0
VERTEX
  8
16
 10
29.4600
 20
15.0000
 30
0.0000
  0
SEQEND
  8
0
  0
POLYLINE
  8
16
 66
1
 10
0.0000
 20
0.0000
 30
0.0000
 40
0.2540
 41
0.2540
 70
0
  0
VERTEX
  8
16
 10
29.5498
 20
14.9102
 30
0.0000
 42
1.0000
  0
VERTEX
  8
16
 10
29.3702
 20
15.0898
 30
0.0000
  0
SEQEND
  8
0
  0
POLYLINE
  8
16
 66
1
 10
0.0000
 20
0.0000
 30
0.0000
 40
0.2540
 41
0.2540
 70
0
  0
VERTEX
  8
16
 10
26.3702
 20
12.0898
 30
0.0000
 42
1.0000
  0
VERTEX
  8
16
 10
26.5498
 20
11.9102
 30
0.0000
  0
SEQEND
  8
0
  0
POLYLINE
  8
16
 66
1
 10
0.0000
 20
0.0000
 30
0.0000
 40
0.5080
 41
0.5080
 70
0
  0
VERTEX
  8
16
 10
26.4600
 20
11.0000
 30
0.0000
  0
VERTEX
  8
16
 10
26.4600
 20
12.0000
 30
0.0000
  0
SEQEND
  8
0
  0
POLYLINE
  8
16
 66
1
 10
0.0000
 20
0.0000
 30
0.0000
 40
0.2540
 41
0.2540
 70
0
  0
VERTEX
  8
16
 10
26.5870
 20
12.0000
 30
0.0000
 42
1.0000
  0
VERTEX
  8
16
 10
26.3330
 20
12.0000
 30
0.0000
  0
SEQEND
  8
0
  0
POLYLINE
  8
16
 66
1
 10
0.0000
 20
0.0000
 30
0.0000
 40
0.2540
 41
0.2540
 70
0
  0
VERTEX
  8
16
 10
26.3330
 20
11.0000
 30
0.0000
 42
1.0000
  0
VERTEX
  8
16
 10
26.5870
 20
11.0000
 30
0.0000
  0
SEQEND
  8
0
  0
POLYLINE
  8
16
 66
1
 10
0.0000
 20
0.0000
 30
0.0000
 40
0.5080
 41
0.5080
 70
0
  0
VERTEX
  8
16
 10
29.4600
 20
18.4600
 30
0.0000
  0
VERTEX
  8
16
 10
29.4200
 20
18.5000
 30
0.0000
  0
SEQEND
  8
0
  0
POLYLINE
  8
16
 66
1
 10
0.0000
 20
0.0000
 30
0.0000
 40
0.2540
 41
0.2540
 70
0
  0
VERTEX
  8
16
 10
29.5098
 20
18.5898
 30
0.0000
 42
1.0000
  0
VERTEX
  8
16
 10
29.3302
 20
18.4102
 30
0.0000
  0
SEQEND
  8
0
  0
POLYLINE
  8
16
 66
1
 10
0.0000
 20
0.0000
 30
0.0000
 40
0.2540
 41
0.2540
 70
0
  0
VERTEX
  8
16
 10
29.3702
 20
18.3702
 30
0.0000
 42
1.0000
  0
VERTEX
  8
16
 10
29.5498
 20
18.5498
 30
0.0000
  0
SEQEND
  8
0
  0
POLYLINE
  8
16
 66
1
 10
0.0000
 20
0.0000
 30
0.0000
 40
0.5080
 41
0.5080
 70
0
  0
VERTEX
  8
16
 10
29.4600
 20
15.0000
 30
0.0000
  0
VERTEX
  8
16
 10
29.4600
 20
18.4600
 30
0.0000
  0
SEQEND
  8
0
  0
POLYLINE
  8
16
 66
1
 10
0.0000
 20
0.0000
 30
0.0000
 40
0.2540
 41
0.2540
 70
0
  0
VERTEX
  8
16
 10
29.5870
 20
18.4600
 30
0.0000
 42
1.0000
  0
VERTEX
  8
16
 10
29.3330
 20
18.4600
 30
0.0000
  0
SEQEND
  8
0
  0
POLYLINE
  8
16
 66
1
 10
0.0000
 20
0.0000
 30
0.0000
 40
0.2540
 41
0.2540
 70
0
  0
VERTEX
  8
16
 10
29.3330
 20
15.0000
 30
0.0000
 42
1.0000
  0
VERTEX
  8
16
 10
29.5870
 20
15.0000
 30
0.0000
  0
SEQEND
  8
0
  0
POLYLINE
  8
16
 66
1
 10
0.0000
 20
0.0000
 30
0.0000
 40
0.5080
 41
0.5080
 70
0
  0
VERTEX
  8
16
 10
29.0000
 20
3.8400
 30
0.0000
  0
VERTEX
  8
16
 10
29.0000
 20
11.0000
 30
0.0000
  0
SEQEND
  8
0
  0
POLYLINE
  8
16
 66
1
 10
0.0000
 20
0.0000
 30
0.0000
 40
0.2540
 41
0.2540
 70
0
  0
VERTEX
  8
16
 10
29.1270
 20
11.0000
 30
0.0000
 42
1.0000
  0
VERTEX
  8
16
 10
28.8730
 20
11.0000
 30
0.0000
  0
SEQEND
  8
0
  0
POLYLINE
  8
16
 66
1
 10
0.0000
 20
0.0000
 30
0.0000
 40
0.2540
 41
0.2540
 70
0
  0
VERTEX
  8
16
 10
28.8730
 20
3.8400
 30
0.0000
 42
1.0000
  0
VERTEX
  8
16
 10
29.1270
 20
3.8400
 30
0.0000
  0
SEQEND
  8
0
  0
POLYLINE
  8
16
 66
1
 10
0.0000
 20
0.0000
 30
0.0000
 40
0.5080
 41
0.5080
 70
0
  0
VERTEX
  8
16
 10
28.1300
 20
2.9700
 30
0.0000
  0
VERTEX
  8
16
 10
29.0000
 20
3.8400
 30
0.0000
  0
SEQEND
  8
0
  0
POLYLINE
  8
16
 66
1
 10
0.0000
 20
0.0000
 30
0.0000
 40
0.2540
 41
0.2540
 70
0
  0
VERTEX
  8
16
 10
29.0898
 20
3.7502
 30
0.0000
 42
1.0000
  0
VERTEX
  8
16
 10
28.9102
 20
3.9298
 30
0.0000
  0
SEQEND
  8
0
  0
POLYLINE
  8
16
 66
1
 10
0.0000
 20
0.0000
 30
0.0000
 40
0.2540
 41
0.2540
 70
0
  0
VERTEX
  8
16
 10
28.0402
 20
3.0598
 30
0.0000
 42
1.0000
  0
VERTEX
  8
16
 10
28.2198
 20
2.8802
 30
0.0000
  0
SEQEND
  8
0
  0
POLYLINE
  8
16
 66
1
 10
0.0000
 20
0.0000
 30
0.0000
 40
0.5080
 41
0.5080
 70
0
  0
VERTEX
  8
16
 10
21.0400
 20
5.0600
 30
0.0000
  0
VERTEX
  8
16
 10
21.0400
 20
11.0000
 30
0.0000
  0
SEQEND
  8
0
  0
POLYLINE
  8
16
 66
1
 10
0.0000
 20
0.0000
 30
0.0000
 40
0.2540
 41
0.2540
 70
0
  0
VERTEX
  8
16
 10
21.1670
 20
11.0000
 30
0.0000
 42
1.0000
  0
VERTEX
  8
16
 10
20.9130
 20
11.0000
 30
0.0000
  0
SEQEND
  8
0
  0
POLYLINE
  8
16
 66
1
 10
0.0000
 20
0.0000
 30
0.0000
 40
0.2540
 41
0.2540
 70
0
  0
VERTEX
  8
16
 10
20.9130
 20
5.0600
 30
0.0000
 42
1.0000
  0
VERTEX
  8
16
 10
21.1670
 20
5.0600
 30
0.0000
  0
SEQEND
  8
0
  0
POLYLINE
  8
16
 66
1
 10
0.0000
 20
0.0000
 30
0.0000
 40
0.5080
 41
0.5080
 70
0
  0
VERTEX
  8
16
 10
21.0400
 20
5.0600
 30
0.0000
  0
VERTEX
  8
16
 10
23.1300
 20
2.9700
 30
0.0000
  0
SEQEND
  8
0
  0
POLYLINE
  8
16
 66
1
 10
0.0000
 20
0.0000
 30
0.0000
 40
0.2540
 41
0.2540
 70
0
  0
VERTEX
  8
16
 10
23.0402
 20
2.8802
 30
0.0000
 42
1.0000
  0
VERTEX
  8
16
 10
23.2198
 20
3.0598
 30
0.0000
  0
SEQEND
  8
0
  0
POLYLINE
  8
16
 66
1
 10
0.0000
 20
0.0000
 30
0.0000
 40
0.2540
 41
0.2540
 70
0
  0
VERTEX
  8
16
 10
21.1298
 20
5.1498
 30
0.0000
 42
1.0000
  0
VERTEX
  8
16
 10
20.9502
 20
4.9702
 30
0.0000
  0
SEQEND
  8
0
  0
POLYLINE
  8
16
 66
1
 10
0.0000
 20
0.0000
 30
0.0000
 40
0.5080
 41
0.5080
 70
0
  0
VERTEX
  8
16
 10
15.9600
 20
11.0000
 30
0.0000
  0
VERTEX
  8
16
 10
15.9600
 20
14.9600
 30
0.0000
  0
SEQEND
  8
0
  0
POLYLINE
  8
16
 66
1
 10
0.0000
 20
0.0000
 30
0.0000
 40
0.2540
 41
0.2540
 70
0
  0
VERTEX
  8
16
 10
16.0870
 20
14.9600
 30
0.0000
 42
1.0000
  0
VERTEX
  8
16
 10
15.8330
 20
14.9600
 30
0.0000
  0
SEQEND
  8
0
  0
POLYLINE
  8
16
 66
1
 10
0.0000
 20
0.0000
 30
0.0000
 40
0.2540
 41
0.2540
 70
0
  0
VERTEX
  8
16
 10
15.8330
 20
11.0000
 30
0.0000
 42
1.0000
  0
VERTEX
  8
16
 10
16.0870
 20
11.0000
 30
0.0000
  0
SEQEND
  8
0
  0
POLYLINE
  8
16
 66
1
 10
0.0000
 20
0.0000
 30
0.0000
 40
0.5080
 41
0.5080
 70
0
  0
VERTEX
  8
16
 10
15.9600
 20
14.9600
 30
0.0000
  0
VERTEX
  8
16
 10
15.9200
 20
15.0000
 30
0.0000
  0
SEQEND
  8
0
  0
POLYLINE
  8
16
 66
1
 10
0.0000
 20
0.0000
 30
0.0000
 40
0.2540
 41
0.2540
 70
0
  0
VERTEX
  8
16
 10
16.0098
 20
15.0898
 30
0.0000
 42
1.0000
  0
VERTEX
  8
16
 10
15.8302
 20
14.9102
 30
0.0000
  0
SEQEND
  8
0
  0
POLYLINE
  8
16
 66
1
 10
0.0000
 20
0.0000
 30
0.0000
 40
0.2540
 41
0.2540
 70
0
  0
VERTEX
  8
16
 10
15.8702
 20
14.8702
 30
0.0000
 42
1.0000
  0
VERTEX
  8
16
 10
16.0498
 20
15.0498
 30
0.0000
  0
SEQEND
  8
0
  0
POLYLINE
  8
16
 66
1
 10
0.0000
 20
0.0000
 30
0.0000
 40
0.5080
 41
0.5080
 70
0
  0
VERTEX
  8
16
 10
15.9200
 20
15.0000
 30
0.0000
  0
VERTEX
  8
16
 10
15.9200
 20
18.5000
 30
0.0000
  0
SEQEND
  8
0
  0
POLYLINE
  8
16
 66
1
 10
0.0000
 20
0.0000
 30
0.0000
 40
0.2540
 41
0.2540
 70
0
  0
VERTEX
  8
16
 10
16.0470
 20
18.5000
 30
0.0000
 42
1.0000
  0
VERTEX
  8
16
 10
15.7930
 20
18.5000
 30
0.0000
  0
SEQEND
  8
0
  0
POLYLINE
  8
16
 66
1
 10
0.0000
 20
0.0000
 30
0.0000
 40
0.2540
 41
0.2540
 70
0
  0
VERTEX
  8
16
 10
15.7930
 20
15.0000
 30
0.0000
 42
1.0000
  0
VERTEX
  8
16
 10
16.0470
 20
15.0000
 30
0.0000
  0
SEQEND
  8
0
  0
POLYLINE
  8
16
 66
1
 10
0.0000
 20
0.0000
 30
0.0000
 40
0.5080
 41
0.5080
 70
0
  0
VERTEX
  8
16
 10
15.0000
 20
18.5000
 30
0.0000
  0
VERTEX
  8
16
 10
10.0950
 20
23.4050
 30
0.0000
  0
SEQEND
  8
0
  0
POLYLINE
  8
16
 66
1
 10
0.0000
 20
0.0000
 30
0.0000
 40
0.2540
 41
0.2540
 70
0
  0
VERTEX
  8
16
 10
10.1848
 20
23.4948
 30
0.0000
 42
1.0000
  0
VERTEX
  8
16
 10
10.0052
 20
23.3152
 30
0.0000
  0
SEQEND
  8
0
  0
POLYLINE
  8
16
 66
1
 10
0.0000
 20
0.0000
 30
0.0000
 40
0.2540
 41
0.2540
 70
0
  0
VERTEX
  8
16
 10
14.9102
 20
18.4102
 30
0.0000
 42
1.0000
  0
VERTEX
  8
16
 10
15.0898
 20
18.5898
 30
0.0000
  0
SEQEND
  8
0
  0
POLYLINE
  8
16
 66
1
 10
0.0000
 20
0.0000
 30
0.0000
 40
0.5080
 41
0.5080
 70
0
  0
VERTEX
  8
16
 10
15.9200
 20
18.5000
 30
0.0000
  0
VERTEX
  8
16
 10
15.0000
 20
18.5000
 30
0.0000
  0
SEQEND
  8
0
  0
POLYLINE
  8
16
 66
1
 10
0.0000
 20
0.0000
 30
0.0000
 40
0.2540
 41
0.2540
 70
0
  0
VERTEX
  8
16
 10
15.0000
 20
18.6270
 30
0.0000
 42
1.0000
  0
VERTEX
  8
16
 10
15.0000
 20
18.3730
 30
0.0000
  0
SEQEND
  8
0
  0
POLYLINE
  8
16
 66
1
 10
0.0000
 20
0.0000
 30
0.0000
 40
0.2540
 41
0.2540
 70
0
  0
VERTEX
  8
16
 10
15.9200
 20
18.3730
 30
0.0000
 42
1.0000
  0
VERTEX
  8
16
 10
15.9200
 20
18.6270
 30
0.0000
  0
SEQEND
  8
0
  0
POLYLINE
  8
16
 66
1
 10
0.0000
 20
0.0000
 30
0.0000
 40
0.5080
 41
0.5080
 70
0
  0
VERTEX
  8
16
 10
7.0000
 20
15.9200
 30
0.0000
  0
VERTEX
  8
16
 10
10.0950
 20
19.0150
 30
0.0000
  0
SEQEND
  8
0
  0
POLYLINE
  8
16
 66
1
 10
0.0000
 20
0.0000
 30
0.0000
 40
0.2540
 41
0.2540
 70
0
  0
VERTEX
  8
16
 10
10.1848
 20
18.9252
 30
0.0000
 42
1.0000
  0
VERTEX
  8
16
 10
10.0052
 20
19.1048
 30
0.0000
  0
SEQEND
  8
0
  0
POLYLINE
  8
16
 66
1
 10
0.0000
 20
0.0000
 30
0.0000
 40
0.2540
 41
0.2540
 70
0
  0
VERTEX
  8
16
 10
6.9102
 20
16.0098
 30
0.0000
 42
1.0000
  0
VERTEX
  8
16
 10
7.0898
 20
15.8302
 30
0.0000
  0
SEQEND
  8
0
  0
POLYLINE
  8
16
 66
1
 10
0.0000
 20
0.0000
 30
0.0000
 40
0.5080
 41
0.5080
 70
0
  0
VERTEX
  8
16
 10
10.0950
 20
19.0150
 30
0.0000
  0
VERTEX
  8
16
 10
10.0950
 20
19.5950
 30
0.0000
  0
SEQEND
  8
0
  0
POLYLINE
  8
16
 66
1
 10
0.0000
 20
0.0000
 30
0.0000
 40
0.2540
 41
0.2540
 70
0
  0
VERTEX
  8
16
 10
10.2220
 20
19.5950
 30
0.0000
 42
1.0000
  0
VERTEX
  8
16
 10
9.9680
 20
19.5950
 30
0.0000
  0
SEQEND
  8
0
  0
POLYLINE
  8
16
 66
1
 10
0.0000
 20
0.0000
 30
0.0000
 40
0.2540
 41
0.2540
 70
0
  0
VERTEX
  8
16
 10
9.9680
 20
19.0150
 30
0.0000
 42
1.0000
  0
VERTEX
  8
16
 10
10.2220
 20
19.0150
 30
0.0000
  0
SEQEND
  8
0
  0
POLYLINE
  8
16
 66
1
 10
0.0000
 20
0.0000
 30
0.0000
 40
0.5080
 41
0.5080
 70
0
  0
VERTEX
  8
16
 10
7.0000
 20
12.9300
 30
0.0000
  0
VERTEX
  8
16
 10
7.0000
 20
15.9200
 30
0.0000
  0
SEQEND
  8
0
  0
POLYLINE
  8
16
 66
1
 10
0.0000
 20
0.0000
 30
0.0000
 40
0.2540
 41
0.2540
 70
0
  0
VERTEX
  8
16
 10
7.1270
 20
15.9200
 30
0.0000
 42
1.0000
  0
VERTEX
  8
16
 10
6.8730
 20
15.9200
 30
0.0000
  0
SEQEND
  8
0
  0
POLYLINE
  8
16
 66
1
 10
0.0000
 20
0.0000
 30
0.0000
 40
0.2540
 41
0.2540
 70
0
  0
VERTEX
  8
16
 10
6.8730
 20
12.9300
 30
0.0000
 42
1.0000
  0
VERTEX
  8
16
 10
7.1270
 20
12.9300
 30
0.0000
  0
SEQEND
  8
0
  0
POLYLINE
  8
16
 66
1
 10
0.0000
 20
0.0000
 30
0.0000
 40
0.5080
 41
0.5080
 70
0
  0
VERTEX
  8
16
 10
7.4200
 20
12.5100
 30
0.0000
  0
VERTEX
  8
16
 10
7.0000
 20
12.9300
 30
0.0000
  0
SEQEND
  8
0
  0
POLYLINE
  8
16
 66
1
 10
0.0000
 20
0.0000
 30
0.0000
 40
0.2540
 41
0.2540
 70
0
  0
VERTEX
  8
16
 10
7.0898
 20
13.0198
 30
0.0000
 42
1.0000
  0
VERTEX
  8
16
 10
6.9102
 20
12.8402
 30
0.0000
  0
SEQEND
  8
0
  0
POLYLINE
  8
16
 66
1
 10
0.0000
 20
0.0000
 30
0.0000
 40
0.2540
 41
0.2540
 70
0
  0
VERTEX
  8
16
 10
7.3302
 20
12.4202
 30
0.0000
 42
1.0000
  0
VERTEX
  8
16
 10
7.5098
 20
12.5998
 30
0.0000
  0
SEQEND
  8
0
  0
POLYLINE
  8
16
 66
1
 10
0.0000
 20
0.0000
 30
0.0000
 40
0.5080
 41
0.5080
 70
0
  0
VERTEX
  8
16
 10
10.4200
 20
27.0000
 30
0.0000
  0
VERTEX
  8
16
 10
10.4200
 20
26.8900
 30
0.0000
  0
SEQEND
  8
0
  0
POLYLINE
  8
16
 66
1
 10
0.0000
 20
0.0000
 30
0.0000
 40
0.2540
 41
0.2540
 70
0
  0
VERTEX
  8
16
 10
10.2930
 20
26.8900
 30
0.0000
 42
1.0000
  0
VERTEX
  8
16
 10
10.5470
 20
26.8900
 30
0.0000
  0
SEQEND
  8
0
  0
POLYLINE
  8
16
 66
1
 10
0.0000
 20
0.0000
 30
0.0000
 40
0.2540
 41
0.2540
 70
0
  0
VERTEX
  8
16
 10
10.5470
 20
27.0000
 30
0.0000
 42
1.0000
  0
VERTEX
  8
16
 10
10.2930
 20
27.0000
 30
0.0000
  0
SEQEND
  8
0
  0
POLYLINE
  8
16
 66
1
 10
0.0000
 20
0.0000
 30
0.0000
 40
0.5080
 41
0.5080
 70
0
  0
VERTEX
  8
16
 10
10.4200
 20
26.8900
 30
0.0000
  0
VERTEX
  8
16
 10
13.9050
 20
23.4050
 30
0.0000
  0
SEQEND
  8
0
  0
POLYLINE
  8
16
 66
1
 10
0.0000
 20
0.0000
 30
0.0000
 40
0.2540
 41
0.2540
 70
0
  0
VERTEX
  8
16
 10
13.8152
 20
23.3152
 30
0.0000
 42
1.0000
  0
VERTEX
  8
16
 10
13.9948
 20
23.4948
 30
0.0000
  0
SEQEND
  8
0
  0
POLYLINE
  8
16
 66
1
 10
0.0000
 20
0.0000
 30
0.0000
 40
0.2540
 41
0.2540
 70
0
  0
VERTEX
  8
16
 10
10.5098
 20
26.9798
 30
0.0000
 42
1.0000
  0
VERTEX
  8
16
 10
10.3302
 20
26.8002
 30
0.0000
  0
SEQEND
  8
0
  0
ENDSEC
  0
EOF
